<?xml version="1.0" encoding="utf-8"?>
<!-- Generator: Adobe Illustrator 26.0.1, SVG Export Plug-In . SVG Version: 6.00 Build 0)  -->
<svg version="1.1" id="Layer_1" xmlns="http://www.w3.org/2000/svg" xmlns:xlink="http://www.w3.org/1999/xlink" x="0px" y="0px"
	 viewBox="57 366 832 268" style="enable-background:new 57 366 832 268;" xml:space="preserve">
<style type="text/css">
	.st0{fill-rule:evenodd;clip-rule:evenodd;}
	.st1{fill-rule:evenodd;clip-rule:evenodd;fill:#C43B31;}
	.st2{fill:#FFFFFF;}
	.st3{fill:#C43B31;}
	.st4{opacity:0.06;}
	.st5{opacity:0.04;}
	.st6{opacity:0.33;}
	.st7{opacity:0.26;fill:#FFFFFF;}
	.st8{fill:#DAE0E0;}
</style>
<g>
	<path class="st3" d="M251.31,398.1c2.63-0.31,5.25-0.63,7.85-0.94c3.18-0.37,6.35-0.74,9.51-1.1c0.34-0.04,0.86,0.14,1.07,0.4
		c0.57,0.72,1.01,1.55,1.64,2.53c-2.65,0.46-5.18,0.91-7.68,1.35c-0.83,0.15-1.66,0.3-2.49,0.44c-1.63,0.29-3.24,0.59-4.87,0.87
		C253.82,402.11,251.94,400.81,251.31,398.1z"/>
	<g>
		<g>
			<g>
				<path class="st3" d="M191.14,376.21c-68.26,0-123.81,55.54-123.81,123.78c0,8.5,0.86,16.81,2.5,24.83l7.37-5.49
					c-1.08-6.29-1.64-12.75-1.64-19.34c0-63.72,51.86-115.55,115.57-115.55c13.13,0,25.74,2.21,37.52,6.24l6.4-6.4
					C221.43,379.06,206.61,376.21,191.14,376.21z M314.6,491.19l-7.99,4.79c0.05,1.34,0.08,2.66,0.08,4.01
					c0,63.74-51.83,115.57-115.55,115.57c-24.1,0-46.48-7.4-65.04-20.06l-8.96,3.69c20.63,15.44,46.26,24.61,73.99,24.61
					c68.24,0,123.78-55.54,123.78-123.8C314.92,497.03,314.81,494.1,314.6,491.19z"/>
			</g>
			<path class="st3" d="M264.06,404.35c-0.92,0.23-1.84,0.43-2.76,0.66c-2.37,0.6-3.52,0.05-4.81-2.42c2.82-0.56,5.6-1.11,8.35-1.66
				c2.17-0.42,4.33-0.83,6.49-1.24c0.29-0.06,0.74,0.12,0.93,0.36c0.48,0.57,0.85,1.22,1.37,2c-1.91,0.46-3.76,0.92-5.61,1.36
				C266.69,403.73,265.38,404.03,264.06,404.35z"/>
			<path class="st3" d="M261.17,406.08c0.49-0.17,0.85-0.32,1.23-0.41c2.15-0.55,4.3-1.1,6.46-1.64c0.99-0.26,1.99-0.5,2.98-0.75
				c2.55-0.64,2.55-0.62,3.84,1.96c-1.36,0.37-2.71,0.74-4.03,1.1c-2.44,0.68-4.84,1.33-7.27,1.88
				C262.88,408.58,262.09,407.26,261.17,406.08z"/>
			<path class="st3" d="M265.53,408.77c2.45-0.67,4.76-1.32,7.05-1.92c1.01-0.27,2.02-0.53,3.02-0.78c0.41-0.1,1.06,0.28,1.43,0.63
				c0.42,0.39,0.65,1,1.07,1.68c-1,0.27-1.96,0.55-2.93,0.81c-2.18,0.62-4.31,1.21-6.46,1.69
				C267.32,411.17,266.49,409.96,265.53,408.77z"/>
			<path class="st3" d="M258.42,396.14c-2.26,0.23-4.53,0.46-6.79,0.7c-2.94,0.31-4.83-0.87-5.64-3.64
				c2.19-0.16,4.35-0.32,6.51-0.47c0.1-0.01,0.22-0.01,0.32-0.02c6.07-0.43,12.14-0.87,18.22-1.24c0.48-0.03,1.23,0.26,1.47,0.65
				c2.99,4.92,5.92,9.88,8.87,14.83c0.09,0.15,0.14,0.33,0.25,0.58c-0.51,0.15-0.97,0.26-1.39,0.41c-0.95,0.34-1.5,0.04-2.04-0.84
				c-2.31-3.79-4.69-7.54-7.11-11.26c-0.29-0.42-1.05-0.82-1.54-0.78C265.83,395.38,262.12,395.75,258.42,396.14z"/>
			<path class="st3" d="M279.49,413.39c6.08-1.18,12.19-2.26,18.57-3.44c-1.92,6.46-3.77,12.66-5.65,18.94
				c-0.04,0.12-0.08,0.24-0.11,0.36c-2.85-0.14-5.63-0.25-8.4-0.45c-0.64-0.05-1.1,0.06-1.49,0.39c-0.2,0.16-0.38,0.38-0.57,0.66
				c-2.22,3.4-4.55,6.74-6.75,10.15c-0.35,0.52-0.48,1.41-0.32,2.03c1.01,3.69,2.14,7.34,3.18,11.02c0.11,0.39,0.03,1.11-0.24,1.31
				c-7.63,5.55-15.3,11.07-23.27,16.81c0.28-0.7,0.4-1.08,0.58-1.43c3.06-6.08,6.12-12.14,9.14-18.23c0.25-0.49,0.32-1.17,0.22-1.73
				c-1.53-8.46-3.09-16.9-4.68-25.34c-0.17-0.88,0-1.36,0.76-1.83c3.36-2.14,6.77-4.24,10.04-6.51c0.1-0.07,0.2-0.13,0.3-0.21
				c2.38-1.67,5.12-1.8,7.78-2.31C278.89,413.5,279.18,413.44,279.49,413.39z"/>
			<path class="st3" d="M300.68,408.31c-0.01,0.12-0.03,0.24-0.05,0.35c-3.57,0.62-7.15,1.24-10.72,1.84
				c-3.81,0.63-7.62,1.24-11.43,1.87c-1.41,0.23-2.83,0.46-4.24,0.69c-2.23,0.37-2.23,0.38-3.36-1.94c1.65-0.44,3.29-0.87,4.95-1.31
				c2.37-0.63,4.75-1.27,7.17-1.9c-1.42-2.46-2.81-4.85-4.35-7.52c3.79,0.23,7.4-1.07,10.86,1.24
				C293.12,404.03,296.95,406.1,300.68,408.31z"/>
			<polygon class="st3" points="303.3,472.16 304.63,473.37 303.72,473.86 300.42,475.64 300.29,475.71 300.89,476.27 300.5,476.7 
				295.24,471.92 295.73,471.37 296.18,471.77 297.87,467.21 299.68,468.85 297.45,473.04 298.77,474.23 302.73,471.63 			"/>
			<path class="st3" d="M314.54,469.3l-1.04,0.38l-1.82,0.68l-0.32,0.12l-0.29,0.1l-3.77,1.4l-0.63,0.24l0.66,0.6l-0.7,0.77
				l-3.87-3.53l-5.76-5.25l1.09-1.2l0.99,0.89l0.79-3.64l0.09-0.41l0.14-0.7l0.41-1.9l0.29-1.06l1.7,1.54
				c-0.3,1.16-0.3,2.41,0.01,3.6c0.1,0.41,0.24,0.81,0.41,1.21c0.24,0.56,0.55,1.09,0.91,1.59c0.3,0.55,0.67,0.99,1.07,1.34
				c0.33,0.29,0.68,0.51,1.05,0.69c0.13,0.09,0.27,0.19,0.41,0.27c0.52,0.31,1.08,0.56,1.64,0.74c0.41,0.12,0.83,0.23,1.24,0.29
				c0.5,0.07,1.02,0.1,1.52,0.07c0.71-0.02,1.41-0.16,2.07-0.4L314.54,469.3z"/>
			<path class="st3" d="M315.13,463.17c-0.45,0.53-1.09,1.12-2.01,1.64c0,0,0.72,0.05,1.52-0.58c0,0-1.04,2.32-3.19,2.26
				c-0.37-0.01-0.77-0.04-1.17-0.09c-1.22-0.15-2.53-0.46-3.34-0.68c-0.53-0.13-0.99-0.47-1.25-0.95c-0.64-1.09-1.75-3.19-2.04-4.96
				c-0.09-0.51,0.08-1.05,0.45-1.42c0.53-0.53,1.35-1.42,1.74-2.18c0.47-0.91,0.59-1.14,0.62-1.19c0-0.01,0-0.01,0-0.01l0.01-0.01
				c0,0,0,0.01,0,0.03c-0.02,0.4-0.15,4.38,1.15,6.48c0.66,1.07,1.13,1.1,1.45,0.84l0.09-0.09c0.3-0.34,0.35-0.83,0.17-1.24
				c-0.57-1.35-2.1-5.25-1.37-6.68c0.87-1.76,2.51-3.41,7.31-3.27C315.49,451.51,318.76,458.84,315.13,463.17z"/>
			<path class="st3" d="M81.28,558.72c-0.36-0.5-0.31-1.3-0.22-2.12c0.06-0.51,0.13-1.04,0.13-1.51c0.2-0.02,0.4-0.04,0.61-0.06
				c2.38,3.29,4.78,6.55,7.06,9.92c0.3,0.44-0.14,1.4-0.25,2.12c-0.15,0.01-0.3,0.02-0.45,0.03c-1.2-1.43-2.44-2.83-3.64-4.26
				c0-0.01-0.01-0.01-0.01-0.02C83.39,561.49,82.29,560.13,81.28,558.72z"/>
			<path class="st3" d="M86.58,569.87c0.3,0.32-0.14,1.3-0.29,2.31c-1.21-1.05-2.02-1.84-2.92-2.51c-1.3-0.96-1.73-2.12-1.11-3.87
				C83.77,567.19,85.28,568.43,86.58,569.87z"/>
			<path class="st3" d="M87.35,569.66c-1.75-1.67-3.09-3.16-4.65-4.37c-1.64-1.28-1.76-2.67-0.88-4.56
				c1.48,1.64,2.96,3.22,4.38,4.85c0,0.01,0.01,0.01,0.01,0.02c0.52,0.6,1.03,1.19,1.53,1.81c0.1,0.13,0.1,0.36,0.04,0.64
				C87.69,568.49,87.46,569.09,87.35,569.66z"/>
			<path class="st3" d="M82.79,555.35c-1.59-2.04-2.2-4.06-1.48-6.51c0.17-0.59,0.24-1.2,0.41-2.15c0.41,0.62,0.7,1,0.93,1.41
				c2.43,4.33,4.75,8.7,7.28,12.96c0.91,1.51,0.4,2.5-0.5,3.76C87.18,561.57,85.14,558.33,82.79,555.35z"/>
			<path class="st3" d="M81.87,544.76c-0.36-0.67-0.44-1.63-0.31-2.39c0.21-1.1,0.48-2.2,0.79-3.36c0,0,0,0,0-0.01
				c0.21-0.76,0.42-1.56,0.64-2.42c0.56,1.14,0.99,1.96,1.37,2.81c3.36,7.45,6.71,14.9,10.09,22.34c0.29,0.64,0.35,1.14,0.13,1.69
				c-0.06,0.16-0.15,0.34-0.28,0.51c-1.51,2.32-2.99,4.66-4.52,7.07c-0.65,1.03-1.32,2.08-2,3.15c-0.61-0.57-1.04-0.99-1.53-1.45
				c0.69-1.32,1.35-2.62,2.02-3.9c0.87-1.7,1.74-3.35,2.62-5.01c0.45-0.83,0.46-1.49,0-2.33C87.84,555.91,84.82,550.36,81.87,544.76
				z"/>
			<path class="st3" d="M260.94,449.74c0.05,0.6-0.05,1.25-0.32,1.76c-3.84,7.23-7.73,14.5-11.67,21.72
				c-0.23,0.42-0.65,0.79-1.07,1.02c-3.38,1.95-6.72,3.94-10.14,5.84c-1.34,0.74-2.69,1.48-4.08,2.18
				c-2.41,1.21-5.14,1.76-7.78,2.55c-3.24,0.93-6.53,1.81-9.82,2.64c-0.56,0.14-1.25,0.14-1.71-0.09
				c-5.19-2.64-10.28-5.37-15.42-8.1c-0.18-0.09-0.32-0.19-0.56-0.32c7.55-12.55,15.01-25.06,22.74-37.89
				c-1.76,0.56-3.2,0.97-4.63,1.39c-7.22,2.22-14.36,4.63-21.68,6.53c-3.24,0.83-6.76,0.74-10.14,0.93
				c-1.07,0.05-1.76,0.23-2.22,1.3c-1.62,3.94-4.63,5.65-8.85,6.48c-10.1,1.9-20.05,4.35-30.06,6.53c-0.88,0.19-1.53,0.51-1.62,1.53
				c-0.28,2.41-1.48,4.35-2.96,6.21c-0.83,1.07-1.67,2.18-2.36,3.34c-0.56,1.07-1.3,0.69-2.04,0.42c-0.88-0.32-0.42-0.97-0.28-1.53
				c0.32-1.2,0.65-2.41,1.02-3.61c-0.14-0.09-0.23-0.19-0.32-0.28c-3.8,1.94-7.6,3.89-11.53,5.93c-0.69-1.53-1.34-2.78-0.93-4.58
				c0.6-2.32,1.76-3.61,3.8-4.82c14.08-8.24,28.16-16.63,42.15-25.1c2.59-1.58,5.42-1.3,8.15-1.95c0.69-0.14,1.53-0.42,1.9-0.93
				c3.01-3.75,6.9-5.97,11.35-7.59c6.44-2.36,12.74-5.09,19.08-7.6c1.39-0.51,2.92-0.69,4.35-0.93c0.74-0.14,1.53-0.19,2.27-0.14
				c1.76,0.19,3.38,0.05,4.91-0.42c1.53-0.51,2.92-1.3,4.26-2.45c0.32-0.28,0.93-0.37,1.44-0.42c7.13-0.23,14.27-0.46,21.4-0.65
				c0.56-0.05,1.16,0.09,1.67,0.28c2.5,0.97,5,1.95,7.5,3.01c0.42,0.19,0.93,0.79,1.02,1.25C258.86,432,259.88,440.89,260.94,449.74
				z"/>
			<path class="st3" d="M146.94,514.86c3.26-2.11,6.38-4.15,9.51-6.17c12.38-8.01,24.77-16,37.13-24.04
				c1.13-0.74,2.05-0.9,3.35-0.36c5.7,2.4,11.46,4.66,17.18,7.03c0.92,0.38,1.67,0.36,2.55-0.05c2.81-1.33,5.65-2.59,8.56-3.92
				c5.14,7.94,10.21,15.78,15.35,23.71c-0.4,0.24-0.7,0.44-1.03,0.59c-9.67,4.52-19.37,8.99-28.99,13.6
				c-2.7,1.29-5.57,1.38-8.4,1.79c-7.25,1.07-14.51,2.01-21.77,2.98c-0.53,0.07-1.15,0.03-1.62-0.19
				c-10.45-4.85-20.89-9.73-31.33-14.61C147.31,515.18,147.21,515.07,146.94,514.86z"/>
			<path class="st3" d="M157.57,579.26c5.3-4.74,10.61-9.48,15.98-14.28c1.45,0.93,2.88,1.75,4.19,2.74
				c0.91,0.68,1.56,0.63,2.5,0.02c10.26-6.67,20.55-13.3,30.82-19.94c4.65-3.01,4.64-2.99,10.33-2.1c3.59,0.56,7.2,1.06,10.8,1.58
				c0.41,0.06,0.83,0.05,1.25,0.07c0.21-1.34-0.16-2.18-1.54-2.36c-4.97-0.62-8.57-3.43-11.81-7.04c-2.81-3.13-5.94-5.95-8.93-8.92
				c-0.33-0.32-0.62-0.67-1.07-1.15c10.37-4.54,20.59-9.02,30.96-13.56c0.9,2.27,1.79,4.49,2.66,6.71
				c3.4,8.71,6.65,17.48,10.28,26.09c1.33,3.16-0.3,5.1-1.73,7.31c-0.23,0.35-0.9,0.45-1.39,0.58
				c-30.15,8.22-60.31,16.43-90.47,24.62C159.49,579.88,158.46,580.72,157.57,579.26z"/>
			<path class="st3" d="M175.35,530.65c-1.44,0.88-2.69,1.62-3.94,2.36c-11.07,6.44-22.28,12.78-33.3,19.36
				c-1.85,1.07-3.66,2.18-5.46,3.29c-9.17,5.56-18.02,11.67-27,17.51c-0.83,0.56-1.67,1.11-2.5,1.67c-2.32,1.53-4.63,3.06-6.95,4.54
				c-9.12,5.97-17.12,11.04-26.24,17.06c-1.34,0.88-1.99,0.6-2.83-0.74c3.2-4.77,5.21-8.59,8.36-13.36c1.9-2.92,3.89-5.79,5.74-8.75
				c0.56-0.83,0.97-0.79,1.76-0.42c1.57,0.74,3.24,1.48,4.91,2.27l2.64-3.33c1.02-1.3,2.04-2.55,3.01-3.8
				c0.79-0.97,1.53-1.94,2.32-2.92v-0.05c3.38-4.21,6.72-8.48,10.14-12.69c0.42-0.56,1.11-1.02,1.81-1.2
				c4.54-1.44,9.12-2.73,13.71-4.12c0.56-0.18,1.16-0.6,1.53-1.07c2.13-2.96,4.12-6.02,6.3-8.94c0.23-0.32,0.51-0.65,0.79-0.93
				c0.93-1.11,2.04-2.18,3.06-3.2c4.86-4.95,9.77-9.86,14.73-14.77c0.28-0.28,0.93-0.51,1.25-0.37
				C157.85,522.17,166.46,526.34,175.35,530.65z"/>
			<path class="st3" d="M298.06,409.96c-1.92,6.46-3.77,12.66-5.65,18.94c-0.04,0.12-0.08,0.24-0.11,0.36
				c-2.85-0.14-5.63-0.25-8.4-0.45c-0.64-0.05-1.1,0.06-1.49,0.39c-0.2,0.16-0.38,0.38-0.57,0.66c-2.22,3.4-4.55,6.74-6.75,10.15
				c-0.35,0.52-0.48,1.41-0.32,2.03c1.01,3.69,2.14,7.34,3.18,11.02c0.11,0.39,0.03,1.11-0.24,1.31
				c-7.63,5.55-15.3,11.07-23.27,16.81c0.28-0.7,0.4-1.08,0.58-1.43c3.06-6.08,6.12-12.14,9.14-18.23c0.25-0.49,0.32-1.17,0.22-1.73
				c-1.53-8.46-3.09-16.9-4.68-25.34c-0.17-0.88,0-1.36,0.76-1.83c3.36-2.14,6.77-4.24,10.04-6.51c0.1-0.07,0.2-0.13,0.3-0.21
				c2.38-1.67,5.12-1.8,7.78-2.31c0.31-0.06,0.61-0.12,0.92-0.18C285.57,412.21,291.68,411.13,298.06,409.96z"/>
			<path class="st3" d="M293.45,483.36c0.42,0.28,0.79,0.51,1.34,0.83c-1.71,2.45-3.43,4.86-5.19,7.41
				c-1.44-0.79-2.73-1.48-4.21-2.32c0.28-0.32,0.46-0.65,0.74-0.97c0.19-0.28,0.42-0.56,0.6-0.83c0.14-0.19,0.28-0.37,0.37-0.56
				c0.32-0.42,0.65-0.83,0.97-1.25c0.09-0.14,0.19-0.28,0.28-0.42c0.65-0.88,1.25-1.71,1.9-2.59c-0.42-0.88-0.93-0.51-1.48-0.05
				l-0.14,0.14c0,0,0,0-0.05,0c-1.76,1.48-3.52,2.96-5.28,4.35c-0.37,0.28-0.93,0.56-1.39,0.56c-13.99-0.32-28.02-0.65-42.19-1.02
				c-1.81-0.05-3.61-0.09-5.37-0.14c0.46-0.37,0.69-0.6,0.97-0.79c1.16-0.69,2.32-1.43,3.47-2.18c4.03-2.55,8.06-5.09,12.13-7.6
				c0.56-0.37,1.39-0.56,2.08-0.42c9.4,1.71,18.8,3.52,28.25,5.23c0.83,0.19,1.85,0,2.64-0.28c2.32-0.83,4.54-1.85,6.9-2.82
				c0.23,0.37,0.42,0.74,0.6,1.11c1.99-3.06,3.57-5.83,3.57-5.83l1.39,1.25l-3.38,5.09l4.86-3.71l1.11,1.07
				c-0.93,0.51-3.57,2.64-6.07,4.77c0.32,0.6,0.65,1.16,0.97,1.76L293.45,483.36z"/>
			<path class="st3" d="M300.68,408.31c-0.01,0.12-0.03,0.24-0.05,0.35c-3.57,0.62-7.15,1.24-10.72,1.84
				c-3.81,0.63-7.62,1.24-11.43,1.87c-1.41,0.23-2.83,0.46-4.24,0.69c-2.23,0.37-2.23,0.38-3.36-1.94c1.65-0.44,3.29-0.87,4.95-1.31
				c2.37-0.63,4.75-1.27,7.17-1.9c-1.42-2.46-2.81-4.85-4.35-7.52c3.79,0.23,7.4-1.07,10.86,1.24
				C293.12,404.03,296.95,406.1,300.68,408.31z"/>
			<path class="st3" d="M281.62,407.52c-0.51,0.15-0.97,0.26-1.39,0.41c-0.95,0.34-1.5,0.04-2.04-0.84
				c-2.31-3.79-4.69-7.54-7.11-11.26c-0.29-0.42-1.05-0.82-1.54-0.78c-3.71,0.34-7.43,0.71-11.13,1.1c-2.26,0.23-4.53,0.46-6.79,0.7
				c-2.94,0.31-4.83-0.87-5.64-3.64c2.19-0.16,4.35-0.32,6.51-0.47c0.1-0.01,0.22-0.01,0.32-0.02c6.07-0.43,12.14-0.87,18.22-1.24
				c0.48-0.03,1.23,0.26,1.47,0.65c2.99,4.92,5.92,9.88,8.87,14.83C281.47,407.1,281.52,407.27,281.62,407.52z"/>
			<path class="st3" d="M94.58,563.42c-0.06,0.16-0.15,0.34-0.28,0.51c-1.51,2.32-2.99,4.66-4.52,7.07c-0.65,1.03-1.32,2.08-2,3.15
				c-0.61-0.57-1.04-0.99-1.53-1.45c0.69-1.32,1.35-2.62,2.02-3.9c0.87-1.7,1.74-3.35,2.62-5.01c0.45-0.83,0.46-1.49,0-2.33
				c-3.05-5.54-6.08-11.1-9.03-16.69c-0.36-0.67-0.44-1.63-0.31-2.39c0.21-1.1,0.48-2.2,0.79-3.36c0,0,0,0,0-0.01
				c0.21-0.76,0.42-1.56,0.64-2.42c0.56,1.14,0.99,1.96,1.37,2.81c3.36,7.45,6.71,14.9,10.09,22.34
				C94.74,562.37,94.8,562.88,94.58,563.42z"/>
			<path class="st3" d="M179.05,567.4c-0.34-0.56-0.63-1.04-0.96-1.57c2.48-2.12,4.89-4.22,7.37-6.26c0.67-0.55,0.86-1.09,0.74-1.94
				c-0.81-5.56-1.59-11.11-2.3-16.68c-0.1-0.76,0.12-1.69,0.52-2.34c0.88-1.43,1.98-2.73,3.26-4.45c0.1,1.09,0.17,1.8,0.22,2.51
				c0.46,7.3,0.9,14.61,1.41,21.91c0.08,1.12-0.23,1.79-1.17,2.43c-2.62,1.77-5.16,3.66-7.73,5.5
				C179.98,566.79,179.55,567.06,179.05,567.4z"/>
			<path class="st3" d="M284.01,489.84c-2.45,2.64-4.86,5.19-7.22,7.73c-3.57,3.8-7.18,7.64-10.74,11.49
				c-0.65,0.7-1.3,1.39-1.9,2.09c-0.83,0.83-1.44,1.02-2.22-0.14c0.51-0.6,1.02-1.16,1.53-1.71c6.25-6.85,12.55-13.76,18.94-20.75
				C283.03,489.06,283.5,489.43,284.01,489.84z"/>
			<path class="st3" d="M89.43,564.82c-2.25-3.25-4.29-6.49-6.63-9.47c-1.59-2.04-2.2-4.06-1.48-6.51c0.17-0.59,0.24-1.2,0.41-2.15
				c0.41,0.62,0.7,1,0.93,1.41c2.43,4.33,4.75,8.7,7.28,12.96C90.84,562.57,90.33,563.56,89.43,564.82z"/>
			<path class="st3" d="M183.7,560.08c-0.98-3.64-1.83-7.26-2.96-10.79c-0.57-1.8-0.44-3.25,0.75-4.68c0.53-0.64,0.93-1.39,1.6-2.39
				c0.4,2.43,0.76,4.52,1.09,6.62c0.42,2.7,0.69,5.43,1.26,8.09C185.79,558.59,185.07,559.36,183.7,560.08z"/>
			<path class="st3" d="M88.62,567.06c-0.15,0.01-0.3,0.02-0.45,0.03c-1.2-1.43-2.44-2.83-3.64-4.26c0-0.01-0.01-0.01-0.01-0.02
				c-1.12-1.33-2.22-2.68-3.23-4.09c-0.36-0.5-0.31-1.3-0.22-2.12c0.06-0.51,0.13-1.04,0.13-1.51c0.2-0.02,0.4-0.04,0.61-0.06
				c2.38,3.29,4.78,6.55,7.06,9.92C89.16,565.39,88.72,566.34,88.62,567.06z"/>
			<path class="st3" d="M179.99,549.01c0.88,3.03,1.7,5.86,2.53,8.7c0.12,0.41,0.17,0.84,0.35,1.22c0.64,1.32,0.31,2.22-1.16,2.75
				c-1.15-3.02-2.36-6.03-3.41-9.09c-0.17-0.5,0.26-1.27,0.54-1.86C179.09,550.19,179.5,549.72,179.99,549.01z"/>
			<path class="st3" d="M87.78,568.05c-0.09,0.44-0.32,1.04-0.43,1.6c-1.75-1.67-3.09-3.16-4.65-4.37
				c-1.64-1.28-1.76-2.67-0.88-4.56c1.48,1.64,2.96,3.22,4.38,4.85c0,0.01,0.01,0.01,0.01,0.02c0.52,0.6,1.03,1.19,1.53,1.81
				C87.84,567.55,87.84,567.77,87.78,568.05z"/>
			<path class="st3" d="M178.08,554.21c1.11,2.65,2.21,5.28,3.33,7.95c-0.43,0.41-0.84,0.8-1.44,1.37c-0.9-1.71-1.64-3.37-2.6-4.89
				C176.32,556.99,176.17,555.58,178.08,554.21z"/>
			<path class="st3" d="M86.29,572.19c-1.21-1.05-2.02-1.84-2.92-2.51c-1.3-0.96-1.73-2.12-1.11-3.87c1.51,1.38,3.02,2.62,4.32,4.06
				C86.88,570.19,86.44,571.17,86.29,572.19z"/>
			<path class="st3" d="M176.31,558.24c1.13,1.96,2.12,3.46,2.85,5.09c0.2,0.46-0.38,1.26-0.6,1.91c-0.19-0.01-0.37-0.01-0.56-0.02
				c-0.84-1.44-1.83-2.83-2.45-4.36C175.33,560.28,175.96,559.36,176.31,558.24z"/>
			<g>
				<path class="st3" d="M315.13,463.17c-0.45,0.53-1.09,1.12-2.01,1.64c0,0,0.72,0.05,1.52-0.58c0,0-1.04,2.32-3.19,2.26
					c-0.37-0.01-0.77-0.04-1.17-0.09c-1.22-0.15-2.53-0.46-3.34-0.68c-0.53-0.13-0.99-0.47-1.25-0.95
					c-0.64-1.09-1.75-3.19-2.04-4.96c-0.09-0.51,0.08-1.05,0.45-1.42c0.53-0.53,1.35-1.42,1.74-2.18c0.47-0.91,0.59-1.14,0.62-1.19
					c0-0.01,0-0.01,0-0.01l0.01-0.01c0,0,0,0.01,0,0.03c-0.02,0.4-0.15,4.38,1.15,6.48c0.66,1.07,1.13,1.1,1.45,0.84l0.09-0.09
					c0.3-0.34,0.35-0.83,0.17-1.24c-0.57-1.35-2.1-5.25-1.37-6.68c0.87-1.76,2.51-3.41,7.31-3.27
					C315.49,451.51,318.76,458.84,315.13,463.17z"/>
				<path class="st3" d="M314.54,469.3l-1.04,0.38l-1.82,0.68l-0.32,0.12l-0.29,0.1l-3.77,1.4l-0.63,0.24l0.66,0.6l-0.7,0.77
					l-3.87-3.53l-5.76-5.25l1.09-1.2l0.99,0.89l0.79-3.64l0.09-0.41l0.14-0.7l0.41-1.9l0.29-1.06l1.7,1.54
					c-0.3,1.16-0.3,2.41,0.01,3.6c0.1,0.41,0.24,0.81,0.41,1.21c0.24,0.56,0.55,1.09,0.91,1.59c0.3,0.55,0.67,0.99,1.07,1.34
					c0.33,0.29,0.68,0.51,1.05,0.69c0.13,0.09,0.27,0.19,0.41,0.27c0.52,0.31,1.08,0.56,1.64,0.74c0.41,0.12,0.83,0.23,1.24,0.29
					c0.5,0.07,1.02,0.1,1.52,0.07c0.71-0.02,1.41-0.16,2.07-0.4L314.54,469.3z"/>
				<polygon class="st3" points="300.42,475.64 300.29,475.71 300.89,476.27 300.5,476.7 295.24,471.92 295.73,471.37 
					296.18,471.77 297.87,467.21 299.68,468.85 297.45,473.04 298.77,474.23 302.73,471.63 303.3,472.16 304.63,473.37 
					303.72,473.86 				"/>
			</g>
		</g>
		<g>
			<g>
				<path class="st3" d="M397.48,486.2h60.44v-19.66H376.2v70.4h88.01V517.2h-66.74V486.2z M376.2,417.96v19.66h88.01v-19.66H376.2z
					"/>
				<path class="st3" d="M551.05,494.64c16.85-5.38,28.26-19.24,28.26-37.28c0-23.23-18.73-39.52-43.75-39.52h-50.91v34.79h21.28
					v-14.87h27.24c14.47,0,24.51,7.46,24.51,19.59c0,12.14-10.04,19.59-24.51,19.59h-12.91v0.03h-35.61v59.96h21.28v-40.05h22.65
					l27.57,40.05h24.18L551.05,494.64z"/>
				<path class="st3" d="M698.49,417.96l-38.65,72.57l-38.48-72.57h-21.28v118.98h21.28v-79.5l38.48,72.57l38.65-72.57v79.5h21.11
					V417.96H698.49z"/>
				<path class="st3" d="M745.81,417.91v119.04h21.11V417.91H745.81z"/>
				<path class="st3" d="M837.92,468.49c-18.57-4.25-27.24-7.66-27.24-17.2c0-8.17,8.01-15.32,19.75-15.32
					c11.57,0,23.32,4.94,33.54,13.79l11.57-15.66c-11.75-10.05-25.72-16.36-44.27-16.36c-24.68,0-42.05,14.99-42.05,35.43
					c0,21.96,16.85,28.95,41.03,34.56c18.73,4.43,27.06,7.66,27.06,17.37c0,8.34-7.49,15.49-21.95,15.49
					c-15.33,0-27.76-6.13-38.48-15.83l-12.26,15.16c12.93,12.09,29.96,18.9,50.05,18.9c27.92,0,43.92-14.82,43.92-35.76
					C878.6,481.77,862.26,473.94,837.92,468.49z"/>
			</g>
			<g>
				<path class="st3" d="M376.43,560.46c0-6.92,5.64-12.73,12.35-12.73c3.46,0,6.6,1.54,8.86,3.98l-3.04,2.98
					c-1.44-1.76-3.56-2.87-5.82-2.87c-4.34,0-8,3.94-8,8.64c0,4.73,3.66,8.68,8,8.68c2.29,0,4.38-1.11,5.85-2.87l3.01,2.94
					c-2.26,2.47-5.41,4.02-8.86,4.02C382.08,573.22,376.43,567.38,376.43,560.46z"/>
				<path class="st3" d="M400.14,563.51c0-5.27,4.34-9.68,9.48-9.68c5.13,0,9.48,4.41,9.48,9.68c0,5.27-4.34,9.72-9.48,9.72
					C404.49,573.22,400.14,568.78,400.14,563.51z M414.99,563.51c0-3.23-2.46-5.95-5.37-5.95c-2.94,0-5.41,2.72-5.41,5.95
					c0,3.26,2.46,5.99,5.41,5.99C412.53,569.49,414.99,566.77,414.99,563.51z"/>
				<path class="st3" d="M439.21,561v11.8h-4.04v-10.94c0-2.51-1.54-4.3-3.73-4.3s-4,1.54-4.28,3.51v11.73H423v-18.54h4.17v2.47
					c1.09-1.72,3.15-2.9,5.47-2.9C436.51,553.82,439.21,556.8,439.21,561z"/>
				<path class="st3" d="M442.81,570.43l1.88-3.05c1.71,1.29,3.69,2.15,5.92,2.15c1.68,0,2.84-0.75,2.84-1.9
					c0-1.43-1.54-1.9-3.56-2.47c-3.83-1.04-6.26-2.19-6.29-5.49c0-3.48,2.74-5.84,6.67-5.84c2.43,0,4.86,0.9,6.77,2.22l-1.74,3.19
					c-1.68-1.11-3.49-1.68-5.03-1.68c-1.47,0-2.6,0.61-2.6,1.65c0,1.18,0.92,1.54,3.63,2.37c2.98,0.86,6.19,1.94,6.19,5.81
					c0,3.55-2.81,5.85-6.94,5.85C447.84,573.22,444.93,572.22,442.81,570.43z"/>
				<path class="st3" d="M477.53,554.25v18.54h-4.17v-2.47c-1.09,1.72-3.15,2.91-5.47,2.91c-3.87,0-6.57-2.98-6.57-7.17v-11.8h4.04
					v10.94c0,2.51,1.54,4.3,3.73,4.3s4-1.54,4.28-3.51v-11.73H477.53z"/>
				<path class="st3" d="M482.39,547.73h4.17v25.06h-4.17V547.73z"/>
				<path class="st3" d="M501.48,571.75c-0.99,0.9-2.43,1.47-3.76,1.47c-2.94,0-5-2.22-5-5.34v-10h-2.57v-3.62h2.57v-5.09h4.07v5.09
					h4v3.62h-4v9.47c0,1.25,0.75,2.15,1.74,2.15c0.72,0,1.37-0.29,1.74-0.68L501.48,571.75z"/>
				<path class="st3" d="M520.3,561.64v11.15h-4.07v-2.22c-1.3,1.72-3.52,2.65-5.58,2.65c-3.76,0-6.6-2.33-6.6-5.92
					c0-3.66,3.25-6.17,7.22-6.17c1.61,0,3.35,0.36,4.96,1v-0.5c0-2.15-1.13-4.23-4.34-4.23c-1.68,0-3.28,0.61-4.79,1.4l-1.44-3.05
					c2.5-1.29,4.82-1.94,7.05-1.94C517.39,553.82,520.3,556.94,520.3,561.64z M516.23,566.98v-2.08c-1.3-0.47-2.77-0.72-4.34-0.72
					c-2.09,0-3.76,1.22-3.76,2.98s1.47,2.87,3.46,2.87C513.6,570.03,515.75,568.96,516.23,566.98z"/>
				<path class="st3" d="M541.31,561v11.8h-4.04v-10.94c0-2.51-1.54-4.3-3.73-4.3s-4,1.54-4.28,3.51v11.73h-4.17v-18.54h4.17v2.47
					c1.09-1.72,3.15-2.9,5.47-2.9C538.61,553.82,541.31,556.8,541.31,561z"/>
				<path class="st3" d="M556.13,571.75c-0.99,0.9-2.43,1.47-3.76,1.47c-2.94,0-4.99-2.22-4.99-5.34v-10h-2.57v-3.62h2.57v-5.09
					h4.07v5.09h4v3.62h-4v9.47c0,1.25,0.75,2.15,1.74,2.15c0.72,0,1.37-0.29,1.74-0.68L556.13,571.75z"/>
				<path class="st3" d="M558.45,570.43l1.88-3.05c1.71,1.29,3.69,2.15,5.92,2.15c1.68,0,2.84-0.75,2.84-1.9
					c0-1.43-1.54-1.9-3.56-2.47c-3.83-1.04-6.26-2.19-6.29-5.49c0-3.48,2.74-5.84,6.67-5.84c2.43,0,4.86,0.9,6.77,2.22l-1.74,3.19
					c-1.68-1.11-3.49-1.68-5.03-1.68c-1.47,0-2.6,0.61-2.6,1.65c0,1.18,0.92,1.54,3.63,2.37c2.98,0.86,6.19,1.94,6.19,5.81
					c0,3.55-2.81,5.85-6.94,5.85C563.48,573.22,560.58,572.22,558.45,570.43z"/>
				<path class="st3" d="M603.17,573.26l-2.67-2.9c-1.95,1.83-4.21,2.87-6.94,2.87c-4.45,0-7.73-2.65-7.73-7.1
					c0-3.19,1.57-5.31,5.17-7.03c-1.3-1.9-1.78-3.3-1.78-5.13c0-3.37,2.77-6.1,6.43-6.1c3.63,0,6.26,2.65,6.26,6.06
					c0,2.87-1.88,4.41-5.44,6.1c1.2,1.47,2.5,2.98,4.17,4.84c0.92-1.43,1.74-3.08,2.39-4.84l3.18,1.58
					c-1.03,2.19-2.09,4.16-3.25,5.84c1.09,1.22,2.36,2.58,3.76,4.12L603.17,573.26z M598.21,567.84c-2.33-2.55-3.97-4.48-5.3-6.13
					c-1.95,1.11-2.94,2.44-2.94,4.2c0,2.4,1.85,3.84,4,3.84C595.47,569.74,596.88,569.03,598.21,567.84z M592.94,553.97
					c0,1.22,0.51,2.29,1.61,3.69c2.6-1.11,3.66-1.94,3.66-3.69c0-1.61-1.06-2.83-2.5-2.83
					C594.14,551.13,592.94,552.25,592.94,553.97z"/>
				<path class="st3" d="M626.81,552.25h-7.53v-4.09h19.29v4.09h-7.53v20.55h-4.24V552.25z"/>
				<path class="st3" d="M652.99,553.82v3.73c-3.8,0-6.33,2.37-6.33,5.88v9.36h-4.17v-18.54h4.17v3.59
					C647.79,555.37,650.08,553.82,652.99,553.82z"/>
				<path class="st3" d="M671.63,561.64v11.15h-4.07v-2.22c-1.3,1.72-3.52,2.65-5.58,2.65c-3.76,0-6.6-2.33-6.6-5.92
					c0-3.66,3.25-6.17,7.22-6.17c1.61,0,3.35,0.36,4.96,1v-0.5c0-2.15-1.13-4.23-4.34-4.23c-1.68,0-3.28,0.61-4.79,1.4l-1.44-3.05
					c2.5-1.29,4.82-1.94,7.05-1.94C668.73,553.82,671.63,556.94,671.63,561.64z M667.56,566.98v-2.08c-1.3-0.47-2.77-0.72-4.34-0.72
					c-2.09,0-3.76,1.22-3.76,2.98s1.47,2.87,3.46,2.87C664.93,570.03,667.08,568.96,667.56,566.98z"/>
				<path class="st3" d="M694.05,547.73v25.06h-4.17v-2.87c-1.4,2.08-3.52,3.3-6.12,3.3c-4.69,0-8.11-4.02-8.11-9.72
					c0-5.67,3.42-9.68,8.11-9.68c2.6,0,4.72,1.22,6.12,3.3v-9.39H694.05z M689.87,563.51c0-3.48-2.05-5.95-4.99-5.95
					c-2.98,0-5.1,2.47-5.1,5.95s2.12,5.99,5.1,5.99C687.82,569.49,689.87,566.98,689.87,563.51z"/>
				<path class="st3" d="M711.84,567.49l2.63,2.87c-1.54,1.72-4.62,2.87-7.18,2.87c-5.06,0-9.24-4.05-9.24-9.75
					c0-5.56,3.97-9.65,9-9.65c5.47,0,8.66,4.34,8.66,11.19h-13.34c0.51,2.55,2.36,4.34,4.89,4.34
					C708.9,569.35,710.85,568.56,711.84,567.49z M702.4,561.68h9.31c-0.48-2.33-1.98-3.98-4.48-3.98
					C704.89,557.7,703.01,559.24,702.4,561.68z"/>
				<path class="st3" d="M730.21,553.82v3.73c-3.8,0-6.33,2.37-6.33,5.88v9.36h-4.17v-18.54h4.17v3.59
					C725.01,555.37,727.3,553.82,730.21,553.82z"/>
				<path class="st3" d="M732.37,570.43l1.88-3.05c1.71,1.29,3.69,2.15,5.92,2.15c1.68,0,2.84-0.75,2.84-1.9
					c0-1.43-1.54-1.9-3.56-2.47c-3.83-1.04-6.26-2.19-6.29-5.49c0-3.48,2.74-5.84,6.67-5.84c2.43,0,4.86,0.9,6.77,2.22l-1.74,3.19
					c-1.68-1.11-3.49-1.68-5.03-1.68c-1.47,0-2.6,0.61-2.6,1.65c0,1.18,0.92,1.54,3.63,2.37c2.98,0.86,6.19,1.94,6.19,5.81
					c0,3.55-2.81,5.85-6.94,5.85C737.4,573.22,734.49,572.22,732.37,570.43z"/>
				<path class="st3" d="M761.04,548.16h10.23c5.03,0,8.79,3.37,8.79,8.18s-3.76,8.18-8.79,8.18h-5.95v8.28h-4.28V548.16z
					 M770.79,560.39c2.91,0,4.93-1.54,4.93-4.05s-2.02-4.05-4.93-4.05h-5.47v8.1H770.79z"/>
				<path class="st3" d="M781.88,554.25h4.41l5.13,13.48l5.03-13.48h4.45l-7.49,18.54h-3.93L781.88,554.25z"/>
				<path class="st3" d="M814.11,571.75c-0.99,0.9-2.43,1.47-3.76,1.47c-2.94,0-5-2.22-5-5.34v-10h-2.57v-3.62h2.57v-5.09h4.07v5.09
					h4v3.62h-4v9.47c0,1.25,0.75,2.15,1.74,2.15c0.72,0,1.37-0.29,1.74-0.68L814.11,571.75z"/>
				<path class="st3" d="M843.84,568.7v4.09h-16.32v-24.63h4.24v20.55H843.84z"/>
				<path class="st3" d="M857.46,571.75c-0.99,0.9-2.43,1.47-3.76,1.47c-2.94,0-5-2.22-5-5.34v-10h-2.57v-3.62h2.57v-5.09h4.07v5.09
					h4v3.62h-4v9.47c0,1.25,0.75,2.15,1.74,2.15c0.72,0,1.37-0.29,1.74-0.68L857.46,571.75z"/>
				<path class="st3" d="M878.6,547.73v25.06h-4.17v-2.87c-1.4,2.08-3.52,3.3-6.12,3.3c-4.69,0-8.11-4.02-8.11-9.72
					c0-5.67,3.42-9.68,8.11-9.68c2.6,0,4.72,1.22,6.12,3.3v-9.39H878.6z M874.43,563.51c0-3.48-2.05-5.95-4.99-5.95
					c-2.98,0-5.1,2.47-5.1,5.95s2.12,5.99,5.1,5.99C872.38,569.49,874.43,566.98,874.43,563.51z"/>
			</g>
		</g>
	</g>
</g>
</svg>
