<?xml version="1.0" encoding="utf-8"?>
<!-- Generator: Adobe Illustrator 26.0.1, SVG Export Plug-In . SVG Version: 6.00 Build 0)  -->
<svg version="1.1" id="Layer_1" xmlns="http://www.w3.org/2000/svg" xmlns:xlink="http://www.w3.org/1999/xlink" x="0px" y="0px"
	 viewBox="108 366 832 268" style="enable-background:new 108 366 832 268;" xml:space="preserve">
<style type="text/css">
	.st0{fill-rule:evenodd;clip-rule:evenodd;}
	.st1{fill-rule:evenodd;clip-rule:evenodd;fill:#C43B31;}
	.st2{fill:#FFFFFF;}
	.st3{fill:#C43B31;}
	.st4{opacity:0.06;}
	.st5{opacity:0.04;}
	.st6{opacity:0.33;}
	.st7{opacity:0.26;fill:#FFFFFF;}
	.st8{fill:#DAE0E0;}
</style>
<g>
	<path class="st2" d="M278.44,398.1c2.63-0.31,5.25-0.63,7.85-0.94c3.18-0.37,6.35-0.74,9.51-1.1c0.34-0.04,0.86,0.14,1.07,0.4
		c0.57,0.72,1.01,1.55,1.64,2.53c-2.65,0.46-5.18,0.91-7.68,1.35c-0.83,0.15-1.66,0.3-2.49,0.44c-1.63,0.29-3.24,0.59-4.87,0.87
		C280.95,402.11,279.07,400.81,278.44,398.1z"/>
	<g>
		<g>
			<g>
				<path class="st2" d="M218.27,376.21c-68.26,0-123.81,55.54-123.81,123.78c0,8.5,0.86,16.81,2.5,24.83l7.37-5.49
					c-1.08-6.29-1.64-12.75-1.64-19.34c0-63.72,51.86-115.55,115.57-115.55c13.13,0,25.74,2.21,37.52,6.24l6.4-6.4
					C248.56,379.06,233.74,376.21,218.27,376.21z M341.73,491.19l-7.99,4.79c0.05,1.34,0.08,2.66,0.08,4.01
					c0,63.74-51.83,115.57-115.55,115.57c-24.1,0-46.48-7.4-65.04-20.06l-8.96,3.69c20.63,15.44,46.26,24.61,73.99,24.61
					c68.24,0,123.78-55.54,123.78-123.8C342.05,497.03,341.94,494.1,341.73,491.19z"/>
			</g>
			<path class="st2" d="M291.19,404.35c-0.92,0.23-1.84,0.43-2.76,0.66c-2.37,0.6-3.52,0.05-4.81-2.42c2.82-0.56,5.6-1.11,8.35-1.66
				c2.17-0.42,4.33-0.83,6.49-1.24c0.29-0.06,0.74,0.12,0.93,0.36c0.48,0.57,0.85,1.22,1.37,2c-1.91,0.46-3.76,0.92-5.61,1.36
				C293.83,403.73,292.51,404.03,291.19,404.35z"/>
			<path class="st2" d="M288.3,406.08c0.49-0.17,0.85-0.32,1.23-0.41c2.15-0.55,4.3-1.1,6.46-1.64c0.99-0.26,1.99-0.5,2.98-0.75
				c2.55-0.64,2.55-0.62,3.84,1.96c-1.36,0.37-2.71,0.74-4.03,1.1c-2.44,0.68-4.84,1.33-7.27,1.88
				C290.01,408.58,289.22,407.26,288.3,406.08z"/>
			<path class="st2" d="M292.66,408.77c2.45-0.67,4.76-1.32,7.05-1.92c1.01-0.27,2.02-0.53,3.02-0.78c0.41-0.1,1.06,0.28,1.43,0.63
				c0.42,0.39,0.65,1,1.07,1.68c-1,0.27-1.96,0.55-2.93,0.81c-2.18,0.62-4.31,1.21-6.46,1.69
				C294.45,411.17,293.62,409.96,292.66,408.77z"/>
			<path class="st2" d="M285.55,396.14c-2.26,0.23-4.53,0.46-6.79,0.7c-2.94,0.31-4.83-0.87-5.64-3.64
				c2.19-0.16,4.35-0.32,6.51-0.47c0.1-0.01,0.22-0.01,0.32-0.02c6.07-0.43,12.14-0.87,18.22-1.24c0.48-0.03,1.23,0.26,1.47,0.65
				c2.99,4.92,5.92,9.88,8.87,14.83c0.09,0.15,0.14,0.33,0.25,0.58c-0.51,0.15-0.97,0.26-1.39,0.41c-0.95,0.34-1.5,0.04-2.04-0.84
				c-2.31-3.79-4.69-7.54-7.11-11.26c-0.29-0.42-1.05-0.82-1.54-0.78C292.96,395.38,289.25,395.75,285.55,396.14z"/>
			<path class="st2" d="M306.62,413.39c6.08-1.18,12.19-2.26,18.57-3.44c-1.92,6.46-3.77,12.66-5.65,18.94
				c-0.04,0.12-0.08,0.24-0.11,0.36c-2.85-0.14-5.63-0.25-8.4-0.45c-0.64-0.05-1.1,0.06-1.49,0.39c-0.2,0.16-0.38,0.38-0.57,0.66
				c-2.22,3.4-4.55,6.74-6.75,10.15c-0.35,0.52-0.48,1.41-0.32,2.03c1.01,3.69,2.14,7.34,3.18,11.02c0.11,0.39,0.03,1.11-0.24,1.31
				c-7.63,5.55-15.3,11.07-23.27,16.81c0.28-0.7,0.4-1.08,0.58-1.43c3.06-6.08,6.12-12.14,9.14-18.23c0.25-0.49,0.32-1.17,0.22-1.73
				c-1.53-8.46-3.09-16.9-4.68-25.34c-0.17-0.88,0-1.36,0.76-1.83c3.36-2.14,6.77-4.24,10.04-6.51c0.1-0.07,0.2-0.13,0.3-0.21
				c2.38-1.67,5.12-1.8,7.78-2.31C306.02,413.5,306.31,413.44,306.62,413.39z"/>
			<path class="st2" d="M327.81,408.31c-0.01,0.12-0.03,0.24-0.05,0.35c-3.57,0.62-7.15,1.24-10.72,1.84
				c-3.81,0.63-7.62,1.24-11.43,1.87c-1.41,0.23-2.83,0.46-4.24,0.69c-2.23,0.37-2.23,0.38-3.36-1.94c1.65-0.44,3.29-0.87,4.95-1.31
				c2.37-0.63,4.75-1.27,7.17-1.9c-1.42-2.46-2.81-4.85-4.35-7.52c3.79,0.23,7.4-1.07,10.86,1.24
				C320.25,404.03,324.08,406.1,327.81,408.31z"/>
			<polygon class="st2" points="330.43,472.16 331.76,473.37 330.85,473.86 327.55,475.64 327.42,475.71 328.02,476.27 
				327.63,476.7 322.37,471.92 322.86,471.37 323.31,471.77 325,467.21 326.81,468.85 324.58,473.04 325.9,474.23 329.86,471.63 			
				"/>
			<path class="st2" d="M341.67,469.3l-1.04,0.38l-1.82,0.68l-0.32,0.12l-0.29,0.1l-3.77,1.4l-0.63,0.24l0.66,0.6l-0.7,0.77
				l-3.87-3.53l-5.76-5.25l1.09-1.2l0.99,0.89l0.79-3.64l0.09-0.41l0.14-0.7l0.41-1.9l0.29-1.06l1.7,1.54
				c-0.3,1.16-0.3,2.41,0.01,3.6c0.1,0.41,0.24,0.81,0.41,1.21c0.24,0.56,0.55,1.09,0.91,1.59c0.3,0.55,0.67,0.99,1.07,1.34
				c0.33,0.29,0.68,0.51,1.05,0.69c0.13,0.09,0.27,0.19,0.41,0.27c0.52,0.31,1.08,0.56,1.64,0.74c0.41,0.12,0.83,0.23,1.24,0.29
				c0.5,0.07,1.02,0.1,1.52,0.07c0.71-0.02,1.41-0.16,2.07-0.4L341.67,469.3z"/>
			<path class="st2" d="M342.26,463.17c-0.45,0.53-1.09,1.12-2.01,1.64c0,0,0.72,0.05,1.52-0.58c0,0-1.04,2.32-3.19,2.26
				c-0.37-0.01-0.77-0.04-1.17-0.09c-1.22-0.15-2.53-0.46-3.34-0.68c-0.53-0.13-0.99-0.47-1.25-0.95c-0.64-1.09-1.75-3.19-2.04-4.96
				c-0.09-0.51,0.08-1.05,0.45-1.42c0.53-0.53,1.35-1.42,1.74-2.18c0.47-0.91,0.59-1.14,0.62-1.19c0-0.01,0-0.01,0-0.01l0.01-0.01
				c0,0,0,0.01,0,0.03c-0.02,0.4-0.15,4.38,1.15,6.48c0.66,1.07,1.13,1.1,1.45,0.84l0.09-0.09c0.3-0.34,0.35-0.83,0.17-1.24
				c-0.57-1.35-2.1-5.25-1.37-6.68c0.87-1.76,2.51-3.41,7.31-3.27C342.62,451.51,345.89,458.84,342.26,463.17z"/>
			<path class="st2" d="M108.41,558.72c-0.36-0.5-0.31-1.3-0.22-2.12c0.06-0.51,0.13-1.04,0.13-1.51c0.2-0.02,0.4-0.04,0.61-0.06
				c2.38,3.29,4.78,6.55,7.06,9.92c0.3,0.44-0.14,1.4-0.25,2.12c-0.15,0.01-0.3,0.02-0.45,0.03c-1.2-1.43-2.44-2.83-3.64-4.26
				c0-0.01-0.01-0.01-0.01-0.02C110.52,561.49,109.42,560.13,108.41,558.72z"/>
			<path class="st2" d="M113.71,569.87c0.3,0.32-0.14,1.3-0.29,2.31c-1.21-1.05-2.02-1.84-2.92-2.51c-1.3-0.96-1.73-2.12-1.11-3.87
				C110.9,567.19,112.41,568.43,113.71,569.87z"/>
			<path class="st2" d="M114.48,569.66c-1.75-1.67-3.09-3.16-4.65-4.37c-1.64-1.28-1.76-2.67-0.88-4.56
				c1.48,1.64,2.96,3.22,4.38,4.85c0,0.01,0.01,0.01,0.01,0.02c0.52,0.6,1.03,1.19,1.53,1.81c0.1,0.13,0.1,0.36,0.04,0.64
				C114.82,568.49,114.59,569.09,114.48,569.66z"/>
			<path class="st2" d="M109.92,555.35c-1.59-2.04-2.2-4.06-1.48-6.51c0.17-0.59,0.24-1.2,0.41-2.15c0.41,0.62,0.7,1,0.93,1.41
				c2.43,4.33,4.75,8.7,7.28,12.96c0.91,1.51,0.4,2.5-0.5,3.76C114.31,561.57,112.27,558.33,109.92,555.35z"/>
			<path class="st2" d="M109,544.76c-0.36-0.67-0.44-1.63-0.31-2.39c0.21-1.1,0.48-2.2,0.79-3.36c0,0,0,0,0-0.01
				c0.21-0.76,0.42-1.56,0.64-2.42c0.56,1.14,0.99,1.96,1.37,2.81c3.36,7.45,6.71,14.9,10.09,22.34c0.29,0.64,0.35,1.14,0.13,1.69
				c-0.06,0.16-0.15,0.34-0.28,0.51c-1.51,2.32-2.99,4.66-4.52,7.07c-0.65,1.03-1.32,2.08-2,3.15c-0.61-0.57-1.04-0.99-1.53-1.45
				c0.69-1.32,1.35-2.62,2.02-3.9c0.87-1.7,1.74-3.35,2.62-5.01c0.45-0.83,0.46-1.49,0-2.33C114.97,555.91,111.95,550.36,109,544.76
				z"/>
			<path class="st2" d="M288.07,449.74c0.05,0.6-0.05,1.25-0.32,1.76c-3.84,7.23-7.73,14.5-11.67,21.72
				c-0.23,0.42-0.65,0.79-1.07,1.02c-3.38,1.95-6.72,3.94-10.14,5.84c-1.34,0.74-2.69,1.48-4.08,2.18
				c-2.41,1.21-5.14,1.76-7.78,2.55c-3.24,0.93-6.53,1.81-9.82,2.64c-0.56,0.14-1.25,0.14-1.71-0.09
				c-5.19-2.64-10.28-5.37-15.42-8.1c-0.18-0.09-0.32-0.19-0.56-0.32c7.55-12.55,15.01-25.06,22.74-37.89
				c-1.76,0.56-3.2,0.97-4.63,1.39c-7.22,2.22-14.36,4.63-21.68,6.53c-3.24,0.83-6.76,0.74-10.14,0.93
				c-1.07,0.05-1.76,0.23-2.22,1.3c-1.62,3.94-4.63,5.65-8.85,6.48c-10.1,1.9-20.05,4.35-30.06,6.53c-0.88,0.19-1.53,0.51-1.62,1.53
				c-0.28,2.41-1.48,4.35-2.96,6.21c-0.83,1.07-1.67,2.18-2.36,3.34c-0.56,1.07-1.3,0.69-2.04,0.42c-0.88-0.32-0.42-0.97-0.28-1.53
				c0.32-1.2,0.65-2.41,1.02-3.61c-0.14-0.09-0.23-0.19-0.32-0.28c-3.8,1.94-7.6,3.89-11.53,5.93c-0.69-1.53-1.34-2.78-0.93-4.58
				c0.6-2.32,1.76-3.61,3.8-4.82c14.08-8.24,28.16-16.63,42.15-25.1c2.59-1.58,5.42-1.3,8.15-1.95c0.69-0.14,1.53-0.42,1.9-0.93
				c3.01-3.75,6.9-5.97,11.35-7.59c6.44-2.36,12.74-5.09,19.08-7.6c1.39-0.51,2.92-0.69,4.35-0.93c0.74-0.14,1.53-0.19,2.27-0.14
				c1.76,0.19,3.38,0.05,4.91-0.42c1.53-0.51,2.92-1.3,4.26-2.45c0.32-0.28,0.93-0.37,1.44-0.42c7.13-0.23,14.27-0.46,21.4-0.65
				c0.56-0.05,1.16,0.09,1.67,0.28c2.5,0.97,5,1.95,7.5,3.01c0.42,0.19,0.93,0.79,1.02,1.25C285.99,432,287.01,440.89,288.07,449.74
				z"/>
			<path class="st2" d="M174.07,514.86c3.26-2.11,6.38-4.15,9.51-6.17c12.38-8.01,24.77-16,37.13-24.04
				c1.13-0.74,2.05-0.9,3.35-0.36c5.7,2.4,11.46,4.66,17.18,7.03c0.92,0.38,1.67,0.36,2.55-0.05c2.81-1.33,5.65-2.59,8.56-3.92
				c5.14,7.94,10.21,15.78,15.35,23.71c-0.4,0.24-0.7,0.44-1.03,0.59c-9.67,4.52-19.37,8.99-28.99,13.6
				c-2.7,1.29-5.57,1.38-8.4,1.79c-7.25,1.07-14.51,2.01-21.77,2.98c-0.53,0.07-1.15,0.03-1.62-0.19
				c-10.45-4.85-20.89-9.73-31.33-14.61C174.44,515.18,174.34,515.07,174.07,514.86z"/>
			<path class="st2" d="M184.7,579.26c5.3-4.74,10.61-9.48,15.98-14.28c1.45,0.93,2.88,1.75,4.19,2.74c0.91,0.68,1.56,0.63,2.5,0.02
				c10.26-6.67,20.55-13.3,30.82-19.94c4.65-3.01,4.64-2.99,10.33-2.1c3.59,0.56,7.2,1.06,10.8,1.58c0.41,0.06,0.83,0.05,1.25,0.07
				c0.21-1.34-0.16-2.18-1.54-2.36c-4.97-0.62-8.57-3.43-11.81-7.04c-2.81-3.13-5.94-5.95-8.93-8.92c-0.33-0.32-0.62-0.67-1.07-1.15
				c10.37-4.54,20.59-9.02,30.96-13.56c0.9,2.27,1.79,4.49,2.66,6.71c3.4,8.71,6.65,17.48,10.28,26.09c1.33,3.16-0.3,5.1-1.73,7.31
				c-0.23,0.35-0.9,0.45-1.39,0.58c-30.15,8.22-60.31,16.43-90.47,24.62C186.62,579.88,185.59,580.72,184.7,579.26z"/>
			<path class="st2" d="M202.48,530.65c-1.44,0.88-2.69,1.62-3.94,2.36c-11.07,6.44-22.28,12.78-33.3,19.36
				c-1.85,1.07-3.66,2.18-5.46,3.29c-9.17,5.56-18.02,11.67-27,17.51c-0.83,0.56-1.67,1.11-2.5,1.67c-2.32,1.53-4.63,3.06-6.95,4.54
				c-9.12,5.97-17.12,11.04-26.24,17.06c-1.34,0.88-1.99,0.6-2.83-0.74c3.2-4.77,5.21-8.59,8.36-13.36c1.9-2.92,3.89-5.79,5.74-8.75
				c0.56-0.83,0.97-0.79,1.76-0.42c1.57,0.74,3.24,1.48,4.91,2.27l2.64-3.33c1.02-1.3,2.04-2.55,3.01-3.8
				c0.79-0.97,1.53-1.94,2.32-2.92v-0.05c3.38-4.21,6.72-8.48,10.14-12.69c0.42-0.56,1.11-1.02,1.81-1.2
				c4.54-1.44,9.12-2.73,13.71-4.12c0.56-0.18,1.16-0.6,1.53-1.07c2.13-2.96,4.12-6.02,6.3-8.94c0.23-0.32,0.51-0.65,0.79-0.93
				c0.93-1.11,2.04-2.18,3.06-3.2c4.86-4.95,9.77-9.86,14.73-14.77c0.28-0.28,0.93-0.51,1.25-0.37
				C184.98,522.17,193.59,526.34,202.48,530.65z"/>
			<path class="st2" d="M325.19,409.96c-1.92,6.46-3.77,12.66-5.65,18.94c-0.04,0.12-0.08,0.24-0.11,0.36
				c-2.85-0.14-5.63-0.25-8.4-0.45c-0.64-0.05-1.1,0.06-1.49,0.39c-0.2,0.16-0.38,0.38-0.57,0.66c-2.22,3.4-4.55,6.74-6.75,10.15
				c-0.35,0.52-0.48,1.41-0.32,2.03c1.01,3.69,2.14,7.34,3.18,11.02c0.11,0.39,0.03,1.11-0.24,1.31
				c-7.63,5.55-15.3,11.07-23.27,16.81c0.28-0.7,0.4-1.08,0.58-1.43c3.06-6.08,6.12-12.14,9.14-18.23c0.25-0.49,0.32-1.17,0.22-1.73
				c-1.53-8.46-3.09-16.9-4.68-25.34c-0.17-0.88,0-1.36,0.76-1.83c3.36-2.14,6.77-4.24,10.04-6.51c0.1-0.07,0.2-0.13,0.3-0.21
				c2.38-1.67,5.12-1.8,7.78-2.31c0.31-0.06,0.61-0.12,0.92-0.18C312.7,412.21,318.81,411.13,325.19,409.96z"/>
			<path class="st2" d="M320.58,483.36c0.42,0.28,0.79,0.51,1.34,0.83c-1.71,2.45-3.43,4.86-5.19,7.41
				c-1.44-0.79-2.73-1.48-4.21-2.32c0.28-0.32,0.46-0.65,0.74-0.97c0.19-0.28,0.42-0.56,0.6-0.83c0.14-0.19,0.28-0.37,0.37-0.56
				c0.32-0.42,0.65-0.83,0.97-1.25c0.09-0.14,0.19-0.28,0.28-0.42c0.65-0.88,1.25-1.71,1.9-2.59c-0.42-0.88-0.93-0.51-1.48-0.05
				l-0.14,0.14c0,0,0,0-0.05,0c-1.76,1.48-3.52,2.96-5.28,4.35c-0.37,0.28-0.93,0.56-1.39,0.56c-13.99-0.32-28.02-0.65-42.19-1.02
				c-1.81-0.05-3.61-0.09-5.37-0.14c0.46-0.37,0.69-0.6,0.97-0.79c1.16-0.69,2.32-1.43,3.47-2.18c4.03-2.55,8.06-5.09,12.13-7.6
				c0.56-0.37,1.39-0.56,2.08-0.42c9.4,1.71,18.8,3.52,28.25,5.23c0.83,0.19,1.85,0,2.64-0.28c2.32-0.83,4.54-1.85,6.9-2.82
				c0.23,0.37,0.42,0.74,0.6,1.11c1.99-3.06,3.57-5.83,3.57-5.83l1.39,1.25l-3.38,5.09l4.86-3.71l1.11,1.07
				c-0.93,0.51-3.57,2.64-6.07,4.77c0.32,0.6,0.65,1.16,0.97,1.76L320.58,483.36z"/>
			<path class="st2" d="M327.81,408.31c-0.01,0.12-0.03,0.24-0.05,0.35c-3.57,0.62-7.15,1.24-10.72,1.84
				c-3.81,0.63-7.62,1.24-11.43,1.87c-1.41,0.23-2.83,0.46-4.24,0.69c-2.23,0.37-2.23,0.38-3.36-1.94c1.65-0.44,3.29-0.87,4.95-1.31
				c2.37-0.63,4.75-1.27,7.17-1.9c-1.42-2.46-2.81-4.85-4.35-7.52c3.79,0.23,7.4-1.07,10.86,1.24
				C320.25,404.03,324.08,406.1,327.81,408.31z"/>
			<path class="st2" d="M308.75,407.52c-0.51,0.15-0.97,0.26-1.39,0.41c-0.95,0.34-1.5,0.04-2.04-0.84
				c-2.31-3.79-4.69-7.54-7.11-11.26c-0.29-0.42-1.05-0.82-1.54-0.78c-3.71,0.34-7.43,0.71-11.13,1.1c-2.26,0.23-4.53,0.46-6.79,0.7
				c-2.94,0.31-4.83-0.87-5.64-3.64c2.19-0.16,4.35-0.32,6.51-0.47c0.1-0.01,0.22-0.01,0.32-0.02c6.07-0.43,12.14-0.87,18.22-1.24
				c0.48-0.03,1.23,0.26,1.47,0.65c2.99,4.92,5.92,9.88,8.87,14.83C308.6,407.1,308.65,407.27,308.75,407.52z"/>
			<path class="st2" d="M121.71,563.42c-0.06,0.16-0.15,0.34-0.28,0.51c-1.51,2.32-2.99,4.66-4.52,7.07c-0.65,1.03-1.32,2.08-2,3.15
				c-0.61-0.57-1.04-0.99-1.53-1.45c0.69-1.32,1.35-2.62,2.02-3.9c0.87-1.7,1.74-3.35,2.62-5.01c0.45-0.83,0.46-1.49,0-2.33
				c-3.05-5.54-6.08-11.1-9.03-16.69c-0.36-0.67-0.44-1.63-0.31-2.39c0.21-1.1,0.48-2.2,0.79-3.36c0,0,0,0,0-0.01
				c0.21-0.76,0.42-1.56,0.64-2.42c0.56,1.14,0.99,1.96,1.37,2.81c3.36,7.45,6.71,14.9,10.09,22.34
				C121.87,562.37,121.93,562.88,121.71,563.42z"/>
			<path class="st2" d="M206.18,567.4c-0.34-0.56-0.63-1.04-0.96-1.57c2.48-2.12,4.89-4.22,7.37-6.26c0.67-0.55,0.86-1.09,0.74-1.94
				c-0.81-5.56-1.59-11.11-2.3-16.68c-0.1-0.76,0.12-1.69,0.52-2.34c0.88-1.43,1.98-2.73,3.26-4.45c0.1,1.09,0.17,1.8,0.22,2.51
				c0.46,7.3,0.9,14.61,1.41,21.91c0.08,1.12-0.23,1.79-1.17,2.43c-2.62,1.77-5.16,3.66-7.73,5.5
				C207.11,566.79,206.68,567.06,206.18,567.4z"/>
			<path class="st2" d="M311.14,489.84c-2.45,2.64-4.86,5.19-7.22,7.73c-3.57,3.8-7.18,7.64-10.74,11.49
				c-0.65,0.7-1.3,1.39-1.9,2.09c-0.83,0.83-1.44,1.02-2.22-0.14c0.51-0.6,1.02-1.16,1.53-1.71c6.25-6.85,12.55-13.76,18.94-20.75
				C310.16,489.06,310.63,489.43,311.14,489.84z"/>
			<path class="st2" d="M116.56,564.82c-2.25-3.25-4.29-6.49-6.63-9.47c-1.59-2.04-2.2-4.06-1.48-6.51c0.17-0.59,0.24-1.2,0.41-2.15
				c0.41,0.62,0.7,1,0.93,1.41c2.43,4.33,4.75,8.7,7.28,12.96C117.97,562.57,117.46,563.56,116.56,564.82z"/>
			<path class="st2" d="M210.83,560.08c-0.98-3.64-1.83-7.26-2.96-10.79c-0.57-1.8-0.44-3.25,0.75-4.68
				c0.53-0.64,0.93-1.39,1.6-2.39c0.4,2.43,0.76,4.52,1.09,6.62c0.42,2.7,0.69,5.43,1.26,8.09
				C212.92,558.59,212.2,559.36,210.83,560.08z"/>
			<path class="st2" d="M115.75,567.06c-0.15,0.01-0.3,0.02-0.45,0.03c-1.2-1.43-2.44-2.83-3.64-4.26c0-0.01-0.01-0.01-0.01-0.02
				c-1.12-1.33-2.22-2.68-3.23-4.09c-0.36-0.5-0.31-1.3-0.22-2.12c0.06-0.51,0.13-1.04,0.13-1.51c0.2-0.02,0.4-0.04,0.61-0.06
				c2.38,3.29,4.78,6.55,7.06,9.92C116.29,565.39,115.85,566.34,115.75,567.06z"/>
			<path class="st2" d="M207.12,549.01c0.88,3.03,1.7,5.86,2.53,8.7c0.12,0.41,0.17,0.84,0.35,1.22c0.64,1.32,0.31,2.22-1.16,2.75
				c-1.15-3.02-2.36-6.03-3.41-9.09c-0.17-0.5,0.26-1.27,0.54-1.86C206.22,550.19,206.63,549.72,207.12,549.01z"/>
			<path class="st2" d="M114.91,568.05c-0.09,0.44-0.32,1.04-0.43,1.6c-1.75-1.67-3.09-3.16-4.65-4.37
				c-1.64-1.28-1.76-2.67-0.88-4.56c1.48,1.64,2.96,3.22,4.38,4.85c0,0.01,0.01,0.01,0.01,0.02c0.52,0.6,1.03,1.19,1.53,1.81
				C114.97,567.55,114.97,567.77,114.91,568.05z"/>
			<path class="st2" d="M205.21,554.21c1.11,2.65,2.21,5.28,3.33,7.95c-0.43,0.41-0.84,0.8-1.44,1.37c-0.9-1.71-1.64-3.37-2.6-4.89
				C203.46,556.99,203.3,555.58,205.21,554.21z"/>
			<path class="st2" d="M113.42,572.19c-1.21-1.05-2.02-1.84-2.92-2.51c-1.3-0.96-1.73-2.12-1.11-3.87
				c1.51,1.38,3.02,2.62,4.32,4.06C114.01,570.19,113.57,571.17,113.42,572.19z"/>
			<path class="st2" d="M203.44,558.24c1.13,1.96,2.12,3.46,2.85,5.09c0.2,0.46-0.38,1.26-0.6,1.91c-0.19-0.01-0.37-0.01-0.56-0.02
				c-0.84-1.44-1.83-2.83-2.45-4.36C202.46,560.28,203.09,559.36,203.44,558.24z"/>
			<g>
				<path class="st2" d="M342.26,463.17c-0.45,0.53-1.09,1.12-2.01,1.64c0,0,0.72,0.05,1.52-0.58c0,0-1.04,2.32-3.19,2.26
					c-0.37-0.01-0.77-0.04-1.17-0.09c-1.22-0.15-2.53-0.46-3.34-0.68c-0.53-0.13-0.99-0.47-1.25-0.95
					c-0.64-1.09-1.75-3.19-2.04-4.96c-0.09-0.51,0.08-1.05,0.45-1.42c0.53-0.53,1.35-1.42,1.74-2.18c0.47-0.91,0.59-1.14,0.62-1.19
					c0-0.01,0-0.01,0-0.01l0.01-0.01c0,0,0,0.01,0,0.03c-0.02,0.4-0.15,4.38,1.15,6.48c0.66,1.07,1.13,1.1,1.45,0.84l0.09-0.09
					c0.3-0.34,0.35-0.83,0.17-1.24c-0.57-1.35-2.1-5.25-1.37-6.68c0.87-1.76,2.51-3.41,7.31-3.27
					C342.62,451.51,345.89,458.84,342.26,463.17z"/>
				<path class="st2" d="M341.67,469.3l-1.04,0.38l-1.82,0.68l-0.32,0.12l-0.29,0.1l-3.77,1.4l-0.63,0.24l0.66,0.6l-0.7,0.77
					l-3.87-3.53l-5.76-5.25l1.09-1.2l0.99,0.89l0.79-3.64l0.09-0.41l0.14-0.7l0.41-1.9l0.29-1.06l1.7,1.54
					c-0.3,1.16-0.3,2.41,0.01,3.6c0.1,0.41,0.24,0.81,0.41,1.21c0.24,0.56,0.55,1.09,0.91,1.59c0.3,0.55,0.67,0.99,1.07,1.34
					c0.33,0.29,0.68,0.51,1.05,0.69c0.13,0.09,0.27,0.19,0.41,0.27c0.52,0.31,1.08,0.56,1.64,0.74c0.41,0.12,0.83,0.23,1.24,0.29
					c0.5,0.07,1.02,0.1,1.52,0.07c0.71-0.02,1.41-0.16,2.07-0.4L341.67,469.3z"/>
				<polygon class="st2" points="327.55,475.64 327.42,475.71 328.02,476.27 327.63,476.7 322.37,471.92 322.86,471.37 
					323.31,471.77 325,467.21 326.81,468.85 324.58,473.04 325.9,474.23 329.86,471.63 330.43,472.16 331.76,473.37 330.85,473.86 
									"/>
			</g>
		</g>
		<g>
			<g>
				<path class="st2" d="M424.61,486.2h60.44v-19.66h-81.72v70.4h88.01V517.2h-66.74V486.2z M403.33,417.96v19.66h88.01v-19.66
					H403.33z"/>
				<path class="st2" d="M578.18,494.64c16.85-5.38,28.26-19.24,28.26-37.28c0-23.23-18.73-39.52-43.75-39.52h-50.91v34.79h21.28
					v-14.87h27.24c14.47,0,24.51,7.46,24.51,19.59c0,12.14-10.04,19.59-24.51,19.59H547.4v0.03h-35.61v59.96h21.28v-40.05h22.65
					l27.57,40.05h24.18L578.18,494.64z"/>
				<path class="st2" d="M725.62,417.96l-38.65,72.57l-38.48-72.57h-21.28v118.98h21.28v-79.5l38.48,72.57l38.65-72.57v79.5h21.11
					V417.96H725.62z"/>
				<path class="st2" d="M772.94,417.91v119.04h21.11V417.91H772.94z"/>
				<path class="st2" d="M865.05,468.49c-18.57-4.25-27.24-7.66-27.24-17.2c0-8.17,8.01-15.32,19.75-15.32
					c11.58,0,23.32,4.94,33.54,13.79l11.57-15.66c-11.75-10.05-25.72-16.36-44.27-16.36c-24.68,0-42.05,14.99-42.05,35.43
					c0,21.96,16.85,28.95,41.03,34.56c18.73,4.43,27.06,7.66,27.06,17.37c0,8.34-7.49,15.49-21.95,15.49
					c-15.33,0-27.76-6.13-38.48-15.83l-12.26,15.16c12.93,12.09,29.96,18.9,50.05,18.9c27.92,0,43.92-14.82,43.92-35.76
					C905.73,481.77,889.39,473.94,865.05,468.49z"/>
			</g>
		</g>
	</g>
</g>
</svg>
