<?xml version="1.0" encoding="utf-8"?>
<svg xmlns="http://www.w3.org/2000/svg" xmlns:xlink="http://www.w3.org/1999/xlink" viewBox="0 0 100 100">
  <!-- Rounded background -->
  <rect width="100" height="100" rx="22" ry="22" fill="#C43B31"/>
  <!-- Globe mark, scaled to fit within the rounded tile -->
  <svg viewBox="30 82 901 893" x="8" y="8" width="84" height="84">
    <style type="text/css">
      .st0{fill-rule:evenodd;clip-rule:evenodd;}
      .st1{fill-rule:evenodd;clip-rule:evenodd;fill:#FFFFFF;}
      .st2{fill:#FFFFFF;}
      .st3{fill:#FFFFFF;}
      .st4{opacity:0.3;fill:#FFFFFF;}
      .st5{opacity:0.2;fill:#FFFFFF;}
      .st6{opacity:0.4;fill:#FFFFFF;}
      .st7{opacity:0.4;fill:#FFFFFF;}
      .st8{fill:#E8D8D8;}
    </style>
    <g>
	<g>
		<path class="st2" d="M477.64,92.54C237,92.54,41.2,288.33,41.2,528.88c0,29.96,3.04,59.26,8.82,87.52L76,597.06
			c-3.79-22.19-5.79-44.94-5.79-68.17c0-224.62,182.81-407.33,407.43-407.33c46.27,0,90.74,7.78,132.27,22l22.57-22.57
			C584.41,102.59,532.16,92.54,477.64,92.54z M912.85,497.88l-28.16,16.88c0.19,4.74,0.28,9.39,0.28,14.13
			c0,224.72-182.71,407.43-407.33,407.43c-84.96,0-163.85-26.07-229.27-70.73l-31.57,12.99c72.72,54.42,163.08,86.76,260.84,86.76
			c240.55,0,436.35-195.8,436.35-436.44C913.99,518.45,913.61,508.12,912.85,497.88z"/>
	</g>
	<path class="st2" d="M734.69,191.75c-3.23,0.8-6.49,1.52-9.72,2.32c-8.34,2.1-12.4,0.18-16.97-8.52
		c9.94-1.96,19.73-3.92,29.44-5.84c7.65-1.49,15.27-2.94,22.88-4.39c1.02-0.22,2.61,0.44,3.26,1.27c1.7,1.99,3.01,4.31,4.82,7.03
		c-6.74,1.63-13.27,3.23-19.76,4.79C743.98,189.54,739.34,190.63,734.69,191.75z"/>
	<path class="st2" d="M724.52,197.84c1.74-0.62,3.01-1.12,4.35-1.45c7.58-1.92,15.16-3.88,22.77-5.77c3.48-0.91,7-1.78,10.52-2.65
		c8.99-2.25,8.99-2.18,13.53,6.93c-4.79,1.31-9.54,2.61-14.21,3.88c-8.59,2.39-17.08,4.68-25.64,6.64
		C730.53,206.66,727.74,202.01,724.52,197.84z"/>
	<path class="st2" d="M739.89,207.33c8.63-2.36,16.79-4.64,24.84-6.78c3.55-0.94,7.11-1.89,10.66-2.76
		c1.45-0.36,3.73,0.98,5.04,2.21c1.49,1.38,2.28,3.52,3.77,5.91c-3.52,0.94-6.93,1.92-10.33,2.86c-7.69,2.18-15.19,4.28-22.77,5.95
		C746.2,215.78,743.26,211.5,739.89,207.33z"/>
	<path class="st2" d="M714.79,162.81c-7.98,0.8-15.95,1.63-23.93,2.47c-10.37,1.09-17.04-3.08-19.87-12.84
		c7.72-0.58,15.34-1.12,22.95-1.67c0.36-0.04,0.76-0.04,1.12-0.07c21.39-1.52,42.79-3.08,64.22-4.39c1.7-0.11,4.35,0.91,5.19,2.28
		c10.55,17.33,20.89,34.85,31.26,52.29c0.33,0.54,0.51,1.16,0.87,2.03c-1.81,0.54-3.41,0.91-4.9,1.45c-3.34,1.2-5.29,0.15-7.18-2.97
		c-8.16-13.34-16.53-26.58-25.06-39.71c-1.02-1.49-3.7-2.9-5.44-2.76C740.94,160.12,727.85,161.43,714.79,162.81z"/>
	<path class="st2" d="M789.09,223.61c21.43-4.17,42.97-7.98,65.45-12.11c-6.78,22.77-13.31,44.64-19.91,66.76
		c-0.15,0.43-0.29,0.83-0.4,1.27c-10.04-0.51-19.83-0.87-29.62-1.6c-2.25-0.18-3.88,0.22-5.26,1.38c-0.69,0.58-1.34,1.34-1.99,2.32
		c-7.83,12-16.03,23.75-23.79,35.79c-1.23,1.85-1.7,4.97-1.12,7.14c3.55,13.02,7.54,25.89,11.2,38.83c0.4,1.38,0.11,3.92-0.83,4.61
		c-26.91,19.58-53.92,39.02-82.02,59.25c0.98-2.47,1.41-3.81,2.03-5.04c10.77-21.43,21.58-42.79,32.24-64.25
		c0.87-1.74,1.12-4.13,0.76-6.09c-5.4-29.81-10.88-59.58-16.5-89.35c-0.62-3.12,0-4.79,2.68-6.45
		c11.86-7.54,23.86-14.94,35.39-22.95c0.36-0.25,0.69-0.47,1.05-0.73c8.38-5.87,18.06-6.35,27.41-8.16
		C786.95,224.01,788,223.8,789.09,223.61z"/>
	<path class="st2" d="M863.79,205.7c-0.04,0.44-0.11,0.83-0.18,1.23c-12.58,2.18-25.2,4.39-37.78,6.49
		c-13.42,2.21-26.87,4.39-40.29,6.6c-4.97,0.8-9.97,1.63-14.94,2.43c-7.87,1.3-7.87,1.34-11.86-6.85c5.8-1.56,11.6-3.08,17.44-4.61
		c8.34-2.21,16.75-4.46,25.27-6.71c-5-8.67-9.9-17.11-15.34-26.51c13.34,0.8,26.07-3.77,38.29,4.39
		C837.14,190.62,850.63,197.91,863.79,205.7z"/>
	<polygon class="st2" points="873.03,430.77 877.71,435.05 874.48,436.79 862.88,443.06 862.41,443.32 864.51,445.28 863.14,446.8 
		844.61,429.94 846.35,428.02 847.91,429.43 853.89,413.33 860.27,419.13 852.4,433.89 857.04,438.1 871,428.92 	"/>
	<path class="st2" d="M912.63,420.69l-3.66,1.34l-6.42,2.39l-1.12,0.43l-1.02,0.36l-13.31,4.93l-2.21,0.83l2.32,2.1l-2.47,2.72
		l-13.63-12.44l-20.31-18.49l3.84-4.24l3.48,3.15l2.79-12.84l0.33-1.45l0.51-2.47l1.45-6.71l1.02-3.74l5.98,5.44
		c-1.05,4.1-1.05,8.49,0.04,12.69c0.36,1.45,0.83,2.86,1.45,4.28c0.83,1.96,1.92,3.84,3.19,5.62c1.05,1.92,2.36,3.48,3.77,4.71
		c1.16,1.01,2.39,1.81,3.7,2.43c0.47,0.33,0.94,0.65,1.45,0.94c1.85,1.09,3.81,1.96,5.77,2.61c1.45,0.44,2.94,0.8,4.39,1.02
		c1.78,0.25,3.59,0.36,5.37,0.25c2.5-0.07,4.97-0.58,7.29-1.41L912.63,420.69z"/>
	<path class="st2" d="M914.73,399.08c-1.6,1.89-3.84,3.95-7.07,5.76c0,0,2.54,0.18,5.37-2.03c0,0-3.66,8.19-11.24,7.98
		c-1.31-0.04-2.72-0.15-4.13-0.33c-4.32-0.54-8.92-1.63-11.78-2.39c-1.89-0.47-3.48-1.67-4.42-3.34
		c-2.25-3.84-6.16-11.24-7.18-17.48c-0.33-1.81,0.29-3.7,1.6-5c1.89-1.89,4.75-5,6.13-7.69c1.67-3.19,2.07-4.03,2.18-4.21
		c0-0.04,0-0.04,0-0.04l0.04-0.04c0,0,0,0.04,0,0.11c-0.07,1.41-0.54,15.45,4.06,22.84c2.32,3.77,3.99,3.88,5.11,2.97l0.33-0.33
		c1.05-1.2,1.23-2.94,0.62-4.39c-1.99-4.75-7.4-18.49-4.82-23.53c3.08-6.2,8.85-12.04,25.78-11.53
		C916,358,927.53,383.81,914.73,399.08z"/>
	<path class="st2" d="M90.35,735.94c-1.27-1.78-1.09-4.57-0.76-7.47c0.22-1.81,0.47-3.66,0.47-5.33c0.69-0.07,1.41-0.14,2.14-0.22
		c8.38,11.6,16.86,23.1,24.88,34.95c1.05,1.56-0.51,4.93-0.87,7.47c-0.54,0.04-1.05,0.07-1.6,0.11c-4.24-5.04-8.59-9.97-12.84-15.01
		c0-0.04-0.04-0.04-0.04-0.07C97.78,745.69,93.9,740.91,90.35,735.94z"/>
	<path class="st2" d="M109.02,775.25c1.05,1.12-0.51,4.57-1.01,8.16c-4.28-3.7-7.11-6.49-10.3-8.85c-4.57-3.37-6.09-7.47-3.92-13.63
		C99.13,765.78,104.46,770.17,109.02,775.25z"/>
	<path class="st2" d="M111.74,774.49c-6.16-5.87-10.88-11.13-16.39-15.41c-5.77-4.5-6.2-9.43-3.12-16.06
		c5.22,5.76,10.44,11.35,15.45,17.11c0,0.04,0.04,0.04,0.04,0.07c1.85,2.1,3.63,4.21,5.4,6.38c0.36,0.47,0.36,1.27,0.15,2.25
		C112.94,770.39,112.14,772.49,111.74,774.49z"/>
	<path class="st2" d="M95.68,724.05c-5.62-7.18-7.76-14.32-5.22-22.95c0.62-2.07,0.83-4.24,1.45-7.58c1.45,2.18,2.47,3.52,3.26,4.97
		c8.56,15.27,16.75,30.68,25.67,45.69c3.19,5.33,1.41,8.81-1.78,13.27C111.13,745.98,103.95,734.56,95.68,724.05z"/>
	<path class="st2" d="M92.42,686.73c-1.27-2.36-1.56-5.73-1.09-8.41c0.73-3.88,1.7-7.76,2.79-11.86c0,0,0,0,0-0.04
		c0.73-2.68,1.49-5.51,2.25-8.52c1.96,4.03,3.48,6.93,4.82,9.9c11.86,26.25,23.64,52.54,35.57,78.76c1.02,2.25,1.23,4.02,0.47,5.95
		c-0.22,0.58-0.54,1.2-0.98,1.81c-5.33,8.19-10.55,16.43-15.92,24.91c-2.28,3.63-4.64,7.32-7.03,11.1c-2.14-1.99-3.66-3.48-5.4-5.11
		c2.43-4.64,4.75-9.25,7.11-13.74c3.08-5.98,6.13-11.82,9.25-17.66c1.6-2.94,1.63-5.26,0-8.23
		C113.49,726.04,102.82,706.46,92.42,686.73z"/>
	<path class="st2" d="M723.69,351.74c0.16,2.12-0.16,4.4-1.14,6.2c-13.55,25.47-27.26,51.1-41.14,76.57
		c-0.82,1.47-2.29,2.78-3.76,3.59c-11.92,6.86-23.67,13.88-35.75,20.58c-4.74,2.61-9.47,5.22-14.37,7.67
		c-8.49,4.25-18.12,6.21-27.43,8.98c-11.43,3.26-23.02,6.37-34.61,9.31c-1.96,0.49-4.41,0.49-6.04-0.33
		c-18.28-9.3-36.24-18.94-54.37-28.57c-0.65-0.33-1.14-0.65-1.96-1.14c26.61-44.25,52.9-88.33,80.17-133.56
		c-6.2,1.96-11.27,3.43-16.33,4.9c-25.47,7.84-50.61,16.33-76.41,23.02c-11.43,2.94-23.84,2.61-35.75,3.27
		c-3.75,0.16-6.2,0.81-7.84,4.57c-5.72,13.88-16.33,19.92-31.18,22.86c-35.59,6.69-70.69,15.35-105.96,23.02
		c-3.1,0.65-5.39,1.8-5.71,5.39c-0.98,8.49-5.23,15.35-10.45,21.88c-2.94,3.75-5.88,7.68-8.33,11.76c-1.96,3.75-4.57,2.45-7.18,1.47
		c-3.1-1.14-1.47-3.43-0.98-5.39c1.14-4.24,2.29-8.49,3.59-12.73c-0.49-0.33-0.82-0.65-1.14-0.98
		c-13.39,6.86-26.78,13.71-40.65,20.9c-2.45-5.39-4.74-9.8-3.27-16.16c2.12-8.16,6.2-12.74,13.39-16.98
		c49.63-29.06,99.27-58.61,148.58-88.49c9.14-5.55,19.1-4.57,28.74-6.86c2.45-0.49,5.39-1.47,6.69-3.26
		c10.61-13.23,24.33-21.06,40-26.77c22.69-8.33,44.9-17.96,67.27-26.78c4.9-1.79,10.29-2.45,15.35-3.26c2.61-0.49,5.39-0.65,8-0.49
		c6.21,0.65,11.92,0.16,17.31-1.47c5.39-1.79,10.29-4.57,15.02-8.65c1.14-0.98,3.27-1.31,5.06-1.47
		c25.14-0.82,50.29-1.63,75.43-2.28c1.96-0.17,4.08,0.33,5.88,0.98c8.82,3.43,17.63,6.86,26.45,10.61c1.47,0.65,3.26,2.77,3.59,4.41
		C716.35,289.21,719.94,320.55,723.69,351.74z"/>
	<path class="st2" d="M321.81,581.3c11.48-7.45,22.5-14.62,33.53-21.76c43.65-28.22,87.33-56.39,130.9-84.73
		c3.99-2.6,7.24-3.18,11.8-1.26c20.1,8.47,40.41,16.43,60.56,24.79c3.24,1.34,5.88,1.27,8.97-0.19c9.91-4.68,19.93-9.14,30.18-13.81
		c18.11,27.98,36.01,55.63,54.11,83.59c-1.42,0.83-2.47,1.56-3.62,2.1c-34.08,15.95-68.27,31.68-102.2,47.94
		c-9.53,4.56-19.64,4.86-29.6,6.33c-25.54,3.76-51.15,7.1-76.75,10.5c-1.86,0.25-4.06,0.12-5.72-0.65
		c-36.85-17.1-73.65-34.31-110.46-51.51C323.1,582.43,322.77,582.06,321.81,581.3z"/>
	<path class="st2" d="M359.27,808.35c18.69-16.7,37.4-33.43,56.32-50.35c5.1,3.29,10.15,6.18,14.78,9.65
		c3.19,2.39,5.49,2.23,8.8,0.08c36.15-23.53,72.43-46.87,108.65-70.29c16.39-10.6,16.36-10.56,36.41-7.4
		c12.67,1.99,25.37,3.74,38.06,5.55c1.44,0.21,2.92,0.17,4.41,0.25c0.75-4.72-0.55-7.7-5.41-8.31
		c-17.51-2.19-30.2-12.07-41.63-24.81c-9.89-11.02-20.95-20.99-31.48-31.43c-1.15-1.14-2.2-2.37-3.76-4.06
		c36.54-16.01,72.6-31.8,109.13-47.8c3.18,8.01,6.32,15.83,9.38,23.67c12,30.7,23.44,61.62,36.24,91.99
		c4.7,11.14-1.04,17.99-6.1,25.76c-0.8,1.23-3.18,1.59-4.91,2.06c-106.3,28.97-212.61,57.91-318.94,86.79
		C366.06,810.54,362.43,813.48,359.27,808.35z"/>
	<path class="st2" d="M421.98,636.97c-5.06,3.1-9.47,5.71-13.88,8.33c-39.02,22.69-78.53,45.06-117.39,68.24
		c-6.53,3.75-12.9,7.67-19.26,11.59c-32.33,19.59-63.51,41.14-95.19,61.72c-2.94,1.96-5.88,3.92-8.82,5.88
		c-8.16,5.39-16.33,10.77-24.49,16c-32.16,21.06-60.34,38.91-92.5,60.14c-4.74,3.1-7.02,2.12-9.96-2.61
		c11.27-16.82,18.38-30.26,29.48-47.08c6.69-10.28,13.72-20.41,20.25-30.86c1.96-2.94,3.43-2.78,6.21-1.47
		c5.55,2.61,11.43,5.23,17.31,8l9.31-11.75c3.59-4.57,7.18-8.98,10.61-13.39c2.78-3.43,5.39-6.86,8.16-10.28v-0.16
		c11.92-14.86,23.68-29.88,35.76-44.74c1.47-1.96,3.92-3.59,6.37-4.25c16-5.06,32.17-9.63,48.33-14.53
		c1.96-0.65,4.08-2.12,5.39-3.75c7.51-10.45,14.53-21.23,22.21-31.51c0.82-1.14,1.79-2.29,2.77-3.26
		c3.26-3.92,7.18-7.67,10.78-11.27c17.14-17.47,34.45-34.77,51.92-52.08c0.98-0.98,3.26-1.79,4.41-1.3
		C360.26,607.09,390.63,621.78,421.98,636.97z"/>
	<path class="st2" d="M854.54,211.5c-6.78,22.77-13.31,44.64-19.91,66.76c-0.15,0.43-0.29,0.83-0.4,1.27
		c-10.04-0.51-19.83-0.87-29.62-1.6c-2.25-0.18-3.88,0.22-5.26,1.38c-0.69,0.58-1.34,1.34-1.99,2.32
		c-7.83,12-16.03,23.75-23.79,35.79c-1.23,1.85-1.7,4.97-1.12,7.14c3.55,13.02,7.54,25.89,11.2,38.83c0.4,1.38,0.11,3.92-0.83,4.61
		c-26.91,19.58-53.92,39.02-82.02,59.25c0.98-2.47,1.41-3.81,2.03-5.04c10.77-21.43,21.58-42.79,32.24-64.25
		c0.87-1.74,1.12-4.13,0.76-6.09c-5.4-29.81-10.88-59.58-16.5-89.35c-0.62-3.12,0-4.79,2.68-6.45
		c11.86-7.54,23.86-14.94,35.39-22.95c0.36-0.25,0.69-0.47,1.05-0.73c8.38-5.87,18.06-6.35,27.41-8.16
		c1.09-0.22,2.14-0.44,3.23-0.62C810.52,219.45,832.06,215.64,854.54,211.5z"/>
	<path class="st2" d="M838.31,470.27c1.47,0.98,2.77,1.79,4.74,2.94c-6.04,8.65-12.08,17.14-18.29,26.12
		c-5.06-2.77-9.63-5.22-14.86-8.16c0.98-1.14,1.63-2.28,2.61-3.43c0.65-0.98,1.47-1.96,2.12-2.94c0.49-0.65,0.98-1.31,1.31-1.96
		c1.14-1.47,2.29-2.94,3.43-4.41c0.33-0.49,0.65-0.98,0.98-1.47c2.29-3.1,4.41-6.04,6.69-9.14c-1.47-3.1-3.27-1.79-5.23-0.16
		l-0.49,0.49c0,0,0,0-0.16,0c-6.2,5.23-12.41,10.45-18.61,15.35c-1.31,0.98-3.27,1.96-4.9,1.96c-49.31-1.14-98.78-2.28-148.74-3.59
		c-6.37-0.16-12.74-0.33-18.94-0.49c1.63-1.31,2.45-2.12,3.43-2.78c4.08-2.45,8.16-5.06,12.25-7.67
		c14.21-8.98,28.41-17.96,42.78-26.78c1.96-1.31,4.9-1.96,7.35-1.47c33.14,6.04,66.29,12.41,99.59,18.45c2.94,0.65,6.53,0,9.31-0.98
		c8.16-2.94,16-6.53,24.33-9.96c0.82,1.3,1.47,2.61,2.12,3.91c7.02-10.77,12.57-20.57,12.57-20.57l4.9,4.41l-11.92,17.96
		l17.14-13.06l3.92,3.75c-3.26,1.8-12.57,9.31-21.39,16.82c1.14,2.12,2.29,4.08,3.43,6.21L838.31,470.27z"/>
	<path class="st2" d="M863.79,205.7c-0.04,0.44-0.11,0.83-0.18,1.23c-12.58,2.18-25.2,4.39-37.78,6.49
		c-13.42,2.21-26.87,4.39-40.29,6.6c-4.97,0.8-9.97,1.63-14.94,2.43c-7.87,1.3-7.87,1.34-11.86-6.85c5.8-1.56,11.6-3.08,17.44-4.61
		c8.34-2.21,16.75-4.46,25.27-6.71c-5-8.67-9.9-17.11-15.34-26.51c13.34,0.8,26.07-3.77,38.29,4.39
		C837.14,190.62,850.63,197.91,863.79,205.7z"/>
	<path class="st2" d="M796.6,202.91c-1.81,0.54-3.41,0.91-4.9,1.45c-3.34,1.2-5.29,0.15-7.18-2.97
		c-8.16-13.34-16.53-26.58-25.06-39.71c-1.02-1.49-3.7-2.9-5.44-2.76c-13.09,1.2-26.18,2.5-39.23,3.88
		c-7.98,0.8-15.95,1.63-23.93,2.47c-10.37,1.09-17.04-3.08-19.87-12.84c7.72-0.58,15.34-1.12,22.95-1.67
		c0.36-0.04,0.76-0.04,1.12-0.07c21.39-1.52,42.79-3.08,64.22-4.39c1.7-0.11,4.35,0.91,5.19,2.28
		c10.55,17.33,20.89,34.85,31.26,52.29C796.05,201.42,796.23,202.04,796.6,202.91z"/>
	<path class="st2" d="M137.24,752.51c-0.22,0.58-0.54,1.2-0.98,1.81c-5.33,8.19-10.55,16.43-15.92,24.91
		c-2.28,3.63-4.64,7.32-7.03,11.1c-2.14-1.99-3.66-3.48-5.4-5.11c2.43-4.64,4.75-9.25,7.11-13.74c3.08-5.98,6.13-11.82,9.25-17.66
		c1.6-2.94,1.63-5.26,0-8.23c-10.77-19.54-21.43-39.13-31.84-58.85c-1.27-2.36-1.56-5.73-1.09-8.41c0.73-3.88,1.7-7.76,2.79-11.86
		c0,0,0,0,0-0.04c0.73-2.68,1.49-5.51,2.25-8.52c1.96,4.03,3.48,6.93,4.82,9.9c11.86,26.25,23.64,52.54,35.57,78.76
		C137.78,748.81,138,750.59,137.24,752.51z"/>
	<path class="st2" d="M435.01,766.52c-1.21-1.99-2.22-3.65-3.37-5.55c8.74-7.47,17.25-14.89,25.97-22.07
		c2.36-1.95,3.03-3.84,2.6-6.82c-2.84-19.59-5.62-39.18-8.1-58.82c-0.34-2.67,0.41-5.97,1.82-8.26c3.12-5.05,6.98-9.64,11.49-15.69
		c0.34,3.84,0.61,6.34,0.76,8.84c1.64,25.75,3.18,51.5,4.97,77.23c0.28,3.96-0.82,6.32-4.13,8.56c-9.23,6.25-18.18,12.91-27.25,19.4
		C438.3,764.39,436.78,765.35,435.01,766.52z"/>
	<path class="st2" d="M805,493.13c-8.65,9.31-17.14,18.29-25.47,27.26c-12.57,13.39-25.31,26.94-37.88,40.49
		c-2.29,2.45-4.57,4.9-6.7,7.35c-2.94,2.94-5.06,3.59-7.84-0.49c1.8-2.12,3.59-4.08,5.39-6.04c22.04-24.16,44.24-48.49,66.78-73.14
		C801.57,490.35,803.21,491.66,805,493.13z"/>
	<path class="st2" d="M119.07,757.44c-7.94-11.46-15.12-22.88-23.39-33.4c-5.62-7.18-7.76-14.32-5.22-22.95
		c0.62-2.07,0.83-4.24,1.45-7.58c1.45,2.18,2.47,3.52,3.26,4.97c8.56,15.27,16.75,30.68,25.67,45.69
		C124.04,749.5,122.26,752.98,119.07,757.44z"/>
	<path class="st2" d="M451.4,740.72c-3.45-12.83-6.46-25.58-10.42-38.03c-2.02-6.35-1.56-11.45,2.63-16.49
		c1.88-2.26,3.29-4.89,5.63-8.44c1.41,8.56,2.69,15.94,3.84,23.35c1.48,9.51,2.42,19.13,4.44,28.52
		C458.78,735.48,456.22,738.18,451.4,740.72z"/>
	<path class="st2" d="M116.2,765.35c-0.54,0.04-1.05,0.07-1.6,0.11c-4.24-5.04-8.59-9.97-12.84-15.01c0-0.04-0.04-0.04-0.04-0.07
		c-3.95-4.68-7.83-9.46-11.39-14.43c-1.27-1.78-1.09-4.57-0.76-7.47c0.22-1.81,0.47-3.66,0.47-5.33c0.69-0.07,1.41-0.14,2.14-0.22
		c8.38,11.6,16.86,23.1,24.88,34.95C118.13,759.44,116.57,762.81,116.2,765.35z"/>
	<path class="st2" d="M438.32,701.71c3.11,10.69,6.01,20.67,8.9,30.65c0.42,1.43,0.6,2.98,1.24,4.3c2.25,4.64,1.1,7.82-4.09,9.7
		c-4.06-10.64-8.32-21.25-12.03-32.05c-0.61-1.77,0.93-4.47,1.9-6.54C435.14,705.86,436.6,704.22,438.32,701.71z"/>
	<path class="st2" d="M113.27,768.83c-0.33,1.56-1.12,3.66-1.52,5.66c-6.16-5.87-10.88-11.13-16.39-15.41
		c-5.77-4.5-6.2-9.43-3.12-16.06c5.22,5.76,10.44,11.35,15.45,17.11c0,0.04,0.04,0.04,0.04,0.07c1.85,2.1,3.63,4.21,5.4,6.38
		C113.49,767.05,113.49,767.85,113.27,768.83z"/>
	<path class="st2" d="M431.6,720.03c3.91,9.33,7.79,18.6,11.74,28.04c-1.53,1.45-2.95,2.81-5.09,4.84
		c-3.16-6.03-5.77-11.87-9.15-17.23C425.4,729.84,424.87,724.85,431.6,720.03z"/>
	<path class="st2" d="M108.01,783.41c-4.28-3.7-7.11-6.49-10.3-8.85c-4.57-3.37-6.09-7.47-3.92-13.63
		c5.33,4.86,10.66,9.25,15.23,14.32C110.08,776.37,108.52,779.82,108.01,783.41z"/>
	<path class="st2" d="M425.35,734.24c3.99,6.91,7.49,12.21,10.05,17.93c0.72,1.61-1.32,4.45-2.1,6.73
		c-0.66-0.03-1.31-0.05-1.97-0.08c-2.97-5.09-6.44-9.97-8.63-15.38C421.9,741.43,424.11,738.21,425.35,734.24z"/>
	<g>
		<path class="st2" d="M914.73,399.08c-1.6,1.89-3.84,3.95-7.07,5.76c0,0,2.54,0.18,5.37-2.03c0,0-3.66,8.19-11.24,7.98
			c-1.31-0.04-2.72-0.15-4.13-0.33c-4.32-0.54-8.92-1.63-11.78-2.39c-1.89-0.47-3.48-1.67-4.42-3.34
			c-2.25-3.84-6.16-11.24-7.18-17.48c-0.33-1.81,0.29-3.7,1.6-5c1.89-1.89,4.75-5,6.13-7.69c1.67-3.19,2.07-4.03,2.18-4.21
			c0-0.04,0-0.04,0-0.04l0.04-0.04c0,0,0,0.04,0,0.11c-0.07,1.41-0.54,15.45,4.06,22.84c2.32,3.77,3.99,3.88,5.11,2.97l0.33-0.33
			c1.05-1.2,1.23-2.94,0.62-4.39c-1.99-4.75-7.4-18.49-4.82-23.53c3.08-6.2,8.85-12.04,25.78-11.53
			C916,358,927.53,383.81,914.73,399.08z"/>
		<path class="st2" d="M912.63,420.69l-3.66,1.34l-6.42,2.39l-1.12,0.43l-1.02,0.36l-13.31,4.93l-2.21,0.83l2.32,2.1l-2.47,2.72
			l-13.63-12.44l-20.31-18.49l3.84-4.24l3.48,3.15l2.79-12.84l0.33-1.45l0.51-2.47l1.45-6.71l1.02-3.74l5.98,5.44
			c-1.05,4.1-1.05,8.49,0.04,12.69c0.36,1.45,0.83,2.86,1.45,4.28c0.83,1.96,1.92,3.84,3.19,5.62c1.05,1.92,2.36,3.48,3.77,4.71
			c1.16,1.01,2.39,1.81,3.7,2.43c0.47,0.33,0.94,0.65,1.45,0.94c1.85,1.09,3.81,1.96,5.77,2.61c1.45,0.44,2.94,0.8,4.39,1.02
			c1.78,0.25,3.59,0.36,5.37,0.25c2.5-0.07,4.97-0.58,7.29-1.41L912.63,420.69z"/>
		<polygon class="st2" points="862.88,443.06 862.41,443.32 864.51,445.28 863.14,446.8 844.61,429.94 846.35,428.02 847.91,429.43 
			853.89,413.33 860.27,419.13 852.4,433.89 857.04,438.1 871,428.92 873.03,430.77 877.71,435.05 874.48,436.79 		"/>
	</g>
</g>
  </svg>
</svg>