<?xml version="1.0" encoding="utf-8"?>
<!-- Generator: Adobe Illustrator 26.0.1, SVG Export Plug-In . SVG Version: 6.00 Build 0)  -->
<svg version="1.1" id="Layer_1" xmlns="http://www.w3.org/2000/svg" xmlns:xlink="http://www.w3.org/1999/xlink" x="0px" y="0px"
	 viewBox="108 366 832 268" style="enable-background:new 108 366 832 268;" xml:space="preserve">
<style type="text/css">
	.st0{fill-rule:evenodd;clip-rule:evenodd;}
	.st1{fill-rule:evenodd;clip-rule:evenodd;fill:#C43B31;}
	.st2{fill:#FFFFFF;}
	.st3{fill:#C43B31;}
	.st4{opacity:0.06;}
	.st5{opacity:0.04;}
	.st6{opacity:0.33;}
	.st7{opacity:0.26;fill:#FFFFFF;}
	.st8{fill:#DAE0E0;}
</style>
<g>
	<path d="M302.79,398.1c2.63-0.31,5.25-0.63,7.85-0.94c3.18-0.37,6.35-0.74,9.51-1.1c0.34-0.04,0.86,0.14,1.07,0.4
		c0.57,0.72,1.01,1.55,1.64,2.53c-2.65,0.46-5.18,0.91-7.68,1.35c-0.83,0.15-1.66,0.3-2.49,0.44c-1.63,0.29-3.24,0.59-4.87,0.87
		C305.3,402.11,303.42,400.81,302.79,398.1z"/>
	<g>
		<g>
			<g>
				<path d="M242.62,376.21c-68.26,0-123.81,55.54-123.81,123.78c0,8.5,0.86,16.81,2.5,24.83l7.37-5.49
					c-1.08-6.29-1.64-12.75-1.64-19.34c0-63.72,51.86-115.55,115.57-115.55c13.13,0,25.74,2.21,37.52,6.24l6.4-6.4
					C272.91,379.06,258.09,376.21,242.62,376.21z M366.08,491.19l-7.99,4.79c0.05,1.34,0.08,2.66,0.08,4.01
					c0,63.74-51.83,115.57-115.55,115.57c-24.1,0-46.48-7.4-65.04-20.06l-8.96,3.69c20.63,15.44,46.26,24.61,73.99,24.61
					c68.24,0,123.78-55.54,123.78-123.8C366.4,497.03,366.29,494.1,366.08,491.19z"/>
			</g>
			<path d="M315.54,404.35c-0.92,0.23-1.84,0.43-2.76,0.66c-2.37,0.6-3.52,0.05-4.81-2.42c2.82-0.56,5.6-1.11,8.35-1.66
				c2.17-0.42,4.33-0.83,6.49-1.24c0.29-0.06,0.74,0.12,0.93,0.36c0.48,0.57,0.85,1.22,1.37,2c-1.91,0.46-3.76,0.92-5.61,1.36
				C318.17,403.73,316.86,404.03,315.54,404.35z"/>
			<path d="M312.65,406.08c0.49-0.17,0.85-0.32,1.23-0.41c2.15-0.55,4.3-1.1,6.46-1.64c0.99-0.26,1.99-0.5,2.98-0.75
				c2.55-0.64,2.55-0.62,3.84,1.96c-1.36,0.37-2.71,0.74-4.03,1.1c-2.44,0.68-4.84,1.33-7.27,1.88
				C314.36,408.58,313.57,407.26,312.65,406.08z"/>
			<path d="M317.01,408.77c2.45-0.67,4.76-1.32,7.05-1.92c1.01-0.27,2.02-0.53,3.02-0.78c0.41-0.1,1.06,0.28,1.43,0.63
				c0.42,0.39,0.65,1,1.07,1.68c-1,0.27-1.96,0.55-2.93,0.81c-2.18,0.62-4.31,1.21-6.46,1.69
				C318.8,411.17,317.97,409.96,317.01,408.77z"/>
			<path d="M309.89,396.14c-2.26,0.23-4.53,0.46-6.79,0.7c-2.94,0.31-4.83-0.87-5.64-3.64c2.19-0.16,4.35-0.32,6.51-0.47
				c0.1-0.01,0.22-0.01,0.32-0.02c6.07-0.43,12.14-0.87,18.22-1.24c0.48-0.03,1.23,0.26,1.47,0.65c2.99,4.92,5.92,9.88,8.87,14.83
				c0.09,0.15,0.14,0.33,0.25,0.58c-0.51,0.15-0.97,0.26-1.39,0.41c-0.95,0.34-1.5,0.04-2.04-0.84c-2.31-3.79-4.69-7.54-7.11-11.26
				c-0.29-0.42-1.05-0.82-1.54-0.78C317.31,395.38,313.6,395.75,309.89,396.14z"/>
			<path d="M330.97,413.39c6.08-1.18,12.19-2.26,18.57-3.44c-1.92,6.46-3.77,12.66-5.65,18.94c-0.04,0.12-0.08,0.24-0.11,0.36
				c-2.85-0.14-5.63-0.25-8.4-0.45c-0.64-0.05-1.1,0.06-1.49,0.39c-0.2,0.16-0.38,0.38-0.57,0.66c-2.22,3.4-4.55,6.74-6.75,10.15
				c-0.35,0.52-0.48,1.41-0.32,2.03c1.01,3.69,2.14,7.34,3.18,11.02c0.11,0.39,0.03,1.11-0.24,1.31
				c-7.63,5.55-15.3,11.07-23.27,16.81c0.28-0.7,0.4-1.08,0.58-1.43c3.06-6.08,6.12-12.14,9.14-18.23c0.25-0.49,0.32-1.17,0.22-1.73
				c-1.53-8.46-3.09-16.9-4.68-25.34c-0.17-0.88,0-1.36,0.76-1.83c3.36-2.14,6.77-4.24,10.04-6.51c0.1-0.07,0.2-0.13,0.3-0.21
				c2.38-1.67,5.12-1.8,7.78-2.31C330.36,413.5,330.66,413.44,330.97,413.39z"/>
			<path d="M352.16,408.31c-0.01,0.12-0.03,0.24-0.05,0.35c-3.57,0.62-7.15,1.24-10.72,1.84c-3.81,0.63-7.62,1.24-11.43,1.87
				c-1.41,0.23-2.83,0.46-4.24,0.69c-2.23,0.37-2.23,0.38-3.36-1.94c1.65-0.44,3.29-0.87,4.95-1.31c2.37-0.63,4.75-1.27,7.17-1.9
				c-1.42-2.46-2.81-4.85-4.35-7.52c3.79,0.23,7.4-1.07,10.86,1.24C344.6,404.03,348.43,406.1,352.16,408.31z"/>
			<polygon points="354.78,472.16 356.11,473.37 355.19,473.86 351.9,475.64 351.77,475.71 352.37,476.27 351.97,476.7 
				346.72,471.92 347.21,471.37 347.65,471.77 349.35,467.21 351.16,468.85 348.93,473.04 350.25,474.23 354.21,471.63 			"/>
			<path d="M366.01,469.3l-1.04,0.38l-1.82,0.68l-0.32,0.12l-0.29,0.1l-3.77,1.4l-0.63,0.24l0.66,0.6l-0.7,0.77l-3.87-3.53
				l-5.76-5.25l1.09-1.2l0.99,0.89l0.79-3.64l0.09-0.41l0.14-0.7l0.41-1.9l0.29-1.06l1.7,1.54c-0.3,1.16-0.3,2.41,0.01,3.6
				c0.1,0.41,0.24,0.81,0.41,1.21c0.24,0.56,0.55,1.09,0.91,1.59c0.3,0.55,0.67,0.99,1.07,1.34c0.33,0.29,0.68,0.51,1.05,0.69
				c0.13,0.09,0.27,0.19,0.41,0.27c0.52,0.31,1.08,0.56,1.64,0.74c0.41,0.12,0.83,0.23,1.24,0.29c0.5,0.07,1.02,0.1,1.52,0.07
				c0.71-0.02,1.41-0.16,2.07-0.4L366.01,469.3z"/>
			<path d="M366.61,463.17c-0.45,0.53-1.09,1.12-2.01,1.64c0,0,0.72,0.05,1.52-0.58c0,0-1.04,2.32-3.19,2.26
				c-0.37-0.01-0.77-0.04-1.17-0.09c-1.22-0.15-2.53-0.46-3.34-0.68c-0.53-0.13-0.99-0.47-1.25-0.95c-0.64-1.09-1.75-3.19-2.04-4.96
				c-0.09-0.51,0.08-1.05,0.45-1.42c0.53-0.53,1.35-1.42,1.74-2.18c0.47-0.91,0.59-1.14,0.62-1.19c0-0.01,0-0.01,0-0.01l0.01-0.01
				c0,0,0,0.01,0,0.03c-0.02,0.4-0.15,4.38,1.15,6.48c0.66,1.07,1.13,1.1,1.45,0.84l0.09-0.09c0.3-0.34,0.35-0.83,0.17-1.24
				c-0.57-1.35-2.1-5.25-1.37-6.68c0.87-1.76,2.51-3.41,7.31-3.27C366.97,451.51,370.24,458.84,366.61,463.17z"/>
			<path d="M132.76,558.72c-0.36-0.5-0.31-1.3-0.22-2.12c0.06-0.51,0.13-1.04,0.13-1.51c0.2-0.02,0.4-0.04,0.61-0.06
				c2.38,3.29,4.78,6.55,7.06,9.92c0.3,0.44-0.14,1.4-0.25,2.12c-0.15,0.01-0.3,0.02-0.45,0.03c-1.2-1.43-2.44-2.83-3.64-4.26
				c0-0.01-0.01-0.01-0.01-0.02C134.87,561.49,133.77,560.13,132.76,558.72z"/>
			<path d="M138.06,569.87c0.3,0.32-0.14,1.3-0.29,2.31c-1.21-1.05-2.02-1.84-2.92-2.51c-1.3-0.96-1.73-2.12-1.11-3.87
				C135.25,567.19,136.76,568.43,138.06,569.87z"/>
			<path d="M138.83,569.66c-1.75-1.67-3.09-3.16-4.65-4.37c-1.64-1.28-1.76-2.67-0.88-4.56c1.48,1.64,2.96,3.22,4.38,4.85
				c0,0.01,0.01,0.01,0.01,0.02c0.52,0.6,1.03,1.19,1.53,1.81c0.1,0.13,0.1,0.36,0.04,0.64
				C139.17,568.49,138.94,569.09,138.83,569.66z"/>
			<path d="M134.27,555.35c-1.59-2.04-2.2-4.06-1.48-6.51c0.17-0.59,0.24-1.2,0.41-2.15c0.41,0.62,0.7,1,0.93,1.41
				c2.43,4.33,4.75,8.7,7.28,12.96c0.91,1.51,0.4,2.5-0.5,3.76C138.65,561.57,136.62,558.33,134.27,555.35z"/>
			<path d="M133.35,544.76c-0.36-0.67-0.44-1.63-0.31-2.39c0.21-1.1,0.48-2.2,0.79-3.36c0,0,0,0,0-0.01
				c0.21-0.76,0.42-1.56,0.64-2.42c0.56,1.14,0.99,1.96,1.37,2.81c3.36,7.45,6.71,14.9,10.09,22.34c0.29,0.64,0.35,1.14,0.13,1.69
				c-0.06,0.16-0.15,0.34-0.28,0.51c-1.51,2.32-2.99,4.66-4.52,7.07c-0.65,1.03-1.32,2.08-2,3.15c-0.61-0.57-1.04-0.99-1.53-1.45
				c0.69-1.32,1.35-2.62,2.02-3.9c0.87-1.7,1.74-3.35,2.62-5.01c0.45-0.83,0.46-1.49,0-2.33
				C139.32,555.91,136.3,550.36,133.35,544.76z"/>
			<path d="M312.42,449.74c0.05,0.6-0.05,1.25-0.32,1.76c-3.84,7.23-7.73,14.5-11.67,21.72c-0.23,0.42-0.65,0.79-1.07,1.02
				c-3.38,1.95-6.72,3.94-10.14,5.84c-1.34,0.74-2.69,1.48-4.08,2.18c-2.41,1.21-5.14,1.76-7.78,2.55
				c-3.24,0.93-6.53,1.81-9.82,2.64c-0.56,0.14-1.25,0.14-1.71-0.09c-5.19-2.64-10.28-5.37-15.42-8.1
				c-0.18-0.09-0.32-0.19-0.56-0.32c7.55-12.55,15.01-25.06,22.74-37.89c-1.76,0.56-3.2,0.97-4.63,1.39
				c-7.22,2.22-14.36,4.63-21.68,6.53c-3.24,0.83-6.76,0.74-10.14,0.93c-1.07,0.05-1.76,0.23-2.22,1.3
				c-1.62,3.94-4.63,5.65-8.85,6.48c-10.1,1.9-20.05,4.35-30.06,6.53c-0.88,0.19-1.53,0.51-1.62,1.53
				c-0.28,2.41-1.48,4.35-2.96,6.21c-0.83,1.07-1.67,2.18-2.36,3.34c-0.56,1.07-1.3,0.69-2.04,0.42c-0.88-0.32-0.42-0.97-0.28-1.53
				c0.32-1.2,0.65-2.41,1.02-3.61c-0.14-0.09-0.23-0.19-0.32-0.28c-3.8,1.94-7.6,3.89-11.53,5.93c-0.69-1.53-1.34-2.78-0.93-4.58
				c0.6-2.32,1.76-3.61,3.8-4.82c14.08-8.24,28.16-16.63,42.15-25.1c2.59-1.58,5.42-1.3,8.15-1.95c0.69-0.14,1.53-0.42,1.9-0.93
				c3.01-3.75,6.9-5.97,11.35-7.59c6.44-2.36,12.74-5.09,19.08-7.6c1.39-0.51,2.92-0.69,4.35-0.93c0.74-0.14,1.53-0.19,2.27-0.14
				c1.76,0.19,3.38,0.05,4.91-0.42c1.53-0.51,2.92-1.3,4.26-2.45c0.32-0.28,0.93-0.37,1.44-0.42c7.13-0.23,14.27-0.46,21.4-0.65
				c0.56-0.05,1.16,0.09,1.67,0.28c2.5,0.97,5,1.95,7.5,3.01c0.42,0.19,0.93,0.79,1.02,1.25C310.34,432,311.35,440.89,312.42,449.74
				z"/>
			<path d="M198.42,514.86c3.26-2.11,6.38-4.15,9.51-6.17c12.38-8.01,24.77-16,37.13-24.04c1.13-0.74,2.05-0.9,3.35-0.36
				c5.7,2.4,11.46,4.66,17.18,7.03c0.92,0.38,1.67,0.36,2.55-0.05c2.81-1.33,5.65-2.59,8.56-3.92c5.14,7.94,10.21,15.78,15.35,23.71
				c-0.4,0.24-0.7,0.44-1.03,0.59c-9.67,4.52-19.37,8.99-28.99,13.6c-2.7,1.29-5.57,1.38-8.4,1.79c-7.25,1.07-14.51,2.01-21.77,2.98
				c-0.53,0.07-1.15,0.03-1.62-0.19c-10.45-4.85-20.89-9.73-31.33-14.61C198.78,515.18,198.69,515.07,198.42,514.86z"/>
			<path d="M209.04,579.26c5.3-4.74,10.61-9.48,15.98-14.28c1.45,0.93,2.88,1.75,4.19,2.74c0.91,0.68,1.56,0.63,2.5,0.02
				c10.26-6.67,20.55-13.3,30.82-19.94c4.65-3.01,4.64-2.99,10.33-2.1c3.59,0.56,7.2,1.06,10.8,1.58c0.41,0.06,0.83,0.05,1.25,0.07
				c0.21-1.34-0.16-2.18-1.54-2.36c-4.97-0.62-8.57-3.43-11.81-7.04c-2.81-3.13-5.94-5.95-8.93-8.92c-0.33-0.32-0.62-0.67-1.07-1.15
				c10.37-4.54,20.59-9.02,30.96-13.56c0.9,2.27,1.79,4.49,2.66,6.71c3.4,8.71,6.65,17.48,10.28,26.09c1.33,3.16-0.3,5.1-1.73,7.31
				c-0.23,0.35-0.9,0.45-1.39,0.58c-30.15,8.22-60.31,16.43-90.47,24.62C210.97,579.88,209.94,580.72,209.04,579.26z"/>
			<path d="M226.83,530.65c-1.44,0.88-2.69,1.62-3.94,2.36c-11.07,6.44-22.28,12.78-33.3,19.36c-1.85,1.07-3.66,2.18-5.46,3.29
				c-9.17,5.56-18.02,11.67-27,17.51c-0.83,0.56-1.67,1.11-2.5,1.67c-2.32,1.53-4.63,3.06-6.95,4.54
				c-9.12,5.97-17.12,11.04-26.24,17.06c-1.34,0.88-1.99,0.6-2.83-0.74c3.2-4.77,5.21-8.59,8.36-13.36c1.9-2.92,3.89-5.79,5.74-8.75
				c0.56-0.83,0.97-0.79,1.76-0.42c1.57,0.74,3.24,1.48,4.91,2.27l2.64-3.33c1.02-1.3,2.04-2.55,3.01-3.8
				c0.79-0.97,1.53-1.94,2.32-2.92v-0.05c3.38-4.21,6.72-8.48,10.14-12.69c0.42-0.56,1.11-1.02,1.81-1.2
				c4.54-1.44,9.12-2.73,13.71-4.12c0.56-0.18,1.16-0.6,1.53-1.07c2.13-2.96,4.12-6.02,6.3-8.94c0.23-0.32,0.51-0.65,0.79-0.93
				c0.93-1.11,2.04-2.18,3.06-3.2c4.86-4.95,9.77-9.86,14.73-14.77c0.28-0.28,0.93-0.51,1.25-0.37
				C209.32,522.17,217.94,526.34,226.83,530.65z"/>
			<path d="M349.54,409.96c-1.92,6.46-3.77,12.66-5.65,18.94c-0.04,0.12-0.08,0.24-0.11,0.36c-2.85-0.14-5.63-0.25-8.4-0.45
				c-0.64-0.05-1.1,0.06-1.49,0.39c-0.2,0.16-0.38,0.38-0.57,0.66c-2.22,3.4-4.55,6.74-6.75,10.15c-0.35,0.52-0.48,1.41-0.32,2.03
				c1.01,3.69,2.14,7.34,3.18,11.02c0.11,0.39,0.03,1.11-0.24,1.31c-7.63,5.55-15.3,11.07-23.27,16.81c0.28-0.7,0.4-1.08,0.58-1.43
				c3.06-6.08,6.12-12.14,9.14-18.23c0.25-0.49,0.32-1.17,0.22-1.73c-1.53-8.46-3.09-16.9-4.68-25.34c-0.17-0.88,0-1.36,0.76-1.83
				c3.36-2.14,6.77-4.24,10.04-6.51c0.1-0.07,0.2-0.13,0.3-0.21c2.38-1.67,5.12-1.8,7.78-2.31c0.31-0.06,0.61-0.12,0.92-0.18
				C337.05,412.21,343.16,411.13,349.54,409.96z"/>
			<path d="M344.93,483.36c0.42,0.28,0.79,0.51,1.34,0.83c-1.71,2.45-3.43,4.86-5.19,7.41c-1.44-0.79-2.73-1.48-4.21-2.32
				c0.28-0.32,0.46-0.65,0.74-0.97c0.19-0.28,0.42-0.56,0.6-0.83c0.14-0.19,0.28-0.37,0.37-0.56c0.32-0.42,0.65-0.83,0.97-1.25
				c0.09-0.14,0.19-0.28,0.28-0.42c0.65-0.88,1.25-1.71,1.9-2.59c-0.42-0.88-0.93-0.51-1.48-0.05l-0.14,0.14c0,0,0,0-0.05,0
				c-1.76,1.48-3.52,2.96-5.28,4.35c-0.37,0.28-0.93,0.56-1.39,0.56c-13.99-0.32-28.02-0.65-42.19-1.02
				c-1.81-0.05-3.61-0.09-5.37-0.14c0.46-0.37,0.69-0.6,0.97-0.79c1.16-0.69,2.32-1.43,3.47-2.18c4.03-2.55,8.06-5.09,12.13-7.6
				c0.56-0.37,1.39-0.56,2.08-0.42c9.4,1.71,18.8,3.52,28.25,5.23c0.83,0.19,1.85,0,2.64-0.28c2.32-0.83,4.54-1.85,6.9-2.82
				c0.23,0.37,0.42,0.74,0.6,1.11c1.99-3.06,3.57-5.83,3.57-5.83l1.39,1.25l-3.38,5.09l4.86-3.71l1.11,1.07
				c-0.93,0.51-3.57,2.64-6.07,4.77c0.32,0.6,0.65,1.16,0.97,1.76L344.93,483.36z"/>
			<path d="M352.16,408.31c-0.01,0.12-0.03,0.24-0.05,0.35c-3.57,0.62-7.15,1.24-10.72,1.84c-3.81,0.63-7.62,1.24-11.43,1.87
				c-1.41,0.23-2.83,0.46-4.24,0.69c-2.23,0.37-2.23,0.38-3.36-1.94c1.65-0.44,3.29-0.87,4.95-1.31c2.37-0.63,4.75-1.27,7.17-1.9
				c-1.42-2.46-2.81-4.85-4.35-7.52c3.79,0.23,7.4-1.07,10.86,1.24C344.6,404.03,348.43,406.1,352.16,408.31z"/>
			<path d="M333.1,407.52c-0.51,0.15-0.97,0.26-1.39,0.41c-0.95,0.34-1.5,0.04-2.04-0.84c-2.31-3.79-4.69-7.54-7.11-11.26
				c-0.29-0.42-1.05-0.82-1.54-0.78c-3.71,0.34-7.43,0.71-11.13,1.1c-2.26,0.23-4.53,0.46-6.79,0.7c-2.94,0.31-4.83-0.87-5.64-3.64
				c2.19-0.16,4.35-0.32,6.51-0.47c0.1-0.01,0.22-0.01,0.32-0.02c6.07-0.43,12.14-0.87,18.22-1.24c0.48-0.03,1.23,0.26,1.47,0.65
				c2.99,4.92,5.92,9.88,8.87,14.83C332.95,407.1,333,407.27,333.1,407.52z"/>
			<path d="M146.06,563.42c-0.06,0.16-0.15,0.34-0.28,0.51c-1.51,2.32-2.99,4.66-4.52,7.07c-0.65,1.03-1.32,2.08-2,3.15
				c-0.61-0.57-1.04-0.99-1.53-1.45c0.69-1.32,1.35-2.62,2.02-3.9c0.87-1.7,1.74-3.35,2.62-5.01c0.45-0.83,0.46-1.49,0-2.33
				c-3.05-5.54-6.08-11.1-9.03-16.69c-0.36-0.67-0.44-1.63-0.31-2.39c0.21-1.1,0.48-2.2,0.79-3.36c0,0,0,0,0-0.01
				c0.21-0.76,0.42-1.56,0.64-2.42c0.56,1.14,0.99,1.96,1.37,2.81c3.36,7.45,6.71,14.9,10.09,22.34
				C146.21,562.37,146.28,562.88,146.06,563.42z"/>
			<path d="M230.53,567.4c-0.34-0.56-0.63-1.04-0.96-1.57c2.48-2.12,4.89-4.22,7.37-6.26c0.67-0.55,0.86-1.09,0.74-1.94
				c-0.81-5.56-1.59-11.11-2.3-16.68c-0.1-0.76,0.12-1.69,0.52-2.34c0.88-1.43,1.98-2.73,3.26-4.45c0.1,1.09,0.17,1.8,0.22,2.51
				c0.46,7.3,0.9,14.61,1.41,21.91c0.08,1.12-0.23,1.79-1.17,2.43c-2.62,1.77-5.16,3.66-7.73,5.5
				C231.46,566.79,231.03,567.06,230.53,567.4z"/>
			<path d="M335.48,489.84c-2.45,2.64-4.86,5.19-7.22,7.73c-3.57,3.8-7.18,7.64-10.74,11.49c-0.65,0.7-1.3,1.39-1.9,2.09
				c-0.83,0.83-1.44,1.02-2.22-0.14c0.51-0.6,1.02-1.16,1.53-1.71c6.25-6.85,12.55-13.76,18.94-20.75
				C334.51,489.06,334.97,489.43,335.48,489.84z"/>
			<path d="M140.91,564.82c-2.25-3.25-4.29-6.49-6.63-9.47c-1.59-2.04-2.2-4.06-1.48-6.51c0.17-0.59,0.24-1.2,0.41-2.15
				c0.41,0.62,0.7,1,0.93,1.41c2.43,4.33,4.75,8.7,7.28,12.96C142.32,562.57,141.81,563.56,140.91,564.82z"/>
			<path d="M235.18,560.08c-0.98-3.64-1.83-7.26-2.96-10.79c-0.57-1.8-0.44-3.25,0.75-4.68c0.53-0.64,0.93-1.39,1.6-2.39
				c0.4,2.43,0.76,4.52,1.09,6.62c0.42,2.7,0.69,5.43,1.26,8.09C237.27,558.59,236.55,559.36,235.18,560.08z"/>
			<path d="M140.09,567.06c-0.15,0.01-0.3,0.02-0.45,0.03c-1.2-1.43-2.44-2.83-3.64-4.26c0-0.01-0.01-0.01-0.01-0.02
				c-1.12-1.33-2.22-2.68-3.23-4.09c-0.36-0.5-0.31-1.3-0.22-2.12c0.06-0.51,0.13-1.04,0.13-1.51c0.2-0.02,0.4-0.04,0.61-0.06
				c2.38,3.29,4.78,6.55,7.06,9.92C140.64,565.39,140.2,566.34,140.09,567.06z"/>
			<path d="M231.47,549.01c0.88,3.03,1.7,5.86,2.53,8.7c0.12,0.41,0.17,0.84,0.35,1.22c0.64,1.32,0.31,2.22-1.16,2.75
				c-1.15-3.02-2.36-6.03-3.41-9.09c-0.17-0.5,0.26-1.27,0.54-1.86C230.57,550.19,230.98,549.72,231.47,549.01z"/>
			<path d="M139.26,568.05c-0.09,0.44-0.32,1.04-0.43,1.6c-1.75-1.67-3.09-3.16-4.65-4.37c-1.64-1.28-1.76-2.67-0.88-4.56
				c1.48,1.64,2.96,3.22,4.38,4.85c0,0.01,0.01,0.01,0.01,0.02c0.52,0.6,1.03,1.19,1.53,1.81
				C139.32,567.55,139.32,567.77,139.26,568.05z"/>
			<path d="M229.56,554.21c1.11,2.65,2.21,5.28,3.33,7.95c-0.43,0.41-0.84,0.8-1.44,1.37c-0.9-1.71-1.64-3.37-2.6-4.89
				C227.8,556.99,227.65,555.58,229.56,554.21z"/>
			<path d="M137.77,572.19c-1.21-1.05-2.02-1.84-2.92-2.51c-1.3-0.96-1.73-2.12-1.11-3.87c1.51,1.38,3.02,2.62,4.32,4.06
				C138.36,570.19,137.91,571.17,137.77,572.19z"/>
			<path d="M227.79,558.24c1.13,1.96,2.12,3.46,2.85,5.09c0.2,0.46-0.38,1.26-0.6,1.91c-0.19-0.01-0.37-0.01-0.56-0.02
				c-0.84-1.44-1.83-2.83-2.45-4.36C226.81,560.28,227.44,559.36,227.79,558.24z"/>
			<g>
				<path d="M366.61,463.17c-0.45,0.53-1.09,1.12-2.01,1.64c0,0,0.72,0.05,1.52-0.58c0,0-1.04,2.32-3.19,2.26
					c-0.37-0.01-0.77-0.04-1.17-0.09c-1.22-0.15-2.53-0.46-3.34-0.68c-0.53-0.13-0.99-0.47-1.25-0.95
					c-0.64-1.09-1.75-3.19-2.04-4.96c-0.09-0.51,0.08-1.05,0.45-1.42c0.53-0.53,1.35-1.42,1.74-2.18c0.47-0.91,0.59-1.14,0.62-1.19
					c0-0.01,0-0.01,0-0.01l0.01-0.01c0,0,0,0.01,0,0.03c-0.02,0.4-0.15,4.38,1.15,6.48c0.66,1.07,1.13,1.1,1.45,0.84l0.09-0.09
					c0.3-0.34,0.35-0.83,0.17-1.24c-0.57-1.35-2.1-5.25-1.37-6.68c0.87-1.76,2.51-3.41,7.31-3.27
					C366.97,451.51,370.24,458.84,366.61,463.17z"/>
				<path d="M366.01,469.3l-1.04,0.38l-1.82,0.68l-0.32,0.12l-0.29,0.1l-3.77,1.4l-0.63,0.24l0.66,0.6l-0.7,0.77l-3.87-3.53
					l-5.76-5.25l1.09-1.2l0.99,0.89l0.79-3.64l0.09-0.41l0.14-0.7l0.41-1.9l0.29-1.06l1.7,1.54c-0.3,1.16-0.3,2.41,0.01,3.6
					c0.1,0.41,0.24,0.81,0.41,1.21c0.24,0.56,0.55,1.09,0.91,1.59c0.3,0.55,0.67,0.99,1.07,1.34c0.33,0.29,0.68,0.51,1.05,0.69
					c0.13,0.09,0.27,0.19,0.41,0.27c0.52,0.31,1.08,0.56,1.64,0.74c0.41,0.12,0.83,0.23,1.24,0.29c0.5,0.07,1.02,0.1,1.52,0.07
					c0.71-0.02,1.41-0.16,2.07-0.4L366.01,469.3z"/>
				<polygon points="351.9,475.64 351.77,475.71 352.37,476.27 351.97,476.7 346.72,471.92 347.21,471.37 347.65,471.77 
					349.35,467.21 351.16,468.85 348.93,473.04 350.25,474.23 354.21,471.63 354.78,472.16 356.11,473.37 355.19,473.86 				"/>
			</g>
		</g>
		<g>
			<g>
				<path d="M448.96,486.2h60.44v-19.66h-81.72v70.4h88.01V517.2h-66.74V486.2z M427.68,417.96v19.66h88.01v-19.66H427.68z"/>
				<path d="M602.52,494.64c16.85-5.38,28.26-19.24,28.26-37.28c0-23.23-18.73-39.52-43.75-39.52h-50.91v34.79h21.28v-14.87h27.24
					c14.47,0,24.51,7.46,24.51,19.59c0,12.14-10.04,19.59-24.51,19.59h-12.91v0.03h-35.61v59.96h21.28v-40.05h22.65l27.57,40.05
					h24.18L602.52,494.64z"/>
				<path d="M749.96,417.96l-38.65,72.57l-38.48-72.57h-21.28v118.98h21.28v-79.5l38.48,72.57l38.65-72.57v79.5h21.11V417.96H749.96
					z"/>
				<path d="M797.29,417.91v119.04h21.11V417.91H797.29z"/>
				<path d="M889.4,468.49c-18.57-4.25-27.24-7.66-27.24-17.2c0-8.17,8.01-15.32,19.75-15.32c11.57,0,23.32,4.94,33.54,13.79
					l11.57-15.66c-11.75-10.05-25.72-16.36-44.27-16.36c-24.68,0-42.05,14.99-42.05,35.43c0,21.96,16.85,28.95,41.03,34.56
					c18.73,4.43,27.06,7.66,27.06,17.37c0,8.34-7.49,15.49-21.95,15.49c-15.33,0-27.76-6.13-38.48-15.83l-12.26,15.16
					c12.93,12.09,29.96,18.9,50.05,18.9c27.92,0,43.92-14.82,43.92-35.76C930.08,481.77,913.74,473.94,889.4,468.49z"/>
			</g>
			<g>
				<path d="M427.91,560.46c0-6.92,5.64-12.73,12.35-12.73c3.46,0,6.6,1.54,8.86,3.98l-3.04,2.98c-1.44-1.76-3.56-2.87-5.82-2.87
					c-4.34,0-8,3.94-8,8.64c0,4.73,3.66,8.68,8,8.68c2.29,0,4.38-1.11,5.85-2.87l3.01,2.94c-2.26,2.47-5.41,4.02-8.86,4.02
					C433.55,573.22,427.91,567.38,427.91,560.46z"/>
				<path d="M451.62,563.51c0-5.27,4.34-9.68,9.48-9.68c5.13,0,9.48,4.41,9.48,9.68c0,5.27-4.34,9.72-9.48,9.72
					C455.96,573.22,451.62,568.78,451.62,563.51z M466.47,563.51c0-3.23-2.46-5.95-5.37-5.95c-2.94,0-5.41,2.72-5.41,5.95
					c0,3.26,2.46,5.99,5.41,5.99C464,569.49,466.47,566.77,466.47,563.51z"/>
				<path d="M490.69,561v11.8h-4.04v-10.94c0-2.51-1.54-4.3-3.73-4.3s-4,1.54-4.28,3.51v11.73h-4.17v-18.54h4.17v2.47
					c1.09-1.72,3.15-2.9,5.47-2.9C487.99,553.82,490.69,556.8,490.69,561z"/>
				<path d="M494.29,570.43l1.88-3.05c1.71,1.29,3.69,2.15,5.92,2.15c1.68,0,2.84-0.75,2.84-1.9c0-1.43-1.54-1.9-3.56-2.47
					c-3.83-1.04-6.26-2.19-6.29-5.49c0-3.48,2.74-5.84,6.67-5.84c2.43,0,4.86,0.9,6.77,2.22l-1.74,3.19
					c-1.68-1.11-3.49-1.68-5.03-1.68c-1.47,0-2.6,0.61-2.6,1.65c0,1.18,0.92,1.54,3.63,2.37c2.98,0.86,6.19,1.94,6.19,5.81
					c0,3.55-2.81,5.85-6.94,5.85C499.31,573.22,496.41,572.22,494.29,570.43z"/>
				<path d="M529.01,554.25v18.54h-4.17v-2.47c-1.09,1.72-3.15,2.91-5.47,2.91c-3.87,0-6.57-2.98-6.57-7.17v-11.8h4.04v10.94
					c0,2.51,1.54,4.3,3.73,4.3s4-1.54,4.28-3.51v-11.73H529.01z"/>
				<path d="M533.87,547.73h4.17v25.06h-4.17V547.73z"/>
				<path d="M552.96,571.75c-0.99,0.9-2.43,1.47-3.76,1.47c-2.94,0-5-2.22-5-5.34v-10h-2.57v-3.62h2.57v-5.09h4.07v5.09h4v3.62h-4
					v9.47c0,1.25,0.75,2.15,1.74,2.15c0.72,0,1.37-0.29,1.74-0.68L552.96,571.75z"/>
				<path d="M571.78,561.64v11.15h-4.07v-2.22c-1.3,1.72-3.52,2.65-5.58,2.65c-3.76,0-6.6-2.33-6.6-5.92c0-3.66,3.25-6.17,7.22-6.17
					c1.61,0,3.35,0.36,4.96,1v-0.5c0-2.15-1.13-4.23-4.34-4.23c-1.68,0-3.28,0.61-4.79,1.4l-1.44-3.05c2.5-1.29,4.82-1.94,7.05-1.94
					C568.87,553.82,571.78,556.94,571.78,561.64z M567.71,566.98v-2.08c-1.3-0.47-2.77-0.72-4.34-0.72c-2.09,0-3.76,1.22-3.76,2.98
					s1.47,2.87,3.46,2.87C565.08,570.03,567.23,568.96,567.71,566.98z"/>
				<path d="M592.79,561v11.8h-4.04v-10.94c0-2.51-1.54-4.3-3.73-4.3s-4,1.54-4.28,3.51v11.73h-4.17v-18.54h4.17v2.47
					c1.09-1.72,3.15-2.9,5.47-2.9C590.09,553.82,592.79,556.8,592.79,561z"/>
				<path d="M607.6,571.75c-0.99,0.9-2.43,1.47-3.76,1.47c-2.94,0-4.99-2.22-4.99-5.34v-10h-2.57v-3.62h2.57v-5.09h4.07v5.09h4v3.62
					h-4v9.47c0,1.25,0.75,2.15,1.74,2.15c0.72,0,1.37-0.29,1.74-0.68L607.6,571.75z"/>
				<path d="M609.93,570.43l1.88-3.05c1.71,1.29,3.69,2.15,5.92,2.15c1.68,0,2.84-0.75,2.84-1.9c0-1.43-1.54-1.9-3.56-2.47
					c-3.83-1.04-6.26-2.19-6.29-5.49c0-3.48,2.74-5.84,6.67-5.84c2.43,0,4.86,0.9,6.77,2.22l-1.74,3.19
					c-1.68-1.11-3.49-1.68-5.03-1.68c-1.47,0-2.6,0.61-2.6,1.65c0,1.18,0.92,1.54,3.63,2.37c2.98,0.86,6.19,1.94,6.19,5.81
					c0,3.55-2.81,5.85-6.94,5.85C614.96,573.22,612.05,572.22,609.93,570.43z"/>
				<path d="M654.65,573.26l-2.67-2.9c-1.95,1.83-4.21,2.87-6.94,2.87c-4.45,0-7.73-2.65-7.73-7.1c0-3.19,1.57-5.31,5.17-7.03
					c-1.3-1.9-1.78-3.3-1.78-5.13c0-3.37,2.77-6.1,6.43-6.1c3.63,0,6.26,2.65,6.26,6.06c0,2.87-1.88,4.41-5.44,6.1
					c1.2,1.47,2.5,2.98,4.17,4.84c0.92-1.43,1.74-3.08,2.39-4.84l3.18,1.58c-1.03,2.19-2.09,4.16-3.25,5.84
					c1.09,1.22,2.36,2.58,3.76,4.12L654.65,573.26z M649.69,567.84c-2.33-2.55-3.97-4.48-5.3-6.13c-1.95,1.11-2.94,2.44-2.94,4.2
					c0,2.4,1.85,3.84,4,3.84C646.95,569.74,648.35,569.03,649.69,567.84z M644.42,553.97c0,1.22,0.51,2.29,1.61,3.69
					c2.6-1.11,3.66-1.94,3.66-3.69c0-1.61-1.06-2.83-2.5-2.83C645.62,551.13,644.42,552.25,644.42,553.97z"/>
				<path d="M678.29,552.25h-7.53v-4.09h19.29v4.09h-7.53v20.55h-4.24V552.25z"/>
				<path d="M704.47,553.82v3.73c-3.8,0-6.33,2.37-6.33,5.88v9.36h-4.17v-18.54h4.17v3.59
					C699.27,555.37,701.56,553.82,704.47,553.82z"/>
				<path d="M723.11,561.64v11.15h-4.07v-2.22c-1.3,1.72-3.52,2.65-5.58,2.65c-3.76,0-6.6-2.33-6.6-5.92c0-3.66,3.25-6.17,7.22-6.17
					c1.61,0,3.35,0.36,4.96,1v-0.5c0-2.15-1.13-4.23-4.34-4.23c-1.68,0-3.28,0.61-4.79,1.4l-1.44-3.05c2.5-1.29,4.82-1.94,7.05-1.94
					C720.21,553.82,723.11,556.94,723.11,561.64z M719.04,566.98v-2.08c-1.3-0.47-2.77-0.72-4.34-0.72c-2.09,0-3.76,1.22-3.76,2.98
					s1.47,2.87,3.46,2.87C716.41,570.03,718.56,568.96,719.04,566.98z"/>
				<path d="M745.52,547.73v25.06h-4.17v-2.87c-1.4,2.08-3.52,3.3-6.12,3.3c-4.69,0-8.11-4.02-8.11-9.72c0-5.67,3.42-9.68,8.11-9.68
					c2.6,0,4.72,1.22,6.12,3.3v-9.39H745.52z M741.35,563.51c0-3.48-2.05-5.95-4.99-5.95c-2.98,0-5.1,2.47-5.1,5.95
					s2.12,5.99,5.1,5.99C739.3,569.49,741.35,566.98,741.35,563.51z"/>
				<path d="M763.32,567.49l2.63,2.87c-1.54,1.72-4.62,2.87-7.18,2.87c-5.06,0-9.24-4.05-9.24-9.75c0-5.56,3.97-9.65,9-9.65
					c5.47,0,8.66,4.34,8.66,11.19h-13.34c0.51,2.55,2.36,4.34,4.89,4.34C760.37,569.35,762.32,568.56,763.32,567.49z M753.87,561.68
					h9.31c-0.48-2.33-1.98-3.98-4.48-3.98C756.37,557.7,754.49,559.24,753.87,561.68z"/>
				<path d="M781.69,553.82v3.73c-3.8,0-6.33,2.37-6.33,5.88v9.36h-4.17v-18.54h4.17v3.59
					C776.49,555.37,778.78,553.82,781.69,553.82z"/>
				<path d="M783.85,570.43l1.88-3.05c1.71,1.29,3.69,2.15,5.92,2.15c1.68,0,2.84-0.75,2.84-1.9c0-1.43-1.54-1.9-3.56-2.47
					c-3.83-1.04-6.26-2.19-6.29-5.49c0-3.48,2.74-5.84,6.67-5.84c2.43,0,4.86,0.9,6.77,2.22l-1.74,3.19
					c-1.68-1.11-3.49-1.68-5.03-1.68c-1.47,0-2.6,0.61-2.6,1.65c0,1.18,0.92,1.54,3.63,2.37c2.98,0.86,6.19,1.94,6.19,5.81
					c0,3.55-2.81,5.85-6.94,5.85C788.88,573.22,785.97,572.22,783.85,570.43z"/>
				<path d="M812.52,548.16h10.23c5.03,0,8.79,3.37,8.79,8.18s-3.76,8.18-8.79,8.18h-5.95v8.28h-4.28V548.16z M822.27,560.39
					c2.91,0,4.93-1.54,4.93-4.05s-2.02-4.05-4.93-4.05h-5.47v8.1H822.27z"/>
				<path d="M833.36,554.25h4.41l5.13,13.48l5.03-13.48h4.45l-7.49,18.54h-3.93L833.36,554.25z"/>
				<path d="M865.59,571.75c-0.99,0.9-2.43,1.47-3.76,1.47c-2.94,0-5-2.22-5-5.34v-10h-2.57v-3.62h2.57v-5.09h4.07v5.09h4v3.62h-4
					v9.47c0,1.25,0.75,2.15,1.74,2.15c0.72,0,1.37-0.29,1.74-0.68L865.59,571.75z"/>
				<path d="M895.32,568.7v4.09H879v-24.63h4.24v20.55H895.32z"/>
				<path d="M908.94,571.75c-0.99,0.9-2.43,1.47-3.76,1.47c-2.94,0-5-2.22-5-5.34v-10h-2.57v-3.62h2.57v-5.09h4.07v5.09h4v3.62h-4
					v9.47c0,1.25,0.75,2.15,1.74,2.15c0.72,0,1.37-0.29,1.74-0.68L908.94,571.75z"/>
				<path d="M930.08,547.73v25.06h-4.17v-2.87c-1.4,2.08-3.52,3.3-6.12,3.3c-4.69,0-8.11-4.02-8.11-9.72c0-5.67,3.42-9.68,8.11-9.68
					c2.6,0,4.72,1.22,6.12,3.3v-9.39H930.08z M925.91,563.51c0-3.48-2.05-5.95-4.99-5.95c-2.98,0-5.1,2.47-5.1,5.95
					s2.12,5.99,5.1,5.99C923.85,569.49,925.91,566.98,925.91,563.51z"/>
			</g>
		</g>
	</g>
</g>
</svg>
