<?xml version="1.0" encoding="utf-8"?>
<!-- Generator: Adobe Illustrator 26.0.1, SVG Export Plug-In . SVG Version: 6.00 Build 0)  -->
<svg version="1.1" id="Layer_1" xmlns="http://www.w3.org/2000/svg" xmlns:xlink="http://www.w3.org/1999/xlink" x="0px" y="0px"
	 viewBox="0 0 1000 1000" style="enable-background:new 0 0 1000 1000;" xml:space="preserve">
<style type="text/css">
	.st0{fill-rule:evenodd;clip-rule:evenodd;}
	.st1{fill-rule:evenodd;clip-rule:evenodd;fill:#C43B31;}
	.st2{fill:#FFFFFF;}
	.st3{fill:#C43B31;}
	.st4{opacity:0.06;}
	.st5{opacity:0.04;}
	.st6{opacity:0.33;}
	.st7{opacity:0.26;fill:#FFFFFF;}
	.st8{fill:#DAE0E0;}
</style>
<rect x="-6.11" y="-7.35" class="st1" width="1014.07" height="1006.43"/>
<g>
	<g>
		<path class="st2" d="M130.91,505.23h101.33v-32.96H95.24v118.03H242.8v-33.1H130.91V505.23z M95.24,390.83v32.96H242.8v-32.96
			H95.24z"/>
		<path class="st2" d="M388.37,519.38c28.26-9.01,47.38-32.26,47.38-62.49c0-38.94-31.39-66.25-73.34-66.25h-85.35v58.33h35.68
			v-24.92h45.67c24.26,0,41.09,12.5,41.09,32.84c0,20.34-16.83,32.84-41.09,32.84h-21.65v0.05h-59.7v100.52h35.68v-67.15h37.97
			l46.23,67.15h40.53L388.37,519.38z"/>
		<path class="st2" d="M635.55,390.83l-64.79,121.66l-64.51-121.66h-35.68v199.48h35.68V457.02l64.51,121.66l64.79-121.66v133.29
			h35.39V390.83H635.55z"/>
		<path class="st2" d="M714.9,390.73v199.57h35.39V390.73H714.9z"/>
		<path class="st2" d="M869.32,475.53c-31.12-7.13-45.67-12.85-45.67-28.84c0-13.69,13.42-25.68,33.11-25.68
			c19.41,0,39.1,8.28,56.23,23.12l19.41-26.26c-19.69-16.85-43.11-27.42-74.22-27.42c-41.37,0-70.49,25.13-70.49,59.39
			c0,36.81,28.26,48.53,68.79,57.94c31.39,7.42,45.37,12.85,45.37,29.12c0,13.98-12.56,25.97-36.8,25.97
			c-25.7,0-46.53-10.27-64.51-26.54l-20.55,25.41c21.68,20.27,50.23,31.69,83.91,31.69c46.8,0,73.63-24.84,73.63-59.95
			C937.52,497.81,910.12,484.67,869.32,475.53z"/>
	</g>
	<g>
		<path class="st2" d="M95.62,629.73c0-11.6,9.46-21.34,20.7-21.34c5.79,0,11.07,2.59,14.86,6.67l-5.1,4.99
			c-2.41-2.95-5.96-4.81-9.75-4.81c-7.28,0-13.42,6.61-13.42,14.49c0,7.94,6.14,14.55,13.42,14.55c3.84,0,7.34-1.86,9.81-4.81
			l5.05,4.93c-3.79,4.15-9.06,6.73-14.86,6.73C105.08,651.13,95.62,641.33,95.62,629.73z"/>
		<path class="st2" d="M135.37,634.83c0-8.84,7.28-16.23,15.89-16.23c8.6,0,15.89,7.39,15.89,16.23c0,8.84-7.28,16.29-15.89,16.29
			C142.65,651.13,135.37,643.67,135.37,634.83z M160.26,634.83c0-5.41-4.13-9.98-9-9.98c-4.93,0-9.06,4.57-9.06,9.98
			c0,5.47,4.13,10.04,9.06,10.04C156.13,644.87,160.26,640.3,160.26,634.83z"/>
		<path class="st2" d="M200.88,630.63v19.78h-6.77v-18.34c0-4.21-2.58-7.21-6.25-7.21c-3.67,0-6.71,2.58-7.17,5.89v19.66h-7v-31.08
			h7v4.15c1.84-2.89,5.28-4.87,9.18-4.87C196.34,618.6,200.88,623.59,200.88,630.63z"/>
		<path class="st2" d="M206.9,646.44l3.15-5.11c2.87,2.16,6.19,3.61,9.92,3.61c2.81,0,4.76-1.26,4.76-3.19
			c0-2.41-2.58-3.19-5.96-4.15c-6.42-1.74-10.5-3.67-10.55-9.2c0-5.83,4.59-9.8,11.18-9.8c4.07,0,8.14,1.5,11.36,3.73l-2.92,5.35
			c-2.81-1.86-5.85-2.82-8.43-2.82c-2.47,0-4.36,1.02-4.36,2.77c0,1.98,1.55,2.59,6.08,3.97c4.99,1.44,10.38,3.25,10.38,9.74
			c0,5.95-4.7,9.8-11.64,9.8C215.33,651.13,210.46,649.44,206.9,646.44z"/>
		<path class="st2" d="M265.12,619.32v31.08h-7v-4.15c-1.84,2.89-5.28,4.87-9.18,4.87c-6.48,0-11.01-4.99-11.01-12.02v-19.78h6.77
			v18.34c0,4.21,2.58,7.21,6.25,7.21c3.67,0,6.71-2.59,7.17-5.89v-19.66H265.12z"/>
		<path class="st2" d="M273.27,608.38h7v42.02h-7V608.38z"/>
		<path class="st2" d="M305.28,648.66c-1.66,1.5-4.07,2.47-6.31,2.47c-4.93,0-8.37-3.73-8.37-8.96V625.4h-4.3v-6.07h4.3v-8.54h6.83
			v8.54h6.71v6.07h-6.71v15.87c0,2.1,1.26,3.61,2.92,3.61c1.2,0,2.29-0.48,2.92-1.14L305.28,648.66z"/>
		<path class="st2" d="M336.82,631.71v18.7H330v-3.73c-2.18,2.89-5.91,4.45-9.35,4.45c-6.31,0-11.07-3.91-11.07-9.92
			c0-6.13,5.45-10.34,12.1-10.34c2.7,0,5.62,0.6,8.32,1.68v-0.84c0-3.61-1.89-7.09-7.28-7.09c-2.81,0-5.51,1.02-8.03,2.34
			l-2.41-5.11c4.19-2.16,8.09-3.25,11.82-3.25C331.95,618.6,336.82,623.83,336.82,631.71z M330,640.67v-3.49
			c-2.18-0.78-4.65-1.2-7.28-1.2c-3.5,0-6.31,2.04-6.31,4.99s2.47,4.81,5.79,4.81C325.58,645.78,329.2,643.97,330,640.67z"/>
		<path class="st2" d="M372.05,630.63v19.78h-6.77v-18.34c0-4.21-2.58-7.21-6.25-7.21c-3.67,0-6.71,2.58-7.17,5.89v19.66h-7v-31.08
			h7v4.15c1.84-2.89,5.28-4.87,9.18-4.87C367.51,618.6,372.05,623.59,372.05,630.63z"/>
		<path class="st2" d="M396.88,648.66c-1.66,1.5-4.07,2.47-6.31,2.47c-4.93,0-8.37-3.73-8.37-8.96V625.4h-4.3v-6.07h4.3v-8.54h6.82
			v8.54h6.71v6.07h-6.71v15.87c0,2.1,1.26,3.61,2.92,3.61c1.2,0,2.29-0.48,2.92-1.14L396.88,648.66z"/>
		<path class="st2" d="M400.79,646.44l3.15-5.11c2.87,2.16,6.19,3.61,9.92,3.61c2.81,0,4.76-1.26,4.76-3.19
			c0-2.41-2.58-3.19-5.96-4.15c-6.42-1.74-10.5-3.67-10.55-9.2c0-5.83,4.59-9.8,11.18-9.8c4.07,0,8.14,1.5,11.36,3.73l-2.92,5.35
			c-2.81-1.86-5.85-2.82-8.43-2.82c-2.47,0-4.36,1.02-4.36,2.77c0,1.98,1.55,2.59,6.08,3.97c4.99,1.44,10.38,3.25,10.38,9.74
			c0,5.95-4.7,9.8-11.64,9.8C409.22,651.13,404.34,649.44,400.79,646.44z"/>
		<path class="st2" d="M475.76,651.19l-4.47-4.87c-3.27,3.07-7.05,4.81-11.64,4.81c-7.46,0-12.96-4.45-12.96-11.9
			c0-5.35,2.64-8.9,8.66-11.78c-2.18-3.19-2.98-5.53-2.98-8.6c0-5.65,4.65-10.22,10.78-10.22c6.08,0,10.5,4.45,10.5,10.16
			c0,4.81-3.15,7.39-9.12,10.22c2.01,2.47,4.19,4.99,7,8.12c1.55-2.41,2.92-5.17,4.01-8.12l5.33,2.65c-1.72,3.67-3.5,6.97-5.45,9.8
			c1.84,2.04,3.96,4.33,6.31,6.91L475.76,651.19z M467.44,642.11c-3.9-4.27-6.65-7.51-8.89-10.28c-3.27,1.86-4.93,4.09-4.93,7.03
			c0,4.03,3.1,6.43,6.71,6.43C462.85,645.3,465.2,644.09,467.44,642.11z M458.61,618.84c0,2.04,0.86,3.85,2.7,6.19
			c4.36-1.86,6.14-3.25,6.14-6.19c0-2.71-1.78-4.75-4.19-4.75C460.61,614.09,458.61,615.96,458.61,618.84z"/>
		<path class="st2" d="M515.4,615.96h-12.62v-6.85h32.35v6.85h-12.62v34.45h-7.11V615.96z"/>
		<path class="st2" d="M559.28,618.6v6.25c-6.37,0-10.61,3.97-10.61,9.86v15.69h-7v-31.08h7v6.01
			C550.56,621.19,554.4,618.6,559.28,618.6z"/>
		<path class="st2" d="M590.54,631.71v18.7h-6.82v-3.73c-2.18,2.89-5.91,4.45-9.35,4.45c-6.31,0-11.07-3.91-11.07-9.92
			c0-6.13,5.45-10.34,12.1-10.34c2.7,0,5.62,0.6,8.32,1.68v-0.84c0-3.61-1.89-7.09-7.28-7.09c-2.81,0-5.51,1.02-8.03,2.34
			l-2.41-5.11c4.19-2.16,8.09-3.25,11.82-3.25C585.66,618.6,590.54,623.83,590.54,631.71z M583.71,640.67v-3.49
			c-2.18-0.78-4.65-1.2-7.28-1.2c-3.5,0-6.31,2.04-6.31,4.99s2.47,4.81,5.79,4.81C579.3,645.78,582.91,643.97,583.71,640.67z"/>
		<path class="st2" d="M628.11,608.38v42.02h-7v-4.81c-2.35,3.49-5.91,5.53-10.27,5.53c-7.86,0-13.59-6.73-13.59-16.29
			c0-9.5,5.74-16.23,13.59-16.23c4.36,0,7.91,2.04,10.27,5.53v-15.75H628.11z M621.11,634.83c0-5.83-3.44-9.98-8.37-9.98
			c-4.99,0-8.55,4.15-8.55,9.98c0,5.83,3.56,10.04,8.55,10.04C617.67,644.87,621.11,640.67,621.11,634.83z"/>
		<path class="st2" d="M657.94,641.51l4.42,4.81c-2.58,2.89-7.74,4.81-12.04,4.81c-8.49,0-15.49-6.79-15.49-16.35
			c0-9.32,6.65-16.17,15.08-16.17c9.18,0,14.51,7.27,14.51,18.76h-22.37c0.86,4.27,3.96,7.27,8.2,7.27
			C653.01,644.63,656.28,643.31,657.94,641.51z M642.11,631.77h15.6c-0.8-3.91-3.33-6.67-7.51-6.67
			C646.3,625.1,643.14,627.68,642.11,631.77z"/>
		<path class="st2" d="M688.74,618.6v6.25c-6.37,0-10.61,3.97-10.61,9.86v15.69h-7v-31.08h7v6.01
			C680.03,621.19,683.87,618.6,688.74,618.6z"/>
		<path class="st2" d="M692.36,646.44l3.15-5.11c2.87,2.16,6.19,3.61,9.92,3.61c2.81,0,4.76-1.26,4.76-3.19
			c0-2.41-2.58-3.19-5.96-4.15c-6.42-1.74-10.5-3.67-10.55-9.2c0-5.83,4.59-9.8,11.18-9.8c4.07,0,8.14,1.5,11.36,3.73l-2.92,5.35
			c-2.81-1.86-5.85-2.82-8.43-2.82c-2.47,0-4.36,1.02-4.36,2.77c0,1.98,1.55,2.59,6.08,3.97c4.99,1.44,10.38,3.25,10.38,9.74
			c0,5.95-4.7,9.8-11.64,9.8C700.79,651.13,695.92,649.44,692.36,646.44z"/>
		<path class="st2" d="M740.43,609.1h17.15c8.43,0,14.74,5.65,14.74,13.71s-6.31,13.71-14.74,13.71h-9.98v13.89h-7.17V609.1z
			 M756.78,629.6c4.88,0,8.26-2.59,8.26-6.79c0-4.21-3.38-6.79-8.26-6.79h-9.18v13.59H756.78z"/>
		<path class="st2" d="M775.36,619.32h7.4l8.6,22.61l8.43-22.61h7.46l-12.56,31.08h-6.6L775.36,619.32z"/>
		<path class="st2" d="M829.4,648.66c-1.66,1.5-4.07,2.47-6.31,2.47c-4.93,0-8.37-3.73-8.37-8.96V625.4h-4.3v-6.07h4.3v-8.54h6.83
			v8.54h6.71v6.07h-6.71v15.87c0,2.1,1.26,3.61,2.92,3.61c1.2,0,2.29-0.48,2.92-1.14L829.4,648.66z"/>
		<path class="st2" d="M879.24,643.55v6.85h-27.36v-41.3H859v34.45H879.24z"/>
		<path class="st2" d="M902.07,648.66c-1.66,1.5-4.07,2.47-6.31,2.47c-4.93,0-8.37-3.73-8.37-8.96V625.4h-4.3v-6.07h4.3v-8.54h6.83
			v8.54h6.71v6.07h-6.71v15.87c0,2.1,1.26,3.61,2.92,3.61c1.2,0,2.29-0.48,2.92-1.14L902.07,648.66z"/>
		<path class="st2" d="M937.52,608.38v42.02h-7v-4.81c-2.35,3.49-5.91,5.53-10.27,5.53c-7.86,0-13.59-6.73-13.59-16.29
			c0-9.5,5.74-16.23,13.59-16.23c4.36,0,7.91,2.04,10.27,5.53v-15.75H937.52z M930.53,634.83c0-5.83-3.44-9.98-8.37-9.98
			c-4.99,0-8.55,4.15-8.55,9.98c0,5.83,3.56,10.04,8.55,10.04C927.08,644.87,930.53,640.67,930.53,634.83z"/>
	</g>
</g>
</svg>
