<?xml version="1.0" encoding="utf-8"?>
<!-- Generator: Adobe Illustrator 26.0.1, SVG Export Plug-In . SVG Version: 6.00 Build 0)  -->
<svg version="1.1" id="Layer_1" xmlns="http://www.w3.org/2000/svg" xmlns:xlink="http://www.w3.org/1999/xlink" x="0px" y="0px"
	 viewBox="0 0 1000 1000" style="enable-background:new 0 0 1000 1000;" xml:space="preserve">
<style type="text/css">
	.st0{fill-rule:evenodd;clip-rule:evenodd;}
	.st1{fill-rule:evenodd;clip-rule:evenodd;fill:#C43B31;}
	.st2{fill:#FFFFFF;}
	.st3{fill:#C43B31;}
	.st4{opacity:0.06;}
	.st5{opacity:0.04;}
	.st6{opacity:0.33;}
	.st7{opacity:0.26;fill:#FFFFFF;}
	.st8{fill:#DAE0E0;}
</style>
<circle class="st1" cx="501.34" cy="499.94" r="500.04"/>
<g>
	<g>
		<path class="st2" d="M498.74,118.84c-210.15,0-381.15,170.99-381.15,381.06c0,26.17,2.65,51.75,7.7,76.43l22.69-16.89
			c-3.31-19.37-5.05-39.25-5.05-59.53c0-196.16,159.65-355.72,355.81-355.72c40.41,0,79.24,6.79,115.51,19.21l19.71-19.71
			C591.98,127.62,546.35,118.84,498.74,118.84z M878.81,472.82l-24.59,14.74c0.17,4.14,0.25,8.2,0.25,12.34
			c0,196.24-159.56,355.8-355.72,355.8c-74.19,0-143.09-22.77-200.22-61.77l-27.57,11.34c63.51,47.53,142.42,75.76,227.79,75.76
			c210.07,0,381.06-170.99,381.06-381.14C879.8,490.79,879.47,481.77,878.81,472.82z"/>
	</g>
	<path class="st2" d="M723.22,205.49c-2.82,0.7-5.67,1.33-8.49,2.03c-7.28,1.84-10.83,0.16-14.82-7.44
		c8.68-1.71,17.23-3.42,25.71-5.1c6.68-1.3,13.33-2.57,19.98-3.83c0.89-0.19,2.28,0.38,2.85,1.11c1.49,1.74,2.63,3.77,4.21,6.14
		c-5.89,1.42-11.59,2.82-17.26,4.18C731.33,203.55,727.28,204.51,723.22,205.49z"/>
	<path class="st2" d="M714.33,210.81c1.52-0.54,2.63-0.98,3.8-1.27c6.62-1.68,13.24-3.39,19.89-5.04c3.04-0.79,6.11-1.55,9.18-2.31
		c7.85-1.96,7.85-1.9,11.81,6.05c-4.18,1.14-8.33,2.28-12.41,3.39c-7.51,2.09-14.91,4.09-22.39,5.8
		C719.59,218.5,717.15,214.45,714.33,210.81z"/>
	<path class="st2" d="M727.76,219.09c7.54-2.06,14.66-4.05,21.69-5.92c3.1-0.82,6.21-1.65,9.31-2.41c1.27-0.32,3.26,0.86,4.4,1.93
		c1.3,1.2,1.99,3.07,3.29,5.16c-3.07,0.82-6.05,1.68-9.03,2.5c-6.71,1.9-13.27,3.74-19.89,5.19
		C733.27,226.47,730.7,222.74,727.76,219.09z"/>
	<path class="st2" d="M705.84,180.21c-6.97,0.7-13.93,1.43-20.9,2.15c-9.06,0.95-14.88-2.69-17.35-11.21
		c6.74-0.51,13.39-0.98,20.04-1.46c0.32-0.03,0.67-0.03,0.98-0.06c18.68-1.33,37.37-2.69,56.08-3.83c1.49-0.1,3.8,0.79,4.53,1.99
		c9.21,15.14,18.24,30.43,27.3,45.66c0.29,0.48,0.44,1.01,0.76,1.77c-1.58,0.47-2.98,0.79-4.27,1.27c-2.91,1.05-4.62,0.13-6.27-2.6
		c-7.12-11.65-14.44-23.21-21.88-34.67c-0.89-1.3-3.23-2.53-4.75-2.41C728.68,177.87,717.24,179,705.84,180.21z"/>
	<path class="st2" d="M770.73,233.31c18.72-3.64,37.52-6.97,57.16-10.58c-5.92,19.89-11.62,38.98-17.38,58.3
		c-0.13,0.38-0.25,0.73-0.35,1.11c-8.77-0.44-17.32-0.76-25.87-1.39c-1.96-0.16-3.39,0.19-4.59,1.2c-0.6,0.51-1.17,1.17-1.74,2.03
		c-6.84,10.48-14,20.74-20.77,31.25c-1.08,1.62-1.49,4.34-0.98,6.24c3.1,11.37,6.59,22.61,9.78,33.91c0.35,1.2,0.1,3.42-0.73,4.02
		c-23.5,17.1-47.09,34.07-71.63,51.74c0.86-2.15,1.23-3.33,1.77-4.4c9.41-18.71,18.84-37.37,28.15-56.11
		c0.76-1.52,0.98-3.61,0.66-5.32c-4.72-26.03-9.5-52.03-14.41-78.03c-0.54-2.72,0-4.18,2.34-5.64
		c10.35-6.59,20.84-13.05,30.91-20.04c0.32-0.22,0.6-0.41,0.92-0.63c7.32-5.13,15.77-5.54,23.94-7.12
		C768.86,233.66,769.78,233.47,770.73,233.31z"/>
	<path class="st2" d="M835.96,217.67c-0.03,0.38-0.1,0.73-0.16,1.08c-10.99,1.9-22.01,3.83-33,5.67
		c-11.72,1.93-23.46,3.83-35.18,5.76c-4.34,0.7-8.71,1.42-13.05,2.12c-6.87,1.14-6.87,1.17-10.35-5.99
		c5.07-1.36,10.13-2.69,15.23-4.02c7.28-1.93,14.63-3.89,22.07-5.86c-4.37-7.57-8.64-14.95-13.39-23.15
		c11.65,0.7,22.77-3.29,33.44,3.83C812.69,204.5,824.47,210.86,835.96,217.67z"/>
	<polygon class="st2" points="844.04,414.22 848.12,417.96 845.3,419.48 835.17,424.96 834.76,425.18 836.59,426.89 835.39,428.22 
		819.21,413.49 820.73,411.81 822.09,413.05 827.32,398.99 832.89,404.06 826.02,416.94 830.07,420.62 842.26,412.61 	"/>
	<path class="st2" d="M878.61,405.42l-3.2,1.17l-5.6,2.09l-0.98,0.38l-0.89,0.32l-11.62,4.31l-1.93,0.73l2.03,1.84l-2.15,2.37
		l-11.91-10.86l-17.73-16.15l3.36-3.71l3.04,2.75l2.44-11.21l0.29-1.27l0.44-2.15l1.27-5.86l0.89-3.26l5.22,4.75
		c-0.92,3.58-0.92,7.41,0.03,11.08c0.32,1.27,0.73,2.5,1.27,3.74c0.73,1.71,1.68,3.36,2.79,4.91c0.92,1.68,2.06,3.04,3.29,4.12
		c1.01,0.89,2.09,1.58,3.23,2.12c0.41,0.28,0.82,0.57,1.27,0.82c1.61,0.95,3.33,1.71,5.03,2.28c1.27,0.38,2.56,0.7,3.83,0.89
		c1.55,0.22,3.13,0.32,4.69,0.22c2.18-0.06,4.34-0.51,6.36-1.24L878.61,405.42z"/>
	<path class="st2" d="M880.45,386.54c-1.39,1.65-3.36,3.45-6.18,5.03c0,0,2.22,0.16,4.69-1.77c0,0-3.2,7.16-9.82,6.97
		c-1.14-0.03-2.38-0.13-3.61-0.29c-3.77-0.47-7.79-1.42-10.29-2.09c-1.65-0.41-3.04-1.46-3.86-2.91c-1.96-3.36-5.38-9.82-6.27-15.26
		c-0.28-1.58,0.25-3.23,1.39-4.37c1.65-1.65,4.15-4.37,5.35-6.71c1.46-2.79,1.8-3.52,1.9-3.67c0-0.03,0-0.03,0-0.03l0.03-0.03
		c0,0,0,0.03,0,0.09c-0.06,1.24-0.48,13.49,3.55,19.95c2.03,3.29,3.48,3.39,4.46,2.6l0.29-0.29c0.92-1.04,1.08-2.56,0.54-3.83
		c-1.74-4.15-6.46-16.15-4.21-20.55c2.69-5.41,7.73-10.51,22.51-10.07C881.56,350.67,891.63,373.21,880.45,386.54z"/>
	<path class="st2" d="M160.52,680.72c-1.11-1.55-0.95-3.99-0.66-6.52c0.19-1.58,0.41-3.2,0.41-4.65c0.6-0.06,1.24-0.13,1.87-0.19
		c7.32,10.13,14.72,20.17,21.72,30.53c0.92,1.36-0.44,4.31-0.76,6.52c-0.48,0.03-0.92,0.06-1.39,0.1c-3.71-4.4-7.5-8.71-11.21-13.11
		c0-0.03-0.03-0.03-0.03-0.06C167.01,689.24,163.62,685.06,160.52,680.72z"/>
	<path class="st2" d="M176.83,715.05c0.92,0.98-0.44,3.99-0.89,7.12c-3.74-3.23-6.21-5.67-8.99-7.73
		c-3.99-2.94-5.32-6.52-3.42-11.91C168.19,706.78,172.84,710.62,176.83,715.05z"/>
	<path class="st2" d="M179.2,714.38c-5.38-5.13-9.5-9.72-14.31-13.46c-5.04-3.93-5.42-8.23-2.72-14.03
		c4.56,5.03,9.12,9.91,13.49,14.95c0,0.03,0.03,0.03,0.03,0.06c1.62,1.84,3.17,3.67,4.72,5.57c0.32,0.41,0.32,1.11,0.13,1.96
		C180.25,710.81,179.55,712.64,179.2,714.38z"/>
	<path class="st2" d="M165.18,670.34c-4.91-6.27-6.78-12.51-4.56-20.04c0.54-1.81,0.73-3.71,1.27-6.62c1.27,1.9,2.15,3.07,2.85,4.34
		c7.47,13.33,14.63,26.79,22.42,39.9c2.79,4.65,1.24,7.7-1.55,11.59C178.67,689.49,172.4,679.52,165.18,670.34z"/>
	<path class="st2" d="M162.33,637.75c-1.11-2.06-1.36-5-0.95-7.35c0.63-3.39,1.49-6.78,2.44-10.35c0,0,0,0,0-0.03
		c0.63-2.34,1.3-4.81,1.96-7.44c1.71,3.52,3.04,6.05,4.21,8.64c10.35,22.93,20.65,45.88,31.06,68.78c0.89,1.96,1.08,3.51,0.41,5.19
		c-0.19,0.51-0.48,1.04-0.86,1.58c-4.65,7.16-9.21,14.34-13.9,21.75c-1.99,3.17-4.05,6.4-6.14,9.69c-1.87-1.74-3.2-3.04-4.72-4.46
		c2.12-4.05,4.15-8.08,6.21-12c2.69-5.23,5.35-10.32,8.08-15.42c1.39-2.57,1.42-4.59,0-7.19
		C180.73,672.08,171.42,654.98,162.33,637.75z"/>
	<path class="st2" d="M713.62,345.2c0.14,1.85-0.14,3.85-1,5.42c-11.83,22.24-23.81,44.63-35.93,66.87c-0.71,1.28-2,2.43-3.28,3.14
		c-10.41,5.99-20.67,12.12-31.22,17.97c-4.14,2.28-8.27,4.56-12.55,6.7c-7.41,3.71-15.83,5.42-23.95,7.84
		c-9.98,2.85-20.1,5.56-30.23,8.13c-1.71,0.43-3.85,0.43-5.28-0.29c-15.97-8.12-31.65-16.54-47.48-24.95c-0.57-0.29-1-0.57-1.71-1
		c23.24-38.64,46.2-77.14,70.01-116.63c-5.42,1.71-9.84,2.99-14.26,4.28c-22.24,6.84-44.2,14.26-66.73,20.1
		c-9.98,2.57-20.82,2.28-31.22,2.85c-3.28,0.14-5.42,0.71-6.84,3.99c-4.99,12.12-14.26,17.4-27.23,19.96
		c-31.08,5.84-61.74,13.4-92.53,20.1c-2.71,0.57-4.7,1.57-4.99,4.71c-0.86,7.41-4.56,13.4-9.13,19.1c-2.57,3.28-5.13,6.7-7.27,10.27
		c-1.71,3.28-3.99,2.14-6.27,1.28c-2.71-1-1.28-2.99-0.85-4.71c1-3.7,2-7.41,3.14-11.12c-0.43-0.29-0.71-0.57-1-0.86
		c-11.69,5.99-23.38,11.97-35.5,18.25c-2.14-4.71-4.14-8.56-2.85-14.12c1.85-7.13,5.42-11.12,11.69-14.83
		c43.35-25.38,86.69-51.19,129.75-77.28c7.99-4.85,16.68-3.99,25.09-5.99c2.14-0.43,4.7-1.28,5.84-2.85
		c9.27-11.55,21.24-18.39,34.93-23.38c19.82-7.27,39.21-15.69,58.74-23.39c4.28-1.57,8.98-2.14,13.4-2.85
		c2.28-0.43,4.71-0.57,6.99-0.43c5.42,0.57,10.41,0.14,15.11-1.28c4.71-1.57,8.98-3.99,13.12-7.55c1-0.86,2.85-1.14,4.42-1.28
		c21.96-0.71,43.92-1.43,65.87-1.99c1.71-0.15,3.56,0.29,5.13,0.85c7.7,3,15.4,5.99,23.1,9.27c1.28,0.57,2.85,2.42,3.14,3.85
		C707.2,290.59,710.34,317.97,713.62,345.2z"/>
	<path class="st2" d="M362.65,545.68c10.02-6.5,19.64-12.77,29.28-19c38.12-24.65,76.26-49.25,114.31-74
		c3.49-2.27,6.32-2.78,10.31-1.1c17.55,7.4,35.29,14.35,52.89,21.65c2.83,1.17,5.14,1.11,7.84-0.17c8.66-4.08,17.4-7.98,26.36-12.06
		c15.81,24.43,31.44,48.58,47.25,73c-1.24,0.73-2.16,1.36-3.16,1.83c-29.76,13.93-59.62,27.66-89.25,41.86
		c-8.32,3.99-17.15,4.24-25.85,5.53c-22.31,3.29-44.67,6.2-67.02,9.17c-1.62,0.22-3.54,0.1-5-0.57
		c-32.18-14.93-64.32-29.96-96.46-44.99C363.78,546.67,363.49,546.34,362.65,545.68z"/>
	<path class="st2" d="M395.37,743.96c16.32-14.59,32.66-29.2,49.18-43.97c4.46,2.87,8.87,5.4,12.9,8.42
		c2.79,2.09,4.79,1.95,7.68,0.07c31.57-20.55,63.25-40.93,94.88-61.39c14.31-9.26,14.29-9.22,31.8-6.47
		c11.06,1.74,22.16,3.26,33.24,4.85c1.26,0.18,2.55,0.15,3.85,0.22c0.65-4.12-0.48-6.72-4.73-7.25
		c-15.29-1.91-26.37-10.54-36.36-21.67c-8.64-9.62-18.29-18.33-27.49-27.45c-1-0.99-1.92-2.07-3.28-3.55
		c31.91-13.98,63.4-27.77,95.31-41.74c2.78,7,5.52,13.82,8.19,20.67c10.48,26.81,20.47,53.82,31.65,80.33
		c4.1,9.73-0.91,15.71-5.33,22.49c-0.7,1.08-2.78,1.38-4.29,1.8c-92.83,25.3-185.67,50.58-278.52,75.8
		C401.3,745.87,398.13,748.44,395.37,743.96z"/>
	<path class="st2" d="M450.13,594.29c-4.42,2.71-8.27,4.99-12.12,7.27c-34.08,19.82-68.58,39.35-102.52,59.6
		c-5.7,3.28-11.26,6.7-16.82,10.12c-28.23,17.11-55.46,35.93-83.13,53.9c-2.57,1.71-5.13,3.42-7.7,5.13
		c-7.13,4.7-14.26,9.41-21.39,13.97c-28.09,18.39-52.69,33.98-80.78,52.52c-4.14,2.71-6.13,1.86-8.7-2.28
		c9.84-14.69,16.05-26.43,25.74-41.12c5.85-8.98,11.98-17.82,17.68-26.95c1.71-2.57,3-2.43,5.42-1.28
		c4.85,2.28,9.98,4.56,15.11,6.99l8.13-10.27c3.14-3.99,6.27-7.84,9.27-11.69c2.42-2.99,4.7-5.99,7.13-8.98v-0.14
		c10.41-12.97,20.68-26.09,31.23-39.07c1.28-1.71,3.42-3.14,5.56-3.71c13.97-4.42,28.09-8.41,42.21-12.69
		c1.71-0.57,3.56-1.85,4.7-3.28c6.56-9.12,12.69-18.54,19.39-27.52c0.71-1,1.57-2,2.42-2.85c2.85-3.42,6.27-6.7,9.41-9.84
		c14.97-15.25,30.08-30.37,45.34-45.48c0.85-0.86,2.85-1.57,3.85-1.14C396.23,568.2,422.75,581.03,450.13,594.29z"/>
	<path class="st2" d="M827.89,222.74c-5.92,19.89-11.62,38.98-17.38,58.3c-0.13,0.38-0.25,0.73-0.35,1.11
		c-8.77-0.44-17.32-0.76-25.87-1.39c-1.96-0.16-3.39,0.19-4.59,1.2c-0.6,0.51-1.17,1.17-1.74,2.03c-6.84,10.48-14,20.74-20.77,31.25
		c-1.08,1.62-1.49,4.34-0.98,6.24c3.1,11.37,6.59,22.61,9.78,33.91c0.35,1.2,0.1,3.42-0.73,4.02c-23.5,17.1-47.09,34.07-71.63,51.74
		c0.86-2.15,1.23-3.33,1.77-4.4c9.41-18.71,18.84-37.37,28.15-56.11c0.76-1.52,0.98-3.61,0.66-5.32
		c-4.72-26.03-9.5-52.03-14.41-78.03c-0.54-2.72,0-4.18,2.34-5.64c10.35-6.59,20.84-13.05,30.91-20.04c0.32-0.22,0.6-0.41,0.92-0.63
		c7.32-5.13,15.77-5.54,23.94-7.12c0.95-0.19,1.87-0.38,2.82-0.54C789.44,229.67,808.25,226.35,827.89,222.74z"/>
	<path class="st2" d="M813.71,448.72c1.28,0.85,2.42,1.57,4.14,2.57c-5.28,7.56-10.55,14.97-15.97,22.81
		c-4.42-2.42-8.41-4.56-12.97-7.13c0.86-1,1.43-1.99,2.28-2.99c0.57-0.86,1.28-1.71,1.86-2.57c0.43-0.57,0.85-1.14,1.14-1.71
		c1-1.28,2-2.57,2.99-3.85c0.29-0.43,0.57-0.86,0.86-1.28c2-2.71,3.85-5.27,5.85-7.99c-1.28-2.71-2.85-1.57-4.56-0.14l-0.43,0.43
		c0,0,0,0-0.14,0c-5.42,4.56-10.84,9.12-16.25,13.4c-1.14,0.86-2.85,1.71-4.28,1.71c-43.06-1-86.26-1.99-129.89-3.14
		c-5.56-0.14-11.12-0.29-16.54-0.43c1.43-1.14,2.14-1.86,2.99-2.43c3.56-2.14,7.13-4.42,10.69-6.7
		c12.41-7.84,24.81-15.69,37.36-23.39c1.71-1.14,4.28-1.71,6.42-1.28c28.94,5.28,57.89,10.84,86.97,16.11c2.57,0.57,5.7,0,8.13-0.86
		c7.13-2.57,13.97-5.7,21.24-8.7c0.71,1.14,1.28,2.28,1.86,3.42c6.13-9.41,10.98-17.96,10.98-17.96l4.28,3.85l-10.41,15.68
		l14.97-11.41l3.42,3.28c-2.85,1.57-10.98,8.13-18.68,14.69c1,1.86,2,3.56,2.99,5.42L813.71,448.72z"/>
	<path class="st2" d="M835.96,217.67c-0.03,0.38-0.1,0.73-0.16,1.08c-10.99,1.9-22.01,3.83-33,5.67
		c-11.72,1.93-23.46,3.83-35.18,5.76c-4.34,0.7-8.71,1.42-13.05,2.12c-6.87,1.14-6.87,1.17-10.35-5.99
		c5.07-1.36,10.13-2.69,15.23-4.02c7.28-1.93,14.63-3.89,22.07-5.86c-4.37-7.57-8.64-14.95-13.39-23.15
		c11.65,0.7,22.77-3.29,33.44,3.83C812.69,204.5,824.47,210.86,835.96,217.67z"/>
	<path class="st2" d="M777.28,215.23c-1.58,0.47-2.98,0.79-4.27,1.27c-2.91,1.05-4.62,0.13-6.27-2.6
		c-7.12-11.65-14.44-23.21-21.88-34.67c-0.89-1.3-3.23-2.53-4.75-2.41c-11.43,1.05-22.86,2.18-34.26,3.39
		c-6.97,0.7-13.93,1.43-20.9,2.15c-9.06,0.95-14.88-2.69-17.35-11.21c6.74-0.51,13.39-0.98,20.04-1.46
		c0.32-0.03,0.67-0.03,0.98-0.06c18.68-1.33,37.37-2.69,56.08-3.83c1.49-0.1,3.8,0.79,4.53,1.99c9.21,15.14,18.24,30.43,27.3,45.66
		C776.81,213.93,776.97,214.47,777.28,215.23z"/>
	<path class="st2" d="M201.47,695.19c-0.19,0.51-0.48,1.04-0.86,1.58c-4.65,7.16-9.21,14.34-13.9,21.75
		c-1.99,3.17-4.05,6.4-6.14,9.69c-1.87-1.74-3.2-3.04-4.72-4.46c2.12-4.05,4.15-8.08,6.21-12c2.69-5.23,5.35-10.32,8.08-15.42
		c1.39-2.57,1.42-4.59,0-7.19c-9.4-17.07-18.71-34.17-27.8-51.39c-1.11-2.06-1.36-5-0.95-7.35c0.63-3.39,1.49-6.78,2.44-10.35
		c0,0,0,0,0-0.03c0.63-2.34,1.3-4.81,1.96-7.44c1.71,3.52,3.04,6.05,4.21,8.64c10.35,22.93,20.65,45.88,31.06,68.78
		C201.94,691.96,202.13,693.52,201.47,695.19z"/>
	<path class="st2" d="M461.51,707.43c-1.05-1.73-1.94-3.19-2.95-4.84c7.64-6.52,15.07-13.01,22.68-19.28
		c2.06-1.7,2.65-3.36,2.27-5.96c-2.48-17.1-4.91-34.22-7.08-51.36c-0.29-2.33,0.35-5.22,1.59-7.21c2.72-4.41,6.1-8.42,10.03-13.7
		c0.29,3.35,0.53,5.53,0.67,7.72c1.43,22.48,2.78,44.97,4.34,67.45c0.24,3.46-0.72,5.52-3.61,7.48
		c-8.06,5.46-15.87,11.28-23.79,16.94C464.39,705.56,463.05,706.4,461.51,707.43z"/>
	<path class="st2" d="M784.62,468.68c-7.56,8.13-14.97,15.97-22.24,23.81c-10.98,11.69-22.1,23.53-33.08,35.36
		c-2,2.14-3.99,4.28-5.85,6.42c-2.57,2.57-4.42,3.14-6.84-0.43c1.57-1.86,3.14-3.56,4.71-5.28c19.25-21.1,38.64-42.35,58.32-63.88
		C781.63,466.25,783.05,467.39,784.62,468.68z"/>
	<path class="st2" d="M185.6,699.5c-6.94-10.01-13.2-19.98-20.42-29.17c-4.91-6.27-6.78-12.51-4.56-20.04
		c0.54-1.81,0.73-3.71,1.27-6.62c1.27,1.9,2.15,3.07,2.85,4.34c7.47,13.33,14.63,26.79,22.42,39.9
		C189.94,692.57,188.39,695.61,185.6,699.5z"/>
	<path class="st2" d="M475.83,684.89c-3.02-11.2-5.64-22.34-9.1-33.21c-1.77-5.55-1.36-10,2.3-14.4c1.64-1.97,2.88-4.27,4.92-7.37
		c1.23,7.47,2.34,13.92,3.35,20.39c1.29,8.31,2.11,16.71,3.88,24.91C482.27,680.32,480.03,682.68,475.83,684.89z"/>
	<path class="st2" d="M183.1,706.4c-0.48,0.03-0.92,0.06-1.39,0.1c-3.71-4.4-7.5-8.71-11.21-13.11c0-0.03-0.03-0.03-0.03-0.06
		c-3.45-4.09-6.84-8.26-9.94-12.6c-1.11-1.55-0.95-3.99-0.66-6.52c0.19-1.58,0.41-3.2,0.41-4.65c0.6-0.06,1.24-0.13,1.87-0.19
		c7.32,10.13,14.72,20.17,21.72,30.53C184.78,701.24,183.42,704.19,183.1,706.4z"/>
	<path class="st2" d="M464.4,650.83c2.71,9.34,5.25,18.05,7.77,26.77c0.36,1.25,0.53,2.6,1.09,3.75c1.96,4.05,0.96,6.83-3.57,8.47
		c-3.55-9.29-7.26-18.56-10.51-27.99c-0.53-1.55,0.81-3.9,1.66-5.71C461.62,654.45,462.9,653.02,464.4,650.83z"/>
	<path class="st2" d="M180.53,709.44c-0.29,1.36-0.98,3.2-1.33,4.94c-5.38-5.13-9.5-9.72-14.31-13.46
		c-5.04-3.93-5.42-8.23-2.72-14.03c4.56,5.03,9.12,9.91,13.49,14.95c0,0.03,0.03,0.03,0.03,0.06c1.62,1.84,3.17,3.67,4.72,5.57
		C180.73,707.89,180.73,708.59,180.53,709.44z"/>
	<path class="st2" d="M458.53,666.83c3.41,8.15,6.8,16.24,10.25,24.48c-1.33,1.27-2.58,2.45-4.45,4.23
		c-2.76-5.27-5.04-10.37-7.99-15.04C453.12,675.4,452.66,671.04,458.53,666.83z"/>
	<path class="st2" d="M175.94,722.17c-3.74-3.23-6.21-5.67-8.99-7.73c-3.99-2.94-5.32-6.52-3.42-11.91
		c4.66,4.24,9.31,8.07,13.3,12.51C177.75,716.03,176.39,719.04,175.94,722.17z"/>
	<path class="st2" d="M453.08,679.24c3.48,6.03,6.54,10.66,8.78,15.65c0.63,1.4-1.15,3.89-1.83,5.87c-0.57-0.02-1.15-0.04-1.72-0.07
		c-2.59-4.45-5.63-8.71-7.54-13.43C450.06,685.52,451.99,682.7,453.08,679.24z"/>
	<g>
		<path class="st2" d="M880.45,386.54c-1.39,1.65-3.36,3.45-6.18,5.03c0,0,2.22,0.16,4.69-1.77c0,0-3.2,7.16-9.82,6.97
			c-1.14-0.03-2.38-0.13-3.61-0.29c-3.77-0.47-7.79-1.42-10.29-2.09c-1.65-0.41-3.04-1.46-3.86-2.91
			c-1.96-3.36-5.38-9.82-6.27-15.26c-0.28-1.58,0.25-3.23,1.39-4.37c1.65-1.65,4.15-4.37,5.35-6.71c1.46-2.79,1.8-3.52,1.9-3.67
			c0-0.03,0-0.03,0-0.03l0.03-0.03c0,0,0,0.03,0,0.09c-0.06,1.24-0.48,13.49,3.55,19.95c2.03,3.29,3.48,3.39,4.46,2.6l0.29-0.29
			c0.92-1.04,1.08-2.56,0.54-3.83c-1.74-4.15-6.46-16.15-4.21-20.55c2.69-5.41,7.73-10.51,22.51-10.07
			C881.56,350.67,891.63,373.21,880.45,386.54z"/>
		<path class="st2" d="M878.61,405.42l-3.2,1.17l-5.6,2.09l-0.98,0.38l-0.89,0.32l-11.62,4.31l-1.93,0.73l2.03,1.84l-2.15,2.37
			l-11.91-10.86l-17.73-16.15l3.36-3.71l3.04,2.75l2.44-11.21l0.29-1.27l0.44-2.15l1.27-5.86l0.89-3.26l5.22,4.75
			c-0.92,3.58-0.92,7.41,0.03,11.08c0.32,1.27,0.73,2.5,1.27,3.74c0.73,1.71,1.68,3.36,2.79,4.91c0.92,1.68,2.06,3.04,3.29,4.12
			c1.01,0.89,2.09,1.58,3.23,2.12c0.41,0.28,0.82,0.57,1.27,0.82c1.61,0.95,3.33,1.71,5.03,2.28c1.27,0.38,2.56,0.7,3.83,0.89
			c1.55,0.22,3.13,0.32,4.69,0.22c2.18-0.06,4.34-0.51,6.36-1.24L878.61,405.42z"/>
		<polygon class="st2" points="835.17,424.96 834.76,425.18 836.59,426.89 835.39,428.22 819.21,413.49 820.73,411.81 
			822.09,413.05 827.32,398.99 832.89,404.06 826.02,416.94 830.07,420.62 842.26,412.61 844.04,414.22 848.12,417.96 845.3,419.48 
					"/>
	</g>
</g>
</svg>
