<?xml version="1.0" encoding="utf-8"?>
<!-- Generator: Adobe Illustrator 26.0.1, SVG Export Plug-In . SVG Version: 6.00 Build 0)  -->
<svg version="1.1" id="Layer_1" xmlns="http://www.w3.org/2000/svg" xmlns:xlink="http://www.w3.org/1999/xlink" x="0px" y="0px"
	 viewBox="0 0 1000 1000" style="enable-background:new 0 0 1000 1000;" xml:space="preserve">
<style type="text/css">
	.st0{fill-rule:evenodd;clip-rule:evenodd;}
	.st1{fill-rule:evenodd;clip-rule:evenodd;fill:#C43B31;}
	.st2{fill:#FFFFFF;}
	.st3{fill:#C43B31;}
	.st4{opacity:0.06;}
	.st5{opacity:0.04;}
	.st6{opacity:0.33;}
	.st7{opacity:0.26;fill:#FFFFFF;}
	.st8{fill:#DAE0E0;}
</style>
<path class="st1" d="M497.66-0.1C221.5-0.1-2.38,223.78-2.38,499.95c0,276.16,223.88,500.04,500.04,500.04
	c276.17,0,500.05-223.88,500.05-500.04C997.71,223.78,773.83-0.1,497.66-0.1z M837.89,371.66c-0.92,3.58-0.92,7.41,0.03,11.09
	c0.32,1.26,0.73,2.5,1.27,3.73c0.73,1.71,1.68,3.36,2.79,4.91c0.91,1.68,2.05,3.04,3.29,4.12c1.01,0.89,2.09,1.58,3.23,2.12
	c0.41,0.29,0.82,0.57,1.27,0.82c1.61,0.95,3.32,1.71,5.03,2.28c1.27,0.38,2.57,0.7,3.83,0.89c1.55,0.22,3.14,0.32,4.69,0.22
	c2.18-0.06,4.34-0.5,6.36-1.23l5.26,4.81l-3.2,1.17l-5.6,2.09l-0.98,0.38l-0.89,0.32l-11.62,4.31l-1.93,0.72l2.02,1.84l-2.15,2.38
	l-11.91-10.87l-17.73-16.15l3.36-3.7l3.04,2.75l2.43-11.21l0.29-1.26l0.44-2.16l1.27-5.85l0.89-3.27L837.89,371.66z M832.92,426.89
	l-1.2,1.33l-16.19-14.72l1.52-1.68l1.37,1.23l5.22-14.06l5.57,5.07l-6.87,12.89l4.06,3.67l12.19-8.01l1.77,1.61l4.09,3.74
	l-2.82,1.52l-10.14,5.48l-0.41,0.22L832.92,426.89z M811.32,448.15l-1.29,0.57c1.29,0.85,2.43,1.57,4.14,2.57
	c-5.28,7.55-10.55,14.97-15.97,22.81c-4.42-2.43-8.41-4.56-12.97-7.13c0.85-1,1.42-2,2.28-3c0.57-0.85,1.28-1.71,1.85-2.56
	c0.43-0.57,0.86-1.14,1.14-1.71c1-1.29,2-2.57,2.99-3.85c0.29-0.43,0.58-0.86,0.86-1.29c2-2.7,3.85-5.27,5.85-7.98
	c-1.29-2.71-2.86-1.57-4.57-0.14l-0.42,0.42c0,0,0,0-0.15,0c-5.41,4.57-10.83,9.13-16.25,13.41c-1.14,0.85-2.85,1.71-4.28,1.71
	c-43.06-1-86.26-2-129.89-3.14c-5.56-0.14-11.12-0.28-16.54-0.43c1.43-1.14,2.14-1.85,2.99-2.42c3.57-2.14,7.13-4.42,10.7-6.7
	c12.4-7.84,24.81-15.68,37.36-23.38c1.71-1.15,4.27-1.72,6.41-1.29c28.95,5.28,57.89,10.84,86.98,16.11c2.56,0.58,5.7,0,8.12-0.85
	c7.13-2.57,13.97-5.7,21.25-8.7c0.71,1.14,1.28,2.28,1.85,3.42c6.13-9.41,10.98-17.96,10.98-17.96l4.28,3.85l-10.41,15.68
	l14.97-11.41l3.42,3.28c-2.85,1.57-10.98,8.13-18.68,14.69C809.32,444.58,810.32,446.29,811.32,448.15z M780.95,468.68
	c-7.56,8.13-14.97,15.97-22.24,23.81c-10.98,11.69-22.1,23.53-33.08,35.36c-2,2.14-3.99,4.28-5.85,6.42
	c-2.57,2.56-4.42,3.13-6.84-0.43c1.57-1.86,3.13-3.56,4.7-5.28c19.25-21.1,38.64-42.34,58.32-63.87
	C777.95,466.26,779.38,467.4,780.95,468.68z M322.12,408.37c-11.69,5.99-23.38,11.97-35.5,18.25c-2.14-4.71-4.13-8.56-2.85-14.12
	c1.85-7.13,5.42-11.12,11.69-14.83c43.34-25.38,86.69-51.18,129.75-77.27c7.98-4.85,16.68-4,25.09-5.99
	c2.14-0.43,4.71-1.28,5.85-2.85c9.27-11.55,21.24-18.4,34.93-23.39c19.82-7.27,39.21-15.68,58.74-23.38
	c4.28-1.57,8.99-2.14,13.41-2.85c2.28-0.43,4.7-0.57,6.98-0.43c5.42,0.57,10.41,0.14,15.12-1.29c4.7-1.56,8.98-3.98,13.11-7.55
	c1-0.86,2.86-1.14,4.42-1.28c21.96-0.72,43.92-1.43,65.88-2c1.71-0.14,3.56,0.29,5.13,0.85c7.7,3,15.4,6,23.1,9.27
	c1.28,0.58,2.85,2.43,3.14,3.85c3.42,27.24,6.55,54.61,9.83,81.85c0.15,1.85-0.14,3.84-1,5.41c-11.83,22.25-23.81,44.63-35.93,66.87
	c-0.71,1.29-1.99,2.43-3.28,3.14c-10.4,5.99-20.67,12.12-31.22,17.97c-4.14,2.28-8.27,4.56-12.55,6.69
	c-7.41,3.72-15.82,5.42-23.95,7.85c-9.98,2.85-20.1,5.56-30.23,8.13c-1.71,0.42-3.85,0.42-5.27-0.29
	c-15.97-8.12-31.66-16.54-47.48-24.95c-0.57-0.29-1-0.57-1.71-1c23.24-38.64,46.19-77.14,70-116.63c-5.41,1.71-9.84,2.99-14.25,4.28
	c-22.25,6.84-44.2,14.26-66.73,20.1c-9.98,2.57-20.82,2.28-31.23,2.85c-3.28,0.14-5.42,0.71-6.84,3.99
	c-4.99,12.12-14.26,17.4-27.23,19.97c-31.09,5.84-61.74,13.4-92.54,20.1c-2.71,0.57-4.7,1.57-4.99,4.71
	c-0.86,7.41-4.56,13.4-9.13,19.1c-2.56,3.28-5.13,6.7-7.27,10.27c-1.71,3.28-3.99,2.14-6.27,1.28c-2.71-1-1.28-2.99-0.86-4.71
	c1-3.7,2-7.41,3.14-11.12C322.69,408.94,322.41,408.65,322.12,408.37z M752.52,321.47c3.1,11.37,6.59,22.61,9.78,33.92
	c0.35,1.2,0.1,3.42-0.72,4.02c-23.5,17.1-47.09,34.07-71.63,51.74c0.85-2.15,1.23-3.32,1.77-4.4c9.41-18.71,18.84-37.36,28.15-56.11
	c0.76-1.52,0.98-3.61,0.67-5.32c-4.72-26.03-9.5-52.03-14.41-78.03c-0.54-2.72,0-4.18,2.34-5.63c10.36-6.59,20.84-13.05,30.91-20.05
	c0.31-0.22,0.6-0.41,0.92-0.63c7.31-5.13,15.77-5.54,23.94-7.13c0.95-0.19,1.86-0.38,2.81-0.53c18.72-3.65,37.53-6.97,57.16-10.58
	c-5.92,19.88-11.62,38.98-17.38,58.3c-0.13,0.38-0.26,0.72-0.35,1.1c-8.77-0.44-17.32-0.75-25.87-1.39
	c-1.97-0.16-3.39,0.19-4.59,1.2c-0.61,0.51-1.18,1.18-1.75,2.03c-6.84,10.48-13.99,20.74-20.77,31.26
	C752.42,316.85,752.01,319.57,752.52,321.47z M733.87,225.56c-4.28,0.92-6.84-2.82-9.79-6.46c7.54-2.06,14.66-4.06,21.69-5.92
	c3.11-0.83,6.21-1.65,9.31-2.41c1.27-0.32,3.27,0.85,4.41,1.93c1.29,1.2,1.99,3.07,3.29,5.16c-3.07,0.83-6.05,1.68-9.03,2.5
	C747.04,222.26,740.49,224.1,733.87,225.56z M742.93,211.63c-7.51,2.09-14.92,4.09-22.39,5.8c-4.62,1.08-7.06-2.98-9.88-6.62
	c1.52-0.54,2.63-0.98,3.8-1.27c6.62-1.67,13.24-3.38,19.89-5.03c3.04-0.79,6.11-1.55,9.18-2.31c7.85-1.97,7.85-1.9,11.81,6.04
	C751.16,209.39,747.01,210.53,742.93,211.63z M731.74,202.58c-4.08,0.98-8.14,1.93-12.19,2.91c-2.82,0.7-5.67,1.33-8.49,2.03
	c-7.28,1.83-10.83,0.16-14.82-7.44c8.68-1.71,17.23-3.42,25.72-5.1c6.68-1.3,13.33-2.57,19.98-3.83c0.88-0.19,2.28,0.38,2.85,1.1
	c1.49,1.75,2.63,3.77,4.21,6.15C743.11,199.82,737.41,201.22,731.74,202.58z M388.26,526.68c38.12-24.64,76.27-49.24,114.31-73.99
	c3.49-2.27,6.32-2.78,10.31-1.1c17.55,7.4,35.29,14.35,52.88,21.65c2.84,1.17,5.14,1.11,7.84-0.17c8.66-4.08,17.4-7.97,26.36-12.05
	c15.81,24.43,31.44,48.57,47.25,72.99c-1.24,0.73-2.16,1.37-3.16,1.83c-29.76,13.93-59.62,27.67-89.25,41.87
	c-8.32,3.98-17.15,4.24-25.85,5.52c-22.3,3.29-44.67,6.2-67.02,9.17c-1.62,0.21-3.54,0.1-5-0.57
	c-32.18-14.93-64.32-29.96-96.46-44.99c-0.36-0.17-0.65-0.5-1.49-1.16C369,539.18,378.62,532.92,388.26,526.68z M468.5,677.61
	c0.36,1.25,0.52,2.6,1.08,3.75c1.97,4.05,0.96,6.83-3.56,8.47c-3.55-9.29-7.27-18.56-10.51-27.99c-0.53-1.55,0.81-3.9,1.66-5.71
	c0.78-1.67,2.05-3.11,3.55-5.29C463.44,660.18,465.97,668.89,468.5,677.61z M465.35,637.29c1.64-1.98,2.88-4.28,4.92-7.37
	c1.23,7.47,2.35,13.92,3.35,20.38c1.29,8.31,2.11,16.71,3.88,24.91c1.1,5.11-1.14,7.47-5.35,9.69c-3.01-11.21-5.64-22.34-9.1-33.21
	C461.29,646.14,461.69,641.69,465.35,637.29z M465.11,691.32c-1.34,1.27-2.58,2.45-4.45,4.23c-2.76-5.27-5.04-10.37-7.99-15.04
	c-3.22-5.11-3.69-9.47,2.19-13.67C458.27,674.99,461.66,683.08,465.11,691.32z M477.57,683.31c2.06-1.7,2.65-3.35,2.27-5.95
	c-2.49-17.11-4.91-34.22-7.08-51.37c-0.29-2.33,0.36-5.22,1.59-7.21c2.72-4.41,6.1-8.42,10.03-13.71c0.3,3.36,0.53,5.54,0.67,7.72
	c1.43,22.49,2.78,44.98,4.34,67.45c0.24,3.46-0.72,5.52-3.61,7.47c-8.05,5.46-15.87,11.28-23.79,16.94
	c-1.28,0.92-2.61,1.76-4.15,2.79c-1.06-1.74-1.94-3.19-2.95-4.85C462.53,696.07,469.96,689.58,477.57,683.31z M449.4,679.24
	c3.48,6.04,6.54,10.66,8.78,15.65c0.63,1.41-1.15,3.89-1.83,5.88c-0.57-0.02-1.15-0.05-1.72-0.07c-2.59-4.44-5.63-8.71-7.54-13.43
	C446.39,685.52,448.32,682.71,449.4,679.24z M453.78,708.42c2.79,2.08,4.79,1.95,7.68,0.07c31.58-20.55,63.26-40.94,94.89-61.39
	c14.31-9.26,14.28-9.22,31.79-6.47c11.07,1.74,22.16,3.27,33.24,4.85c1.26,0.18,2.55,0.15,3.86,0.22c0.65-4.13-0.48-6.73-4.73-7.26
	c-15.29-1.91-26.37-10.54-36.36-21.67c-8.63-9.62-18.29-18.32-27.48-27.45c-1-0.99-1.92-2.07-3.28-3.54
	c31.91-13.98,63.4-27.77,95.3-41.74c2.78,6.99,5.52,13.82,8.2,20.66c10.47,26.81,20.47,53.82,31.64,80.33
	c4.1,9.73-0.91,15.71-5.32,22.5c-0.71,1.08-2.78,1.38-4.29,1.79c-92.84,25.3-185.67,50.58-278.53,75.8
	c-2.76,0.75-5.94,3.32-8.7-1.16c16.32-14.58,32.66-29.19,49.19-43.96C445.33,702.87,449.74,705.4,453.78,708.42z M797.9,197.12
	c11.11,7.38,22.89,13.74,34.39,20.55c-0.04,0.38-0.1,0.73-0.16,1.08c-10.99,1.9-22.01,3.83-33,5.67
	c-11.71,1.93-23.46,3.83-35.18,5.76c-4.34,0.7-8.71,1.43-13.05,2.12c-6.87,1.14-6.87,1.17-10.35-5.98
	c5.07-1.36,10.13-2.69,15.23-4.02c7.28-1.94,14.63-3.9,22.07-5.86c-4.37-7.57-8.64-14.95-13.39-23.15
	C776.11,193.99,787.23,190,797.9,197.12z M683.96,169.7c0.32-0.03,0.67-0.03,0.98-0.06c18.69-1.33,37.37-2.7,56.08-3.84
	c1.49-0.09,3.8,0.8,4.53,2c9.22,15.13,18.24,30.43,27.3,45.66c0.28,0.48,0.44,1.01,0.76,1.77c-1.58,0.48-2.98,0.8-4.28,1.27
	c-2.91,1.05-4.62,0.13-6.27-2.6c-7.12-11.65-14.44-23.21-21.88-34.67c-0.88-1.3-3.23-2.53-4.75-2.41
	c-11.43,1.05-22.86,2.19-34.26,3.39c-6.97,0.7-13.93,1.43-20.9,2.15c-9.06,0.95-14.88-2.69-17.35-11.2
	C670.66,170.65,677.31,170.17,683.96,169.7z M495.07,118.84c47.61,0,93.23,8.78,135.22,24.85l-19.71,19.7
	c-36.27-12.42-75.11-19.21-115.51-19.21c-196.16,0-355.81,159.56-355.81,355.72c0,20.29,1.74,40.17,5.06,59.54l-22.69,16.89
	c-5.05-24.67-7.71-50.26-7.71-76.43C113.92,289.83,284.91,118.84,495.07,118.84z M156.18,674.2c0.19-1.58,0.41-3.19,0.41-4.65
	c0.61-0.06,1.24-0.13,1.87-0.19c7.32,10.13,14.73,20.17,21.73,30.52c0.91,1.37-0.45,4.31-0.76,6.53c-0.48,0.03-0.92,0.06-1.4,0.09
	c-3.7-4.4-7.5-8.71-11.21-13.11c0-0.03-0.03-0.03-0.03-0.06c-3.45-4.09-6.84-8.27-9.94-12.6
	C155.74,679.17,155.9,676.74,156.18,674.2z M156.94,650.3c0.54-1.81,0.73-3.71,1.27-6.62c1.27,1.9,2.15,3.07,2.85,4.33
	c7.47,13.34,14.63,26.79,22.42,39.9c2.79,4.66,1.23,7.7-1.55,11.59c-6.94-10-13.21-19.98-20.43-29.16
	C156.59,664.07,154.73,657.83,156.94,650.3z M158.49,686.9c4.56,5.04,9.12,9.91,13.49,14.95c0,0.03,0.04,0.03,0.04,0.06
	c1.61,1.84,3.16,3.67,4.71,5.57c0.32,0.42,0.32,1.11,0.13,1.97c-0.28,1.36-0.98,3.2-1.33,4.94c-5.38-5.13-9.5-9.72-14.31-13.46
	C156.18,697,155.8,692.7,158.49,686.9z M159.86,702.54c4.65,4.25,9.31,8.08,13.3,12.51c0.91,0.98-0.45,3.99-0.89,7.13
	c-3.74-3.23-6.21-5.67-8.99-7.73C159.29,711.51,157.96,707.93,159.86,702.54z M178.38,711.76c2.69-5.23,5.35-10.32,8.08-15.42
	c1.39-2.57,1.42-4.59,0-7.19c-9.41-17.07-18.72-34.17-27.81-51.39c-1.11-2.06-1.36-5.01-0.95-7.35c0.64-3.39,1.49-6.78,2.44-10.36
	c0,0,0,0,0-0.03c0.63-2.34,1.3-4.81,1.96-7.44c1.71,3.52,3.04,6.05,4.22,8.65c10.35,22.92,20.64,45.88,31.06,68.77
	c0.89,1.97,1.08,3.52,0.41,5.2c-0.19,0.5-0.47,1.04-0.85,1.58c-4.66,7.16-9.22,14.35-13.9,21.76c-2,3.16-4.06,6.39-6.15,9.69
	c-1.87-1.75-3.2-3.04-4.72-4.47C174.3,719.71,176.32,715.69,178.38,711.76z M224.17,730.32c-7.13,4.7-14.26,9.41-21.39,13.97
	c-28.09,18.39-52.69,33.98-80.78,52.52c-4.13,2.71-6.13,1.85-8.7-2.28c9.84-14.69,16.05-26.43,25.75-41.12
	c5.84-8.98,11.98-17.82,17.68-26.94c1.71-2.57,2.99-2.43,5.42-1.29c4.85,2.28,9.98,4.57,15.11,6.99l8.13-10.27
	c3.13-3.99,6.27-7.84,9.26-11.69c2.43-2.99,4.71-5.99,7.13-8.98v-0.14c10.41-12.98,20.68-26.1,31.23-39.07
	c1.28-1.71,3.42-3.14,5.56-3.71c13.97-4.42,28.09-8.41,42.2-12.69c1.72-0.57,3.57-1.85,4.71-3.28c6.56-9.12,12.69-18.53,19.39-27.51
	c0.71-1,1.57-2,2.42-2.86c2.86-3.42,6.28-6.7,9.42-9.84c14.97-15.25,30.08-30.36,45.34-45.48c0.85-0.86,2.85-1.57,3.84-1.14
	c26.67,12.69,53.19,25.52,80.56,38.78c-4.42,2.71-8.27,4.99-12.12,7.28c-34.07,19.81-68.58,39.35-102.51,59.59
	c-5.7,3.28-11.27,6.7-16.83,10.13c-28.23,17.11-55.46,35.93-83.12,53.89C229.3,726.89,226.74,728.6,224.17,730.32z M495.07,881.05
	c-85.37,0-164.28-28.24-227.79-75.77l27.57-11.34c57.13,39,126.03,61.77,200.22,61.77c196.16,0,355.72-159.56,355.72-355.81
	c0-4.14-0.08-8.19-0.25-12.33l24.59-14.74c0.67,8.94,1,17.97,1,27.07C876.13,710.06,705.14,881.05,495.07,881.05z M870.6,391.58
	c0,0,2.22,0.16,4.69-1.77c0,0-3.2,7.16-9.82,6.97c-1.14-0.04-2.37-0.13-3.61-0.29c-3.77-0.47-7.79-1.42-10.29-2.09
	c-1.65-0.41-3.04-1.46-3.86-2.91c-1.97-3.36-5.39-9.82-6.27-15.27c-0.29-1.58,0.25-3.23,1.39-4.37c1.65-1.64,4.15-4.36,5.35-6.71
	c1.46-2.79,1.81-3.51,1.9-3.67c0-0.03,0-0.03,0-0.03l0.03-0.03c0,0,0,0.03,0,0.09c-0.06,1.24-0.47,13.49,3.55,19.95
	c2.03,3.29,3.48,3.39,4.47,2.6l0.28-0.29c0.92-1.04,1.08-2.56,0.54-3.83c-1.74-4.15-6.46-16.15-4.21-20.55
	c2.69-5.42,7.72-10.51,22.51-10.07c0.63,1.36,10.71,23.91-0.47,37.24C875.38,388.19,873.42,390,870.6,391.58z"/>
</svg>
