<?xml version="1.0" encoding="utf-8"?>
<!-- Generator: Adobe Illustrator 26.0.1, SVG Export Plug-In . SVG Version: 6.00 Build 0)  -->
<svg version="1.1" id="Layer_1" xmlns="http://www.w3.org/2000/svg" xmlns:xlink="http://www.w3.org/1999/xlink" x="0px" y="0px"
	 viewBox="0 0 684 307.04" style="enable-background:new 0 0 684 307.04;" xml:space="preserve">
<style type="text/css">
	.st0{fill-rule:evenodd;clip-rule:evenodd;}
	.st1{fill-rule:evenodd;clip-rule:evenodd;fill:#C43B31;}
	.st2{fill:#FFFFFF;}
	.st3{fill:#C43B31;}
	.st4{opacity:0.06;}
	.st5{opacity:0.04;}
	.st6{fill:#231F20;}
	.st7{font-family:'ArialMT';}
	.st8{font-size:6.6206px;}
	.st9{font-family:'Arial-BoldMT';}
	.st10{font-size:7px;}
	.st11{opacity:0.33;}
	.st12{opacity:0.26;fill:#FFFFFF;}
	.st13{fill:#DAE0E0;}
</style>
<g class="st5">
	<g>
		<path class="st3" d="M491.57,75.42c-50.23,0-91.09,40.87-91.09,91.07c0,6.25,0.63,12.37,1.84,18.27l5.42-4.04
			c-0.79-4.63-1.21-9.38-1.21-14.23c0-46.88,38.15-85.02,85.04-85.02c9.66,0,18.94,1.62,27.61,4.59l4.71-4.71
			C513.85,77.52,502.95,75.42,491.57,75.42z M582.4,160.02l-5.88,3.52c0.04,0.99,0.06,1.96,0.06,2.95
			c0,46.9-38.13,85.04-85.02,85.04c-17.73,0-34.2-5.44-47.85-14.76l-6.59,2.71c15.18,11.36,34.04,18.11,54.44,18.11
			c50.21,0,91.07-40.87,91.07-91.09C582.64,164.31,582.56,162.16,582.4,160.02z"/>
	</g>
	<path class="st3" d="M533.31,147.56c-2.48,1.42-4.94,2.89-7.45,4.28l-12.72-42.64c1.11-0.35,2.16-0.93,3.13-1.78
		c0.25-0.23,0.7-0.3,1.06-0.31c5.25-0.18,10.5-0.35,15.76-0.5c0.4-0.01,0.83,0.08,1.22,0.22c1.85,0.71,3.69,1.42,5.51,2.21
		c0.33,0.14,0.7,0.58,0.75,0.92c0.82,6.52,1.6,13.05,2.36,19.57c0.05,0.42-0.03,0.92-0.22,1.28c-2.85,5.34-5.71,10.66-8.6,15.97
		C533.93,147.09,533.62,147.37,533.31,147.56z"/>
	<path class="st3" d="M536.21,91.38c1.94-0.23,3.86-0.46,5.77-0.69c2.34-0.27,4.67-0.54,7-0.81c0.25-0.03,0.64,0.11,0.79,0.3
		c0.42,0.53,0.74,1.14,1.2,1.86c-1.95,0.34-3.81,0.67-5.65,0.99c-0.61,0.11-1.22,0.22-1.83,0.33c-1.2,0.21-2.38,0.43-3.58,0.64
		C538.06,94.33,536.67,93.38,536.21,91.38z"/>
	<path class="st3" d="M545.47,96.06c-0.67,0.17-1.35,0.32-2.03,0.48c-1.74,0.44-2.59,0.04-3.54-1.78c2.07-0.41,4.12-0.82,6.15-1.22
		c1.6-0.31,3.19-0.61,4.78-0.92c0.21-0.05,0.54,0.09,0.68,0.26c0.36,0.42,0.63,0.9,1.01,1.47c-1.41,0.34-2.77,0.67-4.12,1
		C547.4,95.6,546.44,95.83,545.47,96.06z"/>
	<path class="st3" d="M543.28,97.33c0.36-0.13,0.63-0.23,0.91-0.3c1.58-0.4,3.16-0.81,4.75-1.2c0.73-0.19,1.46-0.37,2.19-0.55
		c1.88-0.47,1.88-0.45,2.82,1.45c-1,0.27-1.99,0.55-2.97,0.81c-1.79,0.5-3.56,0.98-5.35,1.39C544.54,99.17,543.95,98.2,543.28,97.33
		z"/>
	<path class="st3" d="M546.3,99.38c1.8-0.49,3.5-0.97,5.18-1.42c0.74-0.2,1.48-0.39,2.23-0.58c0.3-0.08,0.78,0.2,1.05,0.46
		c0.31,0.29,0.48,0.73,0.79,1.23c-0.73,0.2-1.45,0.4-2.16,0.6c-1.6,0.45-3.17,0.89-4.75,1.24C547.62,101.14,547,100.25,546.3,99.38z
		"/>
	<path class="st3" d="M541.06,90.08c-1.66,0.17-3.33,0.34-4.99,0.51c-2.16,0.23-3.56-0.64-4.15-2.68c1.61-0.12,3.2-0.23,4.79-0.35
		c0.08-0.01,0.16-0.01,0.23-0.02c4.47-0.32,8.93-0.64,13.4-0.92c0.36-0.02,0.91,0.19,1.08,0.48c2.2,3.62,4.36,7.27,6.52,10.91
		c0.07,0.11,0.11,0.24,0.18,0.42c-0.38,0.11-0.71,0.19-1.02,0.3c-0.7,0.25-1.1,0.03-1.5-0.62c-1.7-2.79-3.45-5.55-5.23-8.29
		c-0.21-0.31-0.77-0.61-1.14-0.58C546.52,89.52,543.79,89.8,541.06,90.08z"/>
	<path class="st3" d="M556.57,102.78c4.47-0.87,8.97-1.66,13.66-2.53c-1.42,4.75-2.78,9.32-4.15,13.93
		c-0.03,0.09-0.06,0.17-0.08,0.26c-2.1-0.11-4.14-0.18-6.18-0.33c-0.47-0.04-0.81,0.05-1.1,0.29c-0.14,0.12-0.28,0.28-0.42,0.48
		c-1.63,2.51-3.35,4.96-4.96,7.47c-0.26,0.39-0.36,1.04-0.23,1.49c0.74,2.72,1.57,5.4,2.34,8.11c0.08,0.29,0.02,0.82-0.17,0.96
		c-5.62,4.09-11.25,8.14-17.12,12.37c0.2-0.51,0.3-0.79,0.42-1.05c2.25-4.47,4.5-8.93,6.73-13.41c0.18-0.36,0.23-0.86,0.16-1.27
		c-1.13-6.22-2.27-12.43-3.44-18.65c-0.13-0.65,0-1,0.56-1.35c2.47-1.57,4.98-3.12,7.39-4.79c0.08-0.05,0.14-0.1,0.22-0.15
		c1.75-1.23,3.77-1.32,5.72-1.7C556.12,102.86,556.34,102.81,556.57,102.78z"/>
	<path class="st3" d="M572.16,99.04c-0.01,0.09-0.02,0.17-0.04,0.26c-2.63,0.45-5.26,0.92-7.89,1.35c-2.8,0.46-5.61,0.92-8.41,1.38
		c-1.04,0.17-2.08,0.34-3.12,0.51c-1.64,0.27-1.64,0.28-2.47-1.43c1.21-0.33,2.42-0.64,3.64-0.96c1.74-0.46,3.5-0.93,5.28-1.4
		c-1.04-1.81-2.07-3.57-3.2-5.53c2.78,0.17,5.44-0.79,7.99,0.92C566.6,95.89,569.41,97.41,572.16,99.04z"/>
	<path class="st3" d="M558.68,158.06c0.48,0.38,0.82,0.65,1.22,0.97c-1.82,1.94-3.57,3.81-5.33,5.68c-2.63,2.82-5.27,5.62-7.89,8.45
		l-1.91,0.18C549.36,168.28,553.99,163.21,558.68,158.06z"/>
	<path class="st3" d="M570.91,149.3c-0.71,0.37-2.64,1.97-4.47,3.53c0.23,0.43,0.46,0.85,0.7,1.27l-0.3,0.16
		c0.3,0.18,0.58,0.36,0.98,0.61c-1.26,1.79-2.51,3.57-3.82,5.43c-1.04-0.58-1.98-1.1-3.07-1.7c0.17-0.23,0.34-0.46,0.51-0.7
		c0.15-0.21,0.31-0.42,0.46-0.64c0.1-0.13,0.19-0.26,0.28-0.39c0.23-0.31,0.46-0.63,0.69-0.94l0.01-0.01c0.08-0.1,0.14-0.2,0.22-0.3
		c0.45-0.63,0.92-1.25,1.38-1.88c-0.28-0.65-0.67-0.38-1.07-0.04c-0.04,0.03-0.07,0.06-0.11,0.08c0,0.01-0.01,0.02-0.02,0.02
		c-1.29,1.07-2.59,2.15-3.91,3.19c-0.28,0.21-0.67,0.42-1.01,0.41c-10.3-0.23-20.61-0.5-31.06-0.76l-0.67-2.26
		c2.97-1.88,5.94-3.76,8.92-5.61c0.42-0.26,1.04-0.39,1.53-0.31c6.93,1.27,13.85,2.61,20.79,3.87c0.62,0.11,1.35,0,1.97-0.23
		c1.68-0.61,3.32-1.34,5.07-2.07c0.15,0.27,0.3,0.54,0.45,0.81c1.46-2.23,2.62-4.3,2.62-4.3l1,0.95l-2.47,3.72l3.56-2.72
		L570.91,149.3z"/>
	<path class="st3" d="M410.73,209.7c-0.26-0.37-0.23-0.95-0.16-1.56c0.05-0.38,0.1-0.76,0.1-1.11c0.14-0.01,0.3-0.03,0.45-0.05
		c1.75,2.42,3.52,4.82,5.19,7.3c0.22,0.33-0.11,1.03-0.18,1.56c-0.11,0.01-0.22,0.02-0.33,0.02c-0.89-1.05-1.79-2.08-2.68-3.13
		c0-0.01-0.01-0.01-0.01-0.02C412.28,211.74,411.47,210.74,410.73,209.7z"/>
	<path class="st3" d="M414.63,217.91c0.22,0.23-0.11,0.95-0.21,1.7c-0.89-0.77-1.48-1.35-2.15-1.85c-0.95-0.7-1.27-1.56-0.82-2.85
		C412.56,215.93,413.68,216.85,414.63,217.91z"/>
	<path class="st3" d="M415.2,217.75c-1.29-1.23-2.27-2.32-3.42-3.22c-1.2-0.94-1.29-1.97-0.65-3.35c1.09,1.2,2.18,2.37,3.22,3.57
		c0,0.01,0.01,0.01,0.01,0.02c0.39,0.44,0.76,0.88,1.13,1.33c0.08,0.1,0.08,0.26,0.03,0.47
		C415.45,216.89,415.28,217.33,415.2,217.75z"/>
	<path class="st3" d="M411.85,207.22c-1.17-1.5-1.62-2.99-1.09-4.79c0.13-0.43,0.17-0.89,0.3-1.58c0.3,0.45,0.51,0.73,0.68,1.04
		c1.79,3.19,3.5,6.4,5.36,9.54c0.67,1.11,0.3,1.84-0.37,2.77C415.07,211.8,413.57,209.42,411.85,207.22z"/>
	<path class="st3" d="M411.16,199.44c-0.26-0.49-0.33-1.2-0.23-1.76c0.15-0.81,0.36-1.62,0.58-2.47c0,0,0,0,0-0.01
		c0.15-0.56,0.31-1.15,0.47-1.78c0.41,0.84,0.73,1.45,1.01,2.07c2.47,5.48,4.93,10.97,7.42,16.44c0.21,0.47,0.26,0.84,0.1,1.24
		c-0.05,0.12-0.11,0.25-0.2,0.38c-1.11,1.71-2.2,3.43-3.32,5.2c-0.48,0.76-0.97,1.53-1.47,2.32c-0.45-0.42-0.76-0.73-1.13-1.07
		c0.51-0.97,0.99-1.93,1.48-2.87c0.64-1.25,1.28-2.47,1.93-3.69c0.33-0.61,0.34-1.1,0-1.72
		C415.56,207.64,413.34,203.55,411.16,199.44z"/>
	<path class="st3" d="M452.55,205.02c-1.35,0.8-2.7,1.6-4.04,2.42c-6.74,4.09-13.24,8.58-19.84,12.9c-0.62,0.41-1.23,0.81-1.85,1.21
		c-1.7,1.12-3.4,2.23-5.09,3.34c-6.73,4.41-13.45,8.82-20.15,13.27c-0.97,0.64-1.47,0.42-2.06-0.55c2.32-3.52,4.64-7.02,6.96-10.53
		c1.42-2.14,2.88-4.26,4.25-6.43c0.39-0.61,0.72-0.6,1.27-0.33c1.18,0.58,2.38,1.11,3.63,1.69c0.65-0.82,1.3-1.64,1.95-2.46
		c0.73-0.94,1.48-1.87,2.21-2.81c0.57-0.71,1.13-1.43,1.7-2.14v-0.01c2.47-3.13,4.95-6.25,7.45-9.36c0.32-0.4,0.84-0.74,1.33-0.89
		c3.35-1.03,6.73-1.99,10.08-3.01c0.42-0.13,0.87-0.44,1.13-0.79c1.57-2.17,3.03-4.41,4.64-6.55c0.18-0.24,0.37-0.48,0.58-0.7
		L452.55,205.02z"/>
	<path class="st3" d="M542.7,130.81c-2.85,5.34-5.71,10.66-8.6,15.97c-0.17,0.32-0.48,0.6-0.79,0.78c-2.48,1.42-4.94,2.89-7.45,4.28
		c-0.99,0.55-1.99,1.08-3,1.6c-1.77,0.9-3.79,1.32-5.72,1.88c-2.4,0.7-4.82,1.34-7.24,1.96c-0.39,0.1-0.92,0.11-1.26-0.07
		c-3.8-1.97-7.57-3.98-11.34-5.98c-0.12-0.06-0.23-0.14-0.39-0.24c5.53-9.23,11.04-18.42,16.7-27.85c-1.29,0.39-2.34,0.69-3.38,1.01
		c-5.31,1.63-10.59,3.41-15.96,4.81c-2.38,0.62-4.96,0.53-7.45,0.67c-0.78,0.04-1.32,0.19-1.63,0.95c-1.21,2.91-3.41,4.18-6.52,4.78
		c-7.41,1.4-14.73,3.2-22.11,4.82c-0.67,0.14-1.14,0.36-1.21,1.14c-0.18,1.76-1.07,3.19-2.16,4.54c-0.63,0.79-1.24,1.6-1.73,2.47
		c-0.44,0.76-0.95,0.5-1.5,0.31c-0.68-0.24-0.33-0.72-0.22-1.13c0.23-0.89,0.48-1.78,0.73-2.66c-0.08-0.08-0.15-0.14-0.23-0.21
		c-2.79,1.43-5.59,2.86-8.5,4.35c-0.49-1.12-0.97-2.04-0.65-3.36c0.42-1.7,1.29-2.67,2.78-3.54c10.37-6.08,20.71-12.25,31-18.47
		c1.91-1.16,4-0.97,6.01-1.43c0.5-0.12,1.11-0.32,1.41-0.7c2.19-2.75,5.06-4.37,8.33-5.58c4.73-1.73,9.35-3.75,14.05-5.58
		c1.01-0.39,2.13-0.51,3.21-0.7c0.54-0.09,1.12-0.13,1.66-0.08c1.28,0.11,2.47,0.01,3.6-0.33c1.11-0.35,2.16-0.93,3.13-1.78
		c0.25-0.23,0.7-0.3,1.06-0.31c5.25-0.18,10.5-0.35,15.76-0.5c0.4-0.01,0.83,0.08,1.22,0.22c1.85,0.71,3.69,1.42,5.51,2.21
		c0.33,0.14,0.7,0.58,0.75,0.92c0.82,6.52,1.6,13.05,2.36,19.57C542.96,129.95,542.89,130.44,542.7,130.81z"/>
	<path class="st3" d="M459.04,177.43c2.4-1.55,4.7-3.05,7-4.54c9.11-5.89,18.23-11.77,27.32-17.68c0.83-0.54,1.51-0.66,2.46-0.26
		c4.19,1.77,8.43,3.43,12.64,5.17c0.68,0.28,1.23,0.26,1.87-0.04c2.07-0.98,4.16-1.91,6.3-2.88c3.78,5.84,7.52,11.61,11.29,17.45
		c-0.3,0.17-0.52,0.33-0.75,0.44c-7.11,3.33-14.25,6.61-21.33,10.01c-1.99,0.95-4.1,1.01-6.18,1.32
		c-5.33,0.79-10.68,1.48-16.02,2.19c-0.39,0.05-0.85,0.02-1.19-0.14c-7.69-3.57-15.37-7.16-23.05-10.75
		C459.31,177.67,459.24,177.59,459.04,177.43z"/>
	<path class="st3" d="M466.86,224.82c3.9-3.49,7.81-6.98,11.75-10.51c1.07,0.69,2.12,1.29,3.08,2.01c0.67,0.5,1.14,0.47,1.84,0.02
		c7.55-4.91,15.12-9.78,22.68-14.67c3.42-2.21,3.41-2.2,7.6-1.55c2.64,0.42,5.3,0.78,7.94,1.16c0.3,0.04,0.61,0.04,0.92,0.05
		c0.16-0.99-0.11-1.61-1.13-1.73c-3.65-0.46-6.3-2.52-8.69-5.18c-2.06-2.3-4.37-4.38-6.57-6.56c-0.24-0.24-0.46-0.5-0.78-0.85
		c7.63-3.34,15.15-6.64,22.78-9.98c0.66,1.67,1.32,3.3,1.96,4.94c2.5,6.41,4.89,12.86,7.56,19.2c0.98,2.33-0.22,3.75-1.27,5.38
		c-0.17,0.26-0.66,0.33-1.03,0.43c-22.19,6.05-44.37,12.09-66.57,18.11C468.28,225.27,467.52,225.89,466.86,224.82z"/>
	<path class="st3" d="M479.94,189.05c-1.06,0.64-1.96,1.2-2.88,1.73c-8.17,4.75-16.38,9.41-24.51,14.24c-1.35,0.8-2.7,1.6-4.04,2.42
		c-6.74,4.09-13.24,8.58-19.84,12.9c-0.62,0.41-1.23,0.81-1.85,1.21c-1.7,1.12-3.4,2.23-5.09,3.34
		c-6.73,4.41-13.45,8.82-20.15,13.27c-0.97,0.64-1.47,0.42-2.06-0.55c2.32-3.52,4.64-7.02,6.96-10.53c1.42-2.14,2.88-4.26,4.25-6.43
		c0.39-0.61,0.72-0.6,1.27-0.33c1.18,0.58,2.38,1.11,3.63,1.69c0.65-0.82,1.3-1.64,1.95-2.46c0.73-0.94,1.48-1.87,2.21-2.81
		c0.57-0.71,1.13-1.43,1.7-2.14v-0.01c2.47-3.13,4.95-6.25,7.45-9.36c0.32-0.4,0.84-0.74,1.33-0.89c3.35-1.03,6.73-1.99,10.08-3.01
		c0.42-0.13,0.87-0.44,1.13-0.79c1.57-2.17,3.03-4.41,4.64-6.55c0.18-0.24,0.37-0.48,0.58-0.7c0.7-0.82,1.49-1.58,2.26-2.35
		c3.59-3.64,7.2-7.26,10.83-10.87c0.2-0.2,0.7-0.37,0.93-0.26C467.06,182.82,473.4,185.9,479.94,189.05z"/>
	<path class="st3" d="M570.23,100.25c-1.42,4.75-2.78,9.32-4.15,13.93c-0.03,0.09-0.06,0.17-0.08,0.26
		c-2.1-0.11-4.14-0.18-6.18-0.33c-0.47-0.04-0.81,0.05-1.1,0.29c-0.14,0.12-0.28,0.28-0.42,0.48c-1.63,2.51-3.35,4.96-4.96,7.47
		c-0.26,0.39-0.36,1.04-0.23,1.49c0.74,2.72,1.57,5.4,2.34,8.11c0.08,0.29,0.02,0.82-0.17,0.96c-5.62,4.09-11.25,8.14-17.12,12.37
		c0.2-0.51,0.3-0.79,0.42-1.05c2.25-4.47,4.5-8.93,6.73-13.41c0.18-0.36,0.23-0.86,0.16-1.27c-1.13-6.22-2.27-12.43-3.44-18.65
		c-0.13-0.65,0-1,0.56-1.35c2.47-1.57,4.98-3.12,7.39-4.79c0.08-0.05,0.14-0.1,0.22-0.15c1.75-1.23,3.77-1.32,5.72-1.7
		c0.23-0.05,0.45-0.09,0.67-0.13C561.04,101.91,565.54,101.11,570.23,100.25z"/>
	<path class="st3" d="M567.82,154.88c-1.26,1.79-2.51,3.57-3.82,5.43c-1.04-0.58-1.98-1.1-3.07-1.7c0.17-0.23,0.34-0.46,0.51-0.7
		c0.15-0.21,0.31-0.42,0.46-0.64c0.1-0.13,0.19-0.26,0.28-0.39c0.23-0.31,0.46-0.63,0.69-0.94l0.01-0.01c0.08-0.1,0.14-0.2,0.22-0.3
		c0.45-0.63,0.92-1.25,1.38-1.88c-0.28-0.65-0.67-0.38-1.07-0.04c-0.04,0.03-0.07,0.06-0.11,0.08c0,0.01-0.01,0.02-0.02,0.02
		c-1.29,1.07-2.59,2.15-3.91,3.19c-0.28,0.21-0.67,0.42-1.01,0.41c-10.3-0.23-20.61-0.5-31.06-0.76c-1.32-0.03-2.63-0.07-3.96-0.1
		c0.35-0.26,0.53-0.43,0.74-0.56c0.85-0.54,1.7-1.07,2.54-1.6c2.97-1.88,5.94-3.76,8.92-5.61c0.42-0.26,1.04-0.39,1.53-0.31
		c6.93,1.27,13.85,2.61,20.79,3.87c0.62,0.11,1.35,0,1.97-0.23c1.68-0.61,3.32-1.34,5.07-2.07c0.15,0.27,0.3,0.54,0.45,0.81
		c0.37,0.67,0.73,1.32,1.09,1.96c0.23,0.43,0.46,0.85,0.7,1.27l-0.3,0.16C567.14,154.45,567.43,154.63,567.82,154.88z"/>
	<path class="st3" d="M572.16,99.04c-0.01,0.09-0.02,0.17-0.04,0.26c-2.63,0.45-5.26,0.92-7.89,1.35c-2.8,0.46-5.61,0.92-8.41,1.38
		c-1.04,0.17-2.08,0.34-3.12,0.51c-1.64,0.27-1.64,0.28-2.47-1.43c1.21-0.33,2.42-0.64,3.64-0.96c1.74-0.46,3.5-0.93,5.28-1.4
		c-1.04-1.81-2.07-3.57-3.2-5.53c2.78,0.17,5.44-0.79,7.99,0.92C566.6,95.89,569.41,97.41,572.16,99.04z"/>
	<path class="st3" d="M558.14,98.45c-0.38,0.11-0.71,0.19-1.02,0.3c-0.7,0.25-1.1,0.03-1.5-0.62c-1.7-2.79-3.45-5.55-5.23-8.29
		c-0.21-0.31-0.77-0.61-1.14-0.58c-2.73,0.25-5.46,0.52-8.19,0.81c-1.66,0.17-3.33,0.34-4.99,0.51c-2.16,0.23-3.56-0.64-4.15-2.68
		c1.61-0.12,3.2-0.23,4.79-0.35c0.08-0.01,0.16-0.01,0.23-0.02c4.47-0.32,8.93-0.64,13.4-0.92c0.36-0.02,0.91,0.19,1.08,0.48
		c2.2,3.62,4.36,7.27,6.52,10.91C558.02,98.14,558.06,98.27,558.14,98.45z"/>
	<path class="st3" d="M420.52,213.16c-0.05,0.12-0.11,0.25-0.2,0.38c-1.11,1.71-2.2,3.43-3.32,5.2c-0.48,0.76-0.97,1.53-1.47,2.32
		c-0.45-0.42-0.76-0.73-1.13-1.07c0.51-0.97,0.99-1.93,1.48-2.87c0.64-1.25,1.28-2.47,1.93-3.69c0.33-0.61,0.34-1.1,0-1.72
		c-2.25-4.08-4.47-8.17-6.64-12.28c-0.26-0.49-0.33-1.2-0.23-1.76c0.15-0.81,0.36-1.62,0.58-2.47c0,0,0,0,0-0.01
		c0.15-0.56,0.31-1.15,0.47-1.78c0.41,0.84,0.73,1.45,1.01,2.07c2.47,5.48,4.93,10.97,7.42,16.44
		C420.63,212.39,420.68,212.76,420.52,213.16z"/>
	<path class="st3" d="M482.67,216.09c-0.25-0.41-0.46-0.76-0.7-1.16c1.82-1.56,3.6-3.11,5.42-4.61c0.49-0.41,0.63-0.8,0.54-1.42
		c-0.59-4.09-1.17-8.18-1.69-12.28c-0.07-0.56,0.08-1.25,0.38-1.72c0.65-1.05,1.46-2.01,2.4-3.27c0.07,0.8,0.13,1.32,0.16,1.84
		c0.34,5.37,0.66,10.75,1.04,16.12c0.06,0.83-0.17,1.32-0.86,1.79c-1.93,1.3-3.79,2.7-5.69,4.05
		C483.35,215.64,483.04,215.84,482.67,216.09z"/>
	<path class="st3" d="M550.98,92.04c-1.95,0.34-3.81,0.67-5.65,0.99c-0.61,0.11-1.22,0.22-1.83,0.33c-1.2,0.21-2.38,0.43-3.58,0.64
		c-1.85,0.33-3.24-0.62-3.7-2.62c1.94-0.23,3.86-0.46,5.77-0.69c2.34-0.27,4.67-0.54,7-0.81c0.25-0.03,0.64,0.11,0.79,0.3
		C550.19,90.7,550.51,91.32,550.98,92.04z"/>
	<path class="st3" d="M559.9,159.03c-1.82,1.94-3.57,3.81-5.33,5.68c-2.63,2.82-5.27,5.62-7.89,8.45c-0.48,0.51-0.95,1.01-1.42,1.53
		c-0.58,0.64-1.03,0.75-1.62-0.11c0.38-0.42,0.75-0.82,1.13-1.24c4.6-5.06,9.23-10.14,13.92-15.29
		C559.16,158.44,559.5,158.71,559.9,159.03z"/>
	<path class="st3" d="M416.73,214.19c-1.66-2.39-3.16-4.78-4.88-6.97c-1.17-1.5-1.62-2.99-1.09-4.79c0.13-0.43,0.17-0.89,0.3-1.58
		c0.3,0.45,0.51,0.73,0.68,1.04c1.79,3.19,3.5,6.4,5.36,9.54C417.76,212.54,417.39,213.26,416.73,214.19z"/>
	<path class="st3" d="M552.51,94.37c-1.41,0.34-2.77,0.67-4.12,1c-0.98,0.23-1.95,0.46-2.91,0.7c-0.67,0.17-1.35,0.32-2.03,0.48
		c-1.74,0.44-2.59,0.04-3.54-1.78c2.07-0.41,4.12-0.82,6.15-1.22c1.6-0.31,3.19-0.61,4.78-0.92c0.21-0.05,0.54,0.09,0.68,0.26
		C551.85,93.32,552.13,93.8,552.51,94.37z"/>
	<path class="st3" d="M486.09,210.7c-0.72-2.68-1.35-5.34-2.17-7.94c-0.42-1.33-0.33-2.39,0.55-3.44c0.39-0.47,0.69-1.02,1.17-1.76
		c0.29,1.79,0.56,3.33,0.8,4.87c0.31,1.99,0.51,3.99,0.93,5.95C487.63,209.61,487.09,210.17,486.09,210.7z"/>
	<path class="st3" d="M553.96,96.72c-1,0.27-1.99,0.55-2.97,0.81c-1.79,0.5-3.56,0.98-5.35,1.39c-1.1,0.26-1.69-0.71-2.36-1.58
		c0.36-0.13,0.63-0.23,0.91-0.3c1.58-0.4,3.16-0.81,4.75-1.2c0.73-0.19,1.46-0.37,2.19-0.55C553.01,94.81,553.01,94.82,553.96,96.72
		z"/>
	<path class="st3" d="M555.55,99.08c-0.73,0.2-1.45,0.4-2.16,0.6c-1.6,0.45-3.17,0.89-4.75,1.24c-1.02,0.22-1.63-0.67-2.34-1.54
		c1.8-0.49,3.5-0.97,5.18-1.42c0.74-0.2,1.48-0.39,2.23-0.58c0.3-0.08,0.78,0.2,1.05,0.46C555.07,98.14,555.24,98.58,555.55,99.08z"
		/>
	<path class="st3" d="M416.13,215.84c-0.11,0.01-0.22,0.02-0.33,0.02c-0.89-1.05-1.79-2.08-2.68-3.13c0-0.01-0.01-0.01-0.01-0.02
		c-0.82-0.98-1.63-1.98-2.38-3.01c-0.26-0.37-0.23-0.95-0.16-1.56c0.05-0.38,0.1-0.76,0.1-1.11c0.14-0.01,0.3-0.03,0.45-0.05
		c1.75,2.42,3.52,4.82,5.19,7.3C416.53,214.61,416.2,215.31,416.13,215.84z"/>
	<path class="st3" d="M483.36,202.56c0.65,2.23,1.25,4.31,1.86,6.4c0.09,0.3,0.13,0.62,0.26,0.9c0.47,0.97,0.23,1.63-0.85,2.02
		c-0.85-2.22-1.74-4.44-2.51-6.69c-0.13-0.37,0.19-0.93,0.4-1.37C482.69,203.43,483,203.08,483.36,202.56z"/>
	<path class="st3" d="M415.52,216.57c-0.07,0.33-0.23,0.76-0.32,1.18c-1.29-1.23-2.27-2.32-3.42-3.22c-1.2-0.94-1.29-1.97-0.65-3.35
		c1.09,1.2,2.18,2.37,3.22,3.57c0,0.01,0.01,0.01,0.01,0.02c0.39,0.44,0.76,0.88,1.13,1.33
		C415.56,216.2,415.56,216.36,415.52,216.57z"/>
	<path class="st3" d="M481.96,206.39c0.82,1.95,1.63,3.88,2.45,5.85c-0.32,0.3-0.62,0.59-1.06,1.01c-0.66-1.26-1.2-2.48-1.91-3.6
		C480.66,208.43,480.55,207.39,481.96,206.39z"/>
	<path class="st3" d="M414.42,219.61c-0.89-0.77-1.48-1.35-2.15-1.85c-0.95-0.7-1.27-1.56-0.82-2.85c1.11,1.01,2.23,1.93,3.18,2.99
		C414.85,218.14,414.52,218.86,414.42,219.61z"/>
	<path class="st3" d="M480.65,209.35c0.83,1.44,1.56,2.55,2.1,3.74c0.15,0.34-0.28,0.93-0.44,1.4c-0.14-0.01-0.27-0.01-0.41-0.02
		c-0.62-1.06-1.34-2.08-1.8-3.21C479.93,210.85,480.39,210.18,480.65,209.35z"/>
	<g>
		<path class="st3" d="M582.79,139.4c-0.33,0.39-0.8,0.82-1.48,1.2c0,0,0.53,0.04,1.12-0.42c0,0-0.76,1.71-2.35,1.66
			c-0.27-0.01-0.57-0.03-0.86-0.07c-0.9-0.11-1.86-0.34-2.46-0.5c-0.39-0.1-0.73-0.35-0.92-0.7c-0.47-0.8-1.29-2.35-1.5-3.65
			c-0.07-0.38,0.06-0.77,0.33-1.04c0.39-0.39,0.99-1.04,1.28-1.6c0.35-0.67,0.43-0.84,0.45-0.88c0-0.01,0-0.01,0-0.01l0.01-0.01
			c0,0,0,0.01,0,0.02c-0.02,0.3-0.11,3.22,0.85,4.77c0.48,0.79,0.83,0.81,1.07,0.62l0.07-0.07c0.22-0.25,0.26-0.61,0.13-0.92
			c-0.42-0.99-1.54-3.86-1.01-4.91c0.64-1.29,1.85-2.51,5.38-2.41C583.06,130.82,585.46,136.21,582.79,139.4z"/>
		<path class="st3" d="M582.35,143.91l-0.76,0.28l-1.34,0.5l-0.23,0.09l-0.21,0.08l-2.78,1.03l-0.46,0.17l0.48,0.44l-0.51,0.57
			l-2.85-2.6l-4.24-3.86l0.8-0.89l0.73,0.66l0.58-2.68l0.07-0.3l0.11-0.51l0.3-1.4l0.21-0.78l1.25,1.14
			c-0.22,0.86-0.22,1.77,0.01,2.65c0.08,0.3,0.17,0.6,0.3,0.89c0.17,0.41,0.4,0.8,0.67,1.17c0.22,0.4,0.49,0.73,0.79,0.98
			c0.24,0.21,0.5,0.38,0.77,0.51c0.1,0.07,0.2,0.14,0.3,0.2c0.39,0.23,0.79,0.41,1.2,0.54c0.3,0.09,0.61,0.17,0.92,0.21
			c0.37,0.05,0.75,0.08,1.12,0.05c0.52-0.02,1.04-0.12,1.52-0.3L582.35,143.91z"/>
		<polygon class="st3" points="571.97,148.58 571.87,148.63 572.31,149.04 572.02,149.36 568.16,145.84 568.52,145.44 
			568.84,145.73 570.09,142.37 571.43,143.58 569.78,146.66 570.75,147.54 573.67,145.63 574.09,146.01 575.07,146.91 
			574.39,147.27 		"/>
		<path class="st3" d="M570.91,149.3c-0.71,0.37-2.64,1.97-4.47,3.53c-1.35,1.15-2.63,2.28-3.32,2.9c-0.09,0.08-0.17,0.15-0.24,0.21
			c0.08-0.1,0.14-0.2,0.22-0.3c0.45-0.63,0.92-1.25,1.38-1.88c-0.28-0.65-0.67-0.38-1.07-0.04c-0.04,0.03-0.07,0.06-0.11,0.08
			c0.7-0.89,1.41-1.93,2.06-2.93c1.46-2.23,2.62-4.3,2.62-4.3l1,0.95l-2.47,3.72l3.56-2.72L570.91,149.3z"/>
		<path class="st3" d="M562.93,156.61c-0.2,0.21-0.47,0.32-0.74,0.29c0.23-0.31,0.46-0.63,0.69-0.94l0.01-0.01
			c0.08-0.1,0.14-0.2,0.22-0.3c0.02,0.03,0.02,0.06,0.02,0.09C563.21,156.03,563.15,156.36,562.93,156.61z"/>
		<path class="st3" d="M561.9,157.28c-0.01,0.16-0.08,0.32-0.19,0.45c-0.08,0.08-0.17,0.14-0.27,0.19
			C561.59,157.7,561.75,157.49,561.9,157.28z"/>
	</g>
</g>
<text transform="matrix(1.0293 0 0 1 41.3785 219.6599)" class="st6 st7 st8">if not delivered, return to, </text>
<g>
	<text transform="matrix(1.0293 0 0 1 67.347 240.3066)" class="st6 st9 st10">CONSULTANT &amp; TRADERS PVT LTD</text>
</g>
<g>
	<text transform="matrix(1.0293 0 0 1 39.6163 240.2639)" class="st6 st9 st10">ERMIS</text>
</g>
<g>
	<text transform="matrix(1.0293 0 0 1 39.5855 276.9873)" class="st6 st7 st10">+91 9894821309,  +91 8148221308</text>
</g>
<g>
	<text transform="matrix(1.0293 0 0 1 39.6939 285.1787)" class="st6 st7 st10">ramc.ermis@gmail.com</text>
</g>
<g>
	<text transform="matrix(1.0293 0 0 1 39.8008 251.4665)"><tspan x="0" y="0" class="st6 st7 st10">3/73 Kurundasala Nagar, K. Vadamadurai,NGGO Colony, Kurudampalaym, </tspan><tspan x="0" y="8.4" class="st6 st7 st10">Coimbatore - 641017, India </tspan></text>
</g>
<g>
	<rect x="0.05" y="0.16" class="st1" width="177.55" height="83.85"/>
	<g>
		<path class="st2" d="M49.8,24.24c0.46-0.05,0.92-0.11,1.37-0.16c0.56-0.06,1.11-0.13,1.67-0.19c0.06-0.01,0.15,0.03,0.19,0.07
			c0.1,0.13,0.18,0.27,0.29,0.44c-0.46,0.08-0.91,0.16-1.35,0.24c-0.15,0.03-0.29,0.05-0.44,0.08c-0.28,0.05-0.57,0.1-0.85,0.15
			C50.24,24.94,49.91,24.72,49.8,24.24z"/>
		<g>
			<g>
				<g>
					<path class="st2" d="M39.27,20.41c-11.95,0-21.68,9.72-21.68,21.67c0,1.49,0.15,2.94,0.44,4.35l1.29-0.96
						c-0.19-1.1-0.29-2.23-0.29-3.39c0-11.16,9.08-20.23,20.24-20.23c2.3,0,4.51,0.39,6.57,1.09l1.12-1.12
						C44.57,20.91,41.98,20.41,39.27,20.41z M60.88,40.54l-1.4,0.84c0.01,0.24,0.01,0.47,0.01,0.7c0,11.16-9.07,20.24-20.23,20.24
						c-4.22,0-8.14-1.3-11.39-3.51l-1.57,0.65c3.61,2.7,8.1,4.31,12.95,4.31c11.95,0,21.67-9.72,21.67-21.68
						C60.94,41.56,60.92,41.05,60.88,40.54z"/>
				</g>
				<path class="st2" d="M52.04,25.34c-0.16,0.04-0.32,0.08-0.48,0.12c-0.41,0.1-0.62,0.01-0.84-0.42c0.49-0.1,0.98-0.19,1.46-0.29
					c0.38-0.07,0.76-0.15,1.14-0.22c0.05-0.01,0.13,0.02,0.16,0.06c0.08,0.1,0.15,0.21,0.24,0.35c-0.33,0.08-0.66,0.16-0.98,0.24
					C52.5,25.23,52.27,25.28,52.04,25.34z"/>
				<path class="st2" d="M51.53,25.64c0.09-0.03,0.15-0.06,0.22-0.07c0.38-0.1,0.75-0.19,1.13-0.29c0.17-0.05,0.35-0.09,0.52-0.13
					c0.45-0.11,0.45-0.11,0.67,0.34c-0.24,0.06-0.47,0.13-0.71,0.19c-0.43,0.12-0.85,0.23-1.27,0.33
					C51.83,26.08,51.69,25.85,51.53,25.64z"/>
				<path class="st2" d="M52.29,26.11c0.43-0.12,0.83-0.23,1.23-0.34c0.18-0.05,0.35-0.09,0.53-0.14c0.07-0.02,0.19,0.05,0.25,0.11
					c0.07,0.07,0.11,0.17,0.19,0.29c-0.17,0.05-0.34,0.1-0.51,0.14c-0.38,0.11-0.75,0.21-1.13,0.3
					C52.61,26.53,52.46,26.32,52.29,26.11z"/>
				<path class="st2" d="M51.05,23.9c-0.4,0.04-0.79,0.08-1.19,0.12c-0.52,0.05-0.85-0.15-0.99-0.64c0.38-0.03,0.76-0.06,1.14-0.08
					c0.02,0,0.04,0,0.06,0c1.06-0.08,2.13-0.15,3.19-0.22c0.08-0.01,0.22,0.05,0.26,0.11c0.52,0.86,1.04,1.73,1.55,2.6
					c0.02,0.03,0.03,0.06,0.04,0.1c-0.09,0.03-0.17,0.05-0.24,0.07c-0.17,0.06-0.26,0.01-0.36-0.15c-0.41-0.66-0.82-1.32-1.24-1.97
					c-0.05-0.07-0.18-0.14-0.27-0.14C52.35,23.77,51.7,23.83,51.05,23.9z"/>
				<path class="st2" d="M54.74,26.92c1.06-0.21,2.13-0.4,3.25-0.6c-0.34,1.13-0.66,2.22-0.99,3.32c-0.01,0.02-0.01,0.04-0.02,0.06
					c-0.5-0.03-0.99-0.04-1.47-0.08c-0.11-0.01-0.19,0.01-0.26,0.07c-0.03,0.03-0.07,0.07-0.1,0.12c-0.39,0.6-0.8,1.18-1.18,1.78
					c-0.06,0.09-0.08,0.25-0.06,0.35c0.18,0.65,0.37,1.29,0.56,1.93c0.02,0.07,0.01,0.19-0.04,0.23c-1.34,0.97-2.68,1.94-4.07,2.94
					c0.05-0.12,0.07-0.19,0.1-0.25c0.53-1.06,1.07-2.13,1.6-3.19c0.04-0.09,0.06-0.21,0.04-0.3c-0.27-1.48-0.54-2.96-0.82-4.44
					c-0.03-0.15,0-0.24,0.13-0.32c0.59-0.37,1.19-0.74,1.76-1.14c0.02-0.01,0.03-0.02,0.05-0.04c0.42-0.29,0.9-0.32,1.36-0.41
					C54.63,26.94,54.68,26.93,54.74,26.92z"/>
				<path class="st2" d="M58.45,26.03c0,0.02-0.01,0.04-0.01,0.06c-0.62,0.11-1.25,0.22-1.88,0.32c-0.67,0.11-1.33,0.22-2,0.33
					c-0.25,0.04-0.5,0.08-0.74,0.12c-0.39,0.06-0.39,0.07-0.59-0.34c0.29-0.08,0.58-0.15,0.87-0.23c0.41-0.11,0.83-0.22,1.26-0.33
					c-0.25-0.43-0.49-0.85-0.76-1.32c0.66,0.04,1.29-0.19,1.9,0.22C57.12,25.28,57.79,25.64,58.45,26.03z"/>
				<polygon class="st2" points="58.91,37.21 59.14,37.42 58.98,37.51 58.4,37.82 58.38,37.83 58.48,37.93 58.41,38 57.49,37.17 
					57.58,37.07 57.66,37.14 57.96,36.34 58.27,36.63 57.88,37.36 58.11,37.57 58.81,37.12 				"/>
				<path class="st2" d="M60.87,36.71l-0.18,0.07l-0.32,0.12l-0.06,0.02l-0.05,0.02l-0.66,0.24l-0.11,0.04l0.12,0.1l-0.12,0.14
					l-0.68-0.62l-1.01-0.92l0.19-0.21l0.17,0.16l0.14-0.64l0.02-0.07l0.03-0.12l0.07-0.33l0.05-0.19l0.3,0.27
					c-0.05,0.2-0.05,0.42,0,0.63c0.02,0.07,0.04,0.14,0.07,0.21c0.04,0.1,0.1,0.19,0.16,0.28c0.05,0.1,0.12,0.17,0.19,0.23
					c0.06,0.05,0.12,0.09,0.18,0.12c0.02,0.02,0.05,0.03,0.07,0.05c0.09,0.05,0.19,0.1,0.29,0.13c0.07,0.02,0.15,0.04,0.22,0.05
					c0.09,0.01,0.18,0.02,0.27,0.01c0.12,0,0.25-0.03,0.36-0.07L60.87,36.71z"/>
				<path class="st2" d="M60.98,35.63c-0.08,0.09-0.19,0.2-0.35,0.29c0,0,0.13,0.01,0.27-0.1c0,0-0.18,0.41-0.56,0.4
					c-0.06,0-0.14-0.01-0.21-0.02c-0.21-0.03-0.44-0.08-0.59-0.12c-0.09-0.02-0.17-0.08-0.22-0.17c-0.11-0.19-0.31-0.56-0.36-0.87
					c-0.02-0.09,0.01-0.18,0.08-0.25c0.09-0.09,0.24-0.25,0.3-0.38c0.08-0.16,0.1-0.2,0.11-0.21c0,0,0,0,0,0l0,0c0,0,0,0,0,0.01
					c0,0.07-0.03,0.77,0.2,1.13c0.12,0.19,0.2,0.19,0.25,0.15l0.02-0.02c0.05-0.06,0.06-0.15,0.03-0.22
					c-0.1-0.24-0.37-0.92-0.24-1.17c0.15-0.31,0.44-0.6,1.28-0.57C61.04,33.59,61.61,34.88,60.98,35.63z"/>
				<path class="st2" d="M20.03,52.36c-0.06-0.09-0.05-0.23-0.04-0.37c0.01-0.09,0.02-0.18,0.02-0.26c0.03,0,0.07-0.01,0.11-0.01
					c0.42,0.58,0.84,1.15,1.24,1.74c0.05,0.08-0.03,0.24-0.04,0.37c-0.03,0-0.05,0-0.08,0.01c-0.21-0.25-0.43-0.5-0.64-0.75
					c0,0,0,0,0,0C20.4,52.85,20.21,52.61,20.03,52.36z"/>
				<path class="st2" d="M20.96,54.32c0.05,0.06-0.03,0.23-0.05,0.41c-0.21-0.18-0.35-0.32-0.51-0.44c-0.23-0.17-0.3-0.37-0.19-0.68
					C20.47,53.85,20.73,54.06,20.96,54.32z"/>
				<path class="st2" d="M21.1,54.28c-0.31-0.29-0.54-0.55-0.81-0.77c-0.29-0.22-0.31-0.47-0.15-0.8c0.26,0.29,0.52,0.56,0.77,0.85
					c0,0,0,0,0,0c0.09,0.1,0.18,0.21,0.27,0.32c0.02,0.02,0.02,0.06,0.01,0.11C21.16,54.07,21.12,54.18,21.1,54.28z"/>
				<path class="st2" d="M20.3,51.77c-0.28-0.36-0.39-0.71-0.26-1.14c0.03-0.1,0.04-0.21,0.07-0.38c0.07,0.11,0.12,0.17,0.16,0.25
					c0.43,0.76,0.83,1.52,1.28,2.27c0.16,0.26,0.07,0.44-0.09,0.66C21.07,52.86,20.71,52.3,20.3,51.77z"/>
				<path class="st2" d="M20.14,49.92c-0.06-0.12-0.08-0.28-0.05-0.42c0.04-0.19,0.08-0.39,0.14-0.59c0,0,0,0,0,0
					c0.04-0.13,0.07-0.27,0.11-0.42c0.1,0.2,0.17,0.34,0.24,0.49c0.59,1.3,1.17,2.61,1.77,3.91c0.05,0.11,0.06,0.2,0.02,0.3
					c-0.01,0.03-0.03,0.06-0.05,0.09c-0.26,0.41-0.52,0.82-0.79,1.24c-0.11,0.18-0.23,0.36-0.35,0.55c-0.11-0.1-0.18-0.17-0.27-0.25
					c0.12-0.23,0.24-0.46,0.35-0.68c0.15-0.3,0.3-0.59,0.46-0.88c0.08-0.15,0.08-0.26,0-0.41C21.18,51.87,20.65,50.9,20.14,49.92z"
					/>
				<path class="st2" d="M51.49,33.28c0.01,0.11-0.01,0.22-0.06,0.31c-0.67,1.27-1.35,2.54-2.04,3.8c-0.04,0.07-0.11,0.14-0.19,0.18
					c-0.59,0.34-1.18,0.69-1.78,1.02c-0.24,0.13-0.47,0.26-0.71,0.38c-0.42,0.21-0.9,0.31-1.36,0.45c-0.57,0.16-1.14,0.32-1.72,0.46
					c-0.1,0.02-0.22,0.02-0.3-0.02c-0.91-0.46-1.8-0.94-2.7-1.42c-0.03-0.02-0.06-0.03-0.1-0.06c1.32-2.2,2.63-4.39,3.98-6.63
					c-0.31,0.1-0.56,0.17-0.81,0.24c-1.26,0.39-2.51,0.81-3.8,1.14c-0.57,0.15-1.18,0.13-1.78,0.16c-0.19,0.01-0.31,0.04-0.39,0.23
					c-0.28,0.69-0.81,0.99-1.55,1.14c-1.77,0.33-3.51,0.76-5.26,1.14c-0.15,0.03-0.27,0.09-0.28,0.27
					c-0.05,0.42-0.26,0.76-0.52,1.09c-0.15,0.19-0.29,0.38-0.41,0.58c-0.1,0.19-0.23,0.12-0.36,0.07c-0.15-0.06-0.07-0.17-0.05-0.27
					c0.06-0.21,0.11-0.42,0.18-0.63c-0.02-0.02-0.04-0.03-0.06-0.05c-0.66,0.34-1.33,0.68-2.02,1.04c-0.12-0.27-0.24-0.49-0.16-0.8
					c0.11-0.41,0.31-0.63,0.66-0.84c2.47-1.44,4.93-2.91,7.38-4.39c0.45-0.28,0.95-0.23,1.43-0.34c0.12-0.02,0.27-0.07,0.33-0.16
					c0.53-0.66,1.21-1.05,1.99-1.33c1.13-0.41,2.23-0.89,3.34-1.33c0.24-0.09,0.51-0.12,0.76-0.16c0.13-0.02,0.27-0.03,0.4-0.02
					c0.31,0.03,0.59,0.01,0.86-0.07c0.27-0.09,0.51-0.23,0.75-0.43c0.06-0.05,0.16-0.06,0.25-0.07c1.25-0.04,2.5-0.08,3.75-0.11
					c0.1-0.01,0.2,0.02,0.29,0.05c0.44,0.17,0.88,0.34,1.31,0.53c0.07,0.03,0.16,0.14,0.18,0.22C51.12,30.18,51.3,31.73,51.49,33.28
					z"/>
				<path class="st2" d="M31.53,44.68c0.57-0.37,1.12-0.73,1.67-1.08c2.17-1.4,4.34-2.8,6.5-4.21c0.2-0.13,0.36-0.16,0.59-0.06
					c1,0.42,2.01,0.82,3.01,1.23c0.16,0.07,0.29,0.06,0.45-0.01c0.49-0.23,0.99-0.45,1.5-0.69c0.9,1.39,1.79,2.76,2.69,4.15
					c-0.07,0.04-0.12,0.08-0.18,0.1c-1.69,0.79-3.39,1.57-5.08,2.38c-0.47,0.23-0.98,0.24-1.47,0.31c-1.27,0.19-2.54,0.35-3.81,0.52
					c-0.09,0.01-0.2,0.01-0.28-0.03c-1.83-0.85-3.66-1.7-5.49-2.56C31.59,44.74,31.58,44.72,31.53,44.68z"/>
				<path class="st2" d="M33.39,55.96c0.93-0.83,1.86-1.66,2.8-2.5c0.25,0.16,0.5,0.31,0.73,0.48c0.16,0.12,0.27,0.11,0.44,0
					c1.8-1.17,3.6-2.33,5.4-3.49c0.81-0.53,0.81-0.52,1.81-0.37c0.63,0.1,1.26,0.19,1.89,0.28c0.07,0.01,0.14,0.01,0.22,0.01
					c0.04-0.23-0.03-0.38-0.27-0.41c-0.87-0.11-1.5-0.6-2.07-1.23c-0.49-0.55-1.04-1.04-1.56-1.56c-0.06-0.06-0.11-0.12-0.19-0.2
					c1.82-0.79,3.61-1.58,5.42-2.37c0.16,0.4,0.31,0.79,0.47,1.18c0.6,1.52,1.16,3.06,1.8,4.57c0.23,0.55-0.05,0.89-0.3,1.28
					c-0.04,0.06-0.16,0.08-0.24,0.1c-5.28,1.44-10.56,2.88-15.84,4.31C33.73,56.07,33.55,56.22,33.39,55.96z"/>
				<path class="st2" d="M36.5,47.45c-0.25,0.15-0.47,0.28-0.69,0.41c-1.94,1.13-3.9,2.24-5.83,3.39c-0.32,0.19-0.64,0.38-0.96,0.58
					c-1.61,0.97-3.15,2.04-4.73,3.07c-0.15,0.1-0.29,0.19-0.44,0.29c-0.41,0.27-0.81,0.54-1.22,0.79c-1.6,1.05-3,1.93-4.59,2.99
					c-0.24,0.15-0.35,0.11-0.49-0.13c0.56-0.84,0.91-1.5,1.46-2.34c0.33-0.51,0.68-1.01,1.01-1.53c0.1-0.15,0.17-0.14,0.31-0.07
					c0.28,0.13,0.57,0.26,0.86,0.4l0.46-0.58c0.18-0.23,0.36-0.45,0.53-0.66c0.14-0.17,0.27-0.34,0.41-0.51v-0.01
					c0.59-0.74,1.18-1.48,1.78-2.22c0.07-0.1,0.19-0.18,0.32-0.21c0.79-0.25,1.6-0.48,2.4-0.72c0.1-0.03,0.2-0.11,0.27-0.19
					c0.37-0.52,0.72-1.05,1.1-1.56c0.04-0.06,0.09-0.11,0.14-0.16c0.16-0.19,0.36-0.38,0.54-0.56c0.85-0.87,1.71-1.73,2.58-2.59
					c0.05-0.05,0.16-0.09,0.22-0.06C33.44,45.96,34.95,46.69,36.5,47.45z"/>
				<path class="st2" d="M57.99,26.32c-0.34,1.13-0.66,2.22-0.99,3.32c-0.01,0.02-0.01,0.04-0.02,0.06
					c-0.5-0.03-0.99-0.04-1.47-0.08c-0.11-0.01-0.19,0.01-0.26,0.07c-0.03,0.03-0.07,0.07-0.1,0.12c-0.39,0.6-0.8,1.18-1.18,1.78
					c-0.06,0.09-0.08,0.25-0.06,0.35c0.18,0.65,0.37,1.29,0.56,1.93c0.02,0.07,0.01,0.19-0.04,0.23c-1.34,0.97-2.68,1.94-4.07,2.94
					c0.05-0.12,0.07-0.19,0.1-0.25c0.53-1.06,1.07-2.13,1.6-3.19c0.04-0.09,0.06-0.21,0.04-0.3c-0.27-1.48-0.54-2.96-0.82-4.44
					c-0.03-0.15,0-0.24,0.13-0.32c0.59-0.37,1.19-0.74,1.76-1.14c0.02-0.01,0.03-0.02,0.05-0.04c0.42-0.29,0.9-0.32,1.36-0.41
					c0.05-0.01,0.11-0.02,0.16-0.03C55.8,26.71,56.87,26.52,57.99,26.32z"/>
				<path class="st2" d="M57.18,39.17c0.07,0.05,0.14,0.09,0.24,0.15c-0.3,0.43-0.6,0.85-0.91,1.3c-0.25-0.14-0.48-0.26-0.74-0.41
					c0.05-0.06,0.08-0.11,0.13-0.17c0.03-0.05,0.07-0.1,0.11-0.15c0.02-0.03,0.05-0.06,0.06-0.1c0.06-0.07,0.11-0.15,0.17-0.22
					c0.02-0.02,0.03-0.05,0.05-0.07c0.11-0.15,0.22-0.3,0.33-0.45c-0.07-0.15-0.16-0.09-0.26-0.01l-0.02,0.02c0,0,0,0-0.01,0
					c-0.31,0.26-0.62,0.52-0.92,0.76c-0.06,0.05-0.16,0.1-0.24,0.1c-2.45-0.06-4.91-0.11-7.39-0.18c-0.32-0.01-0.63-0.02-0.94-0.02
					c0.08-0.06,0.12-0.11,0.17-0.14c0.2-0.12,0.41-0.25,0.61-0.38c0.71-0.45,1.41-0.89,2.12-1.33c0.1-0.06,0.24-0.1,0.36-0.07
					c1.65,0.3,3.29,0.62,4.95,0.92c0.15,0.03,0.32,0,0.46-0.05c0.41-0.15,0.79-0.32,1.21-0.49c0.04,0.06,0.07,0.13,0.11,0.19
					c0.35-0.54,0.62-1.02,0.62-1.02l0.24,0.22l-0.59,0.89l0.85-0.65l0.19,0.19c-0.16,0.09-0.62,0.46-1.06,0.84
					c0.06,0.11,0.11,0.2,0.17,0.31L57.18,39.17z"/>
				<path class="st2" d="M58.45,26.03c0,0.02-0.01,0.04-0.01,0.06c-0.62,0.11-1.25,0.22-1.88,0.32c-0.67,0.11-1.33,0.22-2,0.33
					c-0.25,0.04-0.5,0.08-0.74,0.12c-0.39,0.06-0.39,0.07-0.59-0.34c0.29-0.08,0.58-0.15,0.87-0.23c0.41-0.11,0.83-0.22,1.26-0.33
					c-0.25-0.43-0.49-0.85-0.76-1.32c0.66,0.04,1.29-0.19,1.9,0.22C57.12,25.28,57.79,25.64,58.45,26.03z"/>
				<path class="st2" d="M55.11,25.89c-0.09,0.03-0.17,0.05-0.24,0.07c-0.17,0.06-0.26,0.01-0.36-0.15
					c-0.41-0.66-0.82-1.32-1.24-1.97c-0.05-0.07-0.18-0.14-0.27-0.14c-0.65,0.06-1.3,0.12-1.95,0.19c-0.4,0.04-0.79,0.08-1.19,0.12
					c-0.52,0.05-0.85-0.15-0.99-0.64c0.38-0.03,0.76-0.06,1.14-0.08c0.02,0,0.04,0,0.06,0c1.06-0.08,2.13-0.15,3.19-0.22
					c0.08-0.01,0.22,0.05,0.26,0.11c0.52,0.86,1.04,1.73,1.55,2.6C55.08,25.82,55.09,25.85,55.11,25.89z"/>
				<path class="st2" d="M22.36,53.19c-0.01,0.03-0.03,0.06-0.05,0.09c-0.26,0.41-0.52,0.82-0.79,1.24
					c-0.11,0.18-0.23,0.36-0.35,0.55c-0.11-0.1-0.18-0.17-0.27-0.25c0.12-0.23,0.24-0.46,0.35-0.68c0.15-0.3,0.3-0.59,0.46-0.88
					c0.08-0.15,0.08-0.26,0-0.41c-0.53-0.97-1.06-1.94-1.58-2.92c-0.06-0.12-0.08-0.28-0.05-0.42c0.04-0.19,0.08-0.39,0.14-0.59
					c0,0,0,0,0,0c0.04-0.13,0.07-0.27,0.11-0.42c0.1,0.2,0.17,0.34,0.24,0.49c0.59,1.3,1.17,2.61,1.77,3.91
					C22.39,53,22.4,53.09,22.36,53.19z"/>
				<path class="st2" d="M37.15,53.88c-0.06-0.1-0.11-0.18-0.17-0.28c0.43-0.37,0.86-0.74,1.29-1.1c0.12-0.1,0.15-0.19,0.13-0.34
					c-0.14-0.97-0.28-1.95-0.4-2.92c-0.02-0.13,0.02-0.3,0.09-0.41c0.15-0.25,0.35-0.48,0.57-0.78c0.02,0.19,0.03,0.31,0.04,0.44
					c0.08,1.28,0.16,2.56,0.25,3.84c0.01,0.2-0.04,0.31-0.21,0.43c-0.46,0.31-0.9,0.64-1.35,0.96
					C37.31,53.78,37.24,53.82,37.15,53.88z"/>
				<path class="st2" d="M55.53,40.3c-0.43,0.46-0.85,0.91-1.26,1.35c-0.62,0.66-1.26,1.34-1.88,2.01
					c-0.11,0.12-0.23,0.24-0.33,0.37c-0.15,0.15-0.25,0.18-0.39-0.02c0.09-0.11,0.18-0.2,0.27-0.3c1.09-1.2,2.2-2.41,3.32-3.63
					C55.36,40.17,55.44,40.23,55.53,40.3z"/>
				<path class="st2" d="M21.46,53.43c-0.39-0.57-0.75-1.14-1.16-1.66c-0.28-0.36-0.39-0.71-0.26-1.14c0.03-0.1,0.04-0.21,0.07-0.38
					c0.07,0.11,0.12,0.17,0.16,0.25c0.43,0.76,0.83,1.52,1.28,2.27C21.71,53.04,21.62,53.21,21.46,53.43z"/>
				<path class="st2" d="M37.97,52.6c-0.17-0.64-0.32-1.27-0.52-1.89c-0.1-0.32-0.08-0.57,0.13-0.82c0.09-0.11,0.16-0.24,0.28-0.42
					c0.07,0.43,0.13,0.79,0.19,1.16c0.07,0.47,0.12,0.95,0.22,1.42C38.33,52.34,38.2,52.48,37.97,52.6z"/>
				<path class="st2" d="M21.32,53.82c-0.03,0-0.05,0-0.08,0.01c-0.21-0.25-0.43-0.5-0.64-0.75c0,0,0,0,0,0
					c-0.2-0.23-0.39-0.47-0.57-0.72c-0.06-0.09-0.05-0.23-0.04-0.37c0.01-0.09,0.02-0.18,0.02-0.26c0.03,0,0.07-0.01,0.11-0.01
					c0.42,0.58,0.84,1.15,1.24,1.74C21.41,53.53,21.34,53.7,21.32,53.82z"/>
				<path class="st2" d="M37.32,50.66c0.15,0.53,0.3,1.03,0.44,1.52c0.02,0.07,0.03,0.15,0.06,0.21c0.11,0.23,0.05,0.39-0.2,0.48
					c-0.2-0.53-0.41-1.06-0.6-1.59c-0.03-0.09,0.05-0.22,0.09-0.32C37.16,50.87,37.23,50.79,37.32,50.66z"/>
				<path class="st2" d="M21.17,54c-0.02,0.08-0.06,0.18-0.08,0.28c-0.31-0.29-0.54-0.55-0.81-0.77c-0.29-0.22-0.31-0.47-0.15-0.8
					c0.26,0.29,0.52,0.56,0.77,0.85c0,0,0,0,0,0c0.09,0.1,0.18,0.21,0.27,0.32C21.18,53.91,21.18,53.95,21.17,54z"/>
				<path class="st2" d="M36.98,51.57c0.19,0.46,0.39,0.92,0.58,1.39c-0.08,0.07-0.15,0.14-0.25,0.24c-0.16-0.3-0.29-0.59-0.45-0.86
					C36.67,52.06,36.65,51.81,36.98,51.57z"/>
				<path class="st2" d="M20.91,54.72c-0.21-0.18-0.35-0.32-0.51-0.44c-0.23-0.17-0.3-0.37-0.19-0.68c0.26,0.24,0.53,0.46,0.76,0.71
					C21.01,54.37,20.94,54.54,20.91,54.72z"/>
				<path class="st2" d="M36.67,52.28c0.2,0.34,0.37,0.61,0.5,0.89c0.04,0.08-0.07,0.22-0.1,0.33c-0.03,0-0.07,0-0.1,0
					c-0.15-0.25-0.32-0.5-0.43-0.76C36.5,52.64,36.61,52.48,36.67,52.28z"/>
				<g>
					<path class="st2" d="M60.98,35.63c-0.08,0.09-0.19,0.2-0.35,0.29c0,0,0.13,0.01,0.27-0.1c0,0-0.18,0.41-0.56,0.4
						c-0.06,0-0.14-0.01-0.21-0.02c-0.21-0.03-0.44-0.08-0.59-0.12c-0.09-0.02-0.17-0.08-0.22-0.17c-0.11-0.19-0.31-0.56-0.36-0.87
						c-0.02-0.09,0.01-0.18,0.08-0.25c0.09-0.09,0.24-0.25,0.3-0.38c0.08-0.16,0.1-0.2,0.11-0.21c0,0,0,0,0,0l0,0c0,0,0,0,0,0.01
						c0,0.07-0.03,0.77,0.2,1.13c0.12,0.19,0.2,0.19,0.25,0.15l0.02-0.02c0.05-0.06,0.06-0.15,0.03-0.22
						c-0.1-0.24-0.37-0.92-0.24-1.17c0.15-0.31,0.44-0.6,1.28-0.57C61.04,33.59,61.61,34.88,60.98,35.63z"/>
					<path class="st2" d="M60.87,36.71l-0.18,0.07l-0.32,0.12l-0.06,0.02l-0.05,0.02l-0.66,0.24l-0.11,0.04l0.12,0.1l-0.12,0.14
						l-0.68-0.62l-1.01-0.92l0.19-0.21l0.17,0.16l0.14-0.64l0.02-0.07l0.03-0.12l0.07-0.33l0.05-0.19l0.3,0.27
						c-0.05,0.2-0.05,0.42,0,0.63c0.02,0.07,0.04,0.14,0.07,0.21c0.04,0.1,0.1,0.19,0.16,0.28c0.05,0.1,0.12,0.17,0.19,0.23
						c0.06,0.05,0.12,0.09,0.18,0.12c0.02,0.02,0.05,0.03,0.07,0.05c0.09,0.05,0.19,0.1,0.29,0.13c0.07,0.02,0.15,0.04,0.22,0.05
						c0.09,0.01,0.18,0.02,0.27,0.01c0.12,0,0.25-0.03,0.36-0.07L60.87,36.71z"/>
					<polygon class="st2" points="58.4,37.82 58.38,37.83 58.48,37.93 58.41,38 57.49,37.17 57.58,37.07 57.66,37.14 57.96,36.34 
						58.27,36.63 57.88,37.36 58.11,37.57 58.81,37.12 58.91,37.21 59.14,37.42 58.98,37.51 					"/>
				</g>
			</g>
			<g>
				<g>
					<path class="st2" d="M75.4,39.67h10.58v-3.44H71.67v12.33h15.41v-3.46H75.4V39.67z M71.67,27.72v3.44h15.41v-3.44H71.67z"/>
					<path class="st2" d="M102.28,41.14c2.95-0.94,4.95-3.37,4.95-6.53c0-4.07-3.28-6.92-7.66-6.92h-8.91v6.09h3.73v-2.6h4.77
						c2.53,0,4.29,1.31,4.29,3.43c0,2.12-1.76,3.43-4.29,3.43h-2.26v0.01h-6.24v10.5h3.73v-7.01h3.97l4.83,7.01h4.23L102.28,41.14z"
						/>
					<path class="st2" d="M128.1,27.72l-6.77,12.71l-6.74-12.71h-3.73v20.83h3.73V34.63l6.74,12.71l6.77-12.71v13.92h3.7V27.72
						H128.1z"/>
					<path class="st2" d="M136.38,27.71v20.84h3.7V27.71H136.38z"/>
					<path class="st2" d="M152.51,36.57c-3.25-0.74-4.77-1.34-4.77-3.01c0-1.43,1.4-2.68,3.46-2.68c2.03,0,4.08,0.86,5.87,2.41
						l2.03-2.74c-2.06-1.76-4.5-2.86-7.75-2.86c-4.32,0-7.36,2.62-7.36,6.2c0,3.84,2.95,5.07,7.18,6.05
						c3.28,0.77,4.74,1.34,4.74,3.04c0,1.46-1.31,2.71-3.84,2.71c-2.68,0-4.86-1.07-6.74-2.77l-2.15,2.65
						c2.26,2.12,5.25,3.31,8.76,3.31c4.89,0,7.69-2.59,7.69-6.26C159.63,38.89,156.77,37.52,152.51,36.57z"/>
				</g>
				<g>
					<path class="st2" d="M71.71,52.67c0-1.21,0.99-2.23,2.17-2.23c0.61,0,1.16,0.27,1.55,0.7l-0.53,0.52
						c-0.25-0.31-0.62-0.5-1.02-0.5c-0.76,0-1.4,0.69-1.4,1.51c0,0.83,0.64,1.52,1.4,1.52c0.4,0,0.77-0.19,1.03-0.5l0.53,0.51
						c-0.4,0.43-0.95,0.7-1.55,0.7C72.7,54.9,71.71,53.88,71.71,52.67z"/>
					<path class="st2" d="M75.86,53.2c0-0.92,0.76-1.69,1.66-1.69s1.66,0.77,1.66,1.69s-0.76,1.7-1.66,1.7S75.86,54.13,75.86,53.2z
						 M78.46,53.2c0-0.56-0.43-1.04-0.94-1.04c-0.52,0-0.95,0.48-0.95,1.04c0,0.57,0.43,1.05,0.95,1.05
						C78.03,54.25,78.46,53.77,78.46,53.2z"/>
					<path class="st2" d="M82.7,52.76v2.06H82v-1.91c0-0.44-0.27-0.75-0.65-0.75c-0.38,0-0.7,0.27-0.75,0.61v2.05h-0.73v-3.24h0.73
						v0.43c0.19-0.3,0.55-0.51,0.96-0.51C82.23,51.51,82.7,52.03,82.7,52.76z"/>
					<path class="st2" d="M83.33,54.41l0.33-0.53c0.3,0.23,0.65,0.38,1.04,0.38c0.29,0,0.5-0.13,0.5-0.33
						c0-0.25-0.27-0.33-0.62-0.43c-0.67-0.18-1.1-0.38-1.1-0.96c0-0.61,0.48-1.02,1.17-1.02c0.43,0,0.85,0.16,1.19,0.39l-0.31,0.56
						c-0.29-0.19-0.61-0.29-0.88-0.29c-0.26,0-0.46,0.11-0.46,0.29c0,0.21,0.16,0.27,0.63,0.41c0.52,0.15,1.09,0.34,1.09,1.02
						c0,0.62-0.49,1.02-1.22,1.02C84.21,54.9,83.7,54.73,83.33,54.41z"/>
					<path class="st2" d="M89.41,51.59v3.24h-0.73V54.4c-0.19,0.3-0.55,0.51-0.96,0.51c-0.68,0-1.15-0.52-1.15-1.25v-2.06h0.71v1.91
						c0,0.44,0.27,0.75,0.65,0.75s0.7-0.27,0.75-0.61v-2.05H89.41z"/>
					<path class="st2" d="M90.26,50.44h0.73v4.38h-0.73V50.44z"/>
					<path class="st2" d="M93.61,54.65c-0.17,0.16-0.43,0.26-0.66,0.26c-0.52,0-0.88-0.39-0.88-0.93v-1.75h-0.45v-0.63h0.45V50.7
						h0.71v0.89h0.7v0.63h-0.7v1.66c0,0.22,0.13,0.38,0.31,0.38c0.12,0,0.24-0.05,0.3-0.12L93.61,54.65z"/>
					<path class="st2" d="M96.9,52.88v1.95h-0.71v-0.39c-0.23,0.3-0.62,0.46-0.98,0.46c-0.66,0-1.16-0.41-1.16-1.03
						c0-0.64,0.57-1.08,1.27-1.08c0.28,0,0.59,0.06,0.87,0.18v-0.09c0-0.38-0.2-0.74-0.76-0.74c-0.29,0-0.58,0.11-0.84,0.24
						l-0.25-0.53c0.44-0.23,0.85-0.34,1.24-0.34C96.39,51.51,96.9,52.06,96.9,52.88z M96.19,53.81v-0.36
						c-0.23-0.08-0.49-0.13-0.76-0.13c-0.37,0-0.66,0.21-0.66,0.52c0,0.31,0.26,0.5,0.61,0.5C95.73,54.35,96.1,54.16,96.19,53.81z"
						/>
					<path class="st2" d="M100.58,52.76v2.06h-0.71v-1.91c0-0.44-0.27-0.75-0.65-0.75s-0.7,0.27-0.75,0.61v2.05h-0.73v-3.24h0.73
						v0.43c0.19-0.3,0.55-0.51,0.96-0.51C100.11,51.51,100.58,52.03,100.58,52.76z"/>
					<path class="st2" d="M103.17,54.65c-0.17,0.16-0.43,0.26-0.66,0.26c-0.52,0-0.88-0.39-0.88-0.93v-1.75h-0.45v-0.63h0.45V50.7
						h0.71v0.89h0.7v0.63h-0.7v1.66c0,0.22,0.13,0.38,0.31,0.38c0.13,0,0.24-0.05,0.31-0.12L103.17,54.65z"/>
					<path class="st2" d="M103.58,54.41l0.33-0.53c0.3,0.23,0.65,0.38,1.04,0.38c0.29,0,0.5-0.13,0.5-0.33
						c0-0.25-0.27-0.33-0.62-0.43c-0.67-0.18-1.1-0.38-1.1-0.96c0-0.61,0.48-1.02,1.17-1.02c0.43,0,0.85,0.16,1.19,0.39l-0.31,0.56
						c-0.29-0.19-0.61-0.29-0.88-0.29c-0.26,0-0.46,0.11-0.46,0.29c0,0.21,0.16,0.27,0.63,0.41c0.52,0.15,1.09,0.34,1.09,1.02
						c0,0.62-0.49,1.02-1.22,1.02C104.46,54.9,103.95,54.73,103.58,54.41z"/>
					<path class="st2" d="M111.41,54.91l-0.47-0.51c-0.34,0.32-0.74,0.5-1.22,0.5c-0.78,0-1.36-0.46-1.36-1.24
						c0-0.56,0.28-0.93,0.91-1.23c-0.23-0.33-0.31-0.58-0.31-0.9c0-0.59,0.49-1.07,1.13-1.07c0.64,0,1.1,0.46,1.1,1.06
						c0,0.5-0.33,0.77-0.95,1.07c0.21,0.26,0.44,0.52,0.73,0.85c0.16-0.25,0.3-0.54,0.42-0.85l0.56,0.28
						c-0.18,0.38-0.37,0.73-0.57,1.02c0.19,0.21,0.41,0.45,0.66,0.72L111.41,54.91z M110.54,53.96c-0.41-0.45-0.7-0.78-0.93-1.07
						c-0.34,0.19-0.52,0.43-0.52,0.73c0,0.42,0.32,0.67,0.7,0.67C110.06,54.29,110.31,54.17,110.54,53.96z M109.62,51.54
						c0,0.21,0.09,0.4,0.28,0.65c0.46-0.19,0.64-0.34,0.64-0.65c0-0.28-0.19-0.5-0.44-0.5C109.83,51.04,109.62,51.23,109.62,51.54z"
						/>
					<path class="st2" d="M115.55,51.23h-1.32v-0.72h3.38v0.72h-1.32v3.59h-0.74V51.23z"/>
					<path class="st2" d="M120.13,51.51v0.65c-0.67,0-1.11,0.41-1.11,1.03v1.64h-0.73v-3.24h0.73v0.63
						C119.22,51.78,119.62,51.51,120.13,51.51z"/>
					<path class="st2" d="M123.4,52.88v1.95h-0.71v-0.39c-0.23,0.3-0.62,0.46-0.98,0.46c-0.66,0-1.16-0.41-1.16-1.03
						c0-0.64,0.57-1.08,1.27-1.08c0.28,0,0.59,0.06,0.87,0.18v-0.09c0-0.38-0.2-0.74-0.76-0.74c-0.29,0-0.58,0.11-0.84,0.24
						l-0.25-0.53c0.44-0.23,0.85-0.34,1.24-0.34C122.89,51.51,123.4,52.06,123.4,52.88z M122.68,53.81v-0.36
						c-0.23-0.08-0.49-0.13-0.76-0.13c-0.37,0-0.66,0.21-0.66,0.52c0,0.31,0.26,0.5,0.61,0.5C122.22,54.35,122.6,54.16,122.68,53.81
						z"/>
					<path class="st2" d="M127.32,50.44v4.38h-0.73v-0.5c-0.25,0.36-0.62,0.58-1.07,0.58c-0.82,0-1.42-0.7-1.42-1.7
						c0-0.99,0.6-1.69,1.42-1.69c0.46,0,0.83,0.21,1.07,0.58v-1.64H127.32z M126.59,53.2c0-0.61-0.36-1.04-0.88-1.04
						c-0.52,0-0.89,0.43-0.89,1.04c0,0.61,0.37,1.05,0.89,1.05C126.23,54.25,126.59,53.81,126.59,53.2z"/>
					<path class="st2" d="M130.44,53.9l0.46,0.5c-0.27,0.3-0.81,0.5-1.26,0.5c-0.89,0-1.62-0.71-1.62-1.71
						c0-0.97,0.7-1.69,1.58-1.69c0.96,0,1.52,0.76,1.52,1.96h-2.34c0.09,0.45,0.41,0.76,0.86,0.76
						C129.92,54.23,130.26,54.09,130.44,53.9z M128.78,52.88h1.63c-0.08-0.41-0.35-0.7-0.79-0.7
						C129.22,52.19,128.89,52.46,128.78,52.88z"/>
					<path class="st2" d="M133.65,51.51v0.65c-0.67,0-1.11,0.41-1.11,1.03v1.64h-0.73v-3.24h0.73v0.63
						C132.74,51.78,133.14,51.51,133.65,51.51z"/>
					<path class="st2" d="M134.03,54.41l0.33-0.53c0.3,0.23,0.65,0.38,1.04,0.38c0.29,0,0.5-0.13,0.5-0.33
						c0-0.25-0.27-0.33-0.62-0.43c-0.67-0.18-1.1-0.38-1.1-0.96c0-0.61,0.48-1.02,1.17-1.02c0.43,0,0.85,0.16,1.19,0.39l-0.31,0.56
						c-0.29-0.19-0.61-0.29-0.88-0.29c-0.26,0-0.46,0.11-0.46,0.29c0,0.21,0.16,0.27,0.64,0.41c0.52,0.15,1.08,0.34,1.08,1.02
						c0,0.62-0.49,1.02-1.22,1.02C134.91,54.9,134.4,54.73,134.03,54.41z"/>
					<path class="st2" d="M139.05,50.52h1.79c0.88,0,1.54,0.59,1.54,1.43s-0.66,1.43-1.54,1.43h-1.04v1.45h-0.75V50.52z
						 M140.76,52.66c0.51,0,0.86-0.27,0.86-0.71s-0.35-0.71-0.86-0.71h-0.96v1.42H140.76z"/>
					<path class="st2" d="M142.7,51.59h0.77l0.9,2.36l0.88-2.36h0.78l-1.31,3.24h-0.69L142.7,51.59z"/>
					<path class="st2" d="M148.34,54.65c-0.17,0.16-0.43,0.26-0.66,0.26c-0.52,0-0.88-0.39-0.88-0.93v-1.75h-0.45v-0.63h0.45V50.7
						h0.71v0.89h0.7v0.63h-0.7v1.66c0,0.22,0.13,0.38,0.31,0.38c0.13,0,0.24-0.05,0.31-0.12L148.34,54.65z"/>
					<path class="st2" d="M153.55,54.11v0.71h-2.86v-4.31h0.74v3.59H153.55z"/>
					<path class="st2" d="M155.93,54.65c-0.17,0.16-0.43,0.26-0.66,0.26c-0.52,0-0.88-0.39-0.88-0.93v-1.75h-0.45v-0.63h0.45V50.7
						h0.71v0.89h0.7v0.63h-0.7v1.66c0,0.22,0.13,0.38,0.31,0.38c0.12,0,0.24-0.05,0.3-0.12L155.93,54.65z"/>
					<path class="st2" d="M159.64,50.44v4.38h-0.73v-0.5c-0.25,0.36-0.62,0.58-1.07,0.58c-0.82,0-1.42-0.7-1.42-1.7
						c0-0.99,0.6-1.69,1.42-1.69c0.46,0,0.83,0.21,1.07,0.58v-1.64H159.64z M158.9,53.2c0-0.61-0.36-1.04-0.88-1.04
						c-0.52,0-0.89,0.43-0.89,1.04c0,0.61,0.37,1.05,0.89,1.05C158.54,54.25,158.9,53.81,158.9,53.2z"/>
				</g>
			</g>
		</g>
	</g>
</g>
</svg>
