<?xml version="1.0" encoding="utf-8"?>
<!-- Generator: Adobe Illustrator 26.0.1, SVG Export Plug-In . SVG Version: 6.00 Build 0)  -->
<svg version="1.1" id="Layer_1" xmlns="http://www.w3.org/2000/svg" xmlns:xlink="http://www.w3.org/1999/xlink" x="0px" y="0px"
	 viewBox="0 0 1000 1000" style="enable-background:new 0 0 1000 1000;" xml:space="preserve">
<style type="text/css">
	.st0{fill-rule:evenodd;clip-rule:evenodd;}
	.st1{fill-rule:evenodd;clip-rule:evenodd;fill:#C43B31;}
	.st2{fill:#FFFFFF;}
	.st3{fill:#C43B31;}
	.st4{opacity:0.06;}
	.st5{opacity:0.04;}
	.st6{opacity:0.33;}
	.st7{opacity:0.26;fill:#FFFFFF;}
	.st8{fill:#DAE0E0;}
</style>
<g>
	<g>
		<path class="st2" d="M118.94,505.23h101.33v-32.96H83.27v118.03h147.56v-33.1H118.94V505.23z M83.27,390.83v32.96h147.56v-32.96
			H83.27z"/>
		<path class="st2" d="M376.4,519.38c28.26-9.01,47.38-32.26,47.38-62.49c0-38.94-31.39-66.25-73.34-66.25h-85.35v58.33h35.68
			v-24.92h45.67c24.26,0,41.09,12.5,41.09,32.84c0,20.34-16.83,32.84-41.09,32.84h-21.65v0.05h-59.7v100.52h35.68v-67.15h37.97
			l46.23,67.15h40.53L376.4,519.38z"/>
		<path class="st2" d="M623.58,390.83l-64.79,121.66l-64.51-121.66h-35.68v199.48h35.68V457.02l64.51,121.66l64.79-121.66v133.29
			h35.39V390.83H623.58z"/>
		<path class="st2" d="M702.93,390.73v199.57h35.39V390.73H702.93z"/>
		<path class="st2" d="M857.35,475.53c-31.12-7.13-45.67-12.85-45.67-28.84c0-13.69,13.42-25.68,33.11-25.68
			c19.41,0,39.1,8.28,56.23,23.12l19.41-26.26c-19.69-16.85-43.11-27.42-74.22-27.42c-41.37,0-70.49,25.13-70.49,59.39
			c0,36.81,28.26,48.53,68.79,57.94c31.39,7.42,45.37,12.85,45.37,29.12c0,13.98-12.56,25.97-36.8,25.97
			c-25.7,0-46.53-10.27-64.51-26.54l-20.55,25.41c21.68,20.27,50.23,31.69,83.91,31.69c46.8,0,73.63-24.84,73.63-59.95
			C925.55,497.81,898.15,484.67,857.35,475.53z"/>
	</g>
	<g>
		<path class="st2" d="M83.65,629.73c0-11.6,9.46-21.34,20.7-21.34c5.79,0,11.07,2.59,14.86,6.67l-5.1,4.99
			c-2.41-2.95-5.96-4.81-9.75-4.81c-7.28,0-13.42,6.61-13.42,14.49c0,7.94,6.14,14.55,13.42,14.55c3.84,0,7.34-1.86,9.81-4.81
			l5.05,4.93c-3.79,4.15-9.06,6.73-14.86,6.73C93.11,651.13,83.65,641.33,83.65,629.73z"/>
		<path class="st2" d="M123.4,634.83c0-8.84,7.28-16.23,15.89-16.23c8.6,0,15.89,7.39,15.89,16.23c0,8.84-7.28,16.29-15.89,16.29
			C130.68,651.13,123.4,643.67,123.4,634.83z M148.29,634.83c0-5.41-4.13-9.98-9-9.98c-4.93,0-9.06,4.57-9.06,9.98
			c0,5.47,4.13,10.04,9.06,10.04C144.16,644.87,148.29,640.3,148.29,634.83z"/>
		<path class="st2" d="M188.9,630.63v19.78h-6.77v-18.34c0-4.21-2.58-7.21-6.25-7.21c-3.67,0-6.71,2.58-7.17,5.89v19.66h-7v-31.08h7
			v4.15c1.84-2.89,5.28-4.87,9.18-4.87C184.37,618.6,188.9,623.59,188.9,630.63z"/>
		<path class="st2" d="M194.93,646.44l3.15-5.11c2.87,2.16,6.19,3.61,9.92,3.61c2.81,0,4.76-1.26,4.76-3.19
			c0-2.41-2.58-3.19-5.96-4.15c-6.42-1.74-10.5-3.67-10.55-9.2c0-5.83,4.59-9.8,11.18-9.8c4.07,0,8.14,1.5,11.36,3.73l-2.92,5.35
			c-2.81-1.86-5.85-2.82-8.43-2.82c-2.47,0-4.36,1.02-4.36,2.77c0,1.98,1.55,2.59,6.08,3.97c4.99,1.44,10.38,3.25,10.38,9.74
			c0,5.95-4.7,9.8-11.64,9.8C203.36,651.13,198.49,649.44,194.93,646.44z"/>
		<path class="st2" d="M253.15,619.32v31.08h-7v-4.15c-1.84,2.89-5.28,4.87-9.18,4.87c-6.48,0-11.01-4.99-11.01-12.02v-19.78h6.77
			v18.34c0,4.21,2.58,7.21,6.25,7.21c3.67,0,6.71-2.59,7.17-5.89v-19.66H253.15z"/>
		<path class="st2" d="M261.3,608.38h7v42.02h-7V608.38z"/>
		<path class="st2" d="M293.3,648.66c-1.66,1.5-4.07,2.47-6.31,2.47c-4.93,0-8.37-3.73-8.37-8.96V625.4h-4.3v-6.07h4.3v-8.54h6.83
			v8.54h6.71v6.07h-6.71v15.87c0,2.1,1.26,3.61,2.92,3.61c1.2,0,2.29-0.48,2.92-1.14L293.3,648.66z"/>
		<path class="st2" d="M324.85,631.71v18.7h-6.82v-3.73c-2.18,2.89-5.91,4.45-9.35,4.45c-6.31,0-11.07-3.91-11.07-9.92
			c0-6.13,5.45-10.34,12.1-10.34c2.7,0,5.62,0.6,8.32,1.68v-0.84c0-3.61-1.89-7.09-7.28-7.09c-2.81,0-5.51,1.02-8.03,2.34
			l-2.41-5.11c4.19-2.16,8.09-3.25,11.82-3.25C319.98,618.6,324.85,623.83,324.85,631.71z M318.03,640.67v-3.49
			c-2.18-0.78-4.65-1.2-7.28-1.2c-3.5,0-6.31,2.04-6.31,4.99s2.47,4.81,5.79,4.81C313.61,645.78,317.22,643.97,318.03,640.67z"/>
		<path class="st2" d="M360.07,630.63v19.78h-6.77v-18.34c0-4.21-2.58-7.21-6.25-7.21c-3.67,0-6.71,2.58-7.17,5.89v19.66h-7v-31.08
			h7v4.15c1.84-2.89,5.28-4.87,9.18-4.87C355.54,618.6,360.07,623.59,360.07,630.63z"/>
		<path class="st2" d="M384.91,648.66c-1.66,1.5-4.07,2.47-6.31,2.47c-4.93,0-8.37-3.73-8.37-8.96V625.4h-4.3v-6.07h4.3v-8.54h6.82
			v8.54h6.71v6.07h-6.71v15.87c0,2.1,1.26,3.61,2.92,3.61c1.2,0,2.29-0.48,2.92-1.14L384.91,648.66z"/>
		<path class="st2" d="M388.81,646.44l3.15-5.11c2.87,2.16,6.19,3.61,9.92,3.61c2.81,0,4.76-1.26,4.76-3.19
			c0-2.41-2.58-3.19-5.96-4.15c-6.42-1.74-10.5-3.67-10.55-9.2c0-5.83,4.59-9.8,11.18-9.8c4.07,0,8.14,1.5,11.36,3.73l-2.92,5.35
			c-2.81-1.86-5.85-2.82-8.43-2.82c-2.47,0-4.36,1.02-4.36,2.77c0,1.98,1.55,2.59,6.08,3.97c4.99,1.44,10.38,3.25,10.38,9.74
			c0,5.95-4.7,9.8-11.64,9.8C397.25,651.13,392.37,649.44,388.81,646.44z"/>
		<path class="st2" d="M463.78,651.19l-4.47-4.87c-3.27,3.07-7.05,4.81-11.64,4.81c-7.46,0-12.96-4.45-12.96-11.9
			c0-5.35,2.64-8.9,8.66-11.78c-2.18-3.19-2.98-5.53-2.98-8.6c0-5.65,4.65-10.22,10.78-10.22c6.08,0,10.5,4.45,10.5,10.16
			c0,4.81-3.15,7.39-9.12,10.22c2.01,2.47,4.19,4.99,7,8.12c1.55-2.41,2.92-5.17,4.01-8.12l5.33,2.65c-1.72,3.67-3.5,6.97-5.45,9.8
			c1.84,2.04,3.96,4.33,6.31,6.91L463.78,651.19z M455.47,642.11c-3.9-4.27-6.65-7.51-8.89-10.28c-3.27,1.86-4.93,4.09-4.93,7.03
			c0,4.03,3.1,6.43,6.71,6.43C450.88,645.3,453.23,644.09,455.47,642.11z M446.63,618.84c0,2.04,0.86,3.85,2.7,6.19
			c4.36-1.86,6.14-3.25,6.14-6.19c0-2.71-1.78-4.75-4.19-4.75C448.64,614.09,446.63,615.96,446.63,618.84z"/>
		<path class="st2" d="M503.42,615.96H490.8v-6.85h32.35v6.85h-12.62v34.45h-7.11V615.96z"/>
		<path class="st2" d="M547.3,618.6v6.25c-6.37,0-10.61,3.97-10.61,9.86v15.69h-7v-31.08h7v6.01
			C538.59,621.19,542.43,618.6,547.3,618.6z"/>
		<path class="st2" d="M578.56,631.71v18.7h-6.82v-3.73c-2.18,2.89-5.91,4.45-9.35,4.45c-6.31,0-11.07-3.91-11.07-9.92
			c0-6.13,5.45-10.34,12.1-10.34c2.7,0,5.62,0.6,8.32,1.68v-0.84c0-3.61-1.89-7.09-7.28-7.09c-2.81,0-5.51,1.02-8.03,2.34
			l-2.41-5.11c4.19-2.16,8.09-3.25,11.82-3.25C573.69,618.6,578.56,623.83,578.56,631.71z M571.74,640.67v-3.49
			c-2.18-0.78-4.65-1.2-7.28-1.2c-3.5,0-6.31,2.04-6.31,4.99s2.47,4.81,5.79,4.81C567.32,645.78,570.94,643.97,571.74,640.67z"/>
		<path class="st2" d="M616.14,608.38v42.02h-7v-4.81c-2.35,3.49-5.91,5.53-10.27,5.53c-7.86,0-13.59-6.73-13.59-16.29
			c0-9.5,5.74-16.23,13.59-16.23c4.36,0,7.91,2.04,10.27,5.53v-15.75H616.14z M609.14,634.83c0-5.83-3.44-9.98-8.37-9.98
			c-4.99,0-8.55,4.15-8.55,9.98c0,5.83,3.56,10.04,8.55,10.04C605.7,644.87,609.14,640.67,609.14,634.83z"/>
		<path class="st2" d="M645.97,641.51l4.42,4.81c-2.58,2.89-7.74,4.81-12.04,4.81c-8.49,0-15.49-6.79-15.49-16.35
			c0-9.32,6.65-16.17,15.08-16.17c9.18,0,14.51,7.27,14.51,18.76h-22.37c0.86,4.27,3.96,7.27,8.2,7.27
			C641.03,644.63,644.3,643.31,645.97,641.51z M630.14,631.77h15.6c-0.8-3.91-3.33-6.67-7.51-6.67
			C634.32,625.1,631.17,627.68,630.14,631.77z"/>
		<path class="st2" d="M676.77,618.6v6.25c-6.37,0-10.61,3.97-10.61,9.86v15.69h-7v-31.08h7v6.01
			C668.05,621.19,671.9,618.6,676.77,618.6z"/>
		<path class="st2" d="M680.39,646.44l3.15-5.11c2.87,2.16,6.19,3.61,9.92,3.61c2.81,0,4.76-1.26,4.76-3.19
			c0-2.41-2.58-3.19-5.96-4.15c-6.42-1.74-10.5-3.67-10.55-9.2c0-5.83,4.59-9.8,11.18-9.8c4.07,0,8.14,1.5,11.36,3.73l-2.92,5.35
			c-2.81-1.86-5.85-2.82-8.43-2.82c-2.47,0-4.36,1.02-4.36,2.77c0,1.98,1.55,2.59,6.08,3.97c4.99,1.44,10.38,3.25,10.38,9.74
			c0,5.95-4.7,9.8-11.64,9.8C688.82,651.13,683.94,649.44,680.39,646.44z"/>
		<path class="st2" d="M728.46,609.1h17.15c8.43,0,14.74,5.65,14.74,13.71s-6.31,13.71-14.74,13.71h-9.98v13.89h-7.17V609.1z
			 M744.8,629.6c4.88,0,8.26-2.59,8.26-6.79c0-4.21-3.38-6.79-8.26-6.79h-9.18v13.59H744.8z"/>
		<path class="st2" d="M763.39,619.32h7.4l8.6,22.61l8.43-22.61h7.46l-12.56,31.08h-6.6L763.39,619.32z"/>
		<path class="st2" d="M817.42,648.66c-1.66,1.5-4.07,2.47-6.31,2.47c-4.93,0-8.37-3.73-8.37-8.96V625.4h-4.3v-6.07h4.3v-8.54h6.83
			v8.54h6.71v6.07h-6.71v15.87c0,2.1,1.26,3.61,2.92,3.61c1.2,0,2.29-0.48,2.92-1.14L817.42,648.66z"/>
		<path class="st2" d="M867.27,643.55v6.85h-27.36v-41.3h7.11v34.45H867.27z"/>
		<path class="st2" d="M890.1,648.66c-1.66,1.5-4.07,2.47-6.31,2.47c-4.93,0-8.37-3.73-8.37-8.96V625.4h-4.3v-6.07h4.3v-8.54h6.83
			v8.54h6.71v6.07h-6.71v15.87c0,2.1,1.26,3.61,2.92,3.61c1.2,0,2.29-0.48,2.92-1.14L890.1,648.66z"/>
		<path class="st2" d="M925.55,608.38v42.02h-7v-4.81c-2.35,3.49-5.91,5.53-10.27,5.53c-7.86,0-13.59-6.73-13.59-16.29
			c0-9.5,5.74-16.23,13.59-16.23c4.36,0,7.91,2.04,10.27,5.53v-15.75H925.55z M918.55,634.83c0-5.83-3.44-9.98-8.37-9.98
			c-4.99,0-8.55,4.15-8.55,9.98c0,5.83,3.56,10.04,8.55,10.04C915.11,644.87,918.55,640.67,918.55,634.83z"/>
	</g>
</g>
</svg>
