<?xml version="1.0" encoding="utf-8"?>
<!-- Generator: Adobe Illustrator 26.0.1, SVG Export Plug-In . SVG Version: 6.00 Build 0)  -->
<svg version="1.1" id="Layer_1" xmlns="http://www.w3.org/2000/svg" xmlns:xlink="http://www.w3.org/1999/xlink" x="0px" y="0px"
	 viewBox="0 0 1000 1000" style="enable-background:new 0 0 1000 1000;" xml:space="preserve">
<style type="text/css">
	.st0{fill-rule:evenodd;clip-rule:evenodd;}
	.st1{fill-rule:evenodd;clip-rule:evenodd;fill:#C43B31;}
	.st2{fill:#FFFFFF;}
	.st3{fill:#C43B31;}
	.st4{opacity:0.06;}
	.st5{opacity:0.04;}
	.st6{opacity:0.33;}
	.st7{opacity:0.26;fill:#FFFFFF;}
	.st8{fill:#DAE0E0;}
</style>
<path class="st1" d="M778.66,1008.58H231.21c-127.18,0-230.28-103.1-230.28-230.28V230.86c0-127.18,103.1-230.28,230.28-230.28
	h547.45c127.18,0,230.28,103.1,230.28,230.28v547.45C1008.93,905.48,905.84,1008.58,778.66,1008.58z"/>
<g>
	<g>
		<path class="st2" d="M501.83,48.76c-251.36,0-455.87,204.51-455.87,455.77c0,31.3,3.17,61.9,9.21,91.41l27.14-20.2
			c-3.96-23.17-6.04-46.94-6.04-71.21c0-234.62,190.95-425.47,425.57-425.47c48.33,0,94.78,8.12,138.16,22.98l23.57-23.57
			C613.35,59.26,558.78,48.76,501.83,48.76z M956.41,472.15L927,489.77c0.2,4.95,0.29,9.8,0.29,14.76
			c0,234.72-190.85,425.57-425.47,425.57c-88.74,0-171.14-27.24-239.48-73.88l-32.98,13.57c75.96,56.85,170.34,90.62,272.45,90.62
			c251.26,0,455.77-204.51,455.77-455.87C957.6,493.64,957.21,482.84,956.41,472.15z"/>
	</g>
	<path class="st2" d="M770.33,152.39c-3.37,0.83-6.78,1.59-10.15,2.42c-8.71,2.2-12.95,0.19-17.73-8.9
		c10.38-2.05,20.6-4.09,30.75-6.1c7.99-1.55,15.95-3.07,23.9-4.58c1.06-0.23,2.73,0.45,3.41,1.33c1.78,2.08,3.14,4.51,5.04,7.35
		c-7.05,1.7-13.86,3.37-20.64,5C780.02,150.08,775.17,151.22,770.33,152.39z"/>
	<path class="st2" d="M759.69,158.76c1.82-0.64,3.14-1.17,4.55-1.51c7.92-2.01,15.83-4.05,23.79-6.02
		c3.64-0.95,7.31-1.86,10.98-2.76c9.39-2.35,9.39-2.27,14.13,7.23c-5,1.36-9.96,2.73-14.85,4.05c-8.98,2.5-17.84,4.89-26.78,6.93
		C765.98,167.96,763.06,163.11,759.69,158.76z"/>
	<path class="st2" d="M775.75,168.67c9.01-2.46,17.54-4.85,25.94-7.08c3.71-0.98,7.42-1.97,11.14-2.88c1.52-0.38,3.9,1.02,5.26,2.31
		c1.55,1.44,2.39,3.67,3.94,6.17c-3.67,0.98-7.23,2.01-10.79,2.99c-8.03,2.27-15.87,4.47-23.79,6.21
		C782.34,177.49,779.27,173.02,775.75,168.67z"/>
	<path class="st2" d="M749.54,122.16c-8.33,0.83-16.66,1.71-25,2.58c-10.83,1.14-17.8-3.22-20.76-13.41
		c8.07-0.61,16.02-1.17,23.97-1.74c0.38-0.04,0.8-0.04,1.17-0.08c22.35-1.59,44.69-3.22,67.08-4.58c1.78-0.11,4.55,0.95,5.42,2.39
		c11.02,18.1,21.82,36.4,32.65,54.62c0.34,0.57,0.53,1.21,0.91,2.12c-1.89,0.57-3.56,0.95-5.11,1.51c-3.48,1.25-5.53,0.15-7.5-3.11
		c-8.52-13.94-17.27-27.76-26.17-41.47c-1.06-1.55-3.86-3.03-5.68-2.88C776.85,119.36,763.17,120.72,749.54,122.16z"/>
	<path class="st2" d="M827.14,185.67c22.38-4.36,44.88-8.33,68.36-12.65c-7.08,23.78-13.9,46.62-20.79,69.73
		c-0.15,0.45-0.3,0.87-0.42,1.33c-10.49-0.53-20.72-0.91-30.94-1.67c-2.35-0.19-4.05,0.23-5.49,1.44c-0.72,0.61-1.4,1.4-2.08,2.42
		c-8.18,12.54-16.74,24.81-24.85,37.38c-1.29,1.93-1.78,5.19-1.17,7.46c3.71,13.6,7.88,27.04,11.7,40.56
		c0.42,1.44,0.11,4.09-0.87,4.81c-28.1,20.45-56.32,40.75-85.67,61.89c1.02-2.58,1.48-3.98,2.12-5.27
		c11.25-22.38,22.54-44.69,33.67-67.11c0.91-1.82,1.17-4.32,0.8-6.36c-5.64-31.13-11.36-62.23-17.23-93.32c-0.64-3.26,0-5,2.8-6.74
		c12.39-7.88,24.92-15.6,36.97-23.97c0.38-0.27,0.72-0.49,1.1-0.76c8.75-6.14,18.86-6.63,28.63-8.52
		C824.91,186.09,826.01,185.86,827.14,185.67z"/>
	<path class="st2" d="M905.17,166.96c-0.04,0.45-0.11,0.87-0.19,1.29c-13.14,2.27-26.32,4.58-39.47,6.78
		c-14.01,2.31-28.07,4.58-42.08,6.89c-5.19,0.83-10.42,1.7-15.6,2.54c-8.22,1.36-8.22,1.4-12.39-7.16
		c6.06-1.63,12.12-3.22,18.22-4.81c8.71-2.31,17.5-4.66,26.4-7.01c-5.23-9.05-10.34-17.88-16.02-27.69
		c13.94,0.83,27.23-3.94,40,4.58C877.33,151.21,891.42,158.82,905.17,166.96z"/>
	<polygon class="st2" points="914.82,402.05 919.71,406.52 916.34,408.34 904.22,414.89 903.73,415.16 905.92,417.2 904.48,418.79 
		885.13,401.18 886.95,399.17 888.58,400.65 894.83,383.83 901.49,389.89 893.27,405.31 898.12,409.7 912.7,400.12 	"/>
	<path class="st2" d="M956.18,391.52l-3.83,1.4l-6.7,2.5l-1.17,0.45l-1.06,0.38l-13.9,5.15l-2.31,0.87l2.42,2.2l-2.58,2.84
		l-14.24-12.99l-21.21-19.32l4.01-4.43l3.64,3.29l2.92-13.41l0.34-1.52l0.53-2.58l1.52-7.01l1.06-3.9l6.25,5.68
		c-1.1,4.28-1.1,8.86,0.04,13.26c0.38,1.52,0.87,2.99,1.51,4.47c0.87,2.05,2.01,4.01,3.33,5.87c1.1,2.01,2.46,3.64,3.94,4.92
		c1.21,1.06,2.5,1.89,3.86,2.54c0.49,0.34,0.98,0.68,1.52,0.98c1.93,1.14,3.98,2.04,6.02,2.73c1.52,0.45,3.07,0.83,4.58,1.06
		c1.86,0.27,3.75,0.38,5.61,0.27c2.61-0.08,5.19-0.61,7.61-1.48L956.18,391.52z"/>
	<path class="st2" d="M958.38,368.95c-1.67,1.97-4.01,4.13-7.39,6.02c0,0,2.65,0.19,5.61-2.12c0,0-3.83,8.56-11.74,8.33
		c-1.36-0.04-2.84-0.15-4.32-0.34c-4.51-0.57-9.32-1.7-12.31-2.5c-1.97-0.49-3.64-1.74-4.62-3.48c-2.35-4.01-6.44-11.74-7.5-18.26
		c-0.34-1.89,0.3-3.86,1.67-5.23c1.97-1.97,4.96-5.23,6.4-8.03c1.74-3.33,2.16-4.2,2.27-4.39c0-0.04,0-0.04,0-0.04l0.04-0.04
		c0,0,0,0.04,0,0.11c-0.08,1.48-0.57,16.14,4.24,23.86c2.42,3.94,4.17,4.05,5.34,3.11l0.34-0.34c1.1-1.25,1.29-3.07,0.64-4.58
		c-2.08-4.96-7.73-19.32-5.04-24.58c3.22-6.48,9.24-12.57,26.93-12.04C959.7,326.04,971.75,353,958.38,368.95z"/>
	<path class="st2" d="M97.3,720.81c-1.33-1.86-1.14-4.77-0.8-7.8c0.23-1.89,0.49-3.82,0.49-5.57c0.72-0.07,1.48-0.15,2.23-0.23
		c8.75,12.12,17.61,24.13,25.98,36.51c1.1,1.63-0.53,5.15-0.91,7.8c-0.57,0.04-1.1,0.08-1.67,0.11
		c-4.43-5.27-8.98-10.42-13.41-15.68c0-0.04-0.04-0.04-0.04-0.08C105.06,730.99,101.01,725.99,97.3,720.81z"/>
	<path class="st2" d="M116.8,761.86c1.1,1.17-0.53,4.77-1.06,8.52c-4.47-3.86-7.42-6.78-10.76-9.24c-4.77-3.52-6.36-7.8-4.09-14.24
		C106.46,751.98,112.03,756.56,116.8,761.86z"/>
	<path class="st2" d="M119.64,761.07c-6.44-6.14-11.36-11.63-17.12-16.1c-6.02-4.7-6.48-9.85-3.26-16.78
		c5.45,6.02,10.91,11.85,16.13,17.88c0,0.04,0.04,0.04,0.04,0.08c1.93,2.2,3.79,4.39,5.64,6.67c0.38,0.49,0.38,1.33,0.15,2.35
		C120.89,756.79,120.06,758.98,119.64,761.07z"/>
	<path class="st2" d="M102.87,708.38c-5.87-7.5-8.1-14.96-5.45-23.97c0.64-2.16,0.87-4.43,1.52-7.92c1.52,2.27,2.58,3.67,3.41,5.19
		c8.94,15.95,17.5,32.04,26.82,47.72c3.33,5.57,1.48,9.2-1.86,13.86C119,731.3,111.5,719.37,102.87,708.38z"/>
	<path class="st2" d="M99.46,669.41c-1.33-2.46-1.63-5.98-1.14-8.79c0.76-4.05,1.78-8.11,2.92-12.39c0,0,0,0,0-0.04
		c0.76-2.8,1.55-5.76,2.35-8.9c2.04,4.2,3.64,7.23,5.04,10.34c12.39,27.42,24.69,54.88,37.16,82.26c1.06,2.35,1.29,4.2,0.49,6.21
		c-0.23,0.61-0.57,1.25-1.02,1.89c-5.57,8.56-11.02,17.16-16.63,26.02c-2.39,3.79-4.85,7.65-7.35,11.59
		c-2.23-2.08-3.83-3.64-5.64-5.34c2.54-4.85,4.96-9.66,7.42-14.35c3.22-6.25,6.4-12.35,9.66-18.44c1.67-3.07,1.7-5.49,0-8.6
		C121.46,710.47,110.33,690.01,99.46,669.41z"/>
	<path class="st2" d="M758.84,319.5c0.17,2.21-0.17,4.6-1.19,6.48c-14.15,26.6-28.48,53.38-42.97,79.98
		c-0.85,1.54-2.39,2.9-3.92,3.75c-12.45,7.17-24.73,14.5-37.35,21.49c-4.95,2.73-9.89,5.45-15.01,8.01
		c-8.87,4.44-18.93,6.48-28.65,9.38c-11.94,3.41-24.04,6.65-36.15,9.72c-2.05,0.51-4.6,0.51-6.31-0.34
		c-19.1-9.72-37.86-19.78-56.79-29.84c-0.68-0.34-1.19-0.68-2.05-1.19c27.8-46.22,55.25-92.26,83.73-139.5
		c-6.48,2.05-11.77,3.58-17.05,5.12c-26.6,8.19-52.87,17.05-79.81,24.04c-11.94,3.07-24.9,2.73-37.35,3.41
		c-3.92,0.17-6.48,0.85-8.19,4.77c-5.97,14.5-17.05,20.81-32.57,23.88c-37.18,6.99-73.84,16.03-110.68,24.04
		c-3.24,0.68-5.63,1.88-5.97,5.63c-1.02,8.87-5.46,16.03-10.91,22.85c-3.07,3.92-6.14,8.02-8.7,12.28c-2.05,3.92-4.78,2.56-7.5,1.53
		c-3.24-1.19-1.53-3.58-1.02-5.63c1.19-4.43,2.39-8.86,3.75-13.3c-0.51-0.34-0.85-0.68-1.19-1.02
		c-13.99,7.16-27.97,14.32-42.46,21.83c-2.56-5.63-4.95-10.23-3.41-16.88c2.22-8.53,6.48-13.3,13.98-17.74
		c51.84-30.36,103.69-61.22,155.19-92.43c9.55-5.8,19.95-4.78,30.01-7.17c2.56-0.51,5.63-1.53,6.99-3.41
		c11.09-13.81,25.41-22,41.78-27.97c23.7-8.7,46.9-18.76,70.26-27.97c5.12-1.87,10.74-2.56,16.03-3.41
		c2.73-0.51,5.63-0.68,8.36-0.51c6.48,0.68,12.45,0.17,18.08-1.54c5.63-1.87,10.74-4.77,15.69-9.03c1.19-1.02,3.41-1.37,5.29-1.54
		c26.26-0.85,52.53-1.71,78.79-2.39c2.05-0.17,4.26,0.34,6.14,1.02c9.21,3.58,18.42,7.17,27.63,11.09c1.53,0.68,3.41,2.9,3.75,4.6
		C751.16,254.19,754.91,286.93,758.84,319.5z"/>
	<path class="st2" d="M339.06,559.29c11.99-7.78,23.5-15.27,35.03-22.72c45.59-29.48,91.21-58.9,136.72-88.5
		c4.17-2.71,7.56-3.32,12.33-1.31c20.99,8.85,42.21,17.17,63.26,25.89c3.39,1.4,6.14,1.32,9.37-0.2
		c10.35-4.88,20.81-9.54,31.53-14.42c18.91,29.22,37.61,58.1,56.52,87.31c-1.49,0.87-2.58,1.63-3.78,2.19
		c-35.6,16.66-71.31,33.09-106.75,50.07c-9.95,4.77-20.51,5.08-30.91,6.61c-26.68,3.93-53.43,7.41-80.16,10.96
		c-1.94,0.26-4.24,0.12-5.98-0.68c-38.49-17.86-76.93-35.84-115.38-53.81C340.41,560.47,340.06,560.07,339.06,559.29z"/>
	<path class="st2" d="M378.19,796.44c19.52-17.45,39.06-34.92,58.83-52.59c5.33,3.44,10.6,6.46,15.43,10.07
		c3.33,2.5,5.73,2.33,9.19,0.08c37.76-24.58,75.65-48.96,113.49-73.42c17.12-11.07,17.09-11.03,38.03-7.73
		c13.23,2.08,26.5,3.9,39.76,5.8c1.51,0.22,3.05,0.18,4.61,0.26c0.78-4.93-0.57-8.04-5.65-8.68c-18.29-2.29-31.54-12.61-43.49-25.92
		c-10.33-11.51-21.88-21.92-32.88-32.83c-1.2-1.19-2.3-2.48-3.92-4.24c38.17-16.72,75.83-33.21,113.99-49.92
		c3.32,8.37,6.6,16.53,9.8,24.72c12.53,32.06,24.49,64.37,37.85,96.08c4.9,11.64-1.09,18.79-6.37,26.9
		c-0.84,1.29-3.32,1.66-5.13,2.15c-111.03,30.26-222.07,60.49-333.13,90.66C385.28,798.72,381.49,801.79,378.19,796.44z"/>
	<path class="st2" d="M443.69,617.43c-5.29,3.24-9.89,5.97-14.5,8.7c-40.76,23.7-82.03,47.07-122.62,71.28
		c-6.82,3.92-13.47,8.01-20.12,12.11c-33.77,20.46-66.34,42.98-99.42,64.46c-3.07,2.04-6.14,4.09-9.21,6.14
		c-8.53,5.62-17.05,11.25-25.58,16.71c-33.6,22-63.02,40.65-96.62,62.82c-4.95,3.24-7.33,2.22-10.4-2.73
		c11.77-17.57,19.2-31.61,30.79-49.18C83,797,90.34,786.43,97.16,775.51c2.05-3.07,3.58-2.9,6.48-1.54
		c5.8,2.73,11.94,5.46,18.08,8.36l9.72-12.28c3.75-4.78,7.5-9.38,11.09-13.99c2.9-3.58,5.63-7.16,8.53-10.74v-0.17
		c12.45-15.52,24.73-31.21,37.35-46.73c1.53-2.05,4.09-3.75,6.65-4.43c16.71-5.29,33.6-10.06,50.48-15.18
		c2.05-0.68,4.26-2.21,5.63-3.92c7.84-10.91,15.18-22.17,23.19-32.91c0.85-1.19,1.87-2.39,2.9-3.41c3.41-4.09,7.5-8.01,11.26-11.77
		c17.91-18.24,35.98-36.32,54.23-54.4c1.02-1.02,3.41-1.87,4.6-1.36C379.22,586.22,410.94,601.56,443.69,617.43z"/>
	<path class="st2" d="M895.51,173.02c-7.08,23.78-13.9,46.62-20.79,69.73c-0.15,0.45-0.3,0.87-0.42,1.33
		c-10.49-0.53-20.72-0.91-30.94-1.67c-2.35-0.19-4.05,0.23-5.49,1.44c-0.72,0.61-1.4,1.4-2.08,2.42
		c-8.18,12.54-16.74,24.81-24.85,37.38c-1.29,1.93-1.78,5.19-1.17,7.46c3.71,13.6,7.88,27.04,11.7,40.56
		c0.42,1.44,0.11,4.09-0.87,4.81c-28.1,20.45-56.32,40.75-85.67,61.89c1.02-2.58,1.48-3.98,2.12-5.27
		c11.25-22.38,22.54-44.69,33.67-67.11c0.91-1.82,1.17-4.32,0.8-6.36c-5.64-31.13-11.36-62.23-17.23-93.32c-0.64-3.26,0-5,2.8-6.74
		c12.39-7.88,24.92-15.6,36.97-23.97c0.38-0.27,0.72-0.49,1.1-0.76c8.75-6.14,18.86-6.63,28.63-8.52c1.14-0.23,2.23-0.45,3.37-0.64
		C849.53,181.32,872.03,177.34,895.51,173.02z"/>
	<path class="st2" d="M878.55,443.31c1.53,1.02,2.9,1.87,4.95,3.07c-6.31,9.04-12.62,17.91-19.1,27.28
		c-5.29-2.9-10.06-5.45-15.52-8.53c1.02-1.19,1.7-2.39,2.73-3.58c0.68-1.02,1.54-2.04,2.22-3.07c0.51-0.68,1.02-1.37,1.36-2.04
		c1.19-1.54,2.39-3.07,3.58-4.6c0.34-0.51,0.68-1.02,1.02-1.54c2.39-3.24,4.6-6.31,6.99-9.55c-1.54-3.24-3.41-1.87-5.46-0.17
		l-0.51,0.51c0,0,0,0-0.17,0c-6.48,5.46-12.96,10.91-19.44,16.03c-1.37,1.02-3.41,2.05-5.12,2.05
		c-51.5-1.19-103.17-2.39-155.36-3.75c-6.65-0.17-13.3-0.34-19.78-0.51c1.7-1.37,2.56-2.22,3.58-2.9c4.26-2.56,8.53-5.28,12.79-8.01
		c14.84-9.38,29.67-18.76,44.68-27.97c2.04-1.37,5.11-2.05,7.67-1.54c34.62,6.31,69.24,12.96,104.03,19.27
		c3.07,0.68,6.82,0,9.72-1.02c8.53-3.07,16.71-6.82,25.41-10.4c0.85,1.36,1.54,2.73,2.22,4.09c7.33-11.25,13.13-21.48,13.13-21.48
		l5.11,4.6l-12.45,18.76l17.9-13.64l4.09,3.92c-3.41,1.88-13.13,9.72-22.34,17.57c1.19,2.22,2.39,4.26,3.58,6.48L878.55,443.31z"/>
	<path class="st2" d="M905.17,166.96c-0.04,0.45-0.11,0.87-0.19,1.29c-13.14,2.27-26.32,4.58-39.47,6.78
		c-14.01,2.31-28.07,4.58-42.08,6.89c-5.19,0.83-10.42,1.7-15.6,2.54c-8.22,1.36-8.22,1.4-12.39-7.16
		c6.06-1.63,12.12-3.22,18.22-4.81c8.71-2.31,17.5-4.66,26.4-7.01c-5.23-9.05-10.34-17.88-16.02-27.69
		c13.94,0.83,27.23-3.94,40,4.58C877.33,151.21,891.42,158.82,905.17,166.96z"/>
	<path class="st2" d="M834.98,164.05c-1.89,0.57-3.56,0.95-5.11,1.51c-3.48,1.25-5.53,0.15-7.5-3.11
		c-8.52-13.94-17.27-27.76-26.17-41.47c-1.06-1.55-3.86-3.03-5.68-2.88c-13.67,1.25-27.35,2.61-40.98,4.05
		c-8.33,0.83-16.66,1.71-25,2.58c-10.83,1.14-17.8-3.22-20.76-13.41c8.07-0.61,16.02-1.17,23.97-1.74c0.38-0.04,0.8-0.04,1.17-0.08
		c22.35-1.59,44.69-3.22,67.08-4.58c1.78-0.11,4.55,0.95,5.42,2.39c11.02,18.1,21.82,36.4,32.65,54.62
		C834.42,162.49,834.61,163.14,834.98,164.05z"/>
	<path class="st2" d="M146.27,738.11c-0.23,0.61-0.57,1.25-1.02,1.89c-5.57,8.56-11.02,17.16-16.63,26.02
		c-2.39,3.79-4.85,7.65-7.35,11.59c-2.23-2.08-3.83-3.64-5.64-5.34c2.54-4.85,4.96-9.66,7.42-14.35c3.22-6.25,6.4-12.35,9.66-18.44
		c1.67-3.07,1.7-5.49,0-8.6c-11.25-20.41-22.38-40.87-33.25-61.47c-1.33-2.46-1.63-5.98-1.14-8.79c0.76-4.05,1.78-8.11,2.92-12.39
		c0,0,0,0,0-0.04c0.76-2.8,1.55-5.76,2.35-8.9c2.04,4.2,3.64,7.23,5.04,10.34c12.39,27.42,24.69,54.88,37.16,82.26
		C146.84,734.25,147.07,736.11,146.27,738.11z"/>
	<path class="st2" d="M457.3,752.75c-1.26-2.07-2.32-3.82-3.52-5.79c9.13-7.8,18.02-15.56,27.12-23.06
		c2.47-2.04,3.17-4.01,2.71-7.13c-2.97-20.46-5.87-40.93-8.47-61.43c-0.35-2.79,0.42-6.24,1.9-8.63c3.26-5.28,7.29-10.07,12-16.39
		c0.35,4.01,0.63,6.62,0.8,9.23c1.71,26.89,3.32,53.79,5.19,80.67c0.29,4.14-0.86,6.6-4.31,8.94c-9.64,6.53-18.99,13.49-28.46,20.26
		C460.74,750.52,459.14,751.52,457.3,752.75z"/>
	<path class="st2" d="M843.76,467.18c-9.04,9.72-17.91,19.1-26.6,28.48c-13.13,13.99-26.43,28.14-39.56,42.29
		c-2.39,2.56-4.78,5.12-6.99,7.68c-3.07,3.07-5.29,3.75-8.19-0.51c1.88-2.22,3.75-4.26,5.63-6.31
		c23.02-25.24,46.21-50.65,69.75-76.4C840.18,464.29,841.89,465.65,843.76,467.18z"/>
	<path class="st2" d="M127.3,743.27c-8.29-11.97-15.79-23.9-24.43-34.88c-5.87-7.5-8.1-14.96-5.45-23.97
		c0.64-2.16,0.87-4.43,1.52-7.92c1.52,2.27,2.58,3.67,3.41,5.19c8.94,15.95,17.5,32.04,26.82,47.72
		C132.48,734.97,130.63,738.61,127.3,743.27z"/>
	<path class="st2" d="M474.42,725.79c-3.61-13.4-6.74-26.72-10.88-39.72c-2.11-6.63-1.63-11.96,2.75-17.23
		c1.96-2.36,3.44-5.11,5.88-8.81c1.47,8.94,2.8,16.65,4.01,24.38c1.54,9.93,2.53,19.98,4.64,29.79
		C482.13,720.32,479.45,723.14,474.42,725.79z"/>
	<path class="st2" d="M124.3,751.52c-0.57,0.04-1.1,0.08-1.67,0.11c-4.43-5.27-8.98-10.42-13.41-15.68c0-0.04-0.04-0.04-0.04-0.08
		c-4.13-4.89-8.18-9.88-11.89-15.07c-1.33-1.86-1.14-4.77-0.8-7.8c0.23-1.89,0.49-3.82,0.49-5.57c0.72-0.07,1.48-0.15,2.23-0.23
		c8.75,12.12,17.61,24.13,25.98,36.51C126.31,745.35,124.68,748.87,124.3,751.52z"/>
	<path class="st2" d="M460.75,685.06c3.24,11.17,6.27,21.59,9.3,32.02c0.43,1.5,0.63,3.11,1.3,4.49c2.35,4.84,1.15,8.17-4.27,10.13
		c-4.24-11.11-8.69-22.2-12.57-33.48c-0.64-1.85,0.97-4.67,1.98-6.83C457.43,689.39,458.96,687.67,460.75,685.06z"/>
	<path class="st2" d="M121.24,755.16c-0.34,1.63-1.17,3.83-1.59,5.91c-6.44-6.14-11.36-11.63-17.12-16.1
		c-6.02-4.7-6.48-9.85-3.26-16.78c5.45,6.02,10.91,11.85,16.13,17.88c0,0.04,0.04,0.04,0.04,0.08c1.93,2.2,3.79,4.39,5.64,6.67
		C121.46,753.3,121.46,754.14,121.24,755.16z"/>
	<path class="st2" d="M453.74,704.19c4.08,9.75,8.13,19.43,12.26,29.28c-1.6,1.52-3.08,2.93-5.32,5.06
		c-3.3-6.3-6.03-12.4-9.56-17.99C447.26,714.44,446.71,709.22,453.74,704.19z"/>
	<path class="st2" d="M115.74,770.38c-4.47-3.86-7.42-6.78-10.76-9.24c-4.77-3.52-6.36-7.8-4.09-14.24
		c5.57,5.07,11.14,9.66,15.91,14.96C117.9,763.04,116.27,766.63,115.74,770.38z"/>
	<path class="st2" d="M447.21,719.03c4.16,7.22,7.82,12.75,10.5,18.72c0.75,1.68-1.38,4.65-2.19,7.02
		c-0.69-0.03-1.37-0.05-2.06-0.08c-3.1-5.32-6.73-10.42-9.02-16.06C443.6,726.54,445.92,723.17,447.21,719.03z"/>
	<g>
		<path class="st2" d="M958.38,368.95c-1.67,1.97-4.01,4.13-7.39,6.02c0,0,2.65,0.19,5.61-2.12c0,0-3.83,8.56-11.74,8.33
			c-1.36-0.04-2.84-0.15-4.32-0.34c-4.51-0.57-9.32-1.7-12.31-2.5c-1.97-0.49-3.64-1.74-4.62-3.48c-2.35-4.01-6.44-11.74-7.5-18.26
			c-0.34-1.89,0.3-3.86,1.67-5.23c1.97-1.97,4.96-5.23,6.4-8.03c1.74-3.33,2.16-4.2,2.27-4.39c0-0.04,0-0.04,0-0.04l0.04-0.04
			c0,0,0,0.04,0,0.11c-0.08,1.48-0.57,16.14,4.24,23.86c2.42,3.94,4.17,4.05,5.34,3.11l0.34-0.34c1.1-1.25,1.29-3.07,0.64-4.58
			c-2.08-4.96-7.73-19.32-5.04-24.58c3.22-6.48,9.24-12.57,26.93-12.04C959.7,326.04,971.75,353,958.38,368.95z"/>
		<path class="st2" d="M956.18,391.52l-3.83,1.4l-6.7,2.5l-1.17,0.45l-1.06,0.38l-13.9,5.15l-2.31,0.87l2.42,2.2l-2.58,2.84
			l-14.24-12.99l-21.21-19.32l4.01-4.43l3.64,3.29l2.92-13.41l0.34-1.52l0.53-2.58l1.52-7.01l1.06-3.9l6.25,5.68
			c-1.1,4.28-1.1,8.86,0.04,13.26c0.38,1.52,0.87,2.99,1.51,4.47c0.87,2.05,2.01,4.01,3.33,5.87c1.1,2.01,2.46,3.64,3.94,4.92
			c1.21,1.06,2.5,1.89,3.86,2.54c0.49,0.34,0.98,0.68,1.52,0.98c1.93,1.14,3.98,2.04,6.02,2.73c1.52,0.45,3.07,0.83,4.58,1.06
			c1.86,0.27,3.75,0.38,5.61,0.27c2.61-0.08,5.19-0.61,7.61-1.48L956.18,391.52z"/>
		<polygon class="st2" points="904.22,414.89 903.73,415.16 905.92,417.2 904.48,418.79 885.13,401.18 886.95,399.17 888.58,400.65 
			894.83,383.83 901.49,389.89 893.27,405.31 898.12,409.7 912.7,400.12 914.82,402.05 919.71,406.52 916.34,408.34 		"/>
	</g>
</g>
</svg>
