<?xml version="1.0" encoding="utf-8"?>
<!-- Generator: Adobe Illustrator 26.0.1, SVG Export Plug-In . SVG Version: 6.00 Build 0)  -->
<svg version="1.1" id="Layer_1" xmlns="http://www.w3.org/2000/svg" xmlns:xlink="http://www.w3.org/1999/xlink" x="0px" y="0px"
	 viewBox="0 0 595.28 841.89" style="enable-background:new 0 0 595.28 841.89;" xml:space="preserve">
<style type="text/css">
	.st0{fill-rule:evenodd;clip-rule:evenodd;}
	.st1{fill-rule:evenodd;clip-rule:evenodd;fill:#C43B31;}
	.st2{fill:#FFFFFF;}
	.st3{fill:#C43B31;}
	.st4{opacity:0.06;}
	.st5{font-family:'ArialMT';}
	.st6{font-size:11.5098px;}
	.st7{font-size:12px;}
	.st8{opacity:0.04;}
	.st9{opacity:0.33;}
	.st10{opacity:0.26;fill:#FFFFFF;}
	.st11{fill:#DAE0E0;}
</style>
<rect x="-0.09" y="824.72" class="st1" width="595.27" height="17.27"/>
<path class="st1" d="M49.93,806.93l-0.27,0.28l-0.28-0.28C49.35,806.9,49.96,806.9,49.93,806.93z"/>
<path class="st1" d="M79.13,836.13l-5.86,5.86H26.69l-5.86-5.86c-0.03-0.02-0.03-0.07,0-0.09l28.83-28.83l17.5,17.51l11.32,11.32
	C78.51,836.06,79.13,836.11,79.13,836.13z"/>
<polygon id="SVGID_6_" class="st1" points="595.28,748.35 0,748.35 0,747.51 595.28,747.51 595.28,748.35 "/>
<g class="st4">
	<g>
		<path class="st3" d="M297.44,337.42c-46.06,0-83.54,37.48-83.54,83.52c0,5.73,0.58,11.34,1.69,16.75l4.97-3.7
			c-0.73-4.25-1.11-8.6-1.11-13.05c0-42.99,34.99-77.97,77.98-77.97c8.86,0,17.37,1.49,25.32,4.21l4.32-4.32
			C317.88,339.34,307.88,337.42,297.44,337.42z M380.74,415l-5.39,3.23c0.04,0.91,0.05,1.8,0.05,2.7
			c0,43.01-34.97,77.98-77.97,77.98c-16.26,0-31.36-4.99-43.88-13.54l-6.04,2.49c13.92,10.42,31.21,16.61,49.93,16.61
			c46.04,0,83.52-37.48,83.52-83.54C380.96,418.94,380.89,416.96,380.74,415z"/>
	</g>
	<path class="st3" d="M335.72,403.57c-2.28,1.3-4.53,2.65-6.83,3.92l-11.67-39.1c1.02-0.32,1.98-0.85,2.87-1.63
		c0.23-0.21,0.65-0.27,0.97-0.28c4.82-0.17,9.63-0.32,14.45-0.46c0.37-0.01,0.76,0.07,1.12,0.2c1.69,0.65,3.39,1.3,5.05,2.03
		c0.31,0.13,0.65,0.53,0.69,0.85c0.75,5.98,1.46,11.97,2.17,17.95c0.04,0.38-0.03,0.84-0.2,1.17c-2.61,4.89-5.24,9.77-7.88,14.64
		C336.29,403.15,336.01,403.41,335.72,403.57z"/>
	<path class="st3" d="M338.39,352.05c1.78-0.21,3.54-0.42,5.3-0.63c2.14-0.25,4.28-0.5,6.42-0.74c0.23-0.03,0.58,0.1,0.72,0.27
		c0.38,0.49,0.68,1.05,1.1,1.71c-1.79,0.31-3.5,0.61-5.18,0.91c-0.56,0.1-1.12,0.2-1.68,0.3c-1.1,0.19-2.19,0.4-3.28,0.59
		C340.08,354.76,338.81,353.89,338.39,352.05z"/>
	<path class="st3" d="M346.87,356.35c-0.62,0.15-1.24,0.29-1.86,0.44c-1.6,0.4-2.37,0.03-3.25-1.63c1.9-0.37,3.78-0.75,5.64-1.12
		c1.46-0.28,2.92-0.56,4.38-0.84c0.19-0.04,0.5,0.08,0.62,0.24c0.33,0.38,0.58,0.83,0.92,1.35c-1.29,0.31-2.54,0.62-3.78,0.92
		C348.65,355.93,347.76,356.13,346.87,356.35z"/>
	<path class="st3" d="M344.87,357.52c0.33-0.12,0.58-0.22,0.83-0.28c1.45-0.37,2.9-0.74,4.36-1.1c0.67-0.17,1.34-0.34,2.01-0.51
		c1.72-0.43,1.72-0.42,2.59,1.33c-0.92,0.25-1.83,0.5-2.72,0.74c-1.64,0.46-3.27,0.9-4.91,1.27
		C346.02,359.2,345.49,358.31,344.87,357.52z"/>
	<path class="st3" d="M347.64,359.39c1.65-0.45,3.21-0.89,4.75-1.3c0.68-0.18,1.36-0.36,2.04-0.53c0.28-0.07,0.71,0.19,0.96,0.42
		c0.28,0.26,0.44,0.67,0.72,1.13c-0.67,0.18-1.33,0.37-1.98,0.55c-1.47,0.42-2.91,0.82-4.36,1.14
		C348.85,361.01,348.28,360.19,347.64,359.39z"/>
	<path class="st3" d="M342.84,350.87c-1.53,0.15-3.05,0.31-4.58,0.47c-1.99,0.21-3.26-0.59-3.8-2.46c1.48-0.11,2.94-0.22,4.39-0.32
		c0.07-0.01,0.15-0.01,0.22-0.01c4.09-0.29,8.19-0.59,12.29-0.84c0.33-0.02,0.83,0.17,0.99,0.44c2.02,3.32,4,6.67,5.98,10.01
		c0.06,0.1,0.1,0.22,0.17,0.39c-0.35,0.1-0.65,0.17-0.94,0.28c-0.64,0.23-1.01,0.03-1.37-0.57c-1.56-2.55-3.16-5.09-4.8-7.6
		c-0.19-0.28-0.71-0.56-1.04-0.53C347.84,350.35,345.33,350.6,342.84,350.87z"/>
	<path class="st3" d="M357.06,362.51c4.1-0.8,8.22-1.53,12.53-2.32c-1.3,4.36-2.55,8.54-3.81,12.78c-0.03,0.08-0.06,0.16-0.08,0.24
		c-1.92-0.1-3.8-0.17-5.67-0.31c-0.43-0.03-0.74,0.04-1.01,0.26c-0.13,0.11-0.26,0.26-0.38,0.44c-1.5,2.3-3.07,4.55-4.55,6.85
		c-0.24,0.35-0.33,0.95-0.22,1.37c0.68,2.49,1.44,4.96,2.14,7.43c0.08,0.26,0.02,0.75-0.16,0.88c-5.15,3.75-10.32,7.47-15.7,11.34
		c0.19-0.47,0.27-0.73,0.39-0.96c2.06-4.1,4.13-8.19,6.17-12.3c0.17-0.33,0.22-0.79,0.15-1.17c-1.03-5.71-2.08-11.4-3.16-17.1
		c-0.12-0.6,0-0.92,0.51-1.24c2.27-1.44,4.57-2.86,6.77-4.39c0.07-0.05,0.13-0.09,0.2-0.14c1.6-1.12,3.46-1.21,5.25-1.56
		C356.65,362.58,356.85,362.54,357.06,362.51z"/>
	<path class="st3" d="M371.35,359.08c-0.01,0.08-0.02,0.16-0.03,0.24c-2.41,0.42-4.82,0.84-7.23,1.24
		c-2.57,0.42-5.14,0.84-7.71,1.26c-0.95,0.15-1.91,0.31-2.86,0.47c-1.51,0.25-1.51,0.26-2.27-1.31c1.11-0.3,2.22-0.59,3.34-0.88
		c1.6-0.42,3.21-0.85,4.84-1.28c-0.96-1.66-1.89-3.28-2.94-5.07c2.55,0.15,4.99-0.72,7.33,0.84
		C366.25,356.19,368.83,357.59,371.35,359.08z"/>
	<path class="st3" d="M358.99,413.21c0.44,0.35,0.75,0.6,1.12,0.89c-1.67,1.78-3.28,3.49-4.89,5.21c-2.42,2.58-4.84,5.16-7.24,7.75
		l-1.76,0.17C350.45,422.58,354.69,417.93,358.99,413.21z"/>
	<path class="st3" d="M370.21,405.18c-0.65,0.34-2.42,1.8-4.09,3.24c0.21,0.4,0.42,0.78,0.64,1.17l-0.27,0.15
		c0.27,0.17,0.53,0.33,0.9,0.56c-1.16,1.64-2.3,3.28-3.5,4.98c-0.96-0.53-1.82-1.01-2.82-1.56c0.16-0.22,0.31-0.42,0.47-0.64
		c0.14-0.19,0.28-0.39,0.42-0.58c0.09-0.12,0.17-0.24,0.26-0.35c0.22-0.28,0.42-0.58,0.63-0.86l0.01-0.01
		c0.07-0.09,0.13-0.19,0.2-0.28c0.42-0.58,0.84-1.15,1.26-1.73c-0.26-0.6-0.61-0.35-0.99-0.03c-0.03,0.03-0.06,0.06-0.1,0.08
		c0,0.01-0.01,0.01-0.02,0.02c-1.19,0.98-2.37,1.97-3.58,2.93c-0.26,0.19-0.62,0.38-0.92,0.37c-9.45-0.22-18.9-0.46-28.48-0.7
		l-0.62-2.08c2.72-1.73,5.45-3.45,8.18-5.14c0.39-0.24,0.96-0.36,1.4-0.28c6.36,1.17,12.7,2.39,19.07,3.55c0.57,0.1,1.24,0,1.8-0.21
		c1.54-0.56,3.05-1.23,4.65-1.89c0.14,0.25,0.28,0.5,0.41,0.74c1.34-2.05,2.4-3.94,2.4-3.94l0.92,0.87l-2.26,3.41l3.27-2.49
		L370.21,405.18z"/>
	<path class="st3" d="M223.31,460.57c-0.24-0.34-0.21-0.87-0.15-1.43c0.04-0.35,0.09-0.7,0.09-1.02c0.13-0.01,0.27-0.03,0.41-0.04
		c1.6,2.22,3.23,4.42,4.76,6.69c0.2,0.3-0.1,0.94-0.17,1.43c-0.1,0.01-0.2,0.01-0.31,0.02c-0.81-0.96-1.64-1.91-2.46-2.87
		c0-0.01-0.01-0.01-0.01-0.01C224.74,462.43,223.99,461.52,223.31,460.57z"/>
	<path class="st3" d="M226.89,468.09c0.2,0.22-0.1,0.87-0.19,1.56c-0.82-0.71-1.36-1.24-1.97-1.69c-0.87-0.65-1.17-1.43-0.75-2.61
		C224.99,466.28,226.01,467.12,226.89,468.09z"/>
	<path class="st3" d="M227.41,467.95c-1.18-1.12-2.08-2.13-3.14-2.95c-1.1-0.86-1.19-1.8-0.6-3.07c1,1.1,2,2.17,2.96,3.28
		c0,0.01,0.01,0.01,0.01,0.01c0.35,0.4,0.69,0.81,1.03,1.22c0.07,0.09,0.07,0.24,0.03,0.43
		C227.64,467.16,227.49,467.56,227.41,467.95z"/>
	<path class="st3" d="M224.33,458.29c-1.08-1.37-1.49-2.74-1-4.39c0.12-0.4,0.16-0.81,0.28-1.45c0.28,0.42,0.47,0.67,0.62,0.95
		c1.64,2.92,3.21,5.87,4.91,8.75c0.61,1.02,0.27,1.69-0.34,2.54C227.29,462.49,225.92,460.3,224.33,458.29z"/>
	<path class="st3" d="M223.71,451.15c-0.24-0.45-0.3-1.1-0.21-1.61c0.14-0.74,0.33-1.49,0.53-2.27c0,0,0,0,0-0.01
		c0.14-0.51,0.28-1.05,0.43-1.63c0.37,0.77,0.67,1.33,0.92,1.89c2.27,5.03,4.53,10.06,6.81,15.07c0.19,0.43,0.24,0.77,0.09,1.14
		c-0.04,0.11-0.1,0.23-0.19,0.35c-1.02,1.57-2.02,3.14-3.05,4.77c-0.44,0.69-0.89,1.4-1.35,2.12c-0.41-0.38-0.7-0.67-1.03-0.98
		c0.46-0.89,0.91-1.77,1.36-2.63c0.59-1.15,1.17-2.26,1.77-3.38c0.31-0.56,0.31-1.01,0-1.58
		C227.74,458.67,225.7,454.92,223.71,451.15z"/>
	<path class="st3" d="M261.67,456.27c-1.24,0.74-2.48,1.47-3.71,2.22c-6.18,3.75-12.14,7.87-18.2,11.83
		c-0.57,0.37-1.13,0.74-1.7,1.11c-1.55,1.03-3.12,2.05-4.67,3.06c-6.17,4.05-12.33,8.09-18.48,12.17c-0.89,0.58-1.35,0.39-1.89-0.51
		c2.13-3.23,4.25-6.44,6.38-9.66c1.3-1.96,2.64-3.91,3.9-5.9c0.35-0.56,0.66-0.55,1.17-0.3c1.08,0.53,2.19,1.02,3.32,1.55
		c0.6-0.76,1.19-1.51,1.79-2.26c0.67-0.86,1.35-1.71,2.03-2.57c0.52-0.65,1.03-1.31,1.56-1.96v-0.01c2.27-2.87,4.54-5.73,6.83-8.59
		c0.29-0.37,0.77-0.68,1.22-0.82c3.07-0.94,6.17-1.83,9.24-2.76c0.39-0.12,0.8-0.4,1.03-0.73c1.44-1.99,2.78-4.05,4.25-6.01
		c0.17-0.22,0.34-0.44,0.53-0.65L261.67,456.27z"/>
	<path class="st3" d="M344.33,388.21c-2.61,4.89-5.24,9.77-7.88,14.64c-0.16,0.29-0.44,0.55-0.73,0.71
		c-2.28,1.3-4.53,2.65-6.83,3.92c-0.91,0.51-1.83,0.99-2.76,1.46c-1.62,0.83-3.48,1.21-5.25,1.72c-2.2,0.64-4.42,1.23-6.64,1.8
		c-0.36,0.09-0.84,0.1-1.16-0.06c-3.48-1.8-6.94-3.65-10.4-5.48c-0.11-0.06-0.21-0.13-0.35-0.22c5.07-8.46,10.13-16.89,15.32-25.54
		c-1.19,0.35-2.14,0.63-3.1,0.92c-4.87,1.49-9.71,3.12-14.64,4.41c-2.19,0.57-4.55,0.49-6.83,0.62c-0.71,0.03-1.21,0.17-1.5,0.87
		c-1.11,2.67-3.13,3.83-5.98,4.38c-6.79,1.28-13.51,2.94-20.27,4.42c-0.61,0.13-1.04,0.33-1.11,1.04c-0.17,1.62-0.98,2.93-1.98,4.16
		c-0.58,0.72-1.14,1.47-1.59,2.27c-0.4,0.7-0.87,0.46-1.37,0.28c-0.62-0.22-0.31-0.66-0.2-1.03c0.22-0.81,0.44-1.63,0.67-2.44
		c-0.07-0.07-0.14-0.13-0.21-0.19c-2.56,1.31-5.12,2.62-7.79,3.99c-0.45-1.03-0.89-1.87-0.6-3.08c0.38-1.55,1.19-2.45,2.55-3.25
		c9.51-5.58,18.99-11.23,28.43-16.93c1.76-1.06,3.67-0.89,5.51-1.31c0.46-0.11,1.02-0.29,1.29-0.64c2.01-2.52,4.64-4.01,7.64-5.12
		c4.34-1.59,8.58-3.44,12.88-5.12c0.92-0.36,1.96-0.47,2.94-0.65c0.5-0.08,1.03-0.12,1.53-0.08c1.17,0.1,2.27,0.01,3.3-0.31
		c1.02-0.32,1.98-0.85,2.87-1.63c0.23-0.21,0.65-0.27,0.97-0.28c4.82-0.17,9.63-0.32,14.45-0.46c0.37-0.01,0.76,0.07,1.12,0.2
		c1.69,0.65,3.39,1.3,5.05,2.03c0.31,0.13,0.65,0.53,0.69,0.85c0.75,5.98,1.46,11.97,2.17,17.95
		C344.58,387.42,344.51,387.88,344.33,388.21z"/>
	<path class="st3" d="M267.62,430.97c2.2-1.43,4.31-2.8,6.42-4.16c8.35-5.4,16.71-10.79,25.05-16.22c0.76-0.5,1.39-0.61,2.26-0.24
		c3.85,1.62,7.73,3.15,11.59,4.74c0.62,0.26,1.13,0.24,1.72-0.04c1.9-0.89,3.81-1.75,5.78-2.64c3.47,5.35,6.89,10.65,10.36,16
		c-0.27,0.16-0.47,0.3-0.69,0.4c-6.52,3.05-13.07,6.06-19.56,9.18c-1.82,0.87-3.76,0.93-5.66,1.21c-4.89,0.72-9.79,1.36-14.69,2.01
		c-0.36,0.05-0.78,0.02-1.1-0.13c-7.05-3.27-14.1-6.57-21.14-9.86C267.86,431.19,267.8,431.11,267.62,430.97z"/>
	<path class="st3" d="M274.79,474.43c3.58-3.2,7.16-6.4,10.78-9.64c0.98,0.63,1.94,1.18,2.83,1.85c0.61,0.46,1.05,0.43,1.68,0.02
		c6.92-4.5,13.86-8.97,20.8-13.45c3.14-2.03,3.13-2.02,6.97-1.42c2.42,0.38,4.86,0.72,7.29,1.06c0.28,0.04,0.56,0.03,0.84,0.05
		c0.14-0.9-0.1-1.47-1.04-1.59c-3.35-0.42-5.78-2.31-7.97-4.75c-1.89-2.11-4.01-4.02-6.02-6.02c-0.22-0.22-0.42-0.45-0.72-0.78
		c6.99-3.06,13.9-6.09,20.89-9.15c0.61,1.53,1.21,3.03,1.8,4.53c2.3,5.88,4.49,11.8,6.94,17.61c0.9,2.13-0.2,3.44-1.17,4.93
		c-0.15,0.24-0.61,0.3-0.94,0.39c-20.35,5.54-40.69,11.08-61.05,16.61C276.09,474.85,275.39,475.41,274.79,474.43z"/>
	<path class="st3" d="M286.78,441.63c-0.97,0.58-1.8,1.1-2.64,1.58c-7.49,4.36-15.03,8.63-22.47,13.06
		c-1.24,0.74-2.48,1.47-3.71,2.22c-6.18,3.75-12.14,7.87-18.2,11.83c-0.57,0.37-1.13,0.74-1.7,1.11c-1.55,1.03-3.12,2.05-4.67,3.06
		c-6.17,4.05-12.33,8.09-18.48,12.17c-0.89,0.58-1.35,0.39-1.89-0.51c2.13-3.23,4.25-6.44,6.38-9.66c1.3-1.96,2.64-3.91,3.9-5.9
		c0.35-0.56,0.66-0.55,1.17-0.3c1.08,0.53,2.19,1.02,3.32,1.55c0.6-0.76,1.19-1.51,1.79-2.26c0.67-0.86,1.35-1.71,2.03-2.57
		c0.52-0.65,1.03-1.31,1.56-1.96v-0.01c2.27-2.87,4.54-5.73,6.83-8.59c0.29-0.37,0.77-0.68,1.22-0.82c3.07-0.94,6.17-1.83,9.24-2.76
		c0.39-0.12,0.8-0.4,1.03-0.73c1.44-1.99,2.78-4.05,4.25-6.01c0.17-0.22,0.34-0.44,0.53-0.65c0.65-0.76,1.37-1.45,2.07-2.16
		c3.3-3.34,6.6-6.66,9.93-9.97c0.19-0.19,0.65-0.34,0.85-0.24C274.97,435.91,280.79,438.73,286.78,441.63z"/>
	<path class="st3" d="M369.58,360.19c-1.3,4.36-2.55,8.54-3.81,12.78c-0.03,0.08-0.06,0.16-0.08,0.24c-1.92-0.1-3.8-0.17-5.67-0.31
		c-0.43-0.03-0.74,0.04-1.01,0.26c-0.13,0.11-0.26,0.26-0.38,0.44c-1.5,2.3-3.07,4.55-4.55,6.85c-0.24,0.35-0.33,0.95-0.22,1.37
		c0.68,2.49,1.44,4.96,2.14,7.43c0.08,0.26,0.02,0.75-0.16,0.88c-5.15,3.75-10.32,7.47-15.7,11.34c0.19-0.47,0.27-0.73,0.39-0.96
		c2.06-4.1,4.13-8.19,6.17-12.3c0.17-0.33,0.22-0.79,0.15-1.17c-1.03-5.71-2.08-11.4-3.16-17.1c-0.12-0.6,0-0.92,0.51-1.24
		c2.27-1.44,4.57-2.86,6.77-4.39c0.07-0.05,0.13-0.09,0.2-0.14c1.6-1.12,3.46-1.21,5.25-1.56c0.21-0.04,0.41-0.08,0.62-0.12
		C361.16,361.71,365.28,360.98,369.58,360.19z"/>
	<path class="st3" d="M367.38,410.29c-1.16,1.64-2.3,3.28-3.5,4.98c-0.96-0.53-1.82-1.01-2.82-1.56c0.16-0.22,0.31-0.42,0.47-0.64
		c0.14-0.19,0.28-0.39,0.42-0.58c0.09-0.12,0.17-0.24,0.26-0.35c0.22-0.28,0.42-0.58,0.63-0.86l0.01-0.01
		c0.07-0.09,0.13-0.19,0.2-0.28c0.42-0.58,0.84-1.15,1.26-1.73c-0.26-0.6-0.61-0.35-0.99-0.03c-0.03,0.03-0.06,0.06-0.1,0.08
		c0,0.01-0.01,0.01-0.02,0.02c-1.19,0.98-2.37,1.97-3.58,2.93c-0.26,0.19-0.62,0.38-0.92,0.37c-9.45-0.22-18.9-0.46-28.48-0.7
		c-1.21-0.03-2.42-0.06-3.63-0.09c0.32-0.24,0.49-0.4,0.68-0.51c0.78-0.49,1.55-0.99,2.33-1.47c2.72-1.73,5.45-3.45,8.18-5.14
		c0.39-0.24,0.96-0.36,1.4-0.28c6.36,1.17,12.7,2.39,19.07,3.55c0.57,0.1,1.24,0,1.8-0.21c1.54-0.56,3.05-1.23,4.65-1.89
		c0.14,0.25,0.28,0.5,0.41,0.74c0.34,0.62,0.67,1.21,1,1.8c0.21,0.4,0.42,0.78,0.64,1.17l-0.27,0.15
		C366.75,409.9,367.02,410.06,367.38,410.29z"/>
	<path class="st3" d="M371.35,359.08c-0.01,0.08-0.02,0.16-0.03,0.24c-2.41,0.42-4.82,0.84-7.23,1.24
		c-2.57,0.42-5.14,0.84-7.71,1.26c-0.95,0.15-1.91,0.31-2.86,0.47c-1.51,0.25-1.51,0.26-2.27-1.31c1.11-0.3,2.22-0.59,3.34-0.88
		c1.6-0.42,3.21-0.85,4.84-1.28c-0.96-1.66-1.89-3.28-2.94-5.07c2.55,0.15,4.99-0.72,7.33,0.84
		C366.25,356.19,368.83,357.59,371.35,359.08z"/>
	<path class="st3" d="M358.49,358.54c-0.35,0.1-0.65,0.17-0.94,0.28c-0.64,0.23-1.01,0.03-1.37-0.57c-1.56-2.55-3.16-5.09-4.8-7.6
		c-0.19-0.28-0.71-0.56-1.04-0.53c-2.51,0.23-5.01,0.48-7.51,0.74c-1.53,0.15-3.05,0.31-4.58,0.47c-1.99,0.21-3.26-0.59-3.8-2.46
		c1.48-0.11,2.94-0.22,4.39-0.32c0.07-0.01,0.15-0.01,0.22-0.01c4.09-0.29,8.19-0.59,12.29-0.84c0.33-0.02,0.83,0.17,0.99,0.44
		c2.02,3.32,4,6.67,5.98,10.01C358.39,358.26,358.42,358.38,358.49,358.54z"/>
	<path class="st3" d="M232.29,463.74c-0.04,0.11-0.1,0.23-0.19,0.35c-1.02,1.57-2.02,3.14-3.05,4.77c-0.44,0.69-0.89,1.4-1.35,2.12
		c-0.41-0.38-0.7-0.67-1.03-0.98c0.46-0.89,0.91-1.77,1.36-2.63c0.59-1.15,1.17-2.26,1.77-3.38c0.31-0.56,0.31-1.01,0-1.58
		c-2.06-3.74-4.1-7.49-6.09-11.26c-0.24-0.45-0.3-1.1-0.21-1.61c0.14-0.74,0.33-1.49,0.53-2.27c0,0,0,0,0-0.01
		c0.14-0.51,0.28-1.05,0.43-1.63c0.37,0.77,0.67,1.33,0.92,1.89c2.27,5.03,4.53,10.06,6.81,15.07
		C232.39,463.03,232.43,463.37,232.29,463.74z"/>
	<path class="st3" d="M289.28,466.42c-0.23-0.38-0.43-0.7-0.65-1.06c1.67-1.43,3.3-2.85,4.97-4.23c0.45-0.37,0.58-0.74,0.5-1.31
		c-0.54-3.75-1.08-7.5-1.55-11.26c-0.06-0.51,0.08-1.14,0.35-1.58c0.6-0.97,1.34-1.85,2.2-3c0.06,0.74,0.12,1.21,0.15,1.69
		c0.31,4.93,0.61,9.86,0.95,14.78c0.05,0.76-0.16,1.21-0.79,1.64c-1.77,1.2-3.48,2.47-5.22,3.71
		C289.91,466.01,289.62,466.2,289.28,466.42z"/>
	<path class="st3" d="M351.93,352.66c-1.79,0.31-3.5,0.61-5.18,0.91c-0.56,0.1-1.12,0.2-1.68,0.3c-1.1,0.19-2.19,0.4-3.28,0.59
		c-1.7,0.31-2.97-0.57-3.39-2.4c1.78-0.21,3.54-0.42,5.3-0.63c2.14-0.25,4.28-0.5,6.42-0.74c0.23-0.03,0.58,0.1,0.72,0.27
		C351.21,351.44,351.5,352,351.93,352.66z"/>
	<path class="st3" d="M360.11,414.09c-1.67,1.78-3.28,3.49-4.89,5.21c-2.42,2.58-4.84,5.16-7.24,7.75c-0.44,0.47-0.87,0.93-1.3,1.4
		c-0.53,0.58-0.94,0.69-1.49-0.1c0.35-0.38,0.69-0.76,1.03-1.14c4.22-4.64,8.46-9.3,12.76-14.02
		C359.43,413.55,359.74,413.8,360.11,414.09z"/>
	<path class="st3" d="M228.81,464.68c-1.52-2.19-2.89-4.38-4.48-6.39c-1.08-1.37-1.49-2.74-1-4.39c0.12-0.4,0.16-0.81,0.28-1.45
		c0.28,0.42,0.47,0.67,0.62,0.95c1.64,2.92,3.21,5.87,4.91,8.75C229.76,463.16,229.42,463.83,228.81,464.68z"/>
	<path class="st3" d="M353.33,354.8c-1.29,0.31-2.54,0.62-3.78,0.92c-0.9,0.22-1.78,0.42-2.67,0.64c-0.62,0.15-1.24,0.29-1.86,0.44
		c-1.6,0.4-2.37,0.03-3.25-1.63c1.9-0.37,3.78-0.75,5.64-1.12c1.46-0.28,2.92-0.56,4.38-0.84c0.19-0.04,0.5,0.08,0.62,0.24
		C352.73,353.83,352.98,354.27,353.33,354.8z"/>
	<path class="st3" d="M292.42,461.48c-0.66-2.46-1.24-4.9-1.99-7.28c-0.39-1.22-0.3-2.19,0.5-3.16c0.36-0.43,0.63-0.94,1.08-1.62
		c0.27,1.64,0.51,3.05,0.73,4.47c0.28,1.82,0.46,3.66,0.85,5.46C293.83,460.48,293.34,461,292.42,461.48z"/>
	<path class="st3" d="M354.66,356.95c-0.92,0.25-1.83,0.5-2.72,0.74c-1.64,0.46-3.27,0.9-4.91,1.27c-1.01,0.24-1.55-0.65-2.17-1.45
		c0.33-0.12,0.58-0.22,0.83-0.28c1.45-0.37,2.9-0.74,4.36-1.1c0.67-0.17,1.34-0.34,2.01-0.51
		C353.79,355.2,353.79,355.21,354.66,356.95z"/>
	<path class="st3" d="M356.12,359.12c-0.67,0.18-1.33,0.37-1.98,0.55c-1.47,0.42-2.91,0.82-4.36,1.14c-0.94,0.2-1.5-0.62-2.14-1.42
		c1.65-0.45,3.21-0.89,4.75-1.3c0.68-0.18,1.36-0.36,2.04-0.53c0.28-0.07,0.71,0.19,0.96,0.42
		C355.68,358.25,355.83,358.66,356.12,359.12z"/>
	<path class="st3" d="M228.26,466.2c-0.1,0.01-0.2,0.01-0.31,0.02c-0.81-0.96-1.64-1.91-2.46-2.87c0-0.01-0.01-0.01-0.01-0.01
		c-0.76-0.9-1.5-1.81-2.18-2.76c-0.24-0.34-0.21-0.87-0.15-1.43c0.04-0.35,0.09-0.7,0.09-1.02c0.13-0.01,0.27-0.03,0.41-0.04
		c1.6,2.22,3.23,4.42,4.76,6.69C228.63,465.06,228.33,465.71,228.26,466.2z"/>
	<path class="st3" d="M289.92,454.02c0.59,2.05,1.15,3.96,1.7,5.87c0.08,0.27,0.12,0.57,0.24,0.82c0.43,0.89,0.21,1.5-0.78,1.86
		c-0.78-2.04-1.59-4.07-2.3-6.13c-0.12-0.34,0.18-0.86,0.36-1.25C289.31,454.81,289.59,454.5,289.92,454.02z"/>
	<path class="st3" d="M227.7,466.86c-0.06,0.3-0.22,0.7-0.29,1.08c-1.18-1.12-2.08-2.13-3.14-2.95c-1.1-0.86-1.19-1.8-0.6-3.07
		c1,1.1,2,2.17,2.96,3.28c0,0.01,0.01,0.01,0.01,0.01c0.35,0.4,0.69,0.81,1.03,1.22C227.74,466.52,227.74,466.68,227.7,466.86z"/>
	<path class="st3" d="M288.63,457.52c0.75,1.79,1.49,3.56,2.25,5.37c-0.29,0.28-0.56,0.54-0.97,0.93c-0.61-1.15-1.1-2.27-1.75-3.3
		C287.44,459.4,287.34,458.45,288.63,457.52z"/>
	<path class="st3" d="M226.69,469.65c-0.82-0.71-1.36-1.24-1.97-1.69c-0.87-0.65-1.17-1.43-0.75-2.61c1.02,0.93,2.04,1.77,2.92,2.74
		C227.09,468.31,226.79,468.97,226.69,469.65z"/>
	<path class="st3" d="M287.44,460.24c0.76,1.32,1.43,2.34,1.92,3.43c0.14,0.31-0.25,0.85-0.4,1.29c-0.13,0-0.25-0.01-0.38-0.01
		c-0.57-0.97-1.23-1.91-1.65-2.94C286.77,461.62,287.2,461,287.44,460.24z"/>
	<g>
		<path class="st3" d="M381.1,396.09c-0.31,0.36-0.74,0.76-1.35,1.1c0,0,0.49,0.03,1.03-0.39c0,0-0.7,1.57-2.15,1.53
			c-0.25-0.01-0.52-0.03-0.79-0.06c-0.83-0.1-1.71-0.31-2.26-0.46c-0.36-0.09-0.67-0.32-0.85-0.64c-0.43-0.74-1.18-2.15-1.37-3.35
			c-0.06-0.35,0.06-0.71,0.31-0.96c0.36-0.36,0.91-0.96,1.17-1.47c0.32-0.61,0.4-0.77,0.42-0.81c0-0.01,0-0.01,0-0.01l0.01-0.01
			c0,0,0,0.01,0,0.02c-0.01,0.27-0.1,2.96,0.78,4.37c0.44,0.72,0.76,0.74,0.98,0.57l0.06-0.06c0.2-0.23,0.24-0.56,0.12-0.84
			c-0.38-0.91-1.42-3.54-0.92-4.5c0.59-1.19,1.69-2.3,4.93-2.21C381.35,388.23,383.55,393.17,381.1,396.09z"/>
		<path class="st3" d="M380.7,400.23l-0.7,0.26l-1.23,0.46l-0.22,0.08l-0.19,0.07l-2.55,0.94l-0.42,0.16l0.44,0.4l-0.47,0.52
			l-2.61-2.38l-3.89-3.54l0.74-0.81l0.67,0.6l0.53-2.46l0.06-0.28l0.1-0.47l0.28-1.28l0.19-0.72l1.15,1.04
			c-0.2,0.78-0.2,1.62,0.01,2.43c0.07,0.28,0.16,0.55,0.28,0.82c0.16,0.37,0.37,0.74,0.61,1.08c0.2,0.37,0.45,0.67,0.72,0.9
			c0.22,0.19,0.46,0.35,0.71,0.46c0.09,0.06,0.18,0.12,0.28,0.18c0.35,0.21,0.73,0.37,1.1,0.5c0.28,0.08,0.56,0.15,0.84,0.19
			c0.34,0.05,0.69,0.07,1.03,0.05c0.48-0.01,0.95-0.11,1.4-0.27L380.7,400.23z"/>
		<polygon class="st3" points="371.18,404.51 371.09,404.56 371.49,404.93 371.23,405.22 367.68,402 368.02,401.63 368.31,401.9 
			369.46,398.82 370.68,399.93 369.17,402.75 370.06,403.56 372.73,401.8 373.12,402.16 374.02,402.98 373.4,403.31 		"/>
		<path class="st3" d="M370.21,405.18c-0.65,0.34-2.42,1.8-4.09,3.24c-1.24,1.05-2.41,2.09-3.05,2.66
			c-0.08,0.07-0.16,0.14-0.22,0.19c0.07-0.09,0.13-0.19,0.2-0.28c0.42-0.58,0.84-1.15,1.26-1.73c-0.26-0.6-0.61-0.35-0.99-0.03
			c-0.03,0.03-0.06,0.06-0.1,0.08c0.64-0.82,1.29-1.77,1.89-2.69c1.34-2.05,2.4-3.94,2.4-3.94l0.92,0.87l-2.26,3.41l3.27-2.49
			L370.21,405.18z"/>
		<path class="st3" d="M362.89,411.87c-0.18,0.19-0.43,0.29-0.68,0.26c0.22-0.28,0.42-0.58,0.63-0.86l0.01-0.01
			c0.07-0.09,0.13-0.19,0.2-0.28c0.01,0.03,0.02,0.06,0.02,0.08C363.15,411.35,363.09,411.64,362.89,411.87z"/>
		<path class="st3" d="M361.95,412.49c-0.01,0.15-0.07,0.29-0.17,0.41c-0.07,0.08-0.16,0.13-0.25,0.17
			C361.66,412.88,361.81,412.69,361.95,412.49z"/>
	</g>
</g>
<g>
	<g>
		<text transform="matrix(1.0293 0 0 1 31.3451 782.8653)" class="st3 st5 st6">3/73 Kurundasala Nagar, K. Vadamadurai,NGGO Colony, Kurudampalaym, Coimbatore - 641017, India </text>
	</g>
	<g>
		<g>
			<text transform="matrix(1.0293 0 0 1 127.0658 800.6295)" class="st3 st5 st7">+91 9894821309,  +91 8148221308</text>
		</g>
		<g>
			<text transform="matrix(1.0293 0 0 1 351.6559 800.7474)" class="st3 st5 st7">ramc.ermis@gmail.com</text>
		</g>
		<circle class="st3" cx="337.21" cy="796.58" r="4.04"/>
	</g>
</g>
<g>
	<rect x="-0.02" y="-0.01" class="st1" width="218.96" height="103.41"/>
	<g>
		<path class="st2" d="M61.33,29.69c0.57-0.07,1.13-0.14,1.69-0.2c0.69-0.08,1.37-0.16,2.05-0.24c0.07-0.01,0.19,0.03,0.23,0.09
			c0.12,0.16,0.22,0.34,0.35,0.55c-0.57,0.1-1.12,0.2-1.66,0.29c-0.18,0.03-0.36,0.06-0.54,0.1c-0.35,0.06-0.7,0.13-1.05,0.19
			C61.87,30.56,61.46,30.28,61.33,29.69z"/>
		<g>
			<g>
				<g>
					<path class="st2" d="M48.34,24.97c-14.74,0-26.73,11.99-26.73,26.73c0,1.84,0.19,3.63,0.54,5.36l1.59-1.18
						c-0.23-1.36-0.35-2.75-0.35-4.18c0-13.76,11.2-24.95,24.95-24.95c2.83,0,5.56,0.48,8.1,1.35l1.38-1.38
						C54.88,25.58,51.68,24.97,48.34,24.97z M74.99,49.79l-1.72,1.03c0.01,0.29,0.02,0.57,0.02,0.87
						c0,13.76-11.19,24.95-24.95,24.95c-5.2,0-10.04-1.6-14.04-4.33l-1.93,0.8c4.45,3.33,9.99,5.31,15.98,5.31
						c14.73,0,26.73-11.99,26.73-26.73C75.06,51.05,75.04,50.42,74.99,49.79z"/>
				</g>
				<path class="st2" d="M64.08,31.04c-0.2,0.05-0.4,0.09-0.6,0.14c-0.51,0.13-0.76,0.01-1.04-0.52c0.61-0.12,1.21-0.24,1.8-0.36
					c0.47-0.09,0.94-0.18,1.4-0.27c0.06-0.01,0.16,0.03,0.2,0.08c0.1,0.12,0.18,0.26,0.3,0.43c-0.41,0.1-0.81,0.2-1.21,0.29
					C64.65,30.91,64.37,30.97,64.08,31.04z"/>
				<path class="st2" d="M63.46,31.42c0.11-0.04,0.18-0.07,0.27-0.09c0.46-0.12,0.93-0.24,1.39-0.35c0.21-0.06,0.43-0.11,0.64-0.16
					c0.55-0.14,0.55-0.13,0.83,0.42c-0.29,0.08-0.58,0.16-0.87,0.24c-0.53,0.15-1.05,0.29-1.57,0.41
					C63.83,31.96,63.66,31.67,63.46,31.42z"/>
				<path class="st2" d="M64.4,32c0.53-0.14,1.03-0.28,1.52-0.42c0.22-0.06,0.44-0.12,0.65-0.17c0.09-0.02,0.23,0.06,0.31,0.14
					c0.09,0.08,0.14,0.22,0.23,0.36c-0.22,0.06-0.42,0.12-0.63,0.18c-0.47,0.13-0.93,0.26-1.39,0.36
					C64.79,32.51,64.61,32.25,64.4,32z"/>
				<path class="st2" d="M62.86,29.27c-0.49,0.05-0.98,0.1-1.47,0.15c-0.64,0.07-1.04-0.19-1.22-0.79c0.47-0.04,0.94-0.07,1.41-0.1
					c0.02,0,0.05,0,0.07,0c1.31-0.09,2.62-0.19,3.93-0.27c0.1-0.01,0.27,0.06,0.32,0.14c0.65,1.06,1.28,2.13,1.91,3.2
					c0.02,0.03,0.03,0.07,0.05,0.12c-0.11,0.03-0.21,0.06-0.3,0.09c-0.2,0.07-0.32,0.01-0.44-0.18c-0.5-0.82-1.01-1.63-1.53-2.43
					c-0.06-0.09-0.23-0.18-0.33-0.17C64.46,29.1,63.66,29.18,62.86,29.27z"/>
				<path class="st2" d="M67.41,32.99c1.31-0.26,2.63-0.49,4.01-0.74c-0.42,1.39-0.82,2.73-1.22,4.09
					c-0.01,0.03-0.02,0.05-0.02,0.08c-0.62-0.03-1.21-0.05-1.81-0.1c-0.14-0.01-0.24,0.01-0.32,0.08c-0.04,0.04-0.08,0.08-0.12,0.14
					c-0.48,0.74-0.98,1.45-1.46,2.19c-0.08,0.11-0.1,0.3-0.07,0.44c0.22,0.8,0.46,1.59,0.69,2.38c0.02,0.08,0.01,0.24-0.05,0.28
					c-1.65,1.2-3.3,2.39-5.02,3.63c0.06-0.15,0.09-0.23,0.12-0.31c0.66-1.31,1.32-2.62,1.97-3.94c0.05-0.11,0.07-0.25,0.05-0.37
					c-0.33-1.83-0.67-3.65-1.01-5.47c-0.04-0.19,0-0.29,0.16-0.4c0.73-0.46,1.46-0.92,2.17-1.41c0.02-0.02,0.04-0.03,0.06-0.04
					c0.51-0.36,1.11-0.39,1.68-0.5C67.28,33.02,67.35,33,67.41,32.99z"/>
				<path class="st2" d="M71.99,31.9c0,0.03-0.01,0.05-0.01,0.08c-0.77,0.13-1.54,0.27-2.31,0.4c-0.82,0.14-1.65,0.27-2.47,0.4
					c-0.3,0.05-0.61,0.1-0.91,0.15C65.8,33,65.8,33,65.55,32.5c0.36-0.1,0.71-0.19,1.07-0.28c0.51-0.14,1.03-0.27,1.55-0.41
					c-0.31-0.53-0.61-1.05-0.94-1.62c0.82,0.05,1.6-0.23,2.35,0.27C70.36,30.97,71.18,31.42,71.99,31.9z"/>
				<polygon class="st2" points="72.55,45.68 72.84,45.94 72.64,46.05 71.93,46.43 71.9,46.45 72.03,46.57 71.95,46.66 70.81,45.63 
					70.92,45.51 71.02,45.6 71.38,44.61 71.77,44.97 71.29,45.87 71.58,46.13 72.43,45.57 				"/>
				<path class="st2" d="M74.98,45.06l-0.22,0.08l-0.39,0.15l-0.07,0.03l-0.06,0.02l-0.82,0.3l-0.14,0.05l0.14,0.13l-0.15,0.17
					l-0.84-0.76l-1.24-1.13l0.24-0.26l0.21,0.19l0.17-0.79l0.02-0.09L71.86,43l0.09-0.41l0.06-0.23l0.37,0.33
					c-0.06,0.25-0.06,0.52,0,0.78c0.02,0.09,0.05,0.18,0.09,0.26c0.05,0.12,0.12,0.24,0.2,0.34c0.06,0.12,0.14,0.21,0.23,0.29
					c0.07,0.06,0.15,0.11,0.23,0.15c0.03,0.02,0.06,0.04,0.09,0.06c0.11,0.07,0.23,0.12,0.35,0.16c0.09,0.03,0.18,0.05,0.27,0.06
					c0.11,0.02,0.22,0.02,0.33,0.02c0.15,0,0.3-0.04,0.45-0.09L74.98,45.06z"/>
				<path class="st2" d="M75.11,43.74c-0.1,0.12-0.24,0.24-0.43,0.35c0,0,0.16,0.01,0.33-0.12c0,0-0.22,0.5-0.69,0.49
					c-0.08,0-0.17-0.01-0.25-0.02c-0.26-0.03-0.55-0.1-0.72-0.15c-0.12-0.03-0.21-0.1-0.27-0.2c-0.14-0.24-0.38-0.69-0.44-1.07
					c-0.02-0.11,0.02-0.23,0.1-0.31c0.12-0.12,0.29-0.31,0.38-0.47c0.1-0.2,0.13-0.25,0.13-0.26c0,0,0,0,0,0l0,0c0,0,0,0,0,0.01
					c0,0.09-0.03,0.95,0.25,1.4c0.14,0.23,0.24,0.24,0.31,0.18l0.02-0.02c0.06-0.07,0.08-0.18,0.04-0.27
					c-0.12-0.29-0.45-1.13-0.3-1.44c0.19-0.38,0.54-0.74,1.58-0.71C75.19,41.22,75.89,42.81,75.11,43.74z"/>
				<path class="st2" d="M24.62,64.37c-0.08-0.11-0.07-0.28-0.05-0.46c0.01-0.11,0.03-0.22,0.03-0.33c0.04,0,0.09-0.01,0.13-0.01
					c0.51,0.71,1.03,1.41,1.52,2.14c0.06,0.1-0.03,0.3-0.05,0.46c-0.03,0-0.06,0-0.1,0.01c-0.26-0.31-0.53-0.61-0.79-0.92
					c0,0,0,0,0,0C25.07,64.97,24.83,64.68,24.62,64.37z"/>
				<path class="st2" d="M25.76,66.78c0.06,0.07-0.03,0.28-0.06,0.5c-0.26-0.23-0.44-0.4-0.63-0.54c-0.28-0.21-0.37-0.46-0.24-0.84
					C25.15,66.2,25.48,66.47,25.76,66.78z"/>
				<path class="st2" d="M25.93,66.73c-0.38-0.36-0.67-0.68-1-0.94c-0.35-0.28-0.38-0.58-0.19-0.98c0.32,0.35,0.64,0.7,0.95,1.05
					c0,0,0,0,0,0c0.11,0.13,0.22,0.26,0.33,0.39c0.02,0.03,0.02,0.08,0.01,0.14C26,66.48,25.95,66.61,25.93,66.73z"/>
				<path class="st2" d="M24.94,63.64c-0.34-0.44-0.48-0.88-0.32-1.41c0.04-0.13,0.05-0.26,0.09-0.46c0.09,0.13,0.15,0.22,0.2,0.3
					c0.52,0.94,1.03,1.88,1.57,2.8c0.2,0.33,0.09,0.54-0.11,0.81C25.89,64.99,25.45,64.29,24.94,63.64z"/>
				<path class="st2" d="M24.74,61.36c-0.08-0.14-0.1-0.35-0.07-0.52c0.04-0.24,0.1-0.48,0.17-0.73c0,0,0,0,0,0
					c0.04-0.16,0.09-0.34,0.14-0.52c0.12,0.25,0.21,0.42,0.3,0.61c0.73,1.61,1.45,3.22,2.18,4.82c0.06,0.14,0.08,0.25,0.03,0.36
					c-0.01,0.04-0.03,0.07-0.06,0.11c-0.33,0.5-0.65,1.01-0.97,1.53c-0.14,0.22-0.28,0.45-0.43,0.68c-0.13-0.12-0.22-0.21-0.33-0.31
					c0.15-0.28,0.29-0.57,0.44-0.84c0.19-0.37,0.38-0.72,0.57-1.08c0.1-0.18,0.1-0.32,0-0.5C26.03,63.77,25.38,62.57,24.74,61.36z"
					/>
				<path class="st2" d="M63.41,40.84c0.01,0.13-0.01,0.27-0.07,0.38c-0.83,1.56-1.67,3.13-2.52,4.69
					c-0.05,0.09-0.14,0.17-0.23,0.22c-0.73,0.42-1.45,0.85-2.19,1.26c-0.29,0.16-0.58,0.32-0.88,0.47
					c-0.52,0.26-1.11,0.38-1.68,0.55c-0.7,0.2-1.41,0.39-2.12,0.57c-0.12,0.03-0.27,0.03-0.37-0.02c-1.12-0.57-2.22-1.16-3.33-1.75
					c-0.04-0.02-0.07-0.04-0.12-0.07c1.63-2.71,3.24-5.41,4.91-8.18c-0.38,0.12-0.69,0.21-1,0.3c-1.56,0.48-3.1,1-4.68,1.41
					c-0.7,0.18-1.46,0.16-2.19,0.2c-0.23,0.01-0.38,0.05-0.48,0.28c-0.35,0.85-1,1.22-1.91,1.4c-2.18,0.41-4.33,0.94-6.49,1.41
					c-0.19,0.04-0.33,0.11-0.35,0.33c-0.06,0.52-0.32,0.94-0.64,1.34c-0.18,0.23-0.36,0.47-0.51,0.72
					c-0.12,0.23-0.28,0.15-0.44,0.09c-0.19-0.07-0.09-0.21-0.06-0.33c0.07-0.26,0.14-0.52,0.22-0.78c-0.03-0.02-0.05-0.04-0.07-0.06
					c-0.82,0.42-1.64,0.84-2.49,1.28c-0.15-0.33-0.29-0.6-0.2-0.99c0.13-0.5,0.38-0.78,0.82-1.04c3.04-1.78,6.08-3.59,9.1-5.42
					c0.56-0.34,1.17-0.28,1.76-0.42c0.15-0.03,0.33-0.09,0.41-0.2c0.65-0.81,1.49-1.29,2.45-1.64c1.39-0.51,2.75-1.1,4.12-1.64
					c0.3-0.11,0.63-0.15,0.94-0.2c0.16-0.03,0.33-0.04,0.49-0.03c0.38,0.04,0.73,0.01,1.06-0.09c0.33-0.11,0.63-0.28,0.92-0.53
					c0.07-0.06,0.2-0.08,0.31-0.09c1.54-0.05,3.08-0.1,4.62-0.14c0.12-0.01,0.25,0.02,0.36,0.06c0.54,0.21,1.08,0.42,1.62,0.65
					c0.09,0.04,0.2,0.17,0.22,0.27C62.96,37.01,63.18,38.93,63.41,40.84z"/>
				<path class="st2" d="M38.79,54.9c0.7-0.46,1.38-0.9,2.05-1.33c2.67-1.73,5.35-3.45,8.02-5.19c0.24-0.16,0.44-0.19,0.72-0.08
					c1.23,0.52,2.48,1.01,3.71,1.52c0.2,0.08,0.36,0.08,0.55-0.01c0.61-0.29,1.22-0.56,1.85-0.85c1.11,1.71,2.21,3.41,3.31,5.12
					c-0.09,0.05-0.15,0.1-0.22,0.13c-2.09,0.98-4.18,1.94-6.26,2.94c-0.58,0.28-1.2,0.3-1.81,0.39c-1.56,0.23-3.13,0.43-4.7,0.64
					c-0.11,0.02-0.25,0.01-0.35-0.04c-2.26-1.05-4.51-2.1-6.77-3.16C38.87,54.97,38.85,54.95,38.79,54.9z"/>
				<path class="st2" d="M41.09,68.81c1.14-1.02,2.29-2.05,3.45-3.08c0.31,0.2,0.62,0.38,0.91,0.59c0.2,0.15,0.34,0.14,0.54,0
					c2.21-1.44,4.44-2.87,6.65-4.31c1-0.65,1-0.65,2.23-0.45c0.78,0.12,1.55,0.23,2.33,0.34c0.09,0.01,0.18,0.01,0.27,0.02
					c0.05-0.29-0.03-0.47-0.33-0.51c-1.07-0.13-1.85-0.74-2.55-1.52c-0.61-0.67-1.28-1.29-1.93-1.93c-0.07-0.07-0.13-0.15-0.23-0.25
					c2.24-0.98,4.45-1.95,6.68-2.93c0.19,0.49,0.39,0.97,0.57,1.45c0.73,1.88,1.44,3.77,2.22,5.63c0.29,0.68-0.06,1.1-0.37,1.58
					c-0.05,0.08-0.19,0.1-0.3,0.13c-6.51,1.77-13.02,3.55-19.53,5.32C41.5,68.94,41.28,69.12,41.09,68.81z"/>
				<path class="st2" d="M44.93,58.31c-0.31,0.19-0.58,0.35-0.85,0.51c-2.39,1.39-4.81,2.76-7.19,4.18
					c-0.4,0.23-0.79,0.47-1.18,0.71c-1.98,1.2-3.89,2.52-5.83,3.78c-0.18,0.12-0.36,0.24-0.54,0.36c-0.5,0.33-1,0.66-1.5,0.98
					c-1.97,1.29-3.7,2.38-5.67,3.68c-0.29,0.19-0.43,0.13-0.61-0.16c0.69-1.03,1.13-1.85,1.81-2.88c0.41-0.63,0.84-1.25,1.24-1.89
					c0.12-0.18,0.21-0.17,0.38-0.09c0.34,0.16,0.7,0.32,1.06,0.49l0.57-0.72c0.22-0.28,0.44-0.55,0.65-0.82
					c0.17-0.21,0.33-0.42,0.5-0.63V65.8c0.73-0.91,1.45-1.83,2.19-2.74c0.09-0.12,0.24-0.22,0.39-0.26
					c0.98-0.31,1.97-0.59,2.96-0.89c0.12-0.04,0.25-0.13,0.33-0.23c0.46-0.64,0.89-1.3,1.36-1.93c0.05-0.07,0.11-0.14,0.17-0.2
					c0.2-0.24,0.44-0.47,0.66-0.69c1.05-1.07,2.11-2.13,3.18-3.19c0.06-0.06,0.2-0.11,0.27-0.08
					C41.15,56.48,43.01,57.38,44.93,58.31z"/>
				<path class="st2" d="M71.42,32.25c-0.42,1.39-0.82,2.73-1.22,4.09c-0.01,0.03-0.02,0.05-0.02,0.08
					c-0.62-0.03-1.21-0.05-1.81-0.1c-0.14-0.01-0.24,0.01-0.32,0.08c-0.04,0.04-0.08,0.08-0.12,0.14c-0.48,0.74-0.98,1.45-1.46,2.19
					c-0.08,0.11-0.1,0.3-0.07,0.44c0.22,0.8,0.46,1.59,0.69,2.38c0.02,0.08,0.01,0.24-0.05,0.28c-1.65,1.2-3.3,2.39-5.02,3.63
					c0.06-0.15,0.09-0.23,0.12-0.31c0.66-1.31,1.32-2.62,1.97-3.94c0.05-0.11,0.07-0.25,0.05-0.37c-0.33-1.83-0.67-3.65-1.01-5.47
					c-0.04-0.19,0-0.29,0.16-0.4c0.73-0.46,1.46-0.92,2.17-1.41c0.02-0.02,0.04-0.03,0.06-0.04c0.51-0.36,1.11-0.39,1.68-0.5
					c0.07-0.01,0.13-0.03,0.2-0.04C68.73,32.74,70.05,32.51,71.42,32.25z"/>
				<path class="st2" d="M70.43,48.1c0.09,0.06,0.17,0.11,0.29,0.18c-0.37,0.53-0.74,1.05-1.12,1.6c-0.31-0.17-0.59-0.32-0.91-0.5
					c0.06-0.07,0.1-0.14,0.16-0.21c0.04-0.06,0.09-0.12,0.13-0.18c0.03-0.04,0.06-0.08,0.08-0.12c0.07-0.09,0.14-0.18,0.21-0.27
					c0.02-0.03,0.04-0.06,0.06-0.09c0.14-0.19,0.27-0.37,0.41-0.56c-0.09-0.19-0.2-0.11-0.32-0.01l-0.03,0.03c0,0,0,0-0.01,0
					c-0.38,0.32-0.76,0.64-1.14,0.94c-0.08,0.06-0.2,0.12-0.3,0.12c-3.02-0.07-6.05-0.14-9.11-0.22c-0.39-0.01-0.78-0.02-1.16-0.03
					c0.1-0.08,0.15-0.13,0.21-0.17c0.25-0.15,0.5-0.31,0.75-0.47c0.87-0.55,1.74-1.1,2.62-1.64c0.12-0.08,0.3-0.12,0.45-0.09
					c2.03,0.37,4.06,0.76,6.1,1.13c0.18,0.04,0.4,0,0.57-0.06c0.5-0.18,0.98-0.4,1.49-0.61c0.05,0.08,0.09,0.16,0.13,0.24
					c0.43-0.66,0.77-1.26,0.77-1.26l0.3,0.27l-0.73,1.1l1.05-0.8l0.24,0.23c-0.2,0.11-0.77,0.57-1.31,1.03
					c0.07,0.13,0.14,0.25,0.21,0.38L70.43,48.1z"/>
				<path class="st2" d="M71.99,31.9c0,0.03-0.01,0.05-0.01,0.08c-0.77,0.13-1.54,0.27-2.31,0.4c-0.82,0.14-1.65,0.27-2.47,0.4
					c-0.3,0.05-0.61,0.1-0.91,0.15C65.8,33,65.8,33,65.55,32.5c0.36-0.1,0.71-0.19,1.07-0.28c0.51-0.14,1.03-0.27,1.55-0.41
					c-0.31-0.53-0.61-1.05-0.94-1.62c0.82,0.05,1.6-0.23,2.35,0.27C70.36,30.97,71.18,31.42,71.99,31.9z"/>
				<path class="st2" d="M67.87,31.73c-0.11,0.03-0.21,0.06-0.3,0.09c-0.2,0.07-0.32,0.01-0.44-0.18c-0.5-0.82-1.01-1.63-1.53-2.43
					c-0.06-0.09-0.23-0.18-0.33-0.17c-0.8,0.07-1.6,0.15-2.4,0.24c-0.49,0.05-0.98,0.1-1.47,0.15c-0.64,0.07-1.04-0.19-1.22-0.79
					c0.47-0.04,0.94-0.07,1.41-0.1c0.02,0,0.05,0,0.07,0c1.31-0.09,2.62-0.19,3.93-0.27c0.1-0.01,0.27,0.06,0.32,0.14
					c0.65,1.06,1.28,2.13,1.91,3.2C67.84,31.63,67.85,31.67,67.87,31.73z"/>
				<path class="st2" d="M27.49,65.39c-0.01,0.04-0.03,0.07-0.06,0.11c-0.33,0.5-0.65,1.01-0.97,1.53
					c-0.14,0.22-0.28,0.45-0.43,0.68c-0.13-0.12-0.22-0.21-0.33-0.31c0.15-0.28,0.29-0.57,0.44-0.84c0.19-0.37,0.38-0.72,0.57-1.08
					c0.1-0.18,0.1-0.32,0-0.5c-0.66-1.2-1.31-2.4-1.95-3.6c-0.08-0.14-0.1-0.35-0.07-0.52c0.04-0.24,0.1-0.48,0.17-0.73c0,0,0,0,0,0
					c0.04-0.16,0.09-0.34,0.14-0.52c0.12,0.25,0.21,0.42,0.3,0.61c0.73,1.61,1.45,3.22,2.18,4.82
					C27.52,65.16,27.53,65.27,27.49,65.39z"/>
				<path class="st2" d="M45.73,66.25c-0.07-0.12-0.14-0.22-0.21-0.34c0.54-0.46,1.06-0.91,1.59-1.35c0.14-0.12,0.19-0.24,0.16-0.42
					c-0.17-1.2-0.34-2.4-0.5-3.6c-0.02-0.16,0.02-0.37,0.11-0.51c0.19-0.31,0.43-0.59,0.7-0.96c0.02,0.24,0.04,0.39,0.05,0.54
					c0.1,1.58,0.19,3.15,0.3,4.73c0.02,0.24-0.05,0.39-0.25,0.52c-0.57,0.38-1.11,0.79-1.67,1.19
					C45.93,66.12,45.83,66.17,45.73,66.25z"/>
				<path class="st2" d="M68.39,49.5c-0.53,0.57-1.05,1.12-1.56,1.67c-0.77,0.82-1.55,1.65-2.32,2.48c-0.14,0.15-0.28,0.3-0.41,0.45
					c-0.18,0.18-0.31,0.22-0.48-0.03c0.11-0.13,0.22-0.25,0.33-0.37c1.35-1.48,2.71-2.97,4.09-4.48
					C68.18,49.33,68.28,49.41,68.39,49.5z"/>
				<path class="st2" d="M26.38,65.69c-0.49-0.7-0.93-1.4-1.43-2.05c-0.34-0.44-0.48-0.88-0.32-1.41c0.04-0.13,0.05-0.26,0.09-0.46
					c0.09,0.13,0.15,0.22,0.2,0.3c0.52,0.94,1.03,1.88,1.57,2.8C26.68,65.2,26.57,65.42,26.38,65.69z"/>
				<path class="st2" d="M46.73,64.67c-0.21-0.79-0.4-1.57-0.64-2.33c-0.12-0.39-0.1-0.7,0.16-1.01c0.11-0.14,0.2-0.3,0.34-0.52
					c0.09,0.52,0.16,0.98,0.23,1.43c0.09,0.58,0.15,1.17,0.27,1.75C47.18,64.34,47.03,64.51,46.73,64.67z"/>
				<path class="st2" d="M26.2,66.17c-0.03,0-0.06,0-0.1,0.01c-0.26-0.31-0.53-0.61-0.79-0.92c0,0,0,0,0,0
					c-0.24-0.29-0.48-0.58-0.7-0.88c-0.08-0.11-0.07-0.28-0.05-0.46c0.01-0.11,0.03-0.22,0.03-0.33c0.04,0,0.09-0.01,0.13-0.01
					c0.51,0.71,1.03,1.41,1.52,2.14C26.32,65.81,26.22,66.02,26.2,66.17z"/>
				<path class="st2" d="M45.93,62.28c0.19,0.65,0.37,1.27,0.55,1.88c0.03,0.09,0.04,0.18,0.08,0.26c0.14,0.28,0.07,0.48-0.25,0.59
					c-0.25-0.65-0.51-1.3-0.74-1.96c-0.04-0.11,0.06-0.27,0.12-0.4C45.73,62.53,45.82,62.43,45.93,62.28z"/>
				<path class="st2" d="M26.02,66.39c-0.02,0.1-0.07,0.22-0.09,0.35c-0.38-0.36-0.67-0.68-1-0.94c-0.35-0.28-0.38-0.58-0.19-0.98
					c0.32,0.35,0.64,0.7,0.95,1.05c0,0,0,0,0,0c0.11,0.13,0.22,0.26,0.33,0.39C26.03,66.28,26.03,66.33,26.02,66.39z"/>
				<path class="st2" d="M45.52,63.4c0.24,0.57,0.48,1.14,0.72,1.72c-0.09,0.09-0.18,0.17-0.31,0.3c-0.19-0.37-0.35-0.73-0.56-1.06
					C45.14,64,45.11,63.69,45.52,63.4z"/>
				<path class="st2" d="M25.7,67.28c-0.26-0.23-0.44-0.4-0.63-0.54c-0.28-0.21-0.37-0.46-0.24-0.84c0.33,0.3,0.65,0.57,0.93,0.88
					C25.82,66.85,25.73,67.06,25.7,67.28z"/>
				<path class="st2" d="M45.13,64.27c0.24,0.42,0.46,0.75,0.62,1.1c0.04,0.1-0.08,0.27-0.13,0.41c-0.04,0-0.08,0-0.12,0
					c-0.18-0.31-0.39-0.61-0.53-0.94C44.92,64.71,45.06,64.51,45.13,64.27z"/>
				<g>
					<path class="st2" d="M75.11,43.74c-0.1,0.12-0.24,0.24-0.43,0.35c0,0,0.16,0.01,0.33-0.12c0,0-0.22,0.5-0.69,0.49
						c-0.08,0-0.17-0.01-0.25-0.02c-0.26-0.03-0.55-0.1-0.72-0.15c-0.12-0.03-0.21-0.1-0.27-0.2c-0.14-0.24-0.38-0.69-0.44-1.07
						c-0.02-0.11,0.02-0.23,0.1-0.31c0.12-0.12,0.29-0.31,0.38-0.47c0.1-0.2,0.13-0.25,0.13-0.26c0,0,0,0,0,0l0,0c0,0,0,0,0,0.01
						c0,0.09-0.03,0.95,0.25,1.4c0.14,0.23,0.24,0.24,0.31,0.18l0.02-0.02c0.06-0.07,0.08-0.18,0.04-0.27
						c-0.12-0.29-0.45-1.13-0.3-1.44c0.19-0.38,0.54-0.74,1.58-0.71C75.19,41.22,75.89,42.81,75.11,43.74z"/>
					<path class="st2" d="M74.98,45.06l-0.22,0.08l-0.39,0.15l-0.07,0.03l-0.06,0.02l-0.82,0.3l-0.14,0.05l0.14,0.13l-0.15,0.17
						l-0.84-0.76l-1.24-1.13l0.24-0.26l0.21,0.19l0.17-0.79l0.02-0.09L71.86,43l0.09-0.41l0.06-0.23l0.37,0.33
						c-0.06,0.25-0.06,0.52,0,0.78c0.02,0.09,0.05,0.18,0.09,0.26c0.05,0.12,0.12,0.24,0.2,0.34c0.06,0.12,0.14,0.21,0.23,0.29
						c0.07,0.06,0.15,0.11,0.23,0.15c0.03,0.02,0.06,0.04,0.09,0.06c0.11,0.07,0.23,0.12,0.35,0.16c0.09,0.03,0.18,0.05,0.27,0.06
						c0.11,0.02,0.22,0.02,0.33,0.02c0.15,0,0.3-0.04,0.45-0.09L74.98,45.06z"/>
					<polygon class="st2" points="71.93,46.43 71.9,46.45 72.03,46.57 71.95,46.66 70.81,45.63 70.92,45.51 71.02,45.6 71.38,44.61 
						71.77,44.97 71.29,45.87 71.58,46.13 72.43,45.57 72.55,45.68 72.84,45.94 72.64,46.05 					"/>
				</g>
			</g>
			<g>
				<g>
					<path class="st2" d="M92.89,48.71h13.05v-4.24H88.29v15.2h19v-4.26H92.89V48.71z M88.29,33.98v4.24h19v-4.24H88.29z"/>
					<path class="st2" d="M126.05,50.54c3.64-1.16,6.1-4.15,6.1-8.05c0-5.01-4.04-8.53-9.45-8.53h-10.99v7.51h4.59v-3.21h5.88
						c3.12,0,5.29,1.61,5.29,4.23c0,2.62-2.17,4.23-5.29,4.23h-2.79v0.01h-7.69v12.95h4.59v-8.65h4.89l5.95,8.65h5.22L126.05,50.54z
						"/>
					<path class="st2" d="M157.88,33.98l-8.34,15.67l-8.31-15.67h-4.59v25.69h4.59V42.51l8.31,15.67l8.34-15.67v17.17h4.56V33.98
						H157.88z"/>
					<path class="st2" d="M168.1,33.97v25.7h4.56v-25.7H168.1z"/>
					<path class="st2" d="M187.99,44.89c-4.01-0.92-5.88-1.65-5.88-3.71c0-1.76,1.73-3.31,4.26-3.31c2.5,0,5.04,1.07,7.24,2.98
						l2.5-3.38c-2.54-2.17-5.55-3.53-9.56-3.53c-5.33,0-9.08,3.24-9.08,7.65c0,4.74,3.64,6.25,8.86,7.46
						c4.04,0.96,5.84,1.65,5.84,3.75c0,1.8-1.62,3.34-4.74,3.34c-3.31,0-5.99-1.32-8.31-3.42l-2.65,3.27
						c2.79,2.61,6.47,4.08,10.81,4.08c6.03,0,9.48-3.2,9.48-7.72C196.77,47.76,193.24,46.07,187.99,44.89z"/>
				</g>
				<g>
					<path class="st2" d="M88.34,64.75c0-1.49,1.22-2.75,2.67-2.75c0.75,0,1.43,0.33,1.91,0.86l-0.66,0.64
						c-0.31-0.38-0.77-0.62-1.26-0.62c-0.94,0-1.73,0.85-1.73,1.87c0,1.02,0.79,1.87,1.73,1.87c0.5,0,0.95-0.24,1.26-0.62l0.65,0.63
						c-0.49,0.53-1.17,0.87-1.91,0.87C89.56,67.5,88.34,66.24,88.34,64.75z"/>
					<path class="st2" d="M93.46,65.41c0-1.14,0.94-2.09,2.05-2.09s2.04,0.95,2.04,2.09s-0.94,2.1-2.04,2.1S93.46,66.54,93.46,65.41
						z M96.67,65.41c0-0.7-0.53-1.28-1.16-1.28c-0.63,0-1.17,0.59-1.17,1.28c0,0.7,0.53,1.29,1.17,1.29
						C96.14,66.7,96.67,66.11,96.67,65.41z"/>
					<path class="st2" d="M101.9,64.86v2.55h-0.87v-2.36c0-0.54-0.33-0.93-0.8-0.93s-0.86,0.33-0.92,0.76v2.53h-0.9v-4h0.9v0.53
						c0.24-0.37,0.68-0.63,1.18-0.63C101.32,63.32,101.9,63.96,101.9,64.86z"/>
					<path class="st2" d="M102.68,66.9l0.41-0.66c0.37,0.28,0.8,0.46,1.28,0.46c0.36,0,0.61-0.16,0.61-0.41
						c0-0.31-0.33-0.41-0.77-0.53c-0.83-0.22-1.35-0.47-1.36-1.18c0-0.75,0.59-1.26,1.44-1.26c0.52,0,1.05,0.19,1.46,0.48
						l-0.38,0.69c-0.36-0.24-0.75-0.36-1.09-0.36c-0.32,0-0.56,0.13-0.56,0.36c0,0.26,0.2,0.33,0.78,0.51
						c0.64,0.19,1.34,0.42,1.34,1.25c0,0.77-0.61,1.26-1.5,1.26C103.76,67.5,103.13,67.29,102.68,66.9z"/>
					<path class="st2" d="M110.17,63.41v4h-0.9v-0.53c-0.24,0.37-0.68,0.63-1.18,0.63c-0.83,0-1.42-0.64-1.42-1.55v-2.54h0.87v2.36
						c0,0.54,0.33,0.93,0.8,0.93s0.86-0.33,0.92-0.76v-2.53H110.17z"/>
					<path class="st2" d="M111.22,62h0.9v5.41h-0.9V62z"/>
					<path class="st2" d="M115.35,67.19c-0.21,0.19-0.53,0.32-0.81,0.32c-0.64,0-1.08-0.48-1.08-1.15v-2.16h-0.55v-0.78h0.55v-1.1
						h0.88v1.1h0.86v0.78h-0.86v2.04c0,0.27,0.16,0.46,0.38,0.46c0.16,0,0.3-0.06,0.38-0.15L115.35,67.19z"/>
					<path class="st2" d="M119.41,65v2.41h-0.88v-0.48c-0.28,0.37-0.76,0.57-1.2,0.57c-0.81,0-1.42-0.5-1.42-1.28
						c0-0.79,0.7-1.33,1.56-1.33c0.35,0,0.72,0.08,1.07,0.22V65c0-0.46-0.24-0.91-0.94-0.91c-0.36,0-0.71,0.13-1.03,0.3l-0.31-0.66
						c0.54-0.28,1.04-0.42,1.52-0.42C118.78,63.32,119.41,63.99,119.41,65z M118.53,66.16v-0.45c-0.28-0.1-0.6-0.15-0.94-0.15
						c-0.45,0-0.81,0.26-0.81,0.64s0.32,0.62,0.75,0.62C117.96,66.81,118.43,66.58,118.53,66.16z"/>
					<path class="st2" d="M123.94,64.86v2.55h-0.87v-2.36c0-0.54-0.33-0.93-0.8-0.93s-0.86,0.33-0.92,0.76v2.53h-0.9v-4h0.9v0.53
						c0.24-0.37,0.68-0.63,1.18-0.63C123.36,63.32,123.94,63.96,123.94,64.86z"/>
					<path class="st2" d="M127.14,67.19c-0.21,0.19-0.52,0.32-0.81,0.32c-0.63,0-1.08-0.48-1.08-1.15v-2.16h-0.55v-0.78h0.55v-1.1
						h0.88v1.1H127v0.78h-0.86v2.04c0,0.27,0.16,0.46,0.38,0.46c0.16,0,0.29-0.06,0.38-0.15L127.14,67.19z"/>
					<path class="st2" d="M127.65,66.9l0.41-0.66c0.37,0.28,0.8,0.46,1.28,0.46c0.36,0,0.61-0.16,0.61-0.41
						c0-0.31-0.33-0.41-0.77-0.53c-0.83-0.22-1.35-0.47-1.36-1.18c0-0.75,0.59-1.26,1.44-1.26c0.52,0,1.05,0.19,1.46,0.48
						l-0.38,0.69c-0.36-0.24-0.75-0.36-1.09-0.36c-0.32,0-0.56,0.13-0.56,0.36c0,0.26,0.2,0.33,0.78,0.51
						c0.64,0.19,1.34,0.42,1.34,1.25c0,0.77-0.61,1.26-1.5,1.26C128.73,67.5,128.1,67.29,127.65,66.9z"/>
					<path class="st2" d="M137.3,67.51l-0.58-0.63c-0.42,0.39-0.91,0.62-1.5,0.62c-0.96,0-1.67-0.57-1.67-1.53
						c0-0.69,0.34-1.14,1.12-1.52c-0.28-0.41-0.38-0.71-0.38-1.11c0-0.73,0.6-1.32,1.39-1.32c0.78,0,1.35,0.57,1.35,1.31
						c0,0.62-0.41,0.95-1.17,1.32c0.26,0.32,0.54,0.64,0.9,1.04c0.2-0.31,0.38-0.67,0.52-1.04l0.69,0.34
						c-0.22,0.47-0.45,0.9-0.7,1.26c0.24,0.26,0.51,0.56,0.81,0.89L137.3,67.51z M136.23,66.34c-0.5-0.55-0.86-0.97-1.14-1.32
						c-0.42,0.24-0.64,0.53-0.64,0.91c0,0.52,0.4,0.83,0.87,0.83C135.64,66.75,135.94,66.6,136.23,66.34z M135.09,63.35
						c0,0.26,0.11,0.5,0.35,0.8c0.56-0.24,0.79-0.42,0.79-0.8c0-0.35-0.23-0.61-0.54-0.61C135.35,62.74,135.09,62.98,135.09,63.35z"
						/>
					<path class="st2" d="M142.41,62.98h-1.62v-0.88h4.17v0.88h-1.62v4.43h-0.92V62.98z"/>
					<path class="st2" d="M148.06,63.32v0.8c-0.82,0-1.37,0.51-1.37,1.27v2.02h-0.9v-4h0.9v0.77
						C146.93,63.65,147.43,63.32,148.06,63.32z"/>
					<path class="st2" d="M152.08,65v2.41h-0.88v-0.48c-0.28,0.37-0.76,0.57-1.2,0.57c-0.81,0-1.42-0.5-1.42-1.28
						c0-0.79,0.7-1.33,1.56-1.33c0.35,0,0.72,0.08,1.07,0.22V65c0-0.46-0.24-0.91-0.94-0.91c-0.36,0-0.71,0.13-1.03,0.3l-0.31-0.66
						c0.54-0.28,1.04-0.42,1.52-0.42C151.46,63.32,152.08,63.99,152.08,65z M151.2,66.16v-0.45c-0.28-0.1-0.6-0.15-0.94-0.15
						c-0.45,0-0.81,0.26-0.81,0.64s0.32,0.62,0.75,0.62C150.64,66.81,151.1,66.58,151.2,66.16z"/>
					<path class="st2" d="M156.92,62v5.41h-0.9v-0.62c-0.3,0.45-0.76,0.71-1.32,0.71c-1.01,0-1.75-0.87-1.75-2.1
						c0-1.22,0.74-2.09,1.75-2.09c0.56,0,1.02,0.26,1.32,0.71V62H156.92z M156.02,65.41c0-0.75-0.44-1.28-1.08-1.28
						c-0.64,0-1.1,0.53-1.1,1.28s0.46,1.29,1.1,1.29C155.58,66.7,156.02,66.16,156.02,65.41z"/>
					<path class="st2" d="M160.76,66.26l0.57,0.62c-0.33,0.37-1,0.62-1.55,0.62c-1.09,0-1.99-0.87-1.99-2.1
						c0-1.2,0.86-2.08,1.94-2.08c1.18,0,1.87,0.94,1.87,2.41h-2.88c0.11,0.55,0.51,0.94,1.06,0.94
						C160.13,66.67,160.55,66.5,160.76,66.26z M158.73,65.01h2.01c-0.1-0.5-0.43-0.86-0.97-0.86
						C159.27,64.15,158.86,64.49,158.73,65.01z"/>
					<path class="st2" d="M164.73,63.32v0.8c-0.82,0-1.37,0.51-1.37,1.27v2.02h-0.9v-4h0.9v0.77
						C163.61,63.65,164.1,63.32,164.73,63.32z"/>
					<path class="st2" d="M165.2,66.9l0.41-0.66c0.37,0.28,0.8,0.46,1.28,0.46c0.36,0,0.61-0.16,0.61-0.41
						c0-0.31-0.33-0.41-0.77-0.53c-0.83-0.22-1.35-0.47-1.36-1.18c0-0.75,0.59-1.26,1.44-1.26c0.52,0,1.05,0.19,1.46,0.48
						l-0.38,0.69c-0.36-0.24-0.75-0.36-1.09-0.36c-0.32,0-0.56,0.13-0.56,0.36c0,0.26,0.2,0.33,0.78,0.51
						c0.64,0.19,1.34,0.42,1.34,1.25c0,0.77-0.61,1.26-1.5,1.26C166.28,67.5,165.66,67.29,165.2,66.9z"/>
					<path class="st2" d="M171.39,62.09h2.21c1.09,0,1.9,0.73,1.9,1.76c0,1.04-0.81,1.76-1.9,1.76h-1.29v1.79h-0.92V62.09z
						 M173.49,64.73c0.63,0,1.06-0.33,1.06-0.87c0-0.54-0.44-0.88-1.06-0.88h-1.18v1.75H173.49z"/>
					<path class="st2" d="M175.89,63.41h0.95l1.11,2.91l1.09-2.91h0.96l-1.62,4h-0.85L175.89,63.41z"/>
					<path class="st2" d="M182.85,67.19c-0.21,0.19-0.52,0.32-0.81,0.32c-0.63,0-1.08-0.48-1.08-1.15v-2.16h-0.55v-0.78h0.55v-1.1
						h0.88v1.1h0.86v0.78h-0.86v2.04c0,0.27,0.16,0.46,0.38,0.46c0.16,0,0.29-0.06,0.38-0.15L182.85,67.19z"/>
					<path class="st2" d="M189.27,66.53v0.88h-3.52v-5.32h0.92v4.43H189.27z"/>
					<path class="st2" d="M192.21,67.19c-0.21,0.19-0.52,0.32-0.81,0.32c-0.63,0-1.08-0.48-1.08-1.15v-2.16h-0.55v-0.78h0.55v-1.1
						h0.88v1.1h0.86v0.78h-0.86v2.04c0,0.27,0.16,0.46,0.38,0.46c0.16,0,0.3-0.06,0.38-0.15L192.21,67.19z"/>
					<path class="st2" d="M196.77,62v5.41h-0.9v-0.62c-0.3,0.45-0.76,0.71-1.32,0.71c-1.01,0-1.75-0.87-1.75-2.1
						c0-1.22,0.74-2.09,1.75-2.09c0.56,0,1.02,0.26,1.32,0.71V62H196.77z M195.87,65.41c0-0.75-0.44-1.28-1.08-1.28
						c-0.64,0-1.1,0.53-1.1,1.28s0.46,1.29,1.1,1.29C195.43,66.7,195.87,66.16,195.87,65.41z"/>
				</g>
			</g>
		</g>
	</g>
</g>
</svg>
